<svg width="34" height="34" viewBox="0 0 34 34" fill="none" xmlns="http://www.w3.org/2000/svg">
<circle opacity="0.1" cx="17" cy="17" r="17" fill="#488FE0"/>
<g clip-path="url(#clip0_2058_1713)">
<path d="M25.2774 19.2222H14.0809L14.3309 20.4444H24.5829C25.1712 20.4444 25.6072 20.9907 25.4768 21.5643L25.2661 22.4915C25.98 22.838 26.4722 23.5698 26.4722 24.4167C26.4722 25.6084 25.4975 26.5725 24.3019 26.5553C23.1628 26.5389 22.226 25.6146 22.1952 24.4758C22.1784 23.8537 22.4277 23.2899 22.837 22.8889H14.8296C15.226 23.2771 15.4722 23.818 15.4722 24.4167C15.4722 25.6317 14.459 26.6102 13.2314 26.5532C12.1413 26.5026 11.2548 25.6218 11.1975 24.5321C11.1532 23.6905 11.5961 22.9487 12.2689 22.5618L9.58581 9.44444H6.91667C6.4104 9.44444 6 9.03405 6 8.52778V7.91667C6 7.4104 6.4104 7 6.91667 7H10.8327C11.2682 7 11.6435 7.30636 11.7308 7.73295L12.0809 9.44444H27.083C27.6712 9.44444 28.1072 9.99066 27.9768 10.5643L26.1712 18.5087C26.0764 18.9261 25.7054 19.2222 25.2774 19.2222ZM21.3935 14.3333H19.75V12.0417C19.75 11.7886 19.5448 11.5833 19.2917 11.5833H18.375C18.1219 11.5833 17.9167 11.7886 17.9167 12.0417V14.3333H16.2732C15.8649 14.3333 15.6604 14.827 15.9491 15.1157L18.5093 17.6759C18.6882 17.8549 18.9784 17.8549 19.1575 17.6759L21.7176 15.1157C22.0063 14.827 21.8018 14.3333 21.3935 14.3333Z" fill="#488FE0"/>
</g>
<defs>
<clipPath id="clip0_2058_1713">
<rect width="22" height="19.5556" fill="white" transform="translate(6 7)"/>
</clipPath>
</defs>
</svg>
