<svg width="34" height="34" viewBox="0 0 34 34" fill="none" xmlns="http://www.w3.org/2000/svg">
<circle opacity="0.1" cx="17" cy="17" r="17" fill="#488FE0"/>
<path d="M18.8332 17.9165C18.0693 17.9165 17.42 17.6491 16.8853 17.1144C16.3505 16.5797 16.0832 15.9304 16.0832 15.1665C16.0832 14.4026 16.3505 13.7533 16.8853 13.2186C17.42 12.6839 18.0693 12.4165 18.8332 12.4165C19.5971 12.4165 20.2464 12.6839 20.7811 13.2186C21.3158 13.7533 21.5832 14.4026 21.5832 15.1665C21.5832 15.9304 21.3158 16.5797 20.7811 17.1144C20.2464 17.6491 19.5971 17.9165 18.8332 17.9165ZM12.4165 20.6665C11.9123 20.6665 11.4809 20.4868 11.1222 20.1275C10.7628 19.7688 10.5832 19.3373 10.5832 18.8332V11.4998C10.5832 10.9957 10.7628 10.5642 11.1222 10.2055C11.4809 9.84617 11.9123 9.6665 12.4165 9.6665H25.2498C25.754 9.6665 26.1858 9.84617 26.5451 10.2055C26.9038 10.5642 27.0832 10.9957 27.0832 11.4998V18.8332C27.0832 19.3373 26.9038 19.7688 26.5451 20.1275C26.1858 20.4868 25.754 20.6665 25.2498 20.6665H12.4165ZM14.2498 18.8332H23.4165C23.4165 18.329 23.5959 17.8973 23.9546 17.5379C24.3139 17.1792 24.7457 16.9998 25.2498 16.9998V13.3332C24.7457 13.3332 24.3139 13.1535 23.9546 12.7942C23.5959 12.4354 23.4165 12.004 23.4165 11.4998H14.2498C14.2498 12.004 14.0702 12.4354 13.7108 12.7942C13.3521 13.1535 12.9207 13.3332 12.4165 13.3332V16.9998C12.9207 16.9998 13.3521 17.1792 13.7108 17.5379C14.0702 17.8973 14.2498 18.329 14.2498 18.8332ZM24.3332 24.3332H8.74984C8.24567 24.3332 7.81423 24.1538 7.4555 23.7951C7.09617 23.4358 6.9165 23.004 6.9165 22.4998V12.4165H8.74984V22.4998H24.3332V24.3332ZM12.4165 18.8332V11.4998V18.8332Z" fill="#488FE0"/>
</svg>
