<svg width="28" height="28" viewBox="0 0 28 28" fill="none" xmlns="http://www.w3.org/2000/svg">
<circle opacity="0.1" cx="14" cy="14" r="14" fill="#BDBDBD"/>
<path d="M17.7268 11.9798L14.7183 7.47391C14.654 7.38293 14.5685 7.30907 14.4691 7.25878C14.3697 7.2085 14.2595 7.18331 14.1482 7.18543C13.9284 7.18543 13.7086 7.28159 13.5781 7.48078L10.5695 11.9798H7.27941C6.90162 11.9798 6.59253 12.2889 6.59253 12.6667C6.59253 12.7285 6.5994 12.7903 6.62 12.8522L8.36467 19.2195C8.52265 19.7965 9.05155 20.2223 9.68347 20.2223H18.6129C19.2448 20.2223 19.7737 19.7965 19.9385 19.2195L21.6832 12.8522L21.7038 12.6667C21.7038 12.2889 21.3947 11.9798 21.0169 11.9798H17.7268ZM12.0875 11.9798L14.1482 8.95757L16.2088 11.9798H12.0875ZM14.1482 17.4748C13.3926 17.4748 12.7744 16.8566 12.7744 16.1011C12.7744 15.3455 13.3926 14.7273 14.1482 14.7273C14.9037 14.7273 15.5219 15.3455 15.5219 16.1011C15.5219 16.8566 14.9037 17.4748 14.1482 17.4748Z" fill="#BDBDBD"/>
</svg>
