<svg width="28" height="28" viewBox="0 0 28 28" fill="none" xmlns="http://www.w3.org/2000/svg">
<circle opacity="0.1" cx="14" cy="14" r="14" fill="#BDBDBD"/>
<path d="M17.7269 11.9798L14.7183 7.47391C14.6541 7.38293 14.5685 7.30907 14.4692 7.25878C14.3698 7.2085 14.2596 7.18331 14.1482 7.18543C13.9284 7.18543 13.7086 7.28159 13.5781 7.48078L10.5696 11.9798H7.27947C6.90168 11.9798 6.59259 12.2889 6.59259 12.6667C6.59259 12.7285 6.59946 12.7903 6.62007 12.8522L8.36473 19.2195C8.52271 19.7965 9.05161 20.2223 9.68353 20.2223H18.6129C19.2449 20.2223 19.7737 19.7965 19.9386 19.2195L21.6833 12.8522L21.7039 12.6667C21.7039 12.2889 21.3948 11.9798 21.017 11.9798H17.7269ZM12.0876 11.9798L14.1482 8.95757L16.2089 11.9798H12.0876ZM14.1482 17.4748C13.3927 17.4748 12.7745 16.8566 12.7745 16.1011C12.7745 15.3455 13.3927 14.7273 14.1482 14.7273C14.9038 14.7273 15.522 15.3455 15.522 16.1011C15.522 16.8566 14.9038 17.4748 14.1482 17.4748Z" fill="#BDBDBD"/>
</svg>
