<svg width="17" height="15" viewBox="0 0 17 15" fill="none" xmlns="http://www.w3.org/2000/svg">
<path d="M1.82143 0C1.33836 0 0.875068 0.252856 0.533484 0.702944C0.1919 1.15303 0 1.76348 0 2.4V4C0 4.63652 0.1919 5.24697 0.533484 5.69706C0.875068 6.14714 1.33836 6.4 1.82143 6.4H15.1786C15.6616 6.4 16.1249 6.14714 16.4665 5.69706C16.8081 5.24697 17 4.63652 17 4V2.4C17 1.76348 16.8081 1.15303 16.4665 0.702944C16.1249 0.252856 15.6616 0 15.1786 0H1.82143ZM1.82143 8.6C1.33836 8.6 0.875068 8.85286 0.533484 9.30294C0.1919 9.75303 0 10.3635 0 11V12.6C0 13.2365 0.1919 13.847 0.533484 14.2971C0.875068 14.7471 1.33836 15 1.82143 15H15.1786C15.6616 15 16.1249 14.7471 16.4665 14.2971C16.8081 13.847 17 13.2365 17 12.6V11C17 10.3635 16.8081 9.75303 16.4665 9.30294C16.1249 8.85286 15.6616 8.6 15.1786 8.6H1.82143Z" fill="#488FE0"/>
</svg>
