<svg width="210" height="98" viewBox="0 0 210 98" fill="none" xmlns="http://www.w3.org/2000/svg">
<g filter="url(#filter0_d_513_3462)">
<rect x="15.2809" y="46.45" width="158.95" height="5.1" fill="white"/>
<rect x="15.2809" y="46.45" width="54.4" height="5.1" fill="#8EF50C"/>
<circle cx="70.5309" cy="49" r="34" fill="#8EF50C"/>
<circle cx="174.858" cy="48.5474" r="19.975" fill="white"/>
<path d="M108.209 50.6935C108.967 50.0175 108.967 48.8325 108.209 48.1566L105.45 45.6947C104.355 44.7171 102.618 45.4948 102.618 46.9632V51.8869C102.618 53.3552 104.355 54.1329 105.45 53.1553L108.209 50.6935Z" fill="#8EF50C"/>
<path d="M151.853 50.6935C151.095 50.0175 151.095 48.8325 151.853 48.1566L154.612 45.6947C155.707 44.7171 157.443 45.4948 157.443 46.9632V51.8869C157.443 53.3552 155.707 54.1329 154.612 53.1553L151.853 50.6935Z" fill="white"/>
<path d="M33.7025 50.6935C32.9449 50.0175 32.9449 48.8325 33.7025 48.1566L36.4616 45.6947C37.5572 44.7171 39.2934 45.4948 39.2934 46.9632V51.8869C39.2934 53.3552 37.5572 54.1329 36.4616 53.1553L33.7025 50.6935Z" fill="#8EF50C"/>
<path d="M168.243 47.2975H169.399V39.8843H168.248L166.296 41.2714V42.4016L168.161 41.0711H168.243V47.2975ZM171.495 47.2975H176.499V46.3112H172.779L173.072 46.5115V45.9927L172.774 46.5115L174.644 44.6467C175.093 44.2014 175.442 43.8213 175.692 43.5062C175.946 43.1911 176.124 42.9017 176.226 42.638C176.329 42.3742 176.381 42.102 176.381 41.8211V41.8057C176.381 41.3981 176.276 41.0368 176.067 40.7217C175.858 40.4032 175.572 40.1549 175.209 39.9768C174.85 39.7953 174.44 39.7045 173.981 39.7045C173.485 39.7045 173.045 39.8038 172.661 40.0025C172.277 40.1977 171.978 40.47 171.762 40.8193C171.546 41.1652 171.437 41.5642 171.433 42.0163L171.438 42.0266L172.527 42.0317V42.0112C172.527 41.7406 172.586 41.5043 172.702 41.3022C172.819 41.1002 172.981 40.9426 173.19 40.8296C173.399 40.7166 173.641 40.6601 173.915 40.6601C174.185 40.6601 174.418 40.7149 174.613 40.8245C174.808 40.9306 174.957 41.0796 175.06 41.2714C175.166 41.4598 175.219 41.6756 175.219 41.9187V41.929C175.219 42.1311 175.182 42.3194 175.106 42.4941C175.035 42.6688 174.908 42.8674 174.726 43.09C174.545 43.3092 174.29 43.5901 173.961 43.9326L171.495 46.5115V47.2975ZM180.573 47.4774C181.097 47.4774 181.557 47.3695 181.955 47.1537C182.355 46.9345 182.669 46.6314 182.895 46.2444C183.124 45.8574 183.239 45.4121 183.239 44.9087V44.8984C183.239 44.4223 183.136 43.9994 182.931 43.6295C182.725 43.2596 182.443 42.9685 182.083 42.7561C181.727 42.5438 181.316 42.4376 180.85 42.4376C180.508 42.4376 180.198 42.5061 179.92 42.6431C179.643 42.7801 179.425 42.9736 179.268 43.2236H179.186L179.412 40.8604H182.818V39.8843H178.502L178.132 44.1894H179.129C179.174 44.1038 179.225 44.0268 179.283 43.9583C179.341 43.8863 179.403 43.8195 179.468 43.7579C179.615 43.6243 179.783 43.525 179.972 43.4599C180.163 43.3914 180.371 43.3572 180.593 43.3572C180.895 43.3572 181.16 43.424 181.389 43.5575C181.619 43.6877 181.8 43.8709 181.934 44.1072C182.068 44.3436 182.134 44.6141 182.134 44.9189V44.9292C182.134 45.2375 182.068 45.5097 181.934 45.7461C181.804 45.9824 181.622 46.169 181.389 46.306C181.157 46.4396 180.888 46.5064 180.583 46.5064C180.316 46.5064 180.074 46.455 179.859 46.3523C179.643 46.2495 179.468 46.1091 179.334 45.931C179.204 45.7529 179.122 45.556 179.088 45.3402L179.083 45.2991H177.999L178.004 45.3659C178.042 45.7632 178.172 46.1228 178.394 46.4447C178.617 46.7633 178.915 47.015 179.288 47.1999C179.662 47.3849 180.09 47.4774 180.573 47.4774ZM171.234 58.2975H172.163V51.8245H171.234V58.2975ZM174.162 58.2975H175.297L173.182 55.5405L172.492 56.1184L174.162 58.2975ZM172.073 56.7007L172.711 56.0671L173.07 55.7717L175.168 53.6482H174.076L172.236 55.6047H172.034L172.073 56.7007ZM176.14 58.2975H177.069V55.5191C177.069 55.2936 177.119 55.0995 177.219 54.9369C177.322 54.7713 177.461 54.6429 177.638 54.5515C177.818 54.4602 178.026 54.4146 178.263 54.4146C178.352 54.4146 178.436 54.4188 178.516 54.4274C178.599 54.436 178.681 54.4488 178.764 54.4659V53.6097C178.719 53.5983 178.659 53.5883 178.584 53.5797C178.51 53.5712 178.435 53.5669 178.358 53.5669C178.049 53.5669 177.79 53.6354 177.578 53.7724C177.37 53.9094 177.224 54.102 177.142 54.3503H177.069V53.6482H176.14V58.2975Z" fill="#424242"/>
<path d="M54.4155 48.7916H56.9623L62.8131 37.1657V35.1302H53.2984V37.1278H60.3611V37.2604L54.4155 48.7916ZM69.9799 49.1135C71.0718 49.1135 72.0059 48.8232 72.7823 48.2425C73.5649 47.6619 74.1645 46.8382 74.5811 45.7715C75.0039 44.6986 75.2154 43.4299 75.2154 41.9656V41.9467C75.2154 40.4824 75.0039 39.217 74.5811 38.1503C74.1645 37.0836 73.5649 36.26 72.7823 35.6793C72.0059 35.0986 71.0718 34.8083 69.9799 34.8083C68.8943 34.8083 67.9602 35.0986 67.1776 35.6793C66.4012 36.26 65.8016 37.0836 65.3788 38.1503C64.9622 39.217 64.7539 40.4824 64.7539 41.9467V41.9656C64.7539 43.4299 64.9622 44.6986 65.3788 45.7715C65.8016 46.8382 66.4012 47.6619 67.1776 48.2425C67.9602 48.8232 68.8943 49.1135 69.9799 49.1135ZM69.9799 47.1348C69.3992 47.1348 68.9006 46.9297 68.4841 46.5195C68.0738 46.1029 67.7582 45.5096 67.5373 44.7396C67.3227 43.9633 67.2154 43.0386 67.2154 41.9656V41.9467C67.2154 40.8737 67.3227 39.9523 67.5373 39.1822C67.7582 38.4122 68.0738 37.8221 68.4841 37.4118C68.9006 36.9953 69.3992 36.787 69.9799 36.787C70.5669 36.787 71.0655 36.9953 71.4758 37.4118C71.8923 37.8221 72.2079 38.4122 72.4225 39.1822C72.6434 39.9523 72.7539 40.8737 72.7539 41.9467V41.9656C72.7539 43.0386 72.6434 43.9633 72.4225 44.7396C72.2079 45.5096 71.8923 46.1029 71.4758 46.5195C71.0655 46.9297 70.5669 47.1348 69.9799 47.1348ZM82.7987 49.1135C83.8906 49.1135 84.8248 48.8232 85.6011 48.2425C86.3837 47.6619 86.9833 46.8382 87.3999 45.7715C87.8228 44.6986 88.0342 43.4299 88.0342 41.9656V41.9467C88.0342 40.4824 87.8228 39.217 87.3999 38.1503C86.9833 37.0836 86.3837 36.26 85.6011 35.6793C84.8248 35.0986 83.8906 34.8083 82.7987 34.8083C81.7131 34.8083 80.779 35.0986 79.9964 35.6793C79.2201 36.26 78.6205 37.0836 78.1976 38.1503C77.781 39.217 77.5727 40.4824 77.5727 41.9467V41.9656C77.5727 43.4299 77.781 44.6986 78.1976 45.7715C78.6205 46.8382 79.2201 47.6619 79.9964 48.2425C80.779 48.8232 81.7131 49.1135 82.7987 49.1135ZM82.7987 47.1348C82.2181 47.1348 81.7195 46.9297 81.3029 46.5195C80.8926 46.1029 80.5771 45.5096 80.3562 44.7396C80.1416 43.9633 80.0343 43.0386 80.0343 41.9656V41.9467C80.0343 40.8737 80.1416 39.9523 80.3562 39.1822C80.5771 38.4122 80.8926 37.8221 81.3029 37.4118C81.7195 36.9953 82.2181 36.787 82.7987 36.787C83.3857 36.787 83.8843 36.9953 84.2946 37.4118C84.7112 37.8221 85.0267 38.4122 85.2413 39.1822C85.4622 39.9523 85.5727 40.8737 85.5727 41.9467V41.9656C85.5727 43.0386 85.4622 43.9633 85.2413 44.7396C85.0267 45.5096 84.7112 46.1029 84.2946 46.5195C83.8843 46.9297 83.3857 47.1348 82.7987 47.1348ZM57.6155 59.4579H59.7457C60.1938 59.4579 60.5867 59.3648 60.9244 59.1786C61.2652 58.9893 61.5319 58.7258 61.7244 58.3881C61.9169 58.0473 62.0131 57.6544 62.0131 57.2094V57.1999C62.0131 56.755 61.9169 56.3652 61.7244 56.0307C61.5319 55.6931 61.2652 55.4311 60.9244 55.2449C60.5867 55.0556 60.1938 54.9609 59.7457 54.9609H57.6155V55.8556H59.4806C59.9413 55.8556 60.2979 55.9739 60.5504 56.2106C60.806 56.4473 60.9338 56.7802 60.9338 57.2094V57.2189C60.9338 57.6418 60.806 57.9731 60.5504 58.213C60.2979 58.4496 59.9413 58.568 59.4806 58.568H57.6155V59.4579ZM57.0853 61.7916H58.1457V54.9609H57.0853V61.7916ZM65.2983 61.891C65.8032 61.891 66.2356 61.7837 66.5953 61.5691C66.9582 61.3545 67.2375 61.0484 67.4332 60.6508C67.632 60.25 67.7314 59.7751 67.7314 59.226V59.2165C67.7314 58.6642 67.632 58.1893 67.4332 57.7917C67.2375 57.3909 66.9582 57.0848 66.5953 56.8733C66.2324 56.6587 65.8001 56.5514 65.2983 56.5514C64.7997 56.5514 64.3673 56.6587 64.0013 56.8733C63.6383 57.0879 63.3575 57.394 63.1587 57.7917C62.963 58.1893 62.8652 58.6642 62.8652 59.2165V59.226C62.8652 59.7751 62.963 60.25 63.1587 60.6508C63.3543 61.0484 63.6336 61.3545 63.9965 61.5691C64.3626 61.7837 64.7965 61.891 65.2983 61.891ZM65.2983 61.0295C65.0048 61.0295 64.7555 60.9585 64.5504 60.8165C64.3452 60.6713 64.1875 60.4646 64.077 60.1964C63.9697 59.9281 63.9161 59.6047 63.9161 59.226V59.2165C63.9161 58.8346 63.9697 58.5096 64.077 58.2414C64.1875 57.9731 64.3452 57.768 64.5504 57.626C64.7555 57.4808 65.0048 57.4082 65.2983 57.4082C65.5918 57.4082 65.8411 57.4808 66.0462 57.626C66.2513 57.768 66.4076 57.9731 66.5149 58.2414C66.6222 58.5096 66.6758 58.8346 66.6758 59.2165V59.226C66.6758 59.6047 66.6222 59.9281 66.5149 60.1964C66.4076 60.4646 66.2513 60.6713 66.0462 60.8165C65.8411 60.9585 65.5918 61.0295 65.2983 61.0295ZM68.9669 61.7916H69.9988V56.6508H68.9669V61.7916ZM69.4876 55.7325C69.6643 55.7325 69.8158 55.6694 69.942 55.5432C70.0683 55.4169 70.1314 55.2654 70.1314 55.0887C70.1314 54.912 70.0683 54.7621 69.942 54.639C69.8158 54.5128 69.6643 54.4497 69.4876 54.4497C69.3109 54.4497 69.1594 54.5128 69.0332 54.639C68.9069 54.7621 68.8438 54.912 68.8438 55.0887C68.8438 55.2654 68.9069 55.4169 69.0332 55.5432C69.1594 55.6694 69.3109 55.7325 69.4876 55.7325ZM71.49 61.7916H72.5172V58.7763C72.5172 58.4986 72.5661 58.2603 72.6639 58.0615C72.7649 57.8595 72.9069 57.7049 73.0899 57.5976C73.273 57.4871 73.4892 57.4319 73.7385 57.4319C74.1172 57.4319 74.3949 57.5376 74.5716 57.7491C74.7515 57.9573 74.8414 58.2761 74.8414 58.7053V61.7916H75.8734V58.4638C75.8734 57.8516 75.7203 57.3798 75.4142 57.0485C75.1081 56.7171 74.6663 56.5514 74.0888 56.5514C73.7132 56.5514 73.4024 56.6287 73.1562 56.7834C72.9101 56.938 72.7239 57.1526 72.5976 57.4272H72.5172V56.6508H71.49V61.7916ZM79.2437 61.8248C79.3447 61.8248 79.4426 61.8185 79.5372 61.8058C79.6319 61.7964 79.7203 61.7853 79.8023 61.7727V60.949C79.7297 60.9553 79.665 60.9601 79.6082 60.9632C79.5546 60.9664 79.4899 60.968 79.4142 60.968C79.1585 60.968 78.9755 60.908 78.865 60.7881C78.7546 60.665 78.6994 60.4646 78.6994 60.1869V57.4603H79.8023V56.6508H78.6994V55.3538H77.6485V56.6508H76.8438V57.4603H77.6485V60.4378C77.6485 60.9301 77.7731 61.2851 78.0225 61.5029C78.2749 61.7175 78.682 61.8248 79.2437 61.8248ZM82.7987 61.891C83.209 61.891 83.5735 61.8248 83.8922 61.6922C84.2141 61.5565 84.4682 61.3687 84.6543 61.1289C84.8405 60.8859 84.9336 60.6066 84.9336 60.291V60.2816C84.9336 59.9092 84.8121 59.6126 84.5691 59.3916C84.3293 59.1707 83.9632 59.0019 83.4709 58.8851L82.652 58.7005C82.3648 58.6311 82.1581 58.5443 82.0319 58.4402C81.9057 58.336 81.8425 58.2035 81.8425 58.0425V58.0331C81.8425 57.8942 81.8836 57.7743 81.9656 57.6733C82.0508 57.5692 82.166 57.4887 82.3112 57.4319C82.4563 57.3719 82.622 57.342 82.8082 57.342C83.0985 57.342 83.3321 57.4019 83.5088 57.5218C83.6887 57.6418 83.8023 57.7917 83.8496 57.9715V57.981H84.8342V57.9763C84.8027 57.6954 84.7017 57.4493 84.5313 57.2378C84.3609 57.0232 84.1289 56.856 83.8354 56.736C83.5451 56.613 83.2043 56.5514 82.8129 56.5514C82.4248 56.5514 82.0792 56.6177 81.7763 56.7502C81.4765 56.8796 81.2414 57.0611 81.0709 57.2946C80.9005 57.525 80.8153 57.7901 80.8153 58.0899V58.0946C80.8153 58.4702 80.9305 58.7731 81.1609 59.0035C81.3944 59.2307 81.7526 59.3995 82.2354 59.51L83.0591 59.6993C83.3557 59.7688 83.5688 59.8587 83.6981 59.9692C83.8275 60.0796 83.8922 60.2153 83.8922 60.3763V60.3857C83.8922 60.5246 83.8465 60.6477 83.7549 60.7549C83.6634 60.8622 83.5372 60.9459 83.3763 61.0058C83.2185 61.0658 83.0338 61.0958 82.8224 61.0958C82.5163 61.0958 82.2701 61.0358 82.084 60.9159C81.8978 60.796 81.7715 60.6398 81.7053 60.4473V60.4378H80.6733V60.4473C80.7049 60.7344 80.8106 60.9869 80.9905 61.2046C81.1704 61.4192 81.4133 61.5881 81.7195 61.7112C82.0256 61.8311 82.3853 61.891 82.7987 61.891Z" fill="#424242"/>
<mask id="mask0_513_3462" style="mask-type:alpha" maskUnits="userSpaceOnUse" x="40" y="19" width="61" height="60">
<circle cx="70.531" cy="49" r="28.05" stroke="white" stroke-width="3.4"/>
</mask>
<g mask="url(#mask0_513_3462)">
<rect x="37.3809" y="51.55" width="65.45" height="27.2" fill="white"/>
</g>
</g>
<defs>
<filter id="filter0_d_513_3462" x="0.709455" y="0.428572" width="208.695" height="97.1429" filterUnits="userSpaceOnUse" color-interpolation-filters="sRGB">
<feFlood flood-opacity="0" result="BackgroundImageFix"/>
<feColorMatrix in="SourceAlpha" type="matrix" values="0 0 0 0 0 0 0 0 0 0 0 0 0 0 0 0 0 0 127 0" result="hardAlpha"/>
<feOffset/>
<feGaussianBlur stdDeviation="7.28571"/>
<feComposite in2="hardAlpha" operator="out"/>
<feColorMatrix type="matrix" values="0 0 0 0 0 0 0 0 0 0 0 0 0 0 0 0 0 0 0.15 0"/>
<feBlend mode="normal" in2="BackgroundImageFix" result="effect1_dropShadow_513_3462"/>
<feBlend mode="normal" in="SourceGraphic" in2="effect1_dropShadow_513_3462" result="shape"/>
</filter>
</defs>
</svg>
