<svg width="34" height="34" viewBox="0 0 34 34" fill="none" xmlns="http://www.w3.org/2000/svg">
<circle opacity="0.1" cx="17" cy="17" r="17" fill="#488FE0"/>
<path d="M25.4386 11.2579C24.6848 9.73352 22.5132 8.48632 19.9872 9.21247C18.7801 9.55599 17.727 10.2927 16.9999 11.3022C16.2727 10.2927 15.2196 9.55599 14.0126 9.21247C11.4809 8.49741 9.315 9.73352 8.56113 11.2579C7.50348 13.392 7.94229 15.7921 9.86633 18.3918C11.374 20.4261 13.5287 22.4882 16.6567 24.8828C16.7556 24.9587 16.8773 25 17.0027 25C17.1281 25 17.2498 24.9587 17.3487 24.8828C20.471 22.4937 22.6313 20.4483 24.139 18.3918C26.0575 15.7921 26.4963 13.392 25.4386 11.2579Z" fill="#488FE0"/>
</svg>
