<svg width="24" height="22" viewBox="0 0 24 22" fill="none" xmlns="http://www.w3.org/2000/svg">
<path d="M21.5923 20.1111V11.7708C21.0946 11.9568 20.5697 12.0597 20.0386 12.0754C19.984 12.0754 19.9321 12.0777 19.8812 12.0777C18.9519 12.0802 18.0404 11.8237 17.2488 11.337C16.4573 11.8236 15.5459 12.0801 14.6168 12.0777C13.6916 12.079 12.7847 11.819 12.0006 11.3277C11.2056 11.8209 10.288 12.0808 9.35249 12.0777C8.42085 12.079 7.50806 11.8153 6.72054 11.3175C5.93303 11.8153 5.02024 12.079 4.0886 12.0777C4.03814 12.0777 3.98721 12.0777 3.93258 12.0754H3.9298C3.38323 12.0592 2.84335 11.9506 2.33304 11.7541V20.1111H0.851562V21.5925H23.0738V20.1111H21.5923ZM10.4812 17.1481H6.03675V13.6296C6.03675 13.5805 6.05626 13.5334 6.09099 13.4986C6.12572 13.4639 6.17282 13.4444 6.22193 13.4444H10.296C10.3451 13.4444 10.3922 13.4639 10.427 13.4986C10.4617 13.5334 10.4812 13.5805 10.4812 13.6296V17.1481ZM17.8886 20.1111H14.1849V13.6296C14.1849 13.5805 14.2044 13.5334 14.2391 13.4986C14.2739 13.4639 14.321 13.4444 14.3701 13.4444H17.7034C17.7525 13.4444 17.7996 13.4639 17.8344 13.4986C17.8691 13.5334 17.8886 13.5805 17.8886 13.6296V20.1111ZM22.915 7.25366L20.7539 2.33329C20.1108 0.851807 20.1108 0.851807 18.6293 0.851807H5.29601C3.81453 0.851807 3.81453 0.851807 3.16915 2.33329L1.00804 7.25366C0.591377 8.15227 1.14184 9.07495 1.1423 9.07542L1.16128 9.10597C1.18073 9.13653 1.2136 9.18699 1.23628 9.2157C1.24091 9.22171 1.24508 9.2282 1.24925 9.23421L1.49184 9.53005L1.73767 9.76801L1.75712 9.78468C1.8938 9.9013 2.03999 10.0063 2.19416 10.0986V10.1009C2.698 10.4061 3.27204 10.5762 3.86082 10.5949H3.97517C4.86604 10.5965 5.72444 10.2605 6.37749 9.65458C6.47179 9.56719 6.56098 9.47445 6.64462 9.37681C6.72854 9.47434 6.81788 9.56708 6.91221 9.65458C7.56526 10.2605 8.42366 10.5965 9.31453 10.5949C10.3923 10.5949 11.3548 10.1319 11.9826 9.41153C11.9835 9.41065 11.9848 9.41016 11.9861 9.41016C11.9873 9.41016 11.9886 9.41065 11.9895 9.41153L12.2516 9.65505C12.9047 10.2611 13.7633 10.5971 14.6543 10.5953C15.7326 10.5953 16.6965 10.1324 17.3238 9.40968C17.9516 10.1324 18.915 10.5953 19.9937 10.5953H20.109C20.683 10.5739 21.2415 10.4032 21.7293 10.1C21.7733 10.0736 21.8155 10.0458 21.858 10.018C22.1871 9.79605 22.4735 9.51658 22.7034 9.19301L22.796 9.05412C22.8377 8.95968 23.315 8.11431 22.915 7.25366Z" fill="#9E9E9E"/>
</svg>
