<svg width="14" height="15" viewBox="0 0 14 15" fill="none" xmlns="http://www.w3.org/2000/svg">
<path d="M4.96716 14.7499C4.34753 14.7469 3.73467 14.6207 3.16427 14.3786C2.59387 14.1366 2.07731 13.7835 1.64466 13.3399C1.21526 12.9329 0.870326 12.4452 0.629597 11.9048C0.388868 11.3644 0.25707 10.7818 0.241745 10.1903C0.226419 9.59891 0.327867 9.01027 0.540283 8.45809C0.7527 7.90592 1.07191 7.40105 1.47966 6.97237L6.99966 1.39987C7.29444 1.10563 7.6458 0.874179 8.03251 0.719494C8.41922 0.564809 8.83327 0.490098 9.24966 0.499872C9.69569 0.501391 10.137 0.591702 10.5477 0.765537C10.9585 0.939372 11.3305 1.19325 11.6422 1.51237C12.2624 2.10955 12.6221 2.92726 12.6432 3.788C12.6642 4.64875 12.345 5.48307 11.7547 6.10987L6.20466 11.6824C6.0269 11.8613 5.81536 12.0032 5.58233 12.0998C5.3493 12.1963 5.09941 12.2457 4.84716 12.2449C4.57467 12.2452 4.30486 12.191 4.05368 12.0854C3.80249 11.9797 3.57501 11.8249 3.38466 11.6299C3.00421 11.2615 2.78449 10.7579 2.77326 10.2285C2.76202 9.69902 2.96018 9.18654 3.32466 8.80237L8.44716 3.65737C8.59295 3.56055 8.768 3.51776 8.94202 3.53641C9.11603 3.55506 9.27804 3.63398 9.4 3.75949C9.52195 3.88501 9.59618 4.04923 9.60981 4.2237C9.62345 4.39818 9.57564 4.57193 9.47466 4.71487L4.35216 9.85987C4.26674 9.96278 4.22517 10.0951 4.23639 10.2284C4.24761 10.3617 4.31074 10.4852 4.41216 10.5724C4.5177 10.6786 4.65997 10.7404 4.80966 10.7449C4.86511 10.7457 4.92017 10.7355 4.97166 10.7149C5.02315 10.6943 5.07005 10.6637 5.10966 10.6249L10.6522 5.05237C10.9633 4.70676 11.1259 4.2526 11.1048 3.78806C11.0838 3.32352 10.8808 2.88593 10.5397 2.56987C10.2229 2.24095 9.79202 2.04597 9.33582 2.02504C8.87962 2.00412 8.43275 2.15884 8.08716 2.45737L2.54466 7.99987C2.27515 8.28935 2.06553 8.62927 1.92788 9.00007C1.79023 9.37086 1.72726 9.76522 1.7426 10.1604C1.75793 10.5557 1.85127 10.944 2.01724 11.303C2.1832 11.662 2.41853 11.9846 2.70966 12.2524C3.00162 12.555 3.35096 12.7965 3.73728 12.9626C4.1236 13.1287 4.53916 13.2162 4.95966 13.2199C5.32223 13.2228 5.6818 13.1541 6.01773 13.0177C6.35366 12.8812 6.65932 12.6798 6.91716 12.4249L12.4597 6.85237C12.5291 6.78244 12.6116 6.72688 12.7025 6.68884C12.7935 6.65081 12.891 6.63105 12.9895 6.63071C13.0881 6.63036 13.1857 6.64942 13.2769 6.68681C13.3681 6.7242 13.451 6.77919 13.5209 6.84862C13.5908 6.91806 13.6464 7.00059 13.6844 7.0915C13.7225 7.18241 13.7422 7.27992 13.7426 7.37847C13.7429 7.47702 13.7239 7.57467 13.6865 7.66584C13.6491 7.75702 13.5941 7.83994 13.5247 7.90987L7.98216 13.4824C7.58864 13.8828 7.11946 14.2011 6.60187 14.4187C6.08429 14.6363 5.52862 14.7489 4.96716 14.7499Z" fill="#034694"/>
</svg>
