<svg width="15" height="18" viewBox="0 0 15 18" fill="none" xmlns="http://www.w3.org/2000/svg">
<path d="M0 15.4212C0 15.8842 0.252856 16.3281 0.702944 16.6555C1.15303 16.9828 1.76348 17.1667 2.4 17.1667H4C4.63652 17.1667 5.24697 16.9828 5.69706 16.6555C6.14714 16.3281 6.4 15.8842 6.4 15.4212L6.4 2.62062C6.4 2.15767 6.14714 1.71369 5.69706 1.38634C5.24697 1.05898 4.63652 0.875082 4 0.875082H2.4C1.76348 0.875082 1.15303 1.05898 0.702944 1.38634C0.252856 1.71369 0 2.15767 0 2.62062L0 15.4212ZM8.6 15.4212C8.6 15.8842 8.85286 16.3281 9.30294 16.6555C9.75303 16.9828 10.3635 17.1667 11 17.1667H12.6C13.2365 17.1667 13.847 16.9828 14.2971 16.6555C14.7471 16.3281 15 15.8842 15 15.4212L15 2.62062C15 2.15767 14.7471 1.71369 14.2971 1.38634C13.847 1.05898 13.2365 0.875082 12.6 0.875082H11C10.3635 0.875082 9.75303 1.05898 9.30294 1.38634C8.85286 1.71369 8.6 2.15767 8.6 2.62062L8.6 15.4212Z" fill="#488FE0"/>
</svg>
