<svg width="18" height="18" viewBox="0 0 18 18" fill="none" xmlns="http://www.w3.org/2000/svg">
<path d="M3.16839 1.52395L9.00039 7.35595L14.8084 1.54795C14.9102 1.43961 15.0328 1.35294 15.1689 1.29315C15.305 1.23335 15.4517 1.20165 15.6004 1.19995C15.9186 1.19995 16.2239 1.32638 16.4489 1.55142C16.674 1.77647 16.8004 2.08169 16.8004 2.39995C16.8032 2.54707 16.7759 2.69322 16.7202 2.82941C16.6645 2.9656 16.5815 3.08897 16.4764 3.19195L10.6084 8.99995L16.4764 14.868C16.6742 15.0614 16.7901 15.3235 16.8004 15.6C16.8004 15.9182 16.674 16.2234 16.4489 16.4485C16.2239 16.6735 15.9186 16.8 15.6004 16.8C15.4475 16.8063 15.2949 16.7808 15.1523 16.725C15.0098 16.6692 14.8804 16.5844 14.7724 16.476L9.00039 10.644L3.18039 16.464C3.079 16.5687 2.95787 16.6523 2.82399 16.71C2.69012 16.7676 2.54615 16.7982 2.40039 16.8C2.08213 16.8 1.77691 16.6735 1.55186 16.4485C1.32682 16.2234 1.20039 15.9182 1.20039 15.6C1.19759 15.4528 1.22489 15.3067 1.2806 15.1705C1.33632 15.0343 1.41928 14.9109 1.52439 14.808L7.39239 8.99995L1.52439 3.13195C1.32661 2.93846 1.21064 2.67645 1.20039 2.39995C1.20039 2.08169 1.32682 1.77647 1.55186 1.55142C1.77691 1.32638 2.08213 1.19995 2.40039 1.19995C2.68839 1.20355 2.96439 1.31995 3.16839 1.52395Z" fill="white"/>
</svg>
