<svg width="34" height="34" viewBox="0 0 34 34" fill="none" xmlns="http://www.w3.org/2000/svg">
<circle opacity="0.1" cx="17" cy="17" r="17" fill="#488FE0"/>
<g clip-path="url(#clip0_3_3321)">
<path d="M12.125 11.3749C12.125 8.95853 14.082 6.99993 16.5 6.99993C18.918 6.99993 20.875 8.95853 20.875 11.3749V13.25H23.375C24.4102 13.25 25.25 14.0898 25.25 15.125V23.25C25.25 25.3203 23.5703 27 21.5 27H11.5C9.42888 27 7.74997 25.3203 7.74997 23.25V15.125C7.74997 14.0898 8.58943 13.25 9.62498 13.25H12.125V11.3749ZM14 13.25H19V11.3749C19 9.99408 17.8789 8.87494 16.5 8.87494C15.1211 8.87494 14 9.99408 14 11.3749V13.25ZM13.0625 17C13.582 17 14 16.582 14 16.0625C14 15.5429 13.582 15.125 13.0625 15.125C12.543 15.125 12.125 15.5429 12.125 16.0625C12.125 16.582 12.543 17 13.0625 17ZM19.9375 15.125C19.418 15.125 19 15.5429 19 16.0625C19 16.582 19.418 17 19.9375 17C20.457 17 20.875 16.582 20.875 16.0625C20.875 15.5429 20.457 15.125 19.9375 15.125Z" fill="#488FE0"/>
</g>
<defs>
<clipPath id="clip0_3_3321">
<rect width="17.5001" height="20.0001" fill="white" transform="translate(7.74997 6.99993)"/>
</clipPath>
</defs>
</svg>
