<svg width="24" height="24" viewBox="0 0 24 24" fill="none" xmlns="http://www.w3.org/2000/svg">
<path d="M18.7077 5.7078C18.8007 5.61482 18.8744 5.50444 18.9248 5.38297C18.9751 5.26149 19.001 5.13129 19.001 4.9998C19.001 4.86831 18.9751 4.73811 18.9248 4.61663C18.8744 4.49515 18.8007 4.38477 18.7077 4.2918C18.6147 4.19882 18.5044 4.12507 18.3829 4.07475C18.2614 4.02443 18.1312 3.99854 17.9997 3.99854C17.8682 3.99854 17.738 4.02443 17.6165 4.07475C17.4951 4.12507 17.3847 4.19882 17.2917 4.2918L10.2917 11.2918C10.1986 11.3847 10.1247 11.495 10.0743 11.6165C10.0239 11.738 9.99793 11.8683 9.99793 11.9998C9.99793 12.1313 10.0239 12.2616 10.0743 12.3831C10.1247 12.5046 10.1986 12.6149 10.2917 12.7078L17.2917 19.7078C17.3847 19.8008 17.4951 19.8745 17.6165 19.9248C17.738 19.9752 17.8682 20.0011 17.9997 20.0011C18.1312 20.0011 18.2614 19.9752 18.3829 19.9248C18.5044 19.8745 18.6147 19.8008 18.7077 19.7078C18.8007 19.6148 18.8744 19.5044 18.9248 19.383C18.9751 19.2615 19.001 19.1313 19.001 18.9998C19.001 18.8683 18.9751 18.7381 18.9248 18.6166C18.8744 18.4952 18.8007 18.3848 18.7077 18.2918L12.4137 11.9998L18.7077 5.7078ZM3.99971 4.9998C3.99971 4.73458 4.10507 4.48023 4.29261 4.29269C4.48014 4.10516 4.7345 3.9998 4.99971 3.9998C5.26493 3.9998 5.51929 4.10516 5.70682 4.29269C5.89436 4.48023 5.99971 4.73458 5.99971 4.9998V18.9998C5.99971 19.265 5.89436 19.5194 5.70682 19.7069C5.51929 19.8944 5.26493 19.9998 4.99971 19.9998C4.7345 19.9998 4.48014 19.8944 4.29261 19.7069C4.10507 19.5194 3.99971 19.265 3.99971 18.9998V4.9998Z" fill="#424242"/>
</svg>
