<svg width="25" height="22" viewBox="0 0 25 22" fill="none" xmlns="http://www.w3.org/2000/svg">
<path d="M18.3231 8.34325L13.6223 1.30276C13.5219 1.16061 13.3882 1.0452 13.2329 0.966621C13.0776 0.888045 12.9055 0.848691 12.7315 0.851999C12.388 0.851999 12.0446 1.00225 11.8407 1.31349L7.13987 8.34325H1.99903C1.40874 8.34325 0.925781 8.82621 0.925781 9.41649C0.925781 9.51308 0.936514 9.60967 0.968711 9.70627L3.69475 19.6552C3.9416 20.5568 4.768 21.2222 5.75538 21.2222H19.7076C20.6949 21.2222 21.5213 20.5568 21.7789 19.6552L24.505 9.70627L24.5372 9.41649C24.5372 8.82621 24.0542 8.34325 23.4639 8.34325H18.3231ZM9.51174 8.34325L12.7315 3.62097L15.9512 8.34325H9.51174ZM12.7315 16.9292C11.5509 16.9292 10.585 15.9633 10.585 14.7827C10.585 13.6021 11.5509 12.6362 12.7315 12.6362C13.912 12.6362 14.878 13.6021 14.878 14.7827C14.878 15.9633 13.912 16.9292 12.7315 16.9292Z" fill="#9E9E9E"/>
</svg>
