<svg width="312" height="312" viewBox="0 0 312 312" fill="none" xmlns="http://www.w3.org/2000/svg">
<circle opacity="0.1" cx="156" cy="156" r="156" fill="url(#paint0_linear_689_1162)"/>
<circle opacity="0.1" cx="156" cy="156" r="118" fill="url(#paint1_linear_689_1162)"/>
<path d="M96.9364 160.821C110.063 156.849 123.789 148.375 133.195 140.84C171.292 112.194 208.029 119.602 236.388 151.954C282.119 202.899 244.053 273.484 244.053 273.484C222.364 273.456 90.264 273.606 72.0013 273.257C51.1833 259.739 31.2436 180.699 96.9364 160.821Z" fill="white" fill-opacity="0.1"/>
<path d="M252.839 273.653C252.839 273.653 252.934 268.993 248.276 271.37C248.276 271.37 247.848 267.234 244.853 269.94C244.853 269.94 245.377 257.817 236.44 257.959C236.44 257.959 232.162 257.244 229.596 262.809C229.596 262.809 227.599 258.34 224.225 262.714C224.225 262.714 229.121 252.111 226.316 250.922C223.512 249.733 220.897 255.724 220.897 255.724C220.897 255.724 223.655 242.982 218.807 242.459C213.959 241.936 213.531 249.543 213.531 249.543C213.531 249.543 211.629 244.075 209.11 245.879C206.59 247.682 208.872 253.581 208.872 253.581C208.872 253.581 206.163 248.636 203.977 251.87C201.79 255.103 203.977 260.57 203.977 260.57C203.977 260.57 202.408 257.1 199.414 258.574C196.42 260.047 196.989 264.802 196.989 264.802C196.989 264.802 193.376 261.712 191.143 264.897C191.143 264.897 187.816 258.953 185.157 263.804C182.498 268.654 182.55 273.591 182.55 273.591L252.839 273.653Z" fill="#7FC6A6"/>
<path d="M122.422 273.653C122.422 273.653 122.511 269.495 118.35 271.616C118.35 271.616 117.969 267.926 115.297 270.344C115.297 270.344 115.764 259.529 107.792 259.652C107.792 259.652 103.975 259.016 101.684 263.98C101.684 263.98 99.9036 259.992 96.8917 263.891C96.8917 263.891 101.261 254.43 98.7582 253.369C96.2555 252.308 93.9236 257.654 93.9236 257.654C93.9236 257.654 96.3833 246.284 92.0571 245.818C87.7309 245.351 87.3494 252.139 87.3494 252.139C87.3494 252.139 85.6518 247.26 83.4056 248.872C81.1594 250.484 83.1929 255.745 83.1929 255.745C83.1929 255.745 80.7761 251.332 78.8247 254.217C76.8734 257.103 78.8247 261.982 78.8247 261.982C75.0614 256.367 70.4108 261.187 72.59 265.758C72.59 265.758 68.0431 264.458 68.2844 268.749C68.2844 268.749 65.5852 265.542 63.4507 267.963C61.9005 269.723 64.7194 273.594 64.7194 273.594L122.422 273.653Z" fill="#7FC6A6"/>
<path d="M204.558 273.653C204.882 272.147 206.123 271.747 208.159 271.498C207.039 258.025 223.8 256.499 224.226 269.87C224.226 269.87 228.239 266.059 231.133 270.891C231.057 270.749 236.79 268.155 238.738 273.653H204.558Z" fill="#3F9896"/>
<path opacity="0.6" d="M144.311 155.98H128.581C127.647 154.499 130.13 154.268 130.523 154.461C128.933 149.07 134.714 146.707 136.918 151.811C136.867 149.625 142.138 145.51 145.171 149.818C146.839 152.03 146.655 154.777 144.311 155.98Z" fill="white"/>
<path opacity="0.6" d="M242.028 169.612H227.808C226.952 168.291 229.222 168.056 229.563 168.236C228.126 163.362 233.352 161.226 235.344 165.841C235.298 163.864 240.063 160.145 242.805 164.04C244.313 166.044 244.147 168.524 242.028 169.612Z" fill="white"/>
<g opacity="0.6">
<path opacity="0.6" d="M166.022 136.981C166.101 135.969 166.962 135.691 168.239 135.535C167.549 127.237 177.873 126.297 178.134 134.532C178.134 134.532 180.607 132.185 182.389 135.158C182.278 135.022 186.175 133.533 187.066 136.979L166.022 136.981Z" fill="white"/>
</g>
<g opacity="0.6">
<path opacity="0.6" d="M236.635 224.157C236.706 222.987 237.763 222.627 239.243 222.458C239.45 215.302 249.25 215.04 250.885 221.279C250.885 221.279 253.793 218.517 255.889 222.018C255.758 221.857 260.342 220.105 261.39 224.163L236.635 224.157Z" fill="white"/>
</g>
<g opacity="0.6">
<path opacity="0.6" d="M57.6868 210.035C57.7655 209.024 58.6268 208.745 59.9035 208.59C59.2138 200.293 69.5397 199.351 69.7997 207.587C69.7997 207.587 72.271 205.239 74.0535 208.212C73.9427 208.075 77.8392 206.586 78.73 210.032L57.6868 210.035Z" fill="white"/>
</g>
<path d="M152.203 259.618V263.067H152.195V263.188H148.758V266.517H151.245V269.969H148.252V273.421H101.763V270.092H94.7196V266.519H97.7154V263.312H95.2253V259.739H98.6733V256.292H95.2253V252.718H97.7154V249.388H93.9905V245.813H97.7154V242.485H95.7301V238.912H97.7154V235.581H127.457V239.033H125.474V242.364H127.446V242.485H127.457V245.811H142.3V244.09H139.812V240.638H139.823V240.516H143.536V238.909H151.245V242.361H149.263V245.689H151.235V245.811H151.245V249.262H147.521V252.594H151.235V252.715H151.245V256.168H148.758V259.493H152.195V259.618H152.203Z" fill="#F97923"/>
<g style="mix-blend-mode:multiply" opacity="0.3">
<g style="mix-blend-mode:multiply" opacity="0.3">
<path d="M127.405 238.911H95.731V242.481H127.405V238.911Z" fill="#F97923"/>
</g>
</g>
<g style="mix-blend-mode:multiply" opacity="0.3">
<g style="mix-blend-mode:multiply" opacity="0.3">
<path d="M125.664 245.815H93.9905V249.386H125.664V245.815Z" fill="#F97923"/>
</g>
</g>
<path d="M148.252 269.968H118.508V273.421H148.252V269.968Z" fill="#FFC931"/>
<path d="M151.245 266.517H121.504V269.969H151.245V266.517Z" fill="#FFC931"/>
<path d="M148.757 263.064H119.013V266.517H148.757V263.064Z" fill="#FFC931"/>
<path d="M152.203 259.618H122.462V263.068H152.203V259.618Z" fill="#FFC931"/>
<path d="M148.757 256.168H119.013V259.62H148.757V256.168Z" fill="#FFC931"/>
<path d="M151.245 252.715H121.504V256.168H151.245V252.715Z" fill="#FFC931"/>
<path d="M147.521 249.263H117.779V252.716H147.521V249.263Z" fill="#FFC931"/>
<path d="M151.245 245.811H121.504V249.263H151.245V245.811Z" fill="#FFC931"/>
<path d="M149.263 242.361H119.519V245.811H149.263V242.361Z" fill="#FFC931"/>
<path d="M151.245 238.909H121.504V242.362H151.245V238.909Z" fill="#FFC931"/>
<g style="mix-blend-mode:multiply" opacity="0.5">
<g style="mix-blend-mode:multiply" opacity="0.5">
<path d="M152.195 259.618V263.067H148.746V266.521H151.235V269.973H148.242V273.425H134.608C133.325 273.425 133.644 271.791 133.614 270.965C133.72 269.038 136.503 270.908 136.609 268.981C136.55 268.322 136.86 266.987 136.096 266.642C135.85 266.492 135.399 266.516 135.113 266.521C133.838 266.521 134.146 264.888 134.119 264.066C134.166 262.508 136.174 263.357 137.054 262.949C137.817 262.638 137.509 261.235 137.567 260.613C137.52 259.054 135.507 259.912 134.632 259.498C133.87 259.183 134.176 257.787 134.119 257.163C134.257 255.358 136.473 256.984 136.609 255.181C136.55 254.555 136.86 253.161 136.096 252.841C135.191 252.394 132.942 253.354 132.884 251.728C132.914 250.919 132.601 249.254 133.876 249.268C134.245 249.268 135.791 249.345 136.096 249.146C136.859 248.82 136.552 247.44 136.609 246.809C136.588 245.333 134.649 246.298 134.624 244.823V243.357C134.647 241.885 136.584 242.847 136.609 241.371C136.636 240.582 136.328 238.891 137.6 238.914H151.235V242.365H149.252V245.815H151.235V249.268H147.51V252.719H151.235V256.172H148.746V259.622L152.195 259.618Z" fill="#F99247"/>
</g>
</g>
<path d="M149.251 242.239H119.519V242.483H149.251V242.239Z" fill="white"/>
<path d="M151.235 245.689H121.504V245.932H151.235V245.689Z" fill="white"/>
<path d="M147.511 249.142H117.779V249.386H147.511V249.142Z" fill="white"/>
<path d="M151.235 252.594H121.504V252.837H151.235V252.594Z" fill="white"/>
<path d="M148.747 256.045H119.014V256.288H148.747V256.045Z" fill="white"/>
<path d="M152.195 259.492H122.462V259.738H152.195V259.492Z" fill="white"/>
<path d="M152.195 262.945H122.462V263.188H152.195V262.945Z" fill="white"/>
<path d="M148.747 266.395H119.014V266.639H148.747V266.395Z" fill="white"/>
<path d="M148.242 269.847H118.509V270.091H148.242V269.847Z" fill="white"/>
<path d="M112.48 269.968H82.3968V273.42H112.48V269.968Z" fill="#FFC931"/>
<path d="M115.508 266.517H85.4248V269.968H115.508V266.517Z" fill="#FFC931"/>
<path d="M112.991 263.065H82.9079V266.517H112.991V263.065Z" fill="#FFC931"/>
<path d="M116.479 259.616H86.3952V263.067H116.479V259.616Z" fill="#FFC931"/>
<path d="M112.991 256.167H82.9079V259.618H112.991V256.167Z" fill="#FFC931"/>
<path d="M115.508 252.715H85.4248V256.167H115.508V252.715Z" fill="#FFC931"/>
<path d="M111.741 249.263H81.658V252.715H111.741V249.263Z" fill="#FFC931"/>
<g style="mix-blend-mode:multiply" opacity="0.5">
<g style="mix-blend-mode:multiply" opacity="0.5">
<path d="M97.9389 249.263H111.73V252.715H115.497V256.167H112.981V259.616H116.465V263.068H112.981V266.521H115.497V269.973H112.469V273.425H98.6787C97.384 273.409 97.7066 271.822 97.6762 270.966C97.6958 269.844 98.9047 269.951 99.7008 269.973C100.991 269.973 100.675 268.343 100.704 267.513C100.554 265.693 98.3365 267.349 98.1864 265.529C98.1068 263.055 98.2337 263.007 100.67 263.072C101.96 263.077 101.645 261.44 101.674 260.612C101.674 259.333 100.013 259.651 99.1897 259.62C97.9013 259.626 98.2149 257.99 98.1864 257.164C98.3365 255.345 100.554 256.999 100.704 255.179C100.838 252.423 100.416 252.713 97.9398 252.72C96.6514 252.728 96.9641 251.085 96.9364 250.26C96.9365 250.129 96.9626 249.999 97.0131 249.877C97.0636 249.756 97.1375 249.646 97.2306 249.553C97.3238 249.461 97.4343 249.387 97.5558 249.338C97.6774 249.288 97.8075 249.263 97.9389 249.263Z" fill="#F99247"/>
</g>
</g>
<path d="M111.731 249.142H81.658V249.386H111.731V249.142Z" fill="white"/>
<path d="M115.497 252.594H85.4248V252.837H115.497V252.594Z" fill="white"/>
<path d="M112.981 256.045H82.9079V256.288H112.981V256.045Z" fill="white"/>
<path d="M116.468 259.494H86.3952V259.738H116.468V259.494Z" fill="white"/>
<path d="M116.468 262.946H86.3952V263.19H116.468V262.946Z" fill="white"/>
<path d="M112.981 266.395H82.9079V266.639H112.981V266.395Z" fill="white"/>
<path d="M112.469 269.847H82.3968V270.091H112.469V269.847Z" fill="white"/>
<path d="M90.4935 254.187C90.3202 255.706 88.9201 256.112 88.9201 256.112C88.9201 256.112 90.3202 256.52 90.4935 258.037C90.6669 256.518 92.0669 256.112 92.0669 256.112C92.0669 256.112 90.6669 255.706 90.4935 254.187Z" fill="white"/>
<path d="M114.423 243.629C114.403 243.793 114.336 243.948 114.232 244.076C114.127 244.204 113.988 244.3 113.831 244.352C113.988 244.404 114.127 244.5 114.232 244.628C114.337 244.756 114.403 244.912 114.423 245.076C114.443 244.912 114.51 244.757 114.616 244.63C114.721 244.502 114.861 244.407 115.018 244.356C114.86 244.304 114.72 244.208 114.614 244.079C114.509 243.951 114.442 243.794 114.423 243.629Z" fill="white"/>
<path d="M137.632 257.952C137.482 259.265 136.272 259.616 136.272 259.616C136.272 259.616 137.482 259.968 137.632 261.28C137.782 259.968 138.992 259.616 138.992 259.616C138.992 259.616 137.782 259.265 137.632 257.952Z" fill="white"/>
<path d="M95.7311 260.247C95.6293 261.176 94.7679 261.427 94.7679 261.427C94.7679 261.427 95.6248 261.676 95.7311 262.605C95.8365 261.676 96.6943 261.427 96.6943 261.427C96.6943 261.427 95.8365 261.176 95.7311 260.247Z" fill="white"/>
<path d="M129.547 243.401C129.524 243.597 129.445 243.783 129.32 243.936C129.195 244.089 129.029 244.203 128.842 244.265C129.029 244.328 129.195 244.442 129.32 244.596C129.445 244.749 129.524 244.934 129.547 245.131C129.571 244.934 129.65 244.749 129.776 244.596C129.901 244.443 130.067 244.328 130.254 244.265C130.067 244.203 129.901 244.089 129.776 243.936C129.65 243.783 129.571 243.597 129.547 243.401Z" fill="white"/>
<path d="M128.622 263.802C128.513 264.76 127.629 265.017 127.629 265.017C127.629 265.017 128.513 265.273 128.622 266.231C128.731 265.273 129.614 265.017 129.614 265.017C129.614 265.017 128.731 264.76 128.622 263.802Z" fill="white"/>
<path d="M213.086 259.618V263.067H213.078V263.188H209.64V266.517H212.128V269.969H209.135V273.421H162.645V270.092H155.602V266.519H158.598V263.312H156.108V259.739H159.556V256.292H156.108V252.718H158.598V249.388H154.873V245.813H158.598V242.485H156.613V238.912H158.598V235.581H188.339V239.033H186.356V242.364H188.328V242.485H188.339V245.811H203.182V244.09H200.695V240.638H200.706V240.516H204.419V238.909H212.128V242.361H210.145V245.689H212.117V245.811H212.128V249.262H208.403V252.594H212.117V252.715H212.128V256.168H209.64V259.493H213.078V259.618H213.086Z" fill="#F97923"/>
<g style="mix-blend-mode:multiply" opacity="0.3">
<g style="mix-blend-mode:multiply" opacity="0.3">
<path d="M188.287 238.911H156.614V242.481H188.287V238.911Z" fill="#F97923"/>
</g>
</g>
<g style="mix-blend-mode:multiply" opacity="0.3">
<g style="mix-blend-mode:multiply" opacity="0.3">
<path d="M186.547 245.815H154.873V249.386H186.547V245.815Z" fill="#F97923"/>
</g>
</g>
<path d="M209.135 269.968H179.391V273.421H209.135V269.968Z" fill="#FFC931"/>
<path d="M212.128 266.517H182.387V269.969H212.128V266.517Z" fill="#FFC931"/>
<path d="M209.64 263.064H179.896V266.517H209.64V263.064Z" fill="#FFC931"/>
<path d="M213.086 259.618H183.344V263.068H213.086V259.618Z" fill="#FFC931"/>
<path d="M209.64 256.168H179.896V259.62H209.64V256.168Z" fill="#FFC931"/>
<path d="M212.128 252.715H182.387V256.168H212.128V252.715Z" fill="#FFC931"/>
<path d="M208.403 249.263H178.662V252.716H208.403V249.263Z" fill="#FFC931"/>
<path d="M212.128 245.811H182.387V249.263H212.128V245.811Z" fill="#FFC931"/>
<path d="M210.145 242.361H180.401V245.811H210.145V242.361Z" fill="#FFC931"/>
<path d="M212.128 238.909H182.387V242.362H212.128V238.909Z" fill="#FFC931"/>
<path d="M213.078 259.618V263.067H209.629V266.521H212.117V269.973H209.124V273.425H195.491C194.208 273.425 194.527 271.791 194.496 270.965C194.603 269.038 197.386 270.908 197.492 268.981C197.432 268.322 197.743 266.987 196.978 266.642C196.732 266.492 196.281 266.516 195.995 266.521C194.72 266.521 195.029 264.888 195.002 264.066C195.048 262.508 197.057 263.357 197.937 262.949C198.7 262.638 198.393 261.235 198.45 260.613C198.402 259.054 196.389 259.912 195.516 259.498C194.753 259.183 195.059 257.787 195.002 257.163C195.139 255.358 197.355 256.984 197.492 255.181C197.432 254.555 197.743 253.161 196.978 252.841C196.073 252.394 193.824 253.354 193.767 251.728C193.797 250.919 193.484 249.254 194.759 249.268C195.128 249.268 196.674 249.345 196.978 249.146C197.741 248.82 197.435 247.44 197.492 246.809C197.47 245.333 195.532 246.298 195.507 244.823V243.357C195.531 241.885 197.467 242.847 197.492 241.371C197.519 240.582 197.211 238.891 198.484 238.914H212.117V242.365H210.135V245.815H212.117V249.268H208.392V252.719H212.117V256.172H209.629V259.622L213.078 259.618Z" fill="#F99247"/>
<path d="M210.134 242.239H180.401V242.483H210.134V242.239Z" fill="white"/>
<path d="M212.117 245.689H182.387V245.932H212.117V245.689Z" fill="white"/>
<path d="M208.393 249.142H178.661V249.386H208.393V249.142Z" fill="white"/>
<path d="M212.117 252.594H182.387V252.837H212.117V252.594Z" fill="white"/>
<path d="M209.629 256.045H179.897V256.288H209.629V256.045Z" fill="white"/>
<path d="M213.078 259.492H183.344V259.738H213.078V259.492Z" fill="white"/>
<path d="M213.078 262.945H183.344V263.188H213.078V262.945Z" fill="white"/>
<path d="M209.629 266.395H179.897V266.639H209.629V266.395Z" fill="white"/>
<path d="M209.124 269.847H179.392V270.091H209.124V269.847Z" fill="white"/>
<path d="M173.363 269.968H143.279V273.42H173.363V269.968Z" fill="#FFC931"/>
<path d="M176.392 266.517H146.308V269.968H176.392V266.517Z" fill="#FFC931"/>
<path d="M173.874 263.065H143.79V266.517H173.874V263.065Z" fill="#FFC931"/>
<path d="M177.361 259.616H147.278V263.067H177.361V259.616Z" fill="#FFC931"/>
<path d="M173.874 256.167H143.79V259.618H173.874V256.167Z" fill="#FFC931"/>
<path d="M176.392 252.715H146.308V256.167H176.392V252.715Z" fill="#FFC931"/>
<path d="M172.624 249.263H142.54V252.715H172.624V249.263Z" fill="#FFC931"/>
<g style="mix-blend-mode:multiply" opacity="0.5">
<g style="mix-blend-mode:multiply" opacity="0.5">
<path d="M158.821 249.263H172.612V252.715H176.38V256.167H173.863V259.616H177.348V263.068H173.863V266.521H176.38V269.973H173.352V273.425H159.562C158.266 273.409 158.589 271.822 158.559 270.966C158.578 269.844 159.788 269.951 160.583 269.973C161.874 269.973 161.557 268.343 161.587 267.513C161.437 265.693 159.219 267.349 159.069 265.529C158.989 263.055 159.116 263.007 161.553 263.072C162.843 263.077 162.527 261.44 162.556 260.612C162.556 259.333 160.895 259.651 160.072 259.62C158.784 259.626 159.097 257.99 159.069 257.164C159.219 255.345 161.437 256.999 161.587 255.179C161.721 252.423 161.298 252.713 158.822 252.72C157.534 252.728 157.847 251.085 157.819 250.26C157.819 250.129 157.845 249.999 157.895 249.877C157.946 249.756 158.02 249.646 158.113 249.553C158.206 249.461 158.317 249.387 158.438 249.338C158.56 249.288 158.69 249.263 158.821 249.263Z" fill="#F99247"/>
</g>
</g>
<path d="M172.613 249.142H142.54V249.386H172.613V249.142Z" fill="white"/>
<path d="M176.381 252.594H146.308V252.837H176.381V252.594Z" fill="white"/>
<path d="M173.863 256.045H143.79V256.288H173.863V256.045Z" fill="white"/>
<path d="M177.35 259.494H147.278V259.738H177.35V259.494Z" fill="white"/>
<path d="M177.35 262.946H147.278V263.19H177.35V262.946Z" fill="white"/>
<path d="M173.863 266.395H143.79V266.639H173.863V266.395Z" fill="white"/>
<path d="M173.352 269.847H143.279V270.091H173.352V269.847Z" fill="white"/>
<path d="M151.376 254.187C151.203 255.706 149.802 256.112 149.802 256.112C149.802 256.112 151.203 256.52 151.376 258.037C151.549 256.518 152.949 256.112 152.949 256.112C152.949 256.112 151.549 255.706 151.376 254.187Z" fill="white"/>
<path d="M175.305 243.629C175.285 243.793 175.219 243.948 175.114 244.076C175.009 244.204 174.87 244.3 174.714 244.352C174.871 244.404 175.01 244.5 175.114 244.628C175.219 244.756 175.285 244.912 175.305 245.076C175.325 244.912 175.391 244.756 175.496 244.628C175.6 244.5 175.739 244.404 175.897 244.352C175.74 244.3 175.601 244.204 175.496 244.076C175.391 243.948 175.325 243.793 175.305 243.629Z" fill="white"/>
<path d="M198.515 257.952C198.365 259.265 197.154 259.616 197.154 259.616C197.154 259.616 198.365 259.968 198.515 261.28C198.664 259.968 199.875 259.616 199.875 259.616C199.875 259.616 198.664 259.265 198.515 257.952Z" fill="white"/>
<path d="M156.613 260.247C156.507 261.176 155.65 261.426 155.65 261.426C155.65 261.426 156.507 261.675 156.613 262.605C156.719 261.675 157.577 261.426 157.577 261.426C157.577 261.426 156.719 261.176 156.613 260.247Z" fill="white"/>
<path d="M190.427 243.401C190.403 243.597 190.324 243.783 190.199 243.936C190.074 244.089 189.908 244.203 189.72 244.265C189.908 244.328 190.074 244.442 190.199 244.596C190.324 244.749 190.403 244.934 190.427 245.131C190.451 244.934 190.53 244.749 190.655 244.596C190.78 244.442 190.945 244.328 191.133 244.265C190.945 244.203 190.78 244.089 190.655 243.936C190.53 243.783 190.451 243.597 190.427 243.401Z" fill="white"/>
<path d="M189.504 263.802C189.395 264.76 188.511 265.017 188.511 265.017C188.511 265.017 189.395 265.273 189.504 266.231C189.613 265.273 190.497 265.017 190.497 265.017C190.497 265.017 189.613 264.76 189.504 263.802Z" fill="white"/>
<path d="M215.937 235.344V238.794H215.929V238.915H212.491V242.243H214.979V245.695H211.986V249.148H165.496V245.82H158.453V242.246H161.449V239.04H158.958V235.465H162.407V232.018H158.958V228.445H161.449V225.114H157.724V221.54H161.449V218.212H159.464V214.638H161.449V211.307H191.19V214.76H189.207V218.091H191.179V218.212H191.19V221.537H206.033V219.817H203.545V216.364H203.557V216.242H207.27V214.635H214.979V218.088H212.996V221.416H214.967V221.537H214.979V224.99H211.254V228.321H214.967V228.442H214.979V231.894H212.491V235.22H215.929V235.344H215.937Z" fill="#F97923"/>
<g style="mix-blend-mode:multiply" opacity="0.3">
<g style="mix-blend-mode:multiply" opacity="0.3">
<path d="M191.138 214.637H159.464V218.208H191.138V214.637Z" fill="#F97923"/>
</g>
</g>
<g style="mix-blend-mode:multiply" opacity="0.3">
<g style="mix-blend-mode:multiply" opacity="0.3">
<path d="M189.398 221.542H157.724V225.113H189.398V221.542Z" fill="#F97923"/>
</g>
</g>
<path d="M211.986 245.696H182.242V249.148H211.986V245.696Z" fill="#FFC931"/>
<path d="M214.979 242.243H185.238V245.696H214.979V242.243Z" fill="#FFC931"/>
<path d="M212.491 238.791H182.747V242.244H212.491V238.791Z" fill="#FFC931"/>
<path d="M215.937 235.344H186.196V238.794H215.937V235.344Z" fill="#FFC931"/>
<path d="M212.491 231.894H182.747V235.347H212.491V231.894Z" fill="#FFC931"/>
<path d="M214.979 228.442H185.238V231.895H214.979V228.442Z" fill="#FFC931"/>
<path d="M211.254 224.99H181.513V228.442H211.254V224.99Z" fill="#FFC931"/>
<path d="M214.979 221.537H185.238V224.99H214.979V221.537Z" fill="#FFC931"/>
<path d="M212.996 218.088H183.252V221.538H212.996V218.088Z" fill="#FFC931"/>
<path d="M214.979 214.635H185.238V218.088H214.979V214.635Z" fill="#FFC931"/>
<path d="M215.929 235.344V238.794H212.48V242.243H214.967V245.696H211.975V249.149H198.341C197.058 249.149 197.377 247.514 197.347 246.688C197.453 244.761 200.237 246.632 200.343 244.705C200.283 244.045 200.594 242.71 199.829 242.365C199.583 242.216 199.131 242.24 198.846 242.244C197.57 242.248 197.88 240.611 197.852 239.789C197.899 238.232 199.907 239.081 200.787 238.673C201.551 238.361 201.243 236.959 201.301 236.336C201.253 234.778 199.239 235.636 198.366 235.221C197.603 234.906 197.91 233.511 197.852 232.887C197.99 231.081 200.205 232.708 200.343 230.904C200.283 230.278 200.594 228.884 199.829 228.565C198.924 228.118 196.675 229.077 196.618 227.451C196.647 226.641 196.335 224.977 197.61 224.991C197.979 224.991 199.524 225.068 199.829 224.869C200.592 224.543 200.286 223.163 200.343 222.533C200.321 221.056 198.383 222.021 198.358 220.547V219.08C198.381 217.608 200.318 218.571 200.343 217.094C200.37 216.306 200.061 214.615 201.334 214.636H214.967V218.089H212.986V221.538H214.967V224.991H211.245V228.447H214.969V231.898H212.482V235.348L215.929 235.344Z" fill="#F99247"/>
<path d="M212.985 217.965H183.252V218.209H212.985V217.965Z" fill="white"/>
<path d="M214.968 221.416H185.238V221.659H214.968V221.416Z" fill="white"/>
<path d="M211.243 224.868H181.511V225.111H211.243V224.868Z" fill="white"/>
<path d="M214.968 228.321H185.238V228.564H214.968V228.321Z" fill="white"/>
<path d="M212.48 231.772H182.748V232.016H212.48V231.772Z" fill="white"/>
<path d="M215.929 235.22H186.196V235.466H215.929V235.22Z" fill="white"/>
<path d="M215.929 238.672H186.196V238.915H215.929V238.672Z" fill="white"/>
<path d="M212.48 242.121H182.748V242.365H212.48V242.121Z" fill="white"/>
<path d="M211.975 245.574H182.243V245.817H211.975V245.574Z" fill="white"/>
<path d="M176.214 245.696H146.13V249.147H176.214V245.696Z" fill="#FFC931"/>
<path d="M179.242 242.244H149.158V245.695H179.242V242.244Z" fill="#FFC931"/>
<path d="M176.725 238.792H146.641V242.244H176.725V238.792Z" fill="#FFC931"/>
<path d="M180.212 235.343H150.129V238.795H180.212V235.343Z" fill="#FFC931"/>
<path d="M176.725 231.894H146.641V235.346H176.725V231.894Z" fill="#FFC931"/>
<path d="M179.242 228.442H149.158V231.894H179.242V228.442Z" fill="#FFC931"/>
<path d="M175.474 224.991H145.391V228.442H175.474V224.991Z" fill="#FFC931"/>
<g style="mix-blend-mode:multiply" opacity="0.5">
<g style="mix-blend-mode:multiply" opacity="0.5">
<path d="M161.672 224.991H175.463V228.447H179.231V231.899H176.713V235.348H180.198V238.799H176.713V242.248H179.231V245.697H176.203V249.148H162.412C161.118 249.132 161.44 247.546 161.409 246.689C161.429 245.568 162.638 245.675 163.434 245.697C164.724 245.697 164.408 244.066 164.437 243.237C164.287 241.417 162.07 243.072 161.92 241.252C161.839 238.778 161.967 238.731 164.404 238.796C165.693 238.796 165.378 237.164 165.407 236.336C165.407 235.056 163.746 235.374 162.923 235.344C161.635 235.349 161.948 233.714 161.92 232.887C162.069 231.068 164.288 232.722 164.437 230.903C164.571 228.146 164.148 228.436 161.672 228.443C160.385 228.451 160.698 226.808 160.67 225.984C160.67 225.853 160.697 225.723 160.748 225.602C160.798 225.481 160.872 225.372 160.965 225.279C161.058 225.187 161.169 225.114 161.29 225.065C161.411 225.015 161.541 224.99 161.672 224.991Z" fill="#F99247"/>
</g>
</g>
<path d="M175.463 224.868H145.391V225.111H175.463V224.868Z" fill="white"/>
<path d="M179.231 228.321H149.158V228.565H179.231V228.321Z" fill="white"/>
<path d="M176.714 231.772H146.641V232.016H176.714V231.772Z" fill="white"/>
<path d="M180.201 235.221H150.129V235.465H180.201V235.221Z" fill="white"/>
<path d="M180.201 238.673H150.129V238.917H180.201V238.673Z" fill="white"/>
<path d="M176.714 242.121H146.641V242.365H176.714V242.121Z" fill="white"/>
<path d="M176.203 245.574H146.13V245.817H176.203V245.574Z" fill="white"/>
<path d="M154.227 229.914C154.054 231.434 152.654 231.839 152.654 231.839C152.654 231.839 154.054 232.246 154.227 233.765C154.399 232.245 155.8 231.839 155.8 231.839C155.8 231.839 154.399 231.432 154.227 229.914Z" fill="white"/>
<path d="M178.156 219.355C178.136 219.52 178.07 219.675 177.965 219.803C177.861 219.931 177.722 220.027 177.565 220.079C177.722 220.132 177.86 220.227 177.965 220.355C178.07 220.483 178.136 220.638 178.156 220.802C178.176 220.638 178.242 220.483 178.347 220.355C178.451 220.227 178.59 220.132 178.747 220.079C178.59 220.027 178.451 219.931 178.346 219.803C178.242 219.675 178.176 219.52 178.156 219.355Z" fill="white"/>
<path d="M201.365 233.679C201.216 234.991 200.005 235.343 200.005 235.343C200.005 235.343 201.216 235.694 201.365 237.007C201.515 235.694 202.726 235.343 202.726 235.343C202.726 235.343 201.515 234.991 201.365 233.679Z" fill="white"/>
<path d="M217.984 211.188H188.243V214.641H217.984V211.188Z" fill="#FFC931"/>
<path d="M215.496 207.736H185.752V211.188H215.496V207.736Z" fill="#FFC931"/>
<path d="M218.941 204.289H189.2V207.739H218.941V204.289Z" fill="#FFC931"/>
<path d="M215.496 200.839H185.752V204.292H215.496V200.839Z" fill="#FFC931"/>
<path d="M217.984 197.388H188.243V200.84H217.984V197.388Z" fill="#FFC931"/>
<path d="M214.259 193.935H184.518V197.388H214.259V193.935Z" fill="#FFC931"/>
<path d="M217.984 190.483H188.243V193.935H217.984V190.483Z" fill="#FFC931"/>
<path d="M216.001 187.033H186.257V190.483H216.001V187.033Z" fill="#FFC931"/>
<path d="M217.984 183.581H188.243V187.033H217.984V183.581Z" fill="#FFC931"/>
<path d="M218.934 207.738V204.289H215.486V200.839H217.973V197.388H214.248V193.935H217.973V190.483H215.99V187.034H217.973V183.58H204.339C203.06 183.58 203.379 185.214 203.348 186.038C203.322 187.517 201.387 186.549 201.362 188.024V189.491C201.389 190.967 203.328 189.997 203.348 191.476C203.319 192.306 203.632 193.936 202.357 193.934C201.517 194.003 199.619 193.555 199.624 194.925C199.653 195.75 199.339 197.391 200.614 197.387C203.07 197.372 203.483 197.112 203.348 199.847C203.211 201.654 200.995 200.026 200.857 201.831C200.884 202.647 200.578 204.299 201.851 204.288C202.208 204.298 203.488 204.208 203.793 204.41C204.556 204.729 204.248 206.119 204.306 206.746C204.228 208.756 200.934 206.72 200.857 208.732C200.884 209.537 200.578 211.206 201.851 211.187C202.139 211.17 202.587 211.163 202.834 211.309C203.598 211.639 203.29 213.015 203.348 213.648C203.348 213.911 203.243 214.163 203.057 214.349C202.872 214.535 202.62 214.64 202.357 214.64H217.973V211.188H215.486V207.738H218.934Z" fill="#F99247"/>
<path d="M215.99 186.91H186.258V187.153H215.99V186.91Z" fill="white"/>
<path d="M217.973 190.361H188.243V190.604H217.973V190.361Z" fill="white"/>
<path d="M214.249 193.813H184.517V194.057H214.249V193.813Z" fill="white"/>
<path d="M217.973 197.266H188.243V197.509H217.973V197.266Z" fill="white"/>
<path d="M215.485 200.718H185.752V200.961H215.485V200.718Z" fill="white"/>
<path d="M218.933 204.165H189.2V204.411H218.933V204.165Z" fill="white"/>
<path d="M218.933 207.618H189.2V207.861H218.933V207.618Z" fill="white"/>
<path d="M215.485 211.067H185.752V211.311H215.485V211.067Z" fill="white"/>
<path d="M214.98 214.518H185.248V214.762H214.98V214.518Z" fill="white"/>
<path d="M204.365 202.623C204.215 203.936 203.006 204.288 203.006 204.288C203.006 204.288 204.215 204.64 204.365 205.953C204.515 204.64 205.725 204.288 205.725 204.288C205.725 204.288 204.513 203.936 204.365 202.623Z" fill="white"/>
<path d="M159.464 235.974C159.358 236.904 158.5 237.152 158.5 237.152C158.5 237.152 159.358 237.401 159.464 238.331C159.57 237.401 160.427 237.152 160.427 237.152C160.427 237.152 159.57 236.904 159.464 235.974Z" fill="white"/>
<path d="M193.281 219.128C193.257 219.324 193.178 219.51 193.053 219.663C192.928 219.816 192.762 219.93 192.574 219.993C192.762 220.055 192.928 220.169 193.053 220.322C193.178 220.475 193.257 220.661 193.281 220.857C193.305 220.661 193.384 220.475 193.509 220.322C193.634 220.169 193.8 220.055 193.988 219.993C193.8 219.93 193.634 219.816 193.509 219.663C193.384 219.51 193.305 219.324 193.281 219.128Z" fill="white"/>
<path d="M192.355 239.53C192.245 240.487 191.363 240.743 191.363 240.743C191.363 240.743 192.245 241.001 192.355 241.958C192.464 241.001 193.347 240.743 193.347 240.743C193.347 240.743 192.464 240.487 192.355 239.53Z" fill="white"/>
<path d="M259.16 273.39H56.0045V274H259.16V273.39Z" fill="white"/>
<defs>
<linearGradient id="paint0_linear_689_1162" x1="156" y1="-147" x2="156" y2="586.114" gradientUnits="userSpaceOnUse">
<stop stop-color="#003D86"/>
<stop offset="0.54085" stop-color="#1D4BC1" stop-opacity="0"/>
</linearGradient>
<linearGradient id="paint1_linear_689_1162" x1="156" y1="-134" x2="157.605" y2="518.83" gradientUnits="userSpaceOnUse">
<stop offset="0.0836398" stop-color="#1D68C1"/>
<stop offset="0.572985" stop-color="#003D86" stop-opacity="0"/>
</linearGradient>
</defs>
</svg>
