<svg width="18" height="24" viewBox="0 0 18 24" fill="none" xmlns="http://www.w3.org/2000/svg">
<g clip-path="url(#clip0_2108_2004)">
<path d="M16.9219 10.0782C17.5922 10.4907 18 11.2172 18 12C18 12.7829 17.5922 13.5094 16.9219 13.8797L3.42328 22.1297C2.72859 22.5938 1.85906 22.6125 1.14938 22.2141C0.800572 22.0184 0.510223 21.7332 0.308208 21.388C0.106193 21.0428 -0.000192551 20.65 2.61625e-07 20.25V3.75004C5.72688e-05 3.35031 0.106561 2.9578 0.308563 2.61286C0.510566 2.26793 0.80078 1.983 1.14938 1.78738C1.49805 1.59195 1.89248 1.4929 2.29211 1.5004C2.69175 1.50789 3.08218 1.62167 3.42328 1.83004L16.9219 10.0782Z" fill="white"/>
</g>
<defs>
<clipPath id="clip0_2108_2004">
<rect width="18" height="24" fill="white"/>
</clipPath>
</defs>
</svg>
