<svg width="31" height="20" viewBox="0 0 31 20" fill="none" xmlns="http://www.w3.org/2000/svg">
<path d="M11.2969 2.03857H19.669V17.0236H11.2969V2.03857Z" fill="#FF5F00"/>
<path d="M11.8274 9.53114C11.8274 6.48651 13.2626 3.78597 15.4685 2.03855C13.8473 0.767759 11.8009 0 9.5683 0C4.27904 0 0 4.26247 0 9.53114C0 14.7997 4.27904 19.0623 9.56817 19.0623C11.8007 19.0623 13.8472 18.2945 15.4685 17.0236C13.2626 15.3027 11.8274 12.5758 11.8274 9.53114Z" fill="#EB001B"/>
<path d="M30.9646 9.53114C30.9646 14.7997 26.6855 19.0623 21.3964 19.0623C19.1638 19.0623 17.1174 18.2945 15.4961 17.0236C17.7287 15.2763 19.1373 12.5758 19.1373 9.53114C19.1373 6.48651 17.702 3.78597 15.4961 2.03855C17.1172 0.767759 19.1638 0 21.3964 0C26.6855 0 30.9647 4.28901 30.9647 9.53114H30.9646Z" fill="#F79E1B"/>
</svg>
