<svg width="48" height="55" viewBox="0 0 48 55" fill="none" xmlns="http://www.w3.org/2000/svg">
<path d="M11.8164 12.0312C11.8164 8.84036 13.0613 5.78018 15.2773 3.52388C17.4934 1.26758 20.4989 0 23.6328 0C26.7667 0 29.7723 1.26758 31.9883 3.52388C34.2043 5.78018 35.4492 8.84036 35.4492 12.0312V17.1875H42.2015C43.5446 17.1875 44.8326 17.7307 45.7824 18.6977C46.7321 19.6647 47.2656 20.9762 47.2656 22.3438V44.6875C47.2656 47.4225 46.1985 50.0456 44.2991 51.9795C42.3997 53.9135 39.8235 55 37.1373 55H10.1283C7.44214 55 4.86596 53.9135 2.96653 51.9795C1.06709 50.0456 0 47.4225 0 44.6875V22.3438C0 20.9762 0.533547 19.6647 1.48326 18.6977C2.43298 17.7307 3.72107 17.1875 5.06417 17.1875H11.8164V12.0312ZM16.8806 17.1875H30.385V12.0312C30.385 10.2079 29.6737 8.4592 28.4074 7.16989C27.1411 5.88057 25.4236 5.15625 23.6328 5.15625C21.842 5.15625 20.1245 5.88057 18.8583 7.16989C17.592 8.4592 16.8806 10.2079 16.8806 12.0312V17.1875ZM14.3485 27.5C14.8493 27.5 15.3388 27.3488 15.7552 27.0655C16.1716 26.7822 16.4962 26.3796 16.6878 25.9085C16.8795 25.4374 16.9296 24.919 16.8319 24.4189C16.7342 23.9188 16.4931 23.4594 16.139 23.0989C15.7848 22.7383 15.3337 22.4928 14.8425 22.3933C14.3513 22.2938 13.8422 22.3449 13.3795 22.54C12.9168 22.7351 12.5214 23.0656 12.2431 23.4895C11.9649 23.9135 11.8164 24.412 11.8164 24.9219C11.8155 25.2607 11.8804 25.5963 12.0073 25.9095C12.1343 26.2227 12.3208 26.5073 12.5561 26.7469C12.7914 26.9865 13.0708 27.1763 13.3785 27.3056C13.6861 27.4348 14.0157 27.5009 14.3485 27.5ZM32.9171 22.3438C32.4163 22.3438 31.9268 22.495 31.5104 22.7782C31.094 23.0615 30.7694 23.4642 30.5778 23.9353C30.3861 24.4064 30.336 24.9247 30.4337 25.4248C30.5314 25.925 30.7726 26.3843 31.1267 26.7449C31.4808 27.1054 31.932 27.351 32.4231 27.4505C32.9143 27.5499 33.4234 27.4989 33.8861 27.3037C34.3488 27.1086 34.7443 26.7782 35.0225 26.3542C35.3007 25.9302 35.4492 25.4318 35.4492 24.9219C35.4501 24.5831 35.3852 24.2474 35.2583 23.9342C35.1314 23.621 34.9449 23.3364 34.7096 23.0968C34.4743 22.8573 34.1948 22.6674 33.8872 22.5382C33.5796 22.4089 33.2499 22.3428 32.9171 22.3438Z" fill="white"/>
</svg>
