<svg width="28" height="28" viewBox="0 0 28 28" fill="none" xmlns="http://www.w3.org/2000/svg">
<circle cx="14" cy="14" r="14" fill="#F2F2F2"/>
<path d="M20.6613 11.1109C20.4441 10.6135 20.1309 10.1628 19.7392 9.78402C19.3472 9.40408 18.8851 9.10215 18.3779 8.89465C17.852 8.67862 17.288 8.56805 16.7185 8.56935C15.9195 8.56935 15.1401 8.78568 14.4627 9.19431C14.3006 9.29206 14.1467 9.39943 14.0008 9.51641C13.855 9.39943 13.701 9.29206 13.5389 9.19431C12.8616 8.78568 12.0821 8.56935 11.2831 8.56935C10.7078 8.56935 10.1504 8.67832 9.62368 8.89465C9.11483 9.10297 8.65621 9.40263 8.26241 9.78402C7.87023 10.1624 7.55695 10.6132 7.34032 11.1109C7.11506 11.6285 7 12.1781 7 12.7438C7 13.2774 7.1102 13.8335 7.32897 14.3991C7.5121 14.8719 7.77463 15.3622 8.11008 15.8574C8.64162 16.641 9.37249 17.4582 10.28 18.2867C11.7839 19.66 13.2732 20.6087 13.3364 20.6472L13.7204 20.8907C13.8906 20.9981 14.1094 20.9981 14.2795 20.8907L14.6636 20.6472C14.7268 20.6071 16.2145 19.66 17.72 18.2867C18.6275 17.4582 19.3584 16.641 19.8899 15.8574C20.2254 15.3622 20.4895 14.8719 20.671 14.3991C20.8898 13.8335 21 13.2774 21 12.7438C21.0016 12.1781 20.8865 11.6285 20.6613 11.1109Z" fill="#488FE0"/>
</svg>
