<svg width="39" height="12" viewBox="0 0 39 12" fill="none" xmlns="http://www.w3.org/2000/svg">
<path d="M17.0782 11.8268H14.0723L15.9524 0.210449H18.9582L17.0782 11.8268Z" fill="#00579F"/>
<path d="M27.974 0.494553C27.3811 0.259513 26.4407 0 25.2779 0C22.3095 0 20.2191 1.58171 20.2063 3.84309C20.1816 5.51152 21.7029 6.43821 22.8407 6.99452C24.0037 7.56299 24.399 7.93403 24.399 8.44073C24.3872 9.21894 23.4593 9.57766 22.5938 9.57766C21.3937 9.57766 20.7507 9.39272 19.7735 8.95976L19.3777 8.77416L18.957 11.3818C19.662 11.7027 20.9609 11.9875 22.3095 12C25.4635 12 27.5169 10.4428 27.5412 8.0329C27.5532 6.71054 26.7499 5.69729 25.018 4.86931C23.9667 4.3378 23.3228 3.97941 23.3228 3.43559C23.3352 2.9412 23.8674 2.43482 25.0542 2.43482C26.0314 2.41002 26.7494 2.64473 27.2933 2.87961L27.5652 3.00296L27.974 0.494553Z" fill="#00579F"/>
<path d="M31.971 7.71151C32.2185 7.04417 33.1711 4.46136 33.1711 4.46136C33.1586 4.48617 33.4181 3.7817 33.5666 3.34924L33.7766 4.35017C33.7766 4.35017 34.3459 7.13073 34.4695 7.71151C33.9997 7.71151 32.5647 7.71151 31.971 7.71151ZM35.6814 0.210449H33.3563C32.6393 0.210449 32.0946 0.420359 31.7852 1.17426L27.3203 11.8266H30.4743C30.4743 11.8266 30.9936 10.3929 31.1052 10.0841C31.4512 10.0841 34.5195 10.0841 34.9646 10.0841C35.0509 10.4919 35.3233 11.8266 35.3233 11.8266H38.1065L35.6814 0.210449Z" fill="#00579F"/>
<path d="M11.562 0.210449L8.61821 8.13166L8.29653 6.52515C7.75228 4.67144 6.04541 2.65742 4.14062 1.656L6.83704 11.8144H10.0157L14.7405 0.210449H11.562Z" fill="#00579F"/>
<path d="M5.88377 0.210449H1.04752L0.998047 0.445187C4.77062 1.40927 7.26913 3.73316 8.29565 6.52637L7.24431 1.18702C7.07122 0.445023 6.5393 0.234925 5.88377 0.210449Z" fill="#FAA61A"/>
</svg>
