<svg width="16" height="16" viewBox="0 0 16 16" fill="none" xmlns="http://www.w3.org/2000/svg">
<path fill-rule="evenodd" clip-rule="evenodd" d="M5.83333 1.3335C5.83333 1.05735 5.60948 0.833496 5.33333 0.833496C5.05719 0.833496 4.83333 1.05735 4.83333 1.3335V2.33805C3.254 2.42453 2 3.73257 2 5.33349V5.50016H14V5.3335C14 3.73257 12.746 2.42453 11.1667 2.33805V1.3335C11.1667 1.05735 10.9428 0.833496 10.6667 0.833496C10.3905 0.833496 10.1667 1.05735 10.1667 1.3335V2.3335H5.83333V1.3335ZM2 6.50016H14V11.6668C14 13.3237 12.6569 14.6668 11 14.6668H5C3.34315 14.6668 2 13.3237 2 11.6668V6.50016ZM8 10.6668C8.36819 10.6668 8.66667 10.3684 8.66667 10.0002C8.66667 9.63197 8.36819 9.3335 8 9.3335C7.63181 9.3335 7.33333 9.63197 7.33333 10.0002C7.33333 10.3684 7.63181 10.6668 8 10.6668ZM11.3333 10.0002C11.3333 10.3684 11.0349 10.6668 10.6667 10.6668C10.2985 10.6668 10 10.3684 10 10.0002C10 9.63197 10.2985 9.3335 10.6667 9.3335C11.0349 9.3335 11.3333 9.63197 11.3333 10.0002ZM5.33333 10.6668C5.70152 10.6668 6 10.3684 6 10.0002C6 9.63197 5.70152 9.3335 5.33333 9.3335C4.96514 9.3335 4.66667 9.63197 4.66667 10.0002C4.66667 10.3684 4.96514 10.6668 5.33333 10.6668Z" fill="#9E9E9E"/>
</svg>
