<svg width="375" height="116" viewBox="0 0 375 116" fill="none" xmlns="http://www.w3.org/2000/svg">
<path d="M0 26C0 17.7157 6.71573 11 15 11H360C368.284 11 375 17.7157 375 26V116H0V26Z" fill="white"/>
<circle cx="188" cy="38" r="38" fill="white"/>
<circle cx="187.5" cy="38.5" r="32.5" fill="#F5F5F5"/>
<path fill-rule="evenodd" clip-rule="evenodd" d="M177.933 28.995C179.184 27.732 180.671 26.7288 182.311 26.0431C183.95 25.3575 185.709 25.003 187.487 25C189.264 24.9971 191.024 25.3457 192.666 26.0259C194.308 26.7061 195.799 27.7044 197.053 28.9633C198.939 30.8527 200.222 33.2583 200.742 35.8764C201.261 38.4946 200.993 41.208 199.972 43.6742C198.951 46.1403 197.222 48.2486 195.003 49.733C192.785 51.2173 190.177 52.0112 187.507 52.0144C183.93 52.0079 180.501 50.5849 177.97 48.0566C175.439 45.5283 174.012 42.1006 174.002 38.5232C173.97 36.7506 174.303 34.9903 174.979 33.3513C175.655 31.7124 176.661 30.2297 177.933 28.995ZM194.294 39.8395V37.1752H188.841V31.7194H186.177V37.1716H180.725V39.836H186.177V45.2882H188.841V39.836L194.294 39.8395Z" fill="#034694"/>
</svg>
