<svg width="24" height="24" viewBox="0 0 24 24" fill="none" xmlns="http://www.w3.org/2000/svg">
<circle cx="12" cy="12" r="12" fill="#EB5757"/>
<path d="M16.0071 10.81L10.0581 16.76C9.73895 17.0784 9.33947 17.3044 8.90212 17.414L6.61912 17.984C6.53578 18.0048 6.44847 18.0037 6.36568 17.9808C6.28289 17.9579 6.20743 17.914 6.14664 17.8533C6.08585 17.7926 6.04179 17.7172 6.01874 17.6344C5.9957 17.5517 5.99445 17.4644 6.01512 17.381L6.58512 15.098C6.695 14.6603 6.92175 14.2608 7.24112 13.942L13.1891 7.992L16.0071 10.809V10.81ZM17.4171 6.584C17.7902 6.95782 17.9997 7.46438 17.9997 7.9925C17.9997 8.52062 17.7902 9.02717 17.4171 9.401L16.7111 10.105L13.8941 7.287L14.5991 6.584C14.9727 6.21046 15.4793 6.00061 16.0076 6.00061C16.5359 6.00061 17.0426 6.21046 17.4161 6.584H17.4171Z" fill="#FAFAFA"/>
</svg>
