<svg width="17" height="19" viewBox="0 0 17 19" fill="none" xmlns="http://www.w3.org/2000/svg">
<path d="M13.4499 13.5749L9.73725 17.2875C9.57489 17.45 9.38209 17.5789 9.16987 17.6669C8.95765 17.7549 8.73017 17.8002 8.50044 17.8002C8.27071 17.8002 8.04323 17.7549 7.83101 17.6669C7.61879 17.5789 7.42599 17.45 7.26363 17.2875L3.55013 13.5749C2.5712 12.5959 1.90455 11.3486 1.63448 9.99074C1.36441 8.63289 1.50306 7.22544 2.03288 5.94638C2.5627 4.66732 3.45991 3.57409 4.61105 2.80493C5.76219 2.03578 7.11555 1.62524 8.5 1.62524C9.88446 1.62524 11.2378 2.03578 12.389 2.80493C13.5401 3.57409 14.4373 4.66732 14.9671 5.94638C15.4969 7.22544 15.6356 8.63289 15.3655 9.99074C15.0955 11.3486 14.4288 12.5959 13.4499 13.5749V13.5749Z" stroke="#424242" stroke-width="1.5" stroke-linecap="round" stroke-linejoin="round"/>
<path d="M11.125 8.625C11.125 9.32119 10.8484 9.98887 10.3562 10.4812C9.86387 10.9734 9.19619 11.25 8.5 11.25C7.80381 11.25 7.13613 10.9734 6.64384 10.4812C6.15156 9.98887 5.875 9.32119 5.875 8.625C5.875 7.92881 6.15156 7.26113 6.64384 6.76884C7.13613 6.27656 7.80381 6 8.5 6C9.19619 6 9.86387 6.27656 10.3562 6.76884C10.8484 7.26113 11.125 7.92881 11.125 8.625V8.625Z" stroke="#424242" stroke-width="1.5" stroke-linecap="round" stroke-linejoin="round"/>
</svg>
