<svg width="34" height="34" viewBox="0 0 34 34" fill="none" xmlns="http://www.w3.org/2000/svg">
<path d="M25.5 21.2503V18.417H28.3333C28.7347 18.417 29.0709 18.5525 29.342 18.8236C29.614 19.0956 29.75 19.4323 29.75 19.8337C29.75 20.235 29.614 20.5713 29.342 20.8423C29.0709 21.1143 28.7347 21.2503 28.3333 21.2503H25.5ZM25.5 26.917V24.0837H28.3333C28.7347 24.0837 29.0709 24.2197 29.342 24.4917C29.614 24.7627 29.75 25.0989 29.75 25.5003C29.75 25.9017 29.614 26.2379 29.342 26.509C29.0709 26.781 28.7347 26.917 28.3333 26.917H25.5ZM19.8333 28.3337C19.0542 28.3337 18.3874 28.0565 17.833 27.5021C17.2777 26.9467 17 26.2795 17 25.5003H14.1667V19.8337H17C17 19.0545 17.2777 18.3872 17.833 17.8319C18.3874 17.2775 19.0542 17.0003 19.8333 17.0003H24.0833V28.3337H19.8333ZM9.91667 24.0837C8.35833 24.0837 7.02431 23.5288 5.91458 22.4191C4.80486 21.3094 4.25 19.9753 4.25 18.417C4.25 16.8587 4.80486 15.5246 5.91458 14.4149C7.02431 13.3052 8.35833 12.7503 9.91667 12.7503H12.0417C12.6319 12.7503 13.1334 12.5435 13.5462 12.1298C13.9598 11.7171 14.1667 11.2156 14.1667 10.6253C14.1667 10.035 13.9598 9.53355 13.5462 9.12083C13.1334 8.70716 12.6319 8.50033 12.0417 8.50033H7.08333C6.68194 8.50033 6.34525 8.3648 6.07325 8.09374C5.80219 7.82174 5.66667 7.48505 5.66667 7.08366C5.66667 6.68227 5.80219 6.34558 6.07325 6.07358C6.34525 5.80252 6.68194 5.66699 7.08333 5.66699H12.0417C13.4111 5.66699 14.5799 6.15102 15.5479 7.11908C16.516 8.08713 17 9.25588 17 10.6253C17 11.9948 16.516 13.1635 15.5479 14.1316C14.5799 15.0996 13.4111 15.5837 12.0417 15.5837H9.91667C9.1375 15.5837 8.47072 15.8609 7.91633 16.4152C7.361 16.9706 7.08333 17.6378 7.08333 18.417C7.08333 19.1962 7.361 19.8629 7.91633 20.4173C8.47072 20.9727 9.1375 21.2503 9.91667 21.2503H12.75V24.0837H9.91667Z" fill="#9E9E9E"/>
</svg>
