<svg width="34" height="34" viewBox="0 0 34 34" fill="none" xmlns="http://www.w3.org/2000/svg">
<circle opacity="0.1" cx="17" cy="17" r="17" fill="#488FE0"/>
<path d="M25.51 13.5861L20.0551 12.7934L17.6166 7.84981C17.55 7.71445 17.4404 7.60488 17.3051 7.53828C16.9656 7.3707 16.5531 7.51035 16.3834 7.84981L13.9449 12.7934L8.49004 13.5861C8.33965 13.6076 8.20215 13.6785 8.09688 13.7859C7.96961 13.9168 7.89948 14.0927 7.90189 14.2752C7.90431 14.4577 7.97908 14.6318 8.10977 14.7592L12.0564 18.607L11.124 24.0404C11.1022 24.1668 11.1161 24.2968 11.1644 24.4157C11.2127 24.5345 11.2932 24.6375 11.397 24.7128C11.5008 24.7882 11.6236 24.833 11.7516 24.8421C11.8795 24.8513 12.0075 24.8243 12.1209 24.7645L17 22.1992L21.8791 24.7645C22.0123 24.8354 22.167 24.859 22.3152 24.8332C22.6891 24.7688 22.9404 24.4143 22.876 24.0404L21.9436 18.607L25.8902 14.7592C25.9977 14.6539 26.0686 14.5164 26.09 14.366C26.148 13.99 25.8859 13.642 25.51 13.5861Z" fill="#488FE0"/>
</svg>
