<svg width="34" height="34" viewBox="0 0 34 34" fill="none" xmlns="http://www.w3.org/2000/svg">
<circle opacity="0.1" cx="17" cy="17" r="17" fill="#488FE0"/>
<path d="M8 11.9999C8 10.8952 8.89531 9.99991 10 9.99991H24C25.1031 9.99991 26 10.8952 26 11.9999V21.9999C26 23.103 25.1031 23.9999 24 23.9999H10C8.89531 23.9999 8 23.103 8 21.9999V11.9999ZM13 16.9999C13 16.4468 12.5531 15.9999 12 15.9999C11.4469 15.9999 11 16.4468 11 16.9999C11 17.553 11.4469 17.9999 12 17.9999C12.5531 17.9999 13 17.553 13 16.9999ZM13 13.9999C13 13.4468 12.5531 12.9999 12 12.9999C11.4469 12.9999 11 13.4468 11 13.9999C11 14.553 11.4469 14.9999 12 14.9999C12.5531 14.9999 13 14.553 13 13.9999ZM13 19.9999C13 19.4468 12.5531 18.9999 12 18.9999C11.4469 18.9999 11 19.4468 11 19.9999C11 20.553 11.4469 20.9999 12 20.9999C12.5531 20.9999 13 20.553 13 19.9999ZM15 13.2499C14.5844 13.2499 14.25 13.5843 14.25 13.9999C14.25 14.4155 14.5844 14.7499 15 14.7499H22C22.4156 14.7499 22.75 14.4155 22.75 13.9999C22.75 13.5843 22.4156 13.2499 22 13.2499H15ZM15 16.2499C14.5844 16.2499 14.25 16.5843 14.25 16.9999C14.25 17.4155 14.5844 17.7499 15 17.7499H22C22.4156 17.7499 22.75 17.4155 22.75 16.9999C22.75 16.5843 22.4156 16.2499 22 16.2499H15ZM15 19.2499C14.5844 19.2499 14.25 19.5843 14.25 19.9999C14.25 20.4155 14.5844 20.7499 15 20.7499H22C22.4156 20.7499 22.75 20.4155 22.75 19.9999C22.75 19.5843 22.4156 19.2499 22 19.2499H15Z" fill="#488FE0"/>
</svg>
