<svg width="58" height="58" viewBox="0 0 58 58" fill="none" xmlns="http://www.w3.org/2000/svg">
<circle cx="29" cy="29" r="29" fill="url(#paint0_linear_2181_4796)"/>
<path d="M41 29C41 30.106 40.904 31 39.798 31H31V39.798C31 40.902 30.106 41 29 41C27.894 41 27 40.902 27 39.798V31H18.202C17.098 31 17 30.106 17 29C17 27.894 17.098 27 18.202 27H27V18.202C27 17.096 27.894 17 29 17C30.106 17 31 17.096 31 18.202V27H39.798C40.904 27 41 27.894 41 29Z" fill="white"/>
<defs>
<linearGradient id="paint0_linear_2181_4796" x1="0" y1="0" x2="108.579" y2="49.2268" gradientUnits="userSpaceOnUse">
<stop offset="0.0137935" stop-color="#6AE2FE"/>
<stop offset="0.014378" stop-color="#6AE2FE"/>
<stop offset="0.317484" stop-color="#338FC6"/>
<stop offset="0.513457" stop-color="#034694"/>
<stop offset="0.714398" stop-color="#000039"/>
</linearGradient>
</defs>
</svg>
