<svg width="34" height="34" viewBox="0 0 34 34" fill="none" xmlns="http://www.w3.org/2000/svg">
<path d="M32.2051 10.0301C32.2595 10.2273 32.1908 10.4449 32.0759 10.6149L28.4107 16.0685C28.2747 16.2793 27.9891 16.3949 27.7504 16.3949C27.6824 16.3949 27.492 16.3813 27.4179 16.3609L24.4803 15.6401V28.5601C24.4803 28.9545 24.2015 29.2401 23.8003 29.2401H9.52026C9.11906 29.2401 8.84026 28.9545 8.84026 28.5601V15.6401L6.20186 16.3677C5.89586 16.4629 5.63066 16.3405 5.46066 16.0753L1.82266 10.6353C1.70706 10.4585 1.67306 10.2613 1.72746 10.0641C1.77506 9.86012 1.91786 9.72412 2.10146 9.62892L9.52026 6.12012H12.9203C13.3215 6.12012 13.6003 6.39892 13.6003 6.80012C13.6003 8.20092 15.5655 9.19372 16.9663 9.19372C18.3671 9.19372 20.4003 8.20772 20.4003 6.80012C20.4003 6.40572 20.6791 6.12012 21.0803 6.12012H24.4803L31.8243 9.56092C32.0147 9.65612 32.1507 9.82612 32.2051 10.0301Z" fill="#9E9E9E"/>
</svg>
