<svg width="34" height="34" viewBox="0 0 34 34" fill="none" xmlns="http://www.w3.org/2000/svg">
<path d="M22.3125 27.1008C21.1367 27.1008 20.1875 25.9108 20.1875 24.4375C20.1875 22.9783 21.1367 21.7883 22.3125 21.7883C23.4884 21.7883 24.4375 22.9783 24.4375 24.4375C24.4375 25.9108 23.4884 27.1008 22.3125 27.1008ZM17 15.9375C15.2434 15.9375 13.8125 14.7475 13.8125 13.2883C13.8125 11.815 15.2434 10.625 17 10.625C18.7567 10.625 20.1875 11.815 20.1875 13.2883C20.1875 14.7475 18.7567 15.9375 17 15.9375ZM11.6875 27.1008C10.5117 27.1008 9.56252 25.9108 9.56252 24.4375C9.56252 22.9783 10.5117 21.7883 11.6875 21.7883C12.8634 21.7883 13.8125 22.9783 13.8125 24.4375C13.8125 25.9108 12.8634 27.1008 11.6875 27.1008ZM17 11.6875C17.5809 11.6875 18.0625 12.1692 18.0625 12.75C18.0625 13.3308 17.5809 13.8125 17 13.8125C16.4192 13.8125 15.9375 13.3308 15.9375 12.75C15.9375 12.1692 16.4192 11.6875 17 11.6875ZM26.5625 17C26.1092 17 25.67 17.0992 25.2734 17.2833C24.5934 16.4192 23.6725 15.6825 22.5675 15.1158C23.375 13.9825 23.8567 12.6083 23.8567 11.1208V11.0358C25.4009 10.71 26.5625 9.33583 26.5625 7.67833C26.5625 5.79417 25.0184 4.25 23.1342 4.25C22.1567 4.25 21.25 4.66083 20.655 5.3125C19.5622 4.6186 18.2945 4.2501 17 4.2501C15.7055 4.2501 14.4378 4.6186 13.345 5.3125C12.75 4.66083 11.8434 4.25 10.8659 4.25C8.98168 4.25 7.43752 5.79417 7.43752 7.67833C7.43752 9.32167 8.59918 10.6958 10.1292 11.0358V11.1208C10.1292 12.6083 10.625 13.9967 11.4184 15.1158C10.3275 15.6825 9.40668 16.4192 8.72669 17.2833C8.24256 17.0652 7.71145 16.9721 7.18201 17.0125C6.65257 17.0529 6.14173 17.2255 5.69627 17.5145C5.25082 17.8034 4.885 18.1996 4.63233 18.6666C4.37965 19.1336 4.2482 19.6565 4.25002 20.1875C4.25002 21.9583 5.66669 23.375 7.43752 23.375H7.52252C7.46585 23.715 7.43752 24.0833 7.43752 24.4375C7.43752 27.37 9.33585 29.75 11.6875 29.75C13.1184 29.75 14.3792 28.8575 15.1584 27.4975C15.7534 27.5825 16.3625 27.625 17 27.625C17.6375 27.625 18.2467 27.5825 18.8417 27.4975C19.6209 28.8575 20.8817 29.75 22.3125 29.75C24.6642 29.75 26.5625 27.37 26.5625 24.4375C26.5625 24.0833 26.5342 23.715 26.4775 23.375H26.5625C28.3334 23.375 29.75 21.9583 29.75 20.1875C29.75 18.4167 28.3334 17 26.5625 17Z" fill="#9E9E9E"/>
</svg>
