<svg width="55" height="55" viewBox="0 0 55 55" fill="none" xmlns="http://www.w3.org/2000/svg">
<path d="M55 8.59294C55 10.5341 53.4632 12.3103 50.875 13.75C47.7497 15.4809 43.1103 16.7038 37.7365 17.0694C37.3515 16.8882 36.9438 16.7038 36.5329 16.5324C32.2915 14.7594 26.6621 13.75 20.625 13.75C19.7321 13.75 18.8618 13.7727 17.9915 13.8147L17.875 13.75C15.2868 12.3103 13.75 10.5147 13.75 8.59294C13.75 3.84676 22.8929 0 34.375 0C45.76 0 55 3.84676 55 8.59294ZM17.2635 17.3056C18.3571 17.2312 19.4765 17.1891 20.625 17.1891C27.3059 17.1891 33.2426 18.5091 37.0053 20.5603C39.6712 22.0097 41.25 23.815 41.25 25.7821C41.2424 26.2099 41.1659 26.6338 41.0235 27.0374C40.5285 28.4577 39.1115 29.755 37.2641 30.8615C37.2483 30.8651 37.2338 30.8729 37.2221 30.8841C37.1897 30.9068 37.1574 30.9165 37.125 30.9391C33.3656 33.0226 27.3706 34.375 20.625 34.375C14.2224 34.375 8.49265 33.1618 4.71059 31.2497C4.50676 31.1429 4.31265 30.9488 4.125 30.9262C1.53676 29.4865 0 27.6909 0 25.7691C0 22.0291 5.73941 18.8391 13.75 17.6809C14.8791 17.5094 16.0471 17.38 17.2635 17.3056ZM42.0976 20.0459C44.9031 19.6353 47.6504 18.8958 50.2829 17.8426C51.9802 17.1649 53.5693 16.2428 55 15.1056V18.9071C55 20.9809 53.2271 22.8929 50.2959 24.3747C48.501 25.2464 46.6123 25.9097 44.6665 26.3515C44.6665 26.1671 44.6859 25.9762 44.6859 25.7821C44.6859 23.43 43.5471 21.4953 42.0976 20.0459ZM41.25 36.0929C41.25 38.0341 39.7132 39.8103 37.125 41.25C36.9309 41.25 36.7368 41.4538 36.5459 41.5735C32.7541 43.4856 27.0276 44.7021 20.625 44.7021C13.8794 44.7021 7.88765 43.3465 4.125 41.2629C1.53676 39.8232 0 38.0276 0 36.1059V32.2915C1.43078 33.4311 3.02119 34.3544 4.72029 35.0318C8.96176 36.8047 14.5879 37.8141 20.625 37.8141C26.6621 37.8141 32.2915 36.8047 36.5329 35.0318C37.3582 34.6904 38.1621 34.2993 38.94 33.8606C39.5815 33.5003 40.1986 33.0983 40.7874 32.6571C40.9491 32.5374 41.1109 32.4112 41.25 32.2915V36.0929ZM44.6859 29.8747C46.6271 29.3376 48.6071 28.8556 50.2829 28.1568C51.9804 27.478 53.5695 26.5548 55 25.4165V29.2179C55 30.3471 54.4629 31.4827 53.3985 32.5374C51.6482 34.2909 48.565 35.7306 44.6632 36.6624C44.6632 36.4812 44.6826 36.2871 44.6826 36.0929L44.6859 29.8747ZM20.625 48.125C26.6621 48.125 32.2915 47.1156 36.5329 45.3426C38.2302 44.6649 39.8193 43.7428 41.25 42.6056V46.4071C41.25 51.1532 32.01 55 20.625 55C9.24 55 0 51.1532 0 46.4071V42.6056C1.43093 43.7441 3.02134 44.6663 4.72029 45.3426C8.96176 47.1156 14.5879 48.125 20.625 48.125Z" fill="white"/>
</svg>
