<svg width="81" height="77" viewBox="0 0 81 77" fill="none" xmlns="http://www.w3.org/2000/svg">
<path d="M44.0773 2.23146C42.6788 -0.411789 38.33 -0.411789 36.9316 2.23146L0.556597 70.9398C0.229156 71.5556 0.0668245 72.2458 0.0854199 72.943C0.104015 73.6402 0.302903 74.3207 0.662705 74.9182C1.02251 75.5157 1.53095 76.0098 2.1385 76.3524C2.74604 76.695 3.43196 76.8743 4.12943 76.873H76.8794C77.5764 76.8744 78.2619 76.6952 78.869 76.3529C79.4761 76.0105 79.9842 75.5167 80.3436 74.9195C80.7031 74.3223 80.9016 73.6422 80.92 72.9454C80.9383 72.2487 80.7758 71.5591 80.4482 70.9438L44.0773 2.23146ZM44.5461 64.748H36.4628V56.6646H44.5461V64.748ZM36.4628 48.5813V28.373H44.5461L44.5501 48.5813H36.4628Z" fill="#212121"/>
</svg>
