<svg width="173" height="140" viewBox="0 0 173 140" fill="none" xmlns="http://www.w3.org/2000/svg">
<path d="M82.3314 56.3558V139.147L18.0508 111.383L18.3574 28.8906L82.3314 56.3558Z" fill="#E0E0E0"/>
<path d="M82.332 56.4048V139.196L146.3 112.391V29.1543L82.332 56.4048Z" fill="#D5D5D5"/>
<path d="M82.3314 56.356L146.612 29.4322L82.8363 1.16211L18.0508 28.7591L82.3314 56.356Z" fill="#E0E0E0"/>
<path d="M0.496916 43.526L65.187 74.9259C65.3608 75.0103 65.5576 75.0352 65.747 74.9969C65.9364 74.9586 66.108 74.8591 66.2354 74.7138L82.3315 56.3537L18.0509 28.7568L0.352949 42.0267C0.231935 42.1174 0.136283 42.2377 0.0751812 42.3761C0.0140797 42.5144 -0.0104177 42.6662 0.0040391 42.8167C0.0184959 42.9673 0.0714207 43.1116 0.157734 43.2358C0.244047 43.36 0.360848 43.4599 0.496916 43.526Z" fill="#CBCBCB"/>
<path d="M146.612 29.4307L164.464 45.571C164.573 45.6695 164.656 45.7935 164.705 45.932C164.754 46.0705 164.767 46.219 164.744 46.364C164.721 46.509 164.662 46.646 164.573 46.7625C164.484 46.879 164.367 46.9713 164.232 47.0312L100.34 75.5463C100.169 75.6225 99.979 75.6425 99.7963 75.6035C99.6136 75.5645 99.448 75.4685 99.3233 75.3294L82.3311 56.3545L146.612 29.4307Z" fill="#CBCBCB"/>
<path d="M82.8359 1.1601L146.791 29.4301L155.988 27.2983C156.169 27.2564 156.332 27.1585 156.454 27.0185C156.576 26.8786 156.651 26.7037 156.668 26.5188C156.684 26.3339 156.642 26.1485 156.548 25.9888C156.453 25.8292 156.31 25.7035 156.14 25.6297L97.7414 0.325631C97.6137 0.270247 97.4747 0.245925 97.3358 0.254668L82.8359 1.1601Z" fill="#CBCBCB"/>
<path d="M82.8365 1.16071L19.2402 28.8894L11.2008 27.5384C11.0147 27.5037 10.8446 27.41 10.7159 27.2712C10.5871 27.1324 10.5064 26.9558 10.4857 26.7676C10.4651 26.5794 10.5055 26.3895 10.6011 26.2261C10.6967 26.0626 10.8423 25.9343 11.0164 25.86L70.8582 0.0703816C70.9905 0.0141686 71.1345 -0.00893006 71.2777 0.00310002L82.8365 1.16071Z" fill="#CBCBCB"/>
<path d="M149.12 126.287C157.889 126.287 164.998 119.178 164.998 110.409C164.998 101.64 157.889 94.5312 149.12 94.5312C140.351 94.5312 133.242 101.64 133.242 110.409C133.242 119.178 140.351 126.287 149.12 126.287Z" fill="#E0E0E0" stroke="white" stroke-width="15" stroke-miterlimit="10"/>
<path d="M154.165 105.704C153.903 104.792 153.535 104.051 153.063 103.487C152.607 102.936 152.014 102.513 151.345 102.261C149.9 101.762 148.33 101.762 146.885 102.261C146.217 102.512 145.626 102.935 145.173 103.487C144.695 104.051 144.327 104.792 144.072 105.704C143.816 106.616 143.685 107.73 143.685 109.042V111.718C143.685 113.03 143.816 114.144 144.078 115.063C144.284 115.879 144.662 116.641 145.186 117.299C145.642 117.856 146.234 118.285 146.905 118.545C148.342 119.061 149.914 119.061 151.352 118.545C152.019 118.285 152.607 117.856 153.057 117.299C153.574 116.638 153.947 115.876 154.153 115.063C154.408 114.145 154.54 113.029 154.54 111.718H154.553V109.042C154.552 107.73 154.421 106.615 154.165 105.704ZM151.771 112.118C151.78 112.832 151.723 113.545 151.601 114.249C151.518 114.75 151.347 115.231 151.096 115.672C150.902 116.012 150.616 116.29 150.27 116.472C149.914 116.644 149.523 116.729 149.128 116.722C148.734 116.728 148.343 116.642 147.987 116.472C147.637 116.289 147.344 116.012 147.141 115.672C146.885 115.232 146.707 114.75 146.616 114.249C146.482 113.547 146.421 112.832 146.433 112.118V108.615C146.421 107.903 146.481 107.191 146.61 106.49C146.697 105.999 146.872 105.528 147.129 105.1C147.332 104.773 147.623 104.509 147.968 104.339C148.326 104.184 148.712 104.103 149.103 104.103C149.493 104.103 149.879 104.184 150.237 104.339C150.586 104.505 150.877 104.77 151.077 105.1C151.333 105.528 151.509 105.999 151.595 106.49C151.725 107.191 151.785 107.903 151.773 108.615V112.118H151.771Z" fill="white"/>
</svg>
