<svg width="34" height="34" viewBox="0 0 34 34" fill="none" xmlns="http://www.w3.org/2000/svg">
<circle opacity="0.1" cx="17" cy="17" r="17" fill="#488FE0"/>
<path d="M13.225 12C13.1313 12.0001 13.0389 12.0213 12.9545 12.062C12.8701 12.1027 12.796 12.1618 12.7375 12.235L8.925 17H14.5C14.6658 17 14.8247 17.0658 14.9419 17.1831C15.0592 17.3003 15.125 17.4592 15.125 17.625C15.125 18.1223 15.3225 18.5992 15.6742 18.9508C16.0258 19.3025 16.5027 19.5 17 19.5C17.4973 19.5 17.9742 19.3025 18.3258 18.9508C18.6775 18.5992 18.875 18.1223 18.875 17.625C18.875 17.4592 18.9409 17.3003 19.0581 17.1831C19.1753 17.0658 19.3342 17 19.5 17H25.075L21.2625 12.235C21.2041 12.1618 21.1299 12.1027 21.0455 12.062C20.9611 12.0213 20.8687 12.0001 20.775 12H13.225ZM11.7625 11.4537C11.938 11.2344 12.1605 11.0572 12.4137 10.9354C12.6668 10.8136 12.9441 10.7503 13.225 10.75H20.775C21.0559 10.7503 21.3332 10.8136 21.5863 10.9354C21.8395 11.0572 22.062 11.2344 22.2375 11.4537L26.8625 17.235C26.9147 17.3001 26.9533 17.3751 26.976 17.4553C26.9988 17.5356 27.0053 17.6197 26.995 17.7025L26.5075 21.6075C26.4508 22.0611 26.2304 22.4784 25.8876 22.7809C25.5448 23.0833 25.1034 23.2502 24.6463 23.25H9.35375C8.89661 23.2502 8.45516 23.0833 8.1124 22.7809C7.76964 22.4784 7.54919 22.0611 7.4925 21.6075L7.005 17.7025C6.99476 17.6197 7.0012 17.5356 7.02396 17.4553C7.04672 17.3751 7.08532 17.3001 7.1375 17.235L11.7625 11.4537Z" fill="#488FE0"/>
</svg>
