<svg width="34" height="34" viewBox="0 0 34 34" fill="none" xmlns="http://www.w3.org/2000/svg">
<circle opacity="0.1" cx="17" cy="17" r="17" fill="#488FE0"/>
<path d="M6 11.5C6 10.7707 6.28973 10.0712 6.80546 9.55546C7.32118 9.03973 8.02065 8.75 8.75 8.75H25.25C25.9793 8.75 26.6788 9.03973 27.1945 9.55546C27.7103 10.0712 28 10.7707 28 11.5V18.375H6V11.5ZM21.8125 12.875C21.6302 12.875 21.4553 12.9474 21.3264 13.0764C21.1974 13.2053 21.125 13.3802 21.125 13.5625V14.9375C21.125 15.1198 21.1974 15.2947 21.3264 15.4236C21.4553 15.5526 21.6302 15.625 21.8125 15.625H24.5625C24.7448 15.625 24.9197 15.5526 25.0486 15.4236C25.1776 15.2947 25.25 15.1198 25.25 14.9375V13.5625C25.25 13.3802 25.1776 13.2053 25.0486 13.0764C24.9197 12.9474 24.7448 12.875 24.5625 12.875H21.8125ZM6 21.125V22.5C6 23.2293 6.28973 23.9288 6.80546 24.4445C7.32118 24.9603 8.02065 25.25 8.75 25.25H25.25C25.9793 25.25 26.6788 24.9603 27.1945 24.4445C27.7103 23.9288 28 23.2293 28 22.5V21.125H6Z" fill="#488FE0"/>
</svg>
