<svg width="44" height="38" viewBox="0 0 44 38" fill="none" xmlns="http://www.w3.org/2000/svg">
<rect x="-0.5" y="0.5" width="43" height="37" rx="9.5" transform="matrix(-1 0 0 1 43 0)" fill="white" stroke="#E0E0E0"/>
<path d="M30 10H14C13.7348 10 13.4804 10.1054 13.2929 10.2929C13.1054 10.4804 13 10.7348 13 11V13.59C13 14.113 13.213 14.627 13.583 14.997L19 20.414V28C19.0002 28.1704 19.0439 28.3379 19.1269 28.4867C19.2099 28.6354 19.3295 28.7605 19.4744 28.8502C19.6193 28.9398 19.7847 28.9909 19.9549 28.9988C20.1251 29.0066 20.2945 28.9709 20.447 28.895L24.447 26.895C24.786 26.725 25 26.379 25 26V20.414L30.417 14.997C30.787 14.627 31 14.113 31 13.59V11C31 10.7348 30.8946 10.4804 30.7071 10.2929C30.5196 10.1054 30.2652 10 30 10ZM23.293 19.293C23.2 19.3857 23.1262 19.4959 23.0759 19.6172C23.0256 19.7386 22.9998 19.8687 23 20V25.382L21 26.382V20C21.0002 19.8687 20.9744 19.7386 20.9241 19.6172C20.8738 19.4959 20.8 19.3857 20.707 19.293L15 13.59V12H29.001L29.003 13.583L23.293 19.293Z" fill="#488FE0"/>
</svg>
