<svg width="76" height="25" viewBox="0 0 76 25" fill="none" xmlns="http://www.w3.org/2000/svg">
<path d="M33.2057 24.5886H27.0991L30.9186 0.98999H37.0248L33.2057 24.5886Z" fill="#00579F"/>
<path d="M55.3402 1.56719C54.1358 1.0897 52.2254 0.5625 49.8631 0.5625C43.8327 0.5625 39.5861 3.77576 39.5601 8.36975C39.51 11.7592 42.6005 13.6418 44.912 14.7719C47.2745 15.9268 48.0776 16.6805 48.0776 17.7099C48.0536 19.2908 46.1685 20.0196 44.4104 20.0196C41.9724 20.0196 40.6661 19.6439 38.6808 18.7643L37.8767 18.3873L37.0222 23.6846C38.4544 24.3366 41.0931 24.9152 43.8327 24.9406C50.2401 24.9406 54.4116 21.777 54.461 16.8814C54.4854 14.195 52.8535 12.1366 49.3352 10.4545C47.1994 9.37477 45.8914 8.6467 45.8914 7.54191C45.9164 6.53756 46.9977 5.50885 49.4087 5.50885C51.3939 5.45847 52.8525 5.93528 53.9574 6.41243L54.5098 6.66302L55.3402 1.56719Z" fill="#00579F"/>
<path d="M63.4596 16.2284C63.9625 14.8727 65.8976 9.62575 65.8976 9.62575C65.8722 9.67613 66.3995 8.24501 66.701 7.36646L67.1278 9.39985C67.1278 9.39985 68.2842 15.0486 68.5353 16.2284C67.5809 16.2284 64.6657 16.2284 63.4596 16.2284ZM70.9974 0.98999H66.2739C64.8173 0.98999 63.7107 1.41642 63.0822 2.94798L54.0117 24.5883H60.4192C60.4192 24.5883 61.474 21.6756 61.7008 21.0483C62.4037 21.0483 68.6368 21.0483 69.5411 21.0483C69.7164 21.8768 70.2697 24.5883 70.2697 24.5883H75.9238L70.9974 0.98999Z" fill="#00579F"/>
<path d="M21.9982 0.98999L16.0179 17.082L15.3644 13.8183C14.2587 10.0525 10.7912 5.96103 6.92163 3.92664L12.3994 24.5636H18.8569L28.4554 0.98999H21.9982Z" fill="#00579F"/>
<path d="M10.4644 0.98999H0.639575L0.539062 1.46686C8.20308 3.42541 13.2788 8.14641 15.3642 13.8208L13.2284 2.9739C12.8768 1.46653 11.7962 1.03971 10.4644 0.98999Z" fill="#FAA61A"/>
</svg>
