<svg width="200" height="39" viewBox="0 0 200 39" fill="none" xmlns="http://www.w3.org/2000/svg">
<path d="M31.2744 0.807251L31.2002 37.5362H41.4548V9.81823H31.2744V0.807251Z" fill="white"/>
<path d="M41.4723 0.807251H41.4549H31.2744V9.81823H41.4549H41.4723V0.807251Z" fill="white"/>
<path d="M43.5623 25.2438H53.7471C53.7471 25.2438 53.1623 30.6242 59.2017 30.3362C59.2017 30.3362 64.2897 30.262 62.8366 25.6802C62.8366 25.6802 61.9639 24.5151 59.4198 23.8605L51.4169 21.1725C51.4169 21.1725 44.5834 19.715 44.8015 11.2059C44.8015 11.2059 44.6532 0.589078 58.2547 0.00870972C58.2547 0.00870972 71.6381 -0.720023 71.7821 11.8604H62.326C62.326 11.8604 62.8366 8.0815 57.9624 8.00731C57.9624 8.00731 53.7471 7.86331 54.4714 11.1361C54.4714 11.1361 54.838 12.515 57.6002 13.3877L65.3108 15.6437C65.3108 15.6437 73.9639 17.8997 73.2352 26.1165C73.2352 26.1165 74.1079 36.5195 61.3093 38.3348C61.3093 38.3348 49.1652 40.1545 44.8015 31.3529C44.8015 31.3529 43.4924 29.1013 43.5623 25.2438Z" fill="white"/>
<path d="M89.1626 0.807251H120.799L115.057 10.3331H99.3474V14.6968H112.29L107.054 23.5725H99.3474V37.5362H89.0186L89.1626 0.807251Z" fill="white"/>
<path d="M121.419 0.807251H153.056L147.309 10.3331H131.6V14.7012H144.547L139.31 23.5725H131.6V37.5362H121.275L121.419 0.807251Z" fill="white"/>
<path d="M166.618 0.951288H176.947V16.0801L186.185 0.88147H198.621L187.782 16.4423L200 37.6061H187.276L177.091 17.5332V37.5363H166.618V0.951288Z" fill="white"/>
<path d="M17.5987 0.72876H0V37.5276H10.1804V26.3348H17.6729C17.6729 26.3348 29.3806 25.9726 29.0184 13.3179C29.0184 13.3179 29.5289 1.74549 17.5987 0.72876ZM16.4379 17.7471H10.1804V9.97101L16.5819 10.0365C19.8547 10.4728 19.5623 13.7456 19.5623 13.7456C19.7805 17.0969 16.4379 17.7514 16.4379 17.7514V17.7471Z" fill="white"/>
<path d="M75.7397 0.833496L75.6699 37.5625H85.9245V9.84447H75.7397V0.833496Z" fill="white"/>
<path d="M85.9381 0.833496H85.925H75.7402V9.84447H85.925H85.9381V0.833496Z" fill="white"/>
<path d="M153.549 0.833496L153.475 37.5625H163.729V9.84447H153.549V0.833496Z" fill="white"/>
<path d="M163.747 0.833496H163.729H153.549V9.84447H163.729H163.747V0.833496Z" fill="white"/>
</svg>
