<svg width="28" height="30" viewBox="0 0 28 30" fill="none" xmlns="http://www.w3.org/2000/svg">
<ellipse opacity="0.1" cx="14" cy="14.7703" rx="14" ry="14.4689" fill="#BDBDBD"/>
<path d="M8.5 18.9043H6.5C6.36739 18.9043 6.24021 18.9587 6.14645 19.0556C6.05268 19.1525 6 19.284 6 19.421V21.488C6 21.625 6.05268 21.7565 6.14645 21.8534C6.24021 21.9503 6.36739 22.0047 6.5 22.0047H8.5C8.63261 22.0047 8.75979 21.9503 8.85355 21.8534C8.94732 21.7565 9 21.625 9 21.488V19.421C9 19.284 8.94732 19.1525 8.85355 19.0556C8.75979 18.9587 8.63261 18.9043 8.5 18.9043ZM8.5 8.56934H6.5C6.36739 8.56934 6.24021 8.62378 6.14645 8.72069C6.05268 8.8176 6 8.94903 6 9.08608V11.1531C6 11.2901 6.05268 11.4216 6.14645 11.5185C6.24021 11.6154 6.36739 11.6698 6.5 11.6698H8.5C8.63261 11.6698 8.75979 11.6154 8.85355 11.5185C8.94732 11.4216 9 11.2901 9 11.1531V9.08608C9 8.94903 8.94732 8.8176 8.85355 8.72069C8.75979 8.62378 8.63261 8.56934 8.5 8.56934V8.56934ZM8.5 13.7368H6.5C6.36739 13.7368 6.24021 13.7912 6.14645 13.8882C6.05268 13.9851 6 14.1165 6 14.2535V16.3205C6 16.4576 6.05268 16.589 6.14645 16.6859C6.24021 16.7828 6.36739 16.8373 6.5 16.8373H8.5C8.63261 16.8373 8.75979 16.7828 8.85355 16.6859C8.94732 16.589 9 16.4576 9 16.3205V14.2535C9 14.1165 8.94732 13.9851 8.85355 13.8882C8.75979 13.7912 8.63261 13.7368 8.5 13.7368ZM21.5 19.421H11.5C11.3674 19.421 11.2402 19.4755 11.1464 19.5724C11.0527 19.6693 11 19.8007 11 19.9378V20.9712C11 21.1083 11.0527 21.2397 11.1464 21.3366C11.2402 21.4336 11.3674 21.488 11.5 21.488H21.5C21.6326 21.488 21.7598 21.4336 21.8536 21.3366C21.9473 21.2397 22 21.1083 22 20.9712V19.9378C22 19.8007 21.9473 19.6693 21.8536 19.5724C21.7598 19.4755 21.6326 19.421 21.5 19.421ZM21.5 9.08608H11.5C11.3674 9.08608 11.2402 9.14053 11.1464 9.23743C11.0527 9.33434 11 9.46578 11 9.60283V10.6363C11 10.7734 11.0527 10.9048 11.1464 11.0017C11.2402 11.0986 11.3674 11.1531 11.5 11.1531H21.5C21.6326 11.1531 21.7598 11.0986 21.8536 11.0017C21.9473 10.9048 22 10.7734 22 10.6363V9.60283C22 9.46578 21.9473 9.33434 21.8536 9.23743C21.7598 9.14053 21.6326 9.08608 21.5 9.08608V9.08608ZM21.5 14.2535H11.5C11.3674 14.2535 11.2402 14.308 11.1464 14.4049C11.0527 14.5018 11 14.6332 11 14.7703V15.8038C11 15.9408 11.0527 16.0723 11.1464 16.1692C11.2402 16.2661 11.3674 16.3205 11.5 16.3205H21.5C21.6326 16.3205 21.7598 16.2661 21.8536 16.1692C21.9473 16.0723 22 15.9408 22 15.8038V14.7703C22 14.6332 21.9473 14.5018 21.8536 14.4049C21.7598 14.308 21.6326 14.2535 21.5 14.2535Z" fill="#9E9E9E"/>
</svg>
