<svg width="16" height="16" viewBox="0 0 16 16" fill="none" xmlns="http://www.w3.org/2000/svg">
<path fill-rule="evenodd" clip-rule="evenodd" d="M7.99967 14.6668C11.6816 14.6668 14.6663 11.6821 14.6663 8.00016C14.6663 4.31826 11.6816 1.3335 7.99967 1.3335C4.31778 1.3335 1.33301 4.31826 1.33301 8.00016C1.33301 11.6821 4.31778 14.6668 7.99967 14.6668ZM8.49967 4.66683C8.49967 4.39069 8.27582 4.16683 7.99967 4.16683C7.72353 4.16683 7.49967 4.39069 7.49967 4.66683V8.00016C7.49967 8.21538 7.63739 8.40645 7.84156 8.4745L9.84156 9.14117C10.1035 9.2285 10.3867 9.08692 10.474 8.82494C10.5613 8.56297 10.4198 8.27981 10.1578 8.19249L8.49967 7.63978V4.66683Z" fill="#9E9E9E"/>
</svg>
