<svg width="28" height="28" viewBox="0 0 28 28" fill="none" xmlns="http://www.w3.org/2000/svg">
<path d="M20.6613 10.4592C20.4441 9.97793 20.1309 9.54185 19.7392 9.17532C19.3472 8.80769 18.8851 8.51555 18.3779 8.31477C17.852 8.10575 17.288 7.99876 16.7185 8.00001C15.9195 8.00001 15.1401 8.20933 14.4627 8.60472C14.3006 8.6993 14.1467 8.80319 14.0008 8.91638C13.855 8.80319 13.701 8.6993 13.5389 8.60472C12.8616 8.20933 12.0821 8.00001 11.2831 8.00001C10.7078 8.00001 10.1504 8.10545 9.62368 8.31477C9.11483 8.51634 8.65621 8.80629 8.26241 9.17532C7.87023 9.54143 7.55695 9.97762 7.34032 10.4592C7.11506 10.96 7 11.4918 7 12.0392C7 12.5555 7.1102 13.0935 7.32897 13.6409C7.5121 14.0983 7.77463 14.5727 8.11008 15.0519C8.64162 15.8101 9.37249 16.6008 10.28 17.4025C11.7839 18.7313 13.2732 19.6492 13.3364 19.6864L13.7204 19.9221C13.8906 20.026 14.1094 20.026 14.2795 19.9221L14.6636 19.6864C14.7268 19.6476 16.2145 18.7313 17.72 17.4025C18.6275 16.6008 19.3584 15.8101 19.8899 15.0519C20.2254 14.5727 20.4895 14.0983 20.671 13.6409C20.8898 13.0935 21 12.5555 21 12.0392C21.0016 11.4918 20.8865 10.96 20.6613 10.4592Z" fill="#BDBDBD"/>
<circle opacity="0.1" cx="14" cy="14" r="14" fill="#BDBDBD"/>
</svg>
