<svg width="37" height="37" viewBox="0 0 37 37" fill="none" xmlns="http://www.w3.org/2000/svg">
<circle opacity="0.1" cx="18.5" cy="18.5" r="18.5" fill="#488FE0"/>
<path d="M27.0749 24.1906L26.8671 24.0072C26.2776 23.4821 25.7617 22.8798 25.3332 22.2167C24.8652 21.3016 24.5848 20.3022 24.5082 19.2772V16.2584C24.5123 14.6484 23.9283 13.0925 22.866 11.8828C21.8037 10.6731 20.3363 9.89293 18.7393 9.68891V8.90057C18.7393 8.6842 18.6534 8.47669 18.5004 8.32369C18.3474 8.17069 18.1399 8.08474 17.9235 8.08474C17.7071 8.08474 17.4996 8.17069 17.3466 8.32369C17.1936 8.47669 17.1077 8.6842 17.1077 8.90057V9.70113C15.525 9.91986 14.0753 10.7047 13.027 11.9104C11.9787 13.116 11.4028 14.6607 11.406 16.2584V19.2772C11.3295 20.3022 11.049 21.3016 10.581 22.2167C10.1599 22.8781 9.65222 23.4803 9.07155 24.0072L8.86377 24.1906V25.9139H27.0749V24.1906Z" fill="#488FE0"/>
<path d="M16.3623 26.5555C16.4159 26.9429 16.6078 27.2977 16.9027 27.5546C17.1976 27.8115 17.5754 27.953 17.9665 27.953C18.3575 27.953 18.7354 27.8115 19.0302 27.5546C19.3251 27.2977 19.517 26.9429 19.5706 26.5555H16.3623Z" fill="#488FE0"/>
</svg>
