<svg width="16" height="16" viewBox="0 0 16 16" fill="none" xmlns="http://www.w3.org/2000/svg">
<path d="M7.3335 6.00004H8.66683V4.66671H7.3335V6.00004ZM8.00016 13.3334C5.06016 13.3334 2.66683 10.94 2.66683 8.00004C2.66683 5.06004 5.06016 2.66671 8.00016 2.66671C10.9402 2.66671 13.3335 5.06004 13.3335 8.00004C13.3335 10.94 10.9402 13.3334 8.00016 13.3334ZM8.00016 1.33337C7.12468 1.33337 6.25778 1.50581 5.44894 1.84084C4.6401 2.17588 3.90517 2.66694 3.28612 3.286C2.03587 4.53624 1.3335 6.23193 1.3335 8.00004C1.3335 9.76815 2.03587 11.4638 3.28612 12.7141C3.90517 13.3331 4.6401 13.8242 5.44894 14.1592C6.25778 14.4943 7.12468 14.6667 8.00016 14.6667C9.76827 14.6667 11.464 13.9643 12.7142 12.7141C13.9644 11.4638 14.6668 9.76815 14.6668 8.00004C14.6668 7.12456 14.4944 6.25765 14.1594 5.44882C13.8243 4.63998 13.3333 3.90505 12.7142 3.286C12.0951 2.66694 11.3602 2.17588 10.5514 1.84084C9.74255 1.50581 8.87564 1.33337 8.00016 1.33337ZM7.3335 11.3334H8.66683V7.33337H7.3335V11.3334Z" fill="#757575"/>
</svg>
