<svg width="24" height="24" viewBox="0 0 24 24" fill="none" xmlns="http://www.w3.org/2000/svg">
<path d="M17.5901 8.96961L13.0773 2.21075C12.9809 2.07428 12.8526 1.96349 12.7035 1.88805C12.5544 1.81262 12.3892 1.77484 12.2221 1.77802C11.8924 1.77802 11.5627 1.92226 11.367 2.22105L6.85419 8.96961H1.91899C1.35231 8.96961 0.888672 9.43325 0.888672 9.99993C0.888672 10.0927 0.898975 10.1854 0.929884 10.2781L3.54688 19.8291C3.78386 20.6946 4.5772 21.3334 5.52509 21.3334H18.9192C19.8671 21.3334 20.6604 20.6946 20.9077 19.8291L23.5247 10.2781L23.5556 9.99993C23.5556 9.43325 23.092 8.96961 22.5253 8.96961H17.5901ZM9.13119 8.96961L12.2221 4.43623L15.3131 8.96961H9.13119ZM12.2221 17.2121C11.0888 17.2121 10.1615 16.2848 10.1615 15.1515C10.1615 14.0182 11.0888 13.0909 12.2221 13.0909C13.3555 13.0909 14.2828 14.0182 14.2828 15.1515C14.2828 16.2848 13.3555 17.2121 12.2221 17.2121Z" fill="white"/>
</svg>
