<svg width="22" height="22" viewBox="0 0 22 22" fill="none" xmlns="http://www.w3.org/2000/svg">
<path d="M8.06639 15.8193H11.0207M3.14258 3.01738V18.7736C3.14258 19.2959 3.35008 19.7969 3.71944 20.1662C4.0888 20.5356 4.58975 20.7431 5.1121 20.7431H16.9292C17.4516 20.7431 17.9526 20.5356 18.3219 20.1662C18.6913 19.7969 18.8988 19.2959 18.8988 18.7736V7.29321C18.8987 7.03083 18.8463 6.7711 18.7445 6.52928C18.6427 6.28745 18.4936 6.06841 18.3059 5.885L13.9336 1.60917C13.5657 1.24939 13.0715 1.04792 12.5569 1.04785H5.1121C4.58975 1.04785 4.0888 1.25535 3.71944 1.62471C3.35008 1.99407 3.14258 2.49503 3.14258 3.01738V3.01738ZM8.06639 11.8802H13.975H8.06639Z" stroke="#8EF50C" stroke-width="1.75" stroke-linecap="round" stroke-linejoin="round"/>
<path d="M12.9902 1.04785V4.9869C12.9902 5.50925 13.1977 6.01021 13.5671 6.37956C13.9365 6.74892 14.4374 6.95642 14.9598 6.95642H18.8988" stroke="#8EF50C" stroke-width="1.75" stroke-linejoin="round"/>
</svg>
