<svg width="27" height="27" viewBox="0 0 27 27" fill="none" xmlns="http://www.w3.org/2000/svg">
<path d="M19.7891 10.0908L14.7122 2.48703C14.6038 2.3335 14.4594 2.20886 14.2917 2.124C14.124 2.03914 13.9381 1.99664 13.7501 2.00021C13.3792 2.00021 13.0083 2.16248 12.7881 2.49862L7.71121 10.0908H2.1591C1.5216 10.0908 1 10.6124 1 11.2499C1 11.3542 1.01159 11.4585 1.04636 11.5628L3.99049 22.3077C4.25708 23.2814 5.14959 24 6.21597 24H21.2843C22.3507 24 23.2432 23.2814 23.5214 22.3077L26.4655 11.5628L26.5003 11.2499C26.5003 10.6124 25.9787 10.0908 25.3412 10.0908H19.7891ZM10.2728 10.0908L13.7501 4.9907L17.2275 10.0908H10.2728ZM13.7501 19.3636C12.4751 19.3636 11.4319 18.3204 11.4319 17.0454C11.4319 15.7704 12.4751 14.7272 13.7501 14.7272C15.0252 14.7272 16.0683 15.7704 16.0683 17.0454C16.0683 18.3204 15.0252 19.3636 13.7501 19.3636Z" fill="#9E9E9E"/>
</svg>
