<svg width="13" height="14" viewBox="0 0 13 14" fill="none" xmlns="http://www.w3.org/2000/svg">
<path d="M4.163 4.7215C3.8501 4.914 5.0009 7.6909 5.2816 8.1431C5.39975 8.33233 5.58799 8.46711 5.8052 8.51797C6.0224 8.56884 6.25092 8.53167 6.4408 8.41457C6.63068 8.29748 6.7665 8.10999 6.81857 7.89307C6.87065 7.67614 6.83474 7.44743 6.7187 7.2569C6.4408 6.8033 4.4752 4.5283 4.163 4.7215ZM3.9285 1.6814C5.2697 1.21332 6.7299 1.21332 8.0711 1.6814C8.3014 1.7612 8.6066 1.6009 8.4715 1.2537C8.3728 1.0017 8.2776 0.7553 8.2391 0.6552C8.1474 0.4179 7.8191 0.2219 7.6763 0.1897C7.1359 0.0679 6.5759 0 5.9998 0C5.4237 0 4.8637 0.0679 4.3226 0.1897C4.1798 0.2219 3.8522 0.4179 3.7605 0.6552L3.5281 1.2537C3.393 1.6009 3.6982 1.7619 3.9285 1.6814ZM12.3684 2.2302C12.0966 1.90409 11.796 1.60305 11.4703 1.3307C11.3632 1.2404 11.0482 1.1669 10.8487 1.3664L9.6951 2.5193C9.98249 2.7224 10.2529 2.94855 10.5036 3.1955C10.757 3.4482 10.9775 3.7219 11.1798 4.004L12.3327 2.8511C12.5329 2.6509 12.4594 2.3366 12.3684 2.2302ZM5.9998 2.03C5.25515 2.02991 4.51777 2.1765 3.82977 2.4614C3.14177 2.7463 2.51664 3.16394 1.99005 3.69046C1.46347 4.21697 1.04576 4.84206 0.760772 5.53002C0.475784 6.21798 0.329102 6.95535 0.329102 7.7C0.32901 8.44471 0.475624 9.18215 0.760571 9.87019C1.04552 10.5582 1.46321 11.1834 1.98981 11.71C2.5164 12.2366 3.14157 12.6543 3.82961 12.9392C4.51765 13.2242 5.25509 13.3708 5.9998 13.3707C7.50367 13.3707 8.94595 12.7733 10.0093 11.7099C11.0727 10.6465 11.6702 9.20422 11.6702 7.70035C11.6702 6.19648 11.0727 4.7542 10.0093 3.69081C8.94595 2.62741 7.50367 2.03 5.9998 2.03ZM5.9998 11.9707C5.43901 11.9707 4.88372 11.8602 4.36564 11.6455C3.84755 11.4309 3.37682 11.1163 2.98031 10.7197C2.5838 10.3231 2.26929 9.85234 2.05473 9.33422C1.84017 8.8161 1.72976 8.26079 1.7298 7.7C1.72985 7.13921 1.84035 6.58392 2.055 6.06583C2.26964 5.54775 2.58423 5.07701 2.98081 4.68051C3.37738 4.284 3.84816 3.96949 4.36628 3.75493C4.8844 3.54036 5.43971 3.42995 6.0005 3.43C7.13298 3.43009 8.21903 3.88006 9.01974 4.6809C9.82046 5.48175 10.2702 6.56787 10.2702 7.70035C10.2701 8.83282 9.8201 9.91888 9.01925 10.7196C8.2184 11.5203 7.13228 11.9701 5.9998 11.97V11.9707Z" fill="#488FE0"/>
</svg>
