<svg width="34" height="34" viewBox="0 0 34 34" fill="none" xmlns="http://www.w3.org/2000/svg">
<circle opacity="0.1" cx="17" cy="17" r="17" fill="#488FE0"/>
<g clip-path="url(#clip0_3_3327)">
<path d="M26.1667 10.6979C26.1667 11.3428 25.6546 11.9368 24.7917 12.4167C23.7497 12.9932 22.1992 13.4014 20.4124 13.5231C20.2835 13.4622 20.1475 13.4014 20.0114 13.3441C18.597 12.7533 16.7207 12.4167 14.7083 12.4167C14.4111 12.4167 14.1211 12.4238 13.8311 12.4381L13.7917 12.4167C12.9287 11.9368 12.4167 11.3428 12.4167 10.6979C12.4167 9.11595 15.4639 7.83333 19.2917 7.83333C23.0872 7.83333 26.1667 9.11595 26.1667 10.6979ZM13.5876 13.6019C13.9528 13.5768 14.3252 13.5625 14.7083 13.5625C16.9355 13.5625 18.9121 14.0029 20.1689 14.6868C21.057 15.1702 21.5833 15.7718 21.5833 16.4271C21.5833 16.5381 21.5583 16.71 21.5081 16.846C21.3434 17.3187 20.8708 17.752 20.2549 18.1208C20.2513 18.1208 20.2441 18.1243 20.2406 18.1279C20.2298 18.1351 20.2191 18.1387 20.2083 18.1458C18.9551 18.8405 16.957 19.2917 14.7083 19.2917C12.5742 19.2917 10.6643 18.887 9.40313 18.2497C9.33617 18.2139 9.271 18.1494 9.20798 18.1458C8.34466 17.666 7.83334 17.0716 7.83334 16.4271C7.83334 15.181 9.74652 14.1175 12.4167 13.7272C12.7926 13.6699 13.1829 13.627 13.5876 13.6019ZM21.8662 14.515C22.8796 14.3574 23.807 14.1068 24.5947 13.7809C25.1784 13.5374 25.7191 13.2367 26.1667 12.8678V14.1354C26.1667 14.8265 25.5758 15.4639 24.5983 15.958C24.0719 16.223 23.4382 16.445 22.722 16.6169C22.7256 16.556 22.7292 16.4915 22.7292 16.4271C22.7292 15.6429 22.3496 14.9984 21.8662 14.515ZM21.5833 19.8646C21.5833 20.5091 21.0713 21.1035 20.2083 21.5833C20.1439 21.5869 20.0794 21.6514 20.015 21.6872C18.751 22.3245 16.8425 22.7292 14.7083 22.7292C12.4596 22.7292 10.4623 22.278 9.20798 21.5833C8.34466 21.1035 7.83334 20.5091 7.83334 19.8646V18.597C8.27914 18.9658 8.82233 19.2666 9.40635 19.5101C10.8211 20.1009 12.696 20.4375 14.7083 20.4375C16.7207 20.4375 18.597 20.1009 20.0114 19.5101C20.2907 19.3955 20.5592 19.263 20.8135 19.1198C21.0319 18.998 21.236 18.862 21.4294 18.7187C21.4831 18.6794 21.5332 18.6364 21.5833 18.597V19.8646ZM22.7292 17.7913C23.3773 17.6123 24.0361 17.4512 24.5947 17.2184C25.1784 16.9749 25.7191 16.6742 26.1667 16.3053V17.5729C26.1667 17.9489 25.9876 18.3249 25.6331 18.6794C25.0495 19.263 24.0218 19.7428 22.722 20.0544C22.7256 19.9935 22.7292 19.929 22.7292 19.8646V17.7913ZM14.7083 23.875C16.7207 23.875 18.597 23.5384 20.0114 22.9476C20.5951 22.7041 21.1357 22.4033 21.5833 22.0345V23.3021C21.5833 24.8848 18.5039 26.1667 14.7083 26.1667C10.9113 26.1667 7.83334 24.8848 7.83334 23.3021V22.0345C8.27914 22.4033 8.82233 22.7041 9.40635 22.9476C10.8211 23.5384 12.696 23.875 14.7083 23.875Z" fill="#488FE0"/>
</g>
<defs>
<clipPath id="clip0_3_3327">
<rect width="18.3333" height="18.3333" fill="white" transform="translate(7.83334 7.83333)"/>
</clipPath>
</defs>
</svg>
