<svg width="34" height="34" viewBox="0 0 34 34" fill="none" xmlns="http://www.w3.org/2000/svg">
<circle opacity="0.1" cx="17" cy="17" r="17" fill="#488FE0"/>
<path d="M24.2 10H9.8C8.8073 10 8 10.7849 8 11.75V22.25C8 23.2151 8.8073 24 9.8 24H24.2C25.1927 24 26 23.2151 26 22.25V11.75C26 10.7849 25.1927 10 24.2 10ZM14.0435 13.5C15.0794 13.5 15.8435 14.2429 15.8435 15.25C15.8435 16.2571 15.0794 17 14.0435 17C13.0076 17 12.2435 16.2571 12.2435 15.25C12.2435 14.2429 13.0067 13.5 14.0435 13.5ZM17.387 20.5H10.7V20.0931C10.7 18.8917 12.2084 17.6562 14.0435 17.6562C15.8786 17.6562 17.387 18.8917 17.387 20.0931V20.5ZM23.3 19.625H19.7V17.875H23.3V19.625ZM23.3 16.125H18.8V14.375H23.3V16.125Z" fill="#488FE0"/>
</svg>
