<svg width="37" height="37" viewBox="0 0 37 37" fill="none" xmlns="http://www.w3.org/2000/svg">
<circle opacity="0.1" cx="18.5" cy="18.5" r="18.5" fill="#488FE0"/>
<path d="M27 14.9999C27.5304 14.9999 28.0391 15.2106 28.4142 15.5857C28.7893 15.9608 29 16.4695 29 16.9999V20.9999C29 21.5303 28.7893 22.039 28.4142 22.4141C28.0391 22.7892 27.5304 22.9999 27 22.9999H25.938C25.6942 24.9332 24.7533 26.7111 23.2917 27.9999C21.8302 29.2887 19.9486 29.9999 18 29.9999V27.9999C19.5913 27.9999 21.1174 27.3678 22.2426 26.2425C23.3679 25.1173 24 23.5912 24 21.9999V15.9999C24 14.4086 23.3679 12.8825 22.2426 11.7573C21.1174 10.632 19.5913 9.9999 18 9.9999C16.4087 9.9999 14.8826 10.632 13.7574 11.7573C12.6321 12.8825 12 14.4086 12 15.9999V22.9999H9C8.46957 22.9999 7.96086 22.7892 7.58579 22.4141C7.21071 22.039 7 21.5303 7 20.9999V16.9999C7 16.4695 7.21071 15.9608 7.58579 15.5857C7.96086 15.2106 8.46957 14.9999 9 14.9999H10.062C10.306 13.0668 11.2471 11.2892 12.7086 10.0006C14.1701 8.71198 16.0516 8.00098 18 8.00098C19.9484 8.00098 21.8299 8.71198 23.2914 10.0006C24.7529 11.2892 25.694 13.0668 25.938 14.9999H27ZM13.76 22.7849L14.82 21.0889C15.7731 21.6859 16.8754 22.0017 18 21.9999C19.1246 22.0017 20.2269 21.6859 21.18 21.0889L22.24 22.7849C20.9693 23.581 19.4995 24.0022 18 23.9999C16.5005 24.0022 15.0307 23.581 13.76 22.7849Z" fill="#488FE0"/>
</svg>
