<svg width="22" height="22" viewBox="0 0 22 22" fill="none" xmlns="http://www.w3.org/2000/svg">
<path d="M1.83301 5.50016C1.83301 4.5277 2.21932 3.59507 2.90695 2.90744C3.59458 2.2198 4.52721 1.8335 5.49967 1.8335H16.4997C17.4721 1.8335 18.4048 2.2198 19.0924 2.90744C19.78 3.59507 20.1663 4.5277 20.1663 5.50016V16.5002C20.1663 17.4726 19.78 18.4053 19.0924 19.0929C18.4048 19.7805 17.4721 20.1668 16.4997 20.1668H5.49967C4.52721 20.1668 3.59458 19.7805 2.90695 19.0929C2.21932 18.4053 1.83301 17.4726 1.83301 16.5002V5.50016Z" stroke="#8EF50C" stroke-width="2" stroke-linecap="round" stroke-linejoin="round"/>
<path d="M7.79167 10.0833C9.05732 10.0833 10.0833 9.05732 10.0833 7.79167C10.0833 6.52601 9.05732 5.5 7.79167 5.5C6.52601 5.5 5.5 6.52601 5.5 7.79167C5.5 9.05732 6.52601 10.0833 7.79167 10.0833Z" stroke="#8EF50C" stroke-width="2" stroke-linecap="round" stroke-linejoin="round"/>
<path d="M13.3155 11.5692L5.5 20.1666H16.6219C17.562 20.1666 18.4637 19.7931 19.1284 19.1284C19.7932 18.4636 20.1667 17.562 20.1667 16.6219V16.4999C20.1667 16.0728 20.0063 15.9087 19.7175 15.5924L16.0233 11.5637C15.8512 11.3759 15.6417 11.226 15.4084 11.1237C15.1751 11.0213 14.923 10.9687 14.6682 10.9692C14.4134 10.9698 14.1615 11.0234 13.9286 11.1267C13.6957 11.23 13.4869 11.3807 13.3155 11.5692V11.5692Z" stroke="#8EF50C" stroke-width="2" stroke-linecap="round" stroke-linejoin="round"/>
</svg>
