<svg width="34" height="34" viewBox="0 0 34 34" fill="none" xmlns="http://www.w3.org/2000/svg">
<path d="M22.8438 10.625H11.1562C10.8628 10.625 10.625 10.8628 10.625 11.1562V22.8438C10.625 23.1372 10.8628 23.375 11.1562 23.375H22.8438C23.1372 23.375 23.375 23.1372 23.375 22.8438V11.1562C23.375 10.8628 23.1372 10.625 22.8438 10.625Z" fill="#9E9E9E"/>
<path d="M30.8125 12.75C31.0943 12.75 31.3645 12.6381 31.5638 12.4388C31.7631 12.2395 31.875 11.9693 31.875 11.6875C31.875 11.4057 31.7631 11.1355 31.5638 10.9362C31.3645 10.7369 31.0943 10.625 30.8125 10.625H29.75V8.5C29.7488 7.37321 29.3006 6.29292 28.5038 5.49616C27.7071 4.69939 26.6268 4.25123 25.5 4.25H23.375V3.1875C23.375 2.90571 23.2631 2.63546 23.0638 2.4362C22.8645 2.23694 22.5943 2.125 22.3125 2.125C22.0307 2.125 21.7605 2.23694 21.5612 2.4362C21.3619 2.63546 21.25 2.90571 21.25 3.1875V4.25H18.0625V3.1875C18.0625 2.90571 17.9506 2.63546 17.7513 2.4362C17.552 2.23694 17.2818 2.125 17 2.125C16.7182 2.125 16.448 2.23694 16.2487 2.4362C16.0494 2.63546 15.9375 2.90571 15.9375 3.1875V4.25H12.75V3.1875C12.75 2.90571 12.6381 2.63546 12.4388 2.4362C12.2395 2.23694 11.9693 2.125 11.6875 2.125C11.4057 2.125 11.1355 2.23694 10.9362 2.4362C10.7369 2.63546 10.625 2.90571 10.625 3.1875V4.25H8.5C7.37321 4.25123 6.29292 4.69939 5.49616 5.49616C4.69939 6.29292 4.25123 7.37321 4.25 8.5V10.625H3.1875C2.90571 10.625 2.63546 10.7369 2.4362 10.9362C2.23694 11.1355 2.125 11.4057 2.125 11.6875C2.125 11.9693 2.23694 12.2395 2.4362 12.4388C2.63546 12.6381 2.90571 12.75 3.1875 12.75H4.25V15.9375H3.1875C2.90571 15.9375 2.63546 16.0494 2.4362 16.2487C2.23694 16.448 2.125 16.7182 2.125 17C2.125 17.2818 2.23694 17.552 2.4362 17.7513C2.63546 17.9506 2.90571 18.0625 3.1875 18.0625H4.25V21.25H3.1875C2.90571 21.25 2.63546 21.3619 2.4362 21.5612C2.23694 21.7605 2.125 22.0307 2.125 22.3125C2.125 22.5943 2.23694 22.8645 2.4362 23.0638C2.63546 23.2631 2.90571 23.375 3.1875 23.375H4.25V25.5C4.25123 26.6268 4.69939 27.7071 5.49616 28.5038C6.29292 29.3006 7.37321 29.7488 8.5 29.75H10.625V30.8125C10.625 31.0943 10.7369 31.3645 10.9362 31.5638C11.1355 31.7631 11.4057 31.875 11.6875 31.875C11.9693 31.875 12.2395 31.7631 12.4388 31.5638C12.6381 31.3645 12.75 31.0943 12.75 30.8125V29.75H15.9375V30.8125C15.9375 31.0943 16.0494 31.3645 16.2487 31.5638C16.448 31.7631 16.7182 31.875 17 31.875C17.2818 31.875 17.552 31.7631 17.7513 31.5638C17.9506 31.3645 18.0625 31.0943 18.0625 30.8125V29.75H21.25V30.8125C21.25 31.0943 21.3619 31.3645 21.5612 31.5638C21.7605 31.7631 22.0307 31.875 22.3125 31.875C22.5943 31.875 22.8645 31.7631 23.0638 31.5638C23.2631 31.3645 23.375 31.0943 23.375 30.8125V29.75H25.5C26.6268 29.7488 27.7071 29.3006 28.5038 28.5038C29.3006 27.7071 29.7488 26.6268 29.75 25.5V23.375H30.8125C31.0943 23.375 31.3645 23.2631 31.5638 23.0638C31.7631 22.8645 31.875 22.5943 31.875 22.3125C31.875 22.0307 31.7631 21.7605 31.5638 21.5612C31.3645 21.3619 31.0943 21.25 30.8125 21.25H29.75V18.0625H30.8125C31.0943 18.0625 31.3645 17.9506 31.5638 17.7513C31.7631 17.552 31.875 17.2818 31.875 17C31.875 16.7182 31.7631 16.448 31.5638 16.2487C31.3645 16.0494 31.0943 15.9375 30.8125 15.9375H29.75V12.75H30.8125ZM25.5 23.375C25.5 23.9386 25.2761 24.4791 24.8776 24.8776C24.4791 25.2761 23.9386 25.5 23.375 25.5H10.625C10.0614 25.5 9.52091 25.2761 9.1224 24.8776C8.72388 24.4791 8.5 23.9386 8.5 23.375V10.625C8.5 10.0614 8.72388 9.52091 9.1224 9.1224C9.52091 8.72388 10.0614 8.5 10.625 8.5H23.375C23.9386 8.5 24.4791 8.72388 24.8776 9.1224C25.2761 9.52091 25.5 10.0614 25.5 10.625V23.375Z" fill="#9E9E9E"/>
</svg>
