<svg width="95" height="95" viewBox="0 0 95 95" fill="none" xmlns="http://www.w3.org/2000/svg">
<circle cx="47.5" cy="47.5" r="47.5" fill="#18A830"/>
<path d="M44.6492 62L30.1916 49.5391C29.8542 49.2574 29.5762 48.9113 29.3736 48.5209C29.171 48.1306 29.0479 47.7038 29.0114 47.2654C28.975 46.827 29.0259 46.3857 29.1612 45.9672C29.2966 45.5487 29.5136 45.1613 29.7998 44.8276C30.0859 44.4938 30.4355 44.2204 30.8281 44.0231C31.2207 43.8259 31.6485 43.7088 32.0867 43.6786C32.5249 43.6485 32.9647 43.7059 33.3805 43.8475C33.7963 43.9891 34.1799 44.2121 34.509 44.5035L43.977 52.6401L60.1957 34.1289C60.7758 33.4674 61.5944 33.0639 62.4715 33.0069C63.3487 32.95 64.2125 33.2445 64.8729 33.8254C65.5333 34.4064 65.9362 35.2264 65.9931 36.1049C66.0499 36.9835 65.7559 37.8487 65.1759 38.5101L44.6492 62Z" fill="white"/>
</svg>
