<svg width="55" height="38" viewBox="0 0 55 38" fill="none" xmlns="http://www.w3.org/2000/svg">
<path d="M0 5.84287C0 5.07557 0.158055 4.3158 0.465137 3.60691C0.772218 2.89802 1.22231 2.25389 1.78972 1.71133C2.35714 1.16877 3.03075 0.738397 3.77211 0.444765C4.51347 0.151133 5.30806 0 6.1105 0H48.8895C50.5101 0 52.0643 0.615579 53.2103 1.71133C54.3562 2.80708 55 4.29324 55 5.84287V31.7887C54.9985 33.3379 54.3543 34.8233 53.2087 35.9187C52.063 37.0142 50.5097 37.6302 48.8895 37.6316H6.1105C4.49034 37.6302 2.93696 37.0142 1.79134 35.9187C0.64571 34.8233 0.00145632 33.3379 0 31.7887V5.84287ZM3.42375 17.15H51.5762V7.85712H3.42375V17.15Z" fill="white"/>
</svg>
