<svg width="18" height="18" viewBox="0 0 18 18" fill="none" xmlns="http://www.w3.org/2000/svg">
<path d="M7.59375 1.6875C4.33181 1.6875 1.6875 4.33181 1.6875 7.59375C1.6875 10.8557 4.33181 13.5 7.59375 13.5C8.97188 13.5 10.2392 13.0281 11.2438 12.2378L15.1127 16.1066C15.178 16.1719 15.2555 16.2237 15.3408 16.2591C15.4261 16.2944 15.5176 16.3126 15.6099 16.3126C15.7023 16.3126 15.7937 16.2944 15.879 16.2591C15.9644 16.2237 16.0419 16.1719 16.1072 16.1066C16.1725 16.0413 16.2243 15.9638 16.2596 15.8785C16.295 15.7932 16.3132 15.7017 16.3132 15.6094C16.3132 15.517 16.295 15.4256 16.2596 15.3403C16.2243 15.2549 16.1725 15.1774 16.1072 15.1121L12.2378 11.2433C13.0573 10.2035 13.502 8.91765 13.5 7.59375C13.5 4.33181 10.8557 1.6875 7.59375 1.6875ZM3.09375 7.59375C3.09375 6.40028 3.56786 5.25568 4.41177 4.41177C5.25568 3.56786 6.40028 3.09375 7.59375 3.09375C8.78722 3.09375 9.93182 3.56786 10.7757 4.41177C11.6196 5.25568 12.0938 6.40028 12.0938 7.59375C12.0938 8.78722 11.6196 9.93182 10.7757 10.7757C9.93182 11.6196 8.78722 12.0938 7.59375 12.0938C6.40028 12.0938 5.25568 11.6196 4.41177 10.7757C3.56786 9.93182 3.09375 8.78722 3.09375 7.59375Z" fill="#9E9E9E"/>
</svg>
