<svg width="23" height="21" viewBox="0 0 23 21" fill="none" xmlns="http://www.w3.org/2000/svg">
<path d="M18.9576 0.777832L13.9282 5.30435V16.3692L18.9576 11.8426V0.777832ZM6.38397 3.79551C4.42248 3.79551 2.31011 4.19787 0.851562 5.30435V20.0507C0.851562 20.3022 1.10304 20.5537 1.35451 20.5537C1.4551 20.5537 1.50539 20.4833 1.60598 20.4833C2.96394 19.8294 4.92543 19.3868 6.38397 19.3868C8.34546 19.3868 10.4578 19.7892 11.9164 20.8957C13.2743 20.0407 15.7388 19.3868 17.4488 19.3868C19.1085 19.3868 20.8185 19.6987 22.2268 20.4531C22.3274 20.5034 22.3777 20.4833 22.4782 20.4833C22.7297 20.4833 22.9812 20.2318 22.9812 19.9803V5.30435C22.3777 4.8517 21.7238 4.54993 20.9694 4.29845V17.878C19.8629 17.5259 18.6559 17.3751 17.4488 17.3751C15.7388 17.3751 13.2743 18.0289 11.9164 18.8839V5.30435C10.4578 4.19787 8.34546 3.79551 6.38397 3.79551Z" fill="#9E9E9E"/>
</svg>
