<svg width="19" height="17" viewBox="0 0 19 17" fill="none" xmlns="http://www.w3.org/2000/svg">
<path d="M15.625 3.6875H13V2.8125C13 2.11631 12.7234 1.44863 12.2312 0.956345C11.7389 0.464062 11.0712 0.1875 10.375 0.1875H8.625C7.92881 0.1875 7.26113 0.464062 6.76884 0.956345C6.27656 1.44863 6 2.11631 6 2.8125V3.6875H3.375C2.67881 3.6875 2.01113 3.96406 1.51884 4.45634C1.02656 4.94863 0.75 5.61631 0.75 6.3125V14.1875C0.75 14.8837 1.02656 15.5514 1.51884 16.0437C2.01113 16.5359 2.67881 16.8125 3.375 16.8125H15.625C16.3212 16.8125 16.9889 16.5359 17.4812 16.0437C17.9734 15.5514 18.25 14.8837 18.25 14.1875V6.3125C18.25 5.61631 17.9734 4.94863 17.4812 4.45634C16.9889 3.96406 16.3212 3.6875 15.625 3.6875ZM7.75 2.8125C7.75 2.58044 7.84219 2.35788 8.00628 2.19378C8.17038 2.02969 8.39294 1.9375 8.625 1.9375H10.375C10.6071 1.9375 10.8296 2.02969 10.9937 2.19378C11.1578 2.35788 11.25 2.58044 11.25 2.8125V3.6875H7.75V2.8125ZM16.5 14.1875C16.5 14.4196 16.4078 14.6421 16.2437 14.8062C16.0796 14.9703 15.8571 15.0625 15.625 15.0625H3.375C3.14294 15.0625 2.92038 14.9703 2.75628 14.8062C2.59219 14.6421 2.5 14.4196 2.5 14.1875V9.375C4.72798 10.2589 7.1031 10.7131 9.5 10.7137C11.8968 10.7123 14.2718 10.2581 16.5 9.375V14.1875ZM16.5 7.45875C14.2936 8.42805 11.9099 8.92856 9.5 8.92856C7.09007 8.92856 4.7064 8.42805 2.5 7.45875V6.3125C2.5 6.08044 2.59219 5.85788 2.75628 5.69378C2.92038 5.52969 3.14294 5.4375 3.375 5.4375H15.625C15.8571 5.4375 16.0796 5.52969 16.2437 5.69378C16.4078 5.85788 16.5 6.08044 16.5 6.3125V7.45875Z" fill="#424242"/>
</svg>
