<svg width="24" height="24" viewBox="0 0 24 24" fill="none" xmlns="http://www.w3.org/2000/svg">
<path d="M5.29229 5.7078C5.19931 5.61482 5.12556 5.50444 5.07524 5.38297C5.02492 5.26149 4.99902 5.13129 4.99902 4.9998C4.99902 4.86831 5.02492 4.73811 5.07524 4.61663C5.12556 4.49515 5.19931 4.38477 5.29229 4.2918C5.38526 4.19882 5.49564 4.12507 5.61712 4.07475C5.7386 4.02443 5.8688 3.99854 6.00029 3.99854C6.13177 3.99854 6.26197 4.02443 6.38345 4.07475C6.50493 4.12507 6.61531 4.19882 6.70829 4.2918L13.7083 11.2918C13.8014 11.3847 13.8753 11.495 13.9257 11.6165C13.9761 11.738 14.0021 11.8683 14.0021 11.9998C14.0021 12.1313 13.9761 12.2616 13.9257 12.3831C13.8753 12.5046 13.8014 12.6149 13.7083 12.7078L6.70829 19.7078C6.61531 19.8008 6.50493 19.8745 6.38345 19.9248C6.26197 19.9752 6.13177 20.0011 6.00029 20.0011C5.8688 20.0011 5.7386 19.9752 5.61712 19.9248C5.49564 19.8745 5.38526 19.8008 5.29229 19.7078C5.19931 19.6148 5.12556 19.5044 5.07524 19.383C5.02492 19.2615 4.99902 19.1313 4.99902 18.9998C4.99902 18.8683 5.02492 18.7381 5.07524 18.6166C5.12556 18.4952 5.19931 18.3848 5.29229 18.2918L11.5863 11.9998L5.29229 5.7078ZM20.0003 4.9998C20.0003 4.73458 19.8949 4.48023 19.7074 4.29269C19.5199 4.10516 19.2655 3.9998 19.0003 3.9998C18.7351 3.9998 18.4807 4.10516 18.2932 4.29269C18.1056 4.48023 18.0003 4.73458 18.0003 4.9998V18.9998C18.0003 19.265 18.1056 19.5194 18.2932 19.7069C18.4807 19.8944 18.7351 19.9998 19.0003 19.9998C19.2655 19.9998 19.5199 19.8944 19.7074 19.7069C19.8949 19.5194 20.0003 19.265 20.0003 18.9998V4.9998Z" fill="#424242"/>
</svg>
