<svg width="32" height="32" viewBox="0 0 32 32" fill="none" xmlns="http://www.w3.org/2000/svg">
<g filter="url(#filter0_d_504_3065)">
<path fill-rule="evenodd" clip-rule="evenodd" d="M16 4C9.37273 4 4 9.37273 4 16C4 22.6273 9.37273 28 16 28C22.6273 28 28 22.6273 28 16C28 9.37273 22.6273 4 16 4ZM21.2015 13.9709C21.2972 13.8614 21.3701 13.7339 21.4159 13.5958C21.4617 13.4577 21.4794 13.3119 21.4679 13.1669C21.4565 13.0219 21.4162 12.8806 21.3494 12.7514C21.2825 12.6222 21.1905 12.5077 21.0788 12.4146C20.967 12.3214 20.8378 12.2516 20.6987 12.2092C20.5595 12.1667 20.4133 12.1525 20.2686 12.1674C20.1239 12.1824 19.9836 12.2261 19.8561 12.296C19.7285 12.3659 19.6162 12.4606 19.5258 12.5745L14.8349 18.2025L12.4076 15.7742C12.2019 15.5755 11.9263 15.4655 11.6403 15.468C11.3543 15.4705 11.0806 15.5852 10.8784 15.7875C10.6761 15.9897 10.5614 16.2633 10.5589 16.5494C10.5564 16.8354 10.6664 17.111 10.8651 17.3167L14.1378 20.5895C14.245 20.6966 14.3733 20.7802 14.5146 20.835C14.6559 20.8898 14.8071 20.9145 14.9585 20.9076C15.1099 20.9007 15.2582 20.8624 15.3939 20.795C15.5297 20.7277 15.6499 20.6328 15.7469 20.5164L21.2015 13.9709Z" fill="#BDBDBD"/>
</g>
<defs>
<filter id="filter0_d_504_3065" x="0" y="0" width="32" height="32" filterUnits="userSpaceOnUse" color-interpolation-filters="sRGB">
<feFlood flood-opacity="0" result="BackgroundImageFix"/>
<feColorMatrix in="SourceAlpha" type="matrix" values="0 0 0 0 0 0 0 0 0 0 0 0 0 0 0 0 0 0 127 0" result="hardAlpha"/>
<feOffset/>
<feGaussianBlur stdDeviation="2"/>
<feComposite in2="hardAlpha" operator="out"/>
<feColorMatrix type="matrix" values="0 0 0 0 0 0 0 0 0 0 0 0 0 0 0 0 0 0 0.2 0"/>
<feBlend mode="normal" in2="BackgroundImageFix" result="effect1_dropShadow_504_3065"/>
<feBlend mode="normal" in="SourceGraphic" in2="effect1_dropShadow_504_3065" result="shape"/>
</filter>
</defs>
</svg>
