<svg width="188" height="165" viewBox="0 0 188 165" fill="none" xmlns="http://www.w3.org/2000/svg">
<path d="M148.148 11.7947L84.6072 1.38272C79.9469 0.619065 75.5499 3.77792 74.7862 8.43823L52.8084 142.561C52.0447 147.221 55.2036 151.618 59.8639 152.382L123.404 162.794C128.065 163.557 132.462 160.398 133.225 155.738L155.203 21.6157C155.967 16.9554 152.808 12.5584 148.148 11.7947Z" fill="#CBCBCB"/>
<path d="M146.06 15.5746L85.3823 5.63177C82.2755 5.12267 79.3441 7.22857 78.835 10.3354L57.2511 142.054C56.742 145.161 58.8479 148.092 61.9548 148.601L122.632 158.544C125.739 159.053 128.67 156.947 129.18 153.841L150.763 22.1219C151.273 19.015 149.167 16.0837 146.06 15.5746Z" fill="#E0E0E0"/>
<path d="M26.1947 113.595C25.9464 114.458 25.9594 115.374 26.2321 116.229C26.5049 117.085 27.025 117.84 27.7269 118.399C28.4287 118.959 29.2807 119.297 30.1751 119.373C31.0694 119.448 31.9661 119.256 32.7516 118.822C33.537 118.388 34.1761 117.73 34.588 116.933C34.9998 116.135 35.1659 115.234 35.0653 114.342C34.9647 113.45 34.6018 112.608 34.0227 111.922C33.4435 111.236 32.674 110.738 31.8115 110.49C30.6549 110.157 29.4134 110.297 28.3601 110.879C27.3068 111.462 26.5279 112.438 26.1947 113.595Z" fill="#E0E0E0"/>
<path d="M36.3471 104.13C36.3358 104.317 36.3028 104.503 36.2487 104.683C36.1522 105.019 35.9901 105.333 35.7719 105.606C35.5537 105.879 35.2836 106.106 34.9773 106.274C34.6727 106.444 34.3375 106.551 33.991 106.589C33.6446 106.628 33.2939 106.597 32.9596 106.498C31.8629 106.182 30.7147 106.085 29.5806 106.213C28.4465 106.341 27.3488 106.691 26.3502 107.244C25.3517 107.797 24.4719 108.541 23.7612 109.434C23.0506 110.327 22.523 111.351 22.2087 112.449C22.1119 112.784 21.95 113.097 21.7323 113.369C21.5147 113.642 21.2454 113.869 20.94 114.037C20.3231 114.378 19.5963 114.459 18.9194 114.264C18.2425 114.068 17.671 113.612 17.3306 112.995C16.9902 112.378 16.9088 111.651 17.1043 110.974C17.6076 109.206 18.4573 107.555 19.604 106.118C20.7508 104.68 22.1717 103.485 23.7843 102.601C24.993 101.931 26.293 101.44 27.6434 101.145L36.3471 104.13Z" fill="#E0E0E0"/>
<path d="M16.1811 97.2227L22.5138 99.3937C22.3782 99.4533 22.2462 99.5207 22.1185 99.5956C20.1109 100.697 18.3419 102.186 16.9139 103.976C15.486 105.766 14.4275 107.822 13.7999 110.024C13.7053 110.361 13.5451 110.676 13.3284 110.951C13.1116 111.225 12.8428 111.454 12.5372 111.625C12.2316 111.795 11.8953 111.903 11.5478 111.943C11.2002 111.983 10.8482 111.954 10.5119 111.857C10.1757 111.761 9.8619 111.598 9.58861 111.38C9.31532 111.161 9.08792 110.891 8.9195 110.585C8.75107 110.278 8.64496 109.941 8.60725 109.593C8.56955 109.245 8.60099 108.893 8.69979 108.558C9.96589 104.099 12.5788 100.14 16.1811 97.2227Z" fill="#E0E0E0"/>
<path d="M38.6647 96.279C38.4685 96.9548 38.013 97.5257 37.3977 97.8671C36.7823 98.2085 36.0569 98.2928 35.3796 98.1016C34.1513 97.7447 32.8873 97.5241 31.6107 97.4439L21.4941 93.9848C26.3372 91.8617 31.7726 91.5095 36.8492 92.9898C37.5255 93.1862 38.0963 93.6427 38.4366 94.2593C38.7769 94.8758 38.8589 95.6021 38.6647 96.279Z" fill="#E0E0E0"/>
<path d="M6.87091 94.042L12.4195 95.9351C9.07776 99.1279 6.64841 103.155 5.38208 107.6C5.28555 107.935 5.12352 108.249 4.90532 108.522C4.68713 108.795 4.41707 109.022 4.11072 109.19C3.80745 109.361 3.47312 109.469 3.12735 109.509C2.78157 109.549 2.43132 109.519 2.09716 109.422C1.76168 109.326 1.44837 109.165 1.17517 108.949C0.90196 108.732 0.674216 108.463 0.504977 108.158C0.335737 107.853 0.228326 107.517 0.188885 107.171C0.149445 106.824 0.17875 106.473 0.275129 106.138C1.54856 101.666 3.80167 97.5344 6.87091 94.042Z" fill="#E0E0E0"/>
<path d="M41.0933 87.8586C40.8967 88.5348 40.4401 89.1055 39.8236 89.4457C39.207 89.7859 38.4808 89.8679 37.8039 89.6737C34.4989 88.7134 31.0362 88.4179 27.6163 88.8044C24.1963 89.1909 20.8869 90.2517 17.8795 91.9254C17.5761 92.0956 17.281 92.2614 16.9974 92.4501L10.7754 90.3166C14.7181 87.1447 19.3654 84.967 24.3257 83.9667C29.2861 82.9665 34.4142 83.1731 39.278 84.5692C39.9542 84.7657 40.525 85.2223 40.8652 85.8389C41.2055 86.4554 41.2875 87.1817 41.0933 87.8586Z" fill="#E0E0E0"/>
<path d="M0.774375 94.4053L0.774328 94.4054C0.346679 95.655 1.01296 97.0146 2.26253 97.4423L36.5756 109.186C37.8251 109.613 39.1848 108.947 39.6124 107.697L39.6125 107.697C40.0401 106.448 39.3738 105.088 38.1243 104.66L3.81123 92.9171C2.56167 92.4895 1.20202 93.1557 0.774375 94.4053Z" fill="#E0E0E0"/>
<path d="M182.222 1.32831C177.607 -0.60017 174.344 1.24979 173.572 3.09618C173.015 4.42982 173.886 5.51662 174.809 5.9024C176.656 6.67368 177.003 3.72652 180.491 5.18357C182.201 5.8977 183.253 7.2215 182.596 8.79442C181.825 10.641 179.467 10.901 177.939 11.387C176.59 11.8277 174.706 12.6869 173.477 15.6275C172.734 17.4055 172.998 18.1183 174.4 18.704C176.075 19.4039 176.731 18.7945 177.003 18.1448C177.746 16.3667 178.209 15.3551 180.703 14.6705C181.927 14.3382 185.804 13.227 187.147 10.0129C188.49 6.79881 186.598 3.15675 182.222 1.32831Z" fill="#E0E0E0"/>
<path d="M173.447 21.0793C172.751 20.7976 171.971 20.8019 171.278 21.0912C170.585 21.3805 170.034 21.9315 169.744 22.6246C169.454 23.3178 169.45 24.0972 169.731 24.7937C170.013 25.4902 170.557 26.0477 171.247 26.3452C171.944 26.6321 172.727 26.6313 173.424 26.3429C174.121 26.0546 174.675 25.5021 174.966 24.8063C175.256 24.1105 175.26 23.3279 174.975 22.6295C174.691 21.9312 174.141 21.3738 173.447 21.0793Z" fill="#E0E0E0"/>
<path d="M95.406 62.6306C95.8225 60.0665 95.0823 57.8128 93.7528 57.5968C92.4232 57.3808 91.0077 59.2844 90.5911 61.8485C90.1746 64.4126 90.9148 66.6663 92.2443 66.8823C93.5739 67.0983 94.9894 65.1947 95.406 62.6306Z" fill="white"/>
<path d="M123.129 67.1821C123.55 64.5925 122.813 62.3181 121.484 62.1021C120.154 61.8862 118.735 63.8103 118.314 66.4C117.894 68.9896 118.631 71.264 119.96 71.4799C121.29 71.6959 122.709 69.7717 123.129 67.1821Z" fill="white"/>
<path d="M111.815 89.5051C111.718 89.5053 111.623 89.4857 111.534 89.4475C111.445 89.4094 111.365 89.3535 111.298 89.2834L110.295 88.2276C108.687 86.5388 106.568 85.4252 104.265 85.0582C101.961 84.6912 99.6011 85.0911 97.5473 86.1964L96.2661 86.8881C96.1838 86.9326 96.0934 86.9604 96.0003 86.97C95.9073 86.9796 95.8132 86.9707 95.7235 86.9439C95.6338 86.9171 95.5503 86.8729 95.4777 86.8139C95.4051 86.7548 95.3449 86.682 95.3004 86.5997C95.256 86.5173 95.2281 86.4271 95.2186 86.334C95.209 86.2409 95.2179 86.1468 95.2447 86.0571C95.2714 85.9674 95.3156 85.8839 95.3747 85.8113C95.4337 85.7387 95.5065 85.6785 95.5889 85.634L96.8701 84.9423C99.1995 83.6887 101.876 83.2351 104.489 83.6513C107.101 84.0676 109.504 85.3305 111.329 87.246L112.331 88.3017C112.427 88.4028 112.492 88.5297 112.516 88.6669C112.541 88.8041 112.524 88.9454 112.47 89.0734C112.415 89.2015 112.323 89.3106 112.207 89.3873C112.091 89.464 111.954 89.5049 111.815 89.505V89.5051Z" fill="white"/>
</svg>
