<svg width="42" height="42" viewBox="0 0 42 42" fill="none" xmlns="http://www.w3.org/2000/svg">
<circle cx="21" cy="21" r="21" fill="#034694"/>
<path d="M31.5875 20.3326L15.0875 12.0826C14.9582 12.018 14.813 11.992 14.6692 12.008C14.5255 12.024 14.3895 12.0811 14.2775 12.1726C14.1706 12.2622 14.0908 12.3799 14.0471 12.5124C14.0033 12.6449 13.9974 12.787 14.03 12.9226L16.0175 20.2501H24.5V21.7501H16.0175L14 29.0551C13.9695 29.1684 13.9659 29.2873 13.9896 29.4022C14.0133 29.5171 14.0637 29.6249 14.1367 29.7168C14.2096 29.8087 14.3031 29.8822 14.4096 29.9315C14.5162 29.9807 14.6328 30.0042 14.75 30.0001C14.8674 29.9994 14.983 29.9712 15.0875 29.9176L31.5875 21.6676C31.7104 21.6047 31.8135 21.5091 31.8855 21.3913C31.9575 21.2735 31.9956 21.1382 31.9956 21.0001C31.9956 20.8621 31.9575 20.7267 31.8855 20.609C31.8135 20.4912 31.7104 20.3956 31.5875 20.3326Z" fill="white"/>
</svg>
