<svg width="58" height="58" viewBox="0 0 58 58" fill="none" xmlns="http://www.w3.org/2000/svg">
<circle cx="29" cy="29" r="29" fill="#488FE0"/>
<path d="M42.324 23.5138C43.1555 23.5138 43.9529 23.8441 44.5409 24.432C45.1288 25.02 45.4591 25.8174 45.4591 26.6489V32.9192C45.4591 33.7507 45.1288 34.5481 44.5409 35.136C43.9529 35.724 43.1555 36.0543 42.324 36.0543H40.6592C40.2771 39.0849 38.8021 41.8718 36.5111 43.8921C34.22 45.9124 31.2705 47.0272 28.2159 47.0273V43.8921C30.7104 43.8921 33.1027 42.9012 34.8665 41.1374C36.6304 39.3735 37.6213 36.9812 37.6213 34.4867V25.0813C37.6213 22.5869 36.6304 20.1946 34.8665 18.4307C33.1027 16.6669 30.7104 15.6759 28.2159 15.6759C25.7214 15.6759 23.3291 16.6669 21.5653 18.4307C19.8014 20.1946 18.8105 22.5869 18.8105 25.0813V36.0543H14.1078C13.2763 36.0543 12.4789 35.724 11.8909 35.136C11.303 34.5481 10.9727 33.7507 10.9727 32.9192V26.6489C10.9727 25.8174 11.303 25.02 11.8909 24.432C12.4789 23.8441 13.2763 23.5138 14.1078 23.5138H15.7725C16.1551 20.4835 17.6302 17.6969 19.9212 15.677C22.2122 13.657 25.1616 12.5425 28.2159 12.5425C31.2702 12.5425 34.2196 13.657 36.5106 15.677C38.8016 17.6969 40.2767 20.4835 40.6592 23.5138H42.324ZM21.5694 35.7173L23.231 33.0587C24.725 33.9946 26.453 34.4896 28.2159 34.4867C29.9788 34.4896 31.7068 33.9946 33.2008 33.0587L34.8624 35.7173C32.8704 36.9653 30.5665 37.6255 28.2159 37.6219C25.8653 37.6255 23.5614 36.9653 21.5694 35.7173Z" fill="white"/>
<rect x="21" y="30" width="14" height="9" fill="#488FE0"/>
<path d="M28 24C28.1989 24 28.3897 24.079 28.5303 24.2197C28.671 24.3603 28.75 24.5511 28.75 24.75V29.25H33.25C33.4489 29.25 33.6397 29.329 33.7803 29.4697C33.921 29.6103 34 29.8011 34 30C34 30.1989 33.921 30.3897 33.7803 30.5303C33.6397 30.671 33.4489 30.75 33.25 30.75H28.75V35.25C28.75 35.4489 28.671 35.6397 28.5303 35.7803C28.3897 35.921 28.1989 36 28 36C27.8011 36 27.6103 35.921 27.4697 35.7803C27.329 35.6397 27.25 35.4489 27.25 35.25V30.75H22.75C22.5511 30.75 22.3603 30.671 22.2197 30.5303C22.079 30.3897 22 30.1989 22 30C22 29.8011 22.079 29.6103 22.2197 29.4697C22.3603 29.329 22.5511 29.25 22.75 29.25H27.25V24.75C27.25 24.5511 27.329 24.3603 27.4697 24.2197C27.6103 24.079 27.8011 24 28 24Z" fill="white"/>
</svg>
