<svg width="1024" height="238" viewBox="0 0 1024 238" fill="none" xmlns="http://www.w3.org/2000/svg">
<path d="M0 70.96C0 48.3384 18.3384 30 40.96 30H983.04C1005.66 30 1024 48.3384 1024 70.96V238H0V70.96Z" fill="white"/>
<circle cx="513.365" cy="103.765" r="103.765" fill="white"/>
<circle cx="512" cy="105.131" r="88.7467" fill="#F5F5F5"/>
<path fill-rule="evenodd" clip-rule="evenodd" d="M485.877 79.1757C489.291 75.7268 493.353 72.9873 497.83 71.115C502.307 69.2428 507.111 68.2747 511.964 68.2667C516.816 68.2586 521.623 69.2107 526.106 71.0681C530.59 72.9254 534.661 75.6514 538.087 79.089C543.235 84.2483 546.74 90.8172 548.159 97.9665C549.577 105.116 548.846 112.525 546.057 119.26C543.268 125.994 538.547 131.751 532.489 135.804C526.432 139.857 519.309 142.025 512.02 142.034C502.251 142.016 492.887 138.13 485.976 131.227C479.065 124.323 475.17 114.963 475.142 105.194C475.055 100.353 475.964 95.5467 477.81 91.0713C479.657 86.5959 482.402 82.5472 485.877 79.1757ZM530.551 108.788V101.513H515.663V86.615H508.387V101.503H493.499V108.779H508.387V123.667H515.663V108.779L530.551 108.788Z" fill="#034694"/>
</svg>
