<svg width="34" height="34" viewBox="0 0 34 34" fill="none" xmlns="http://www.w3.org/2000/svg">
<circle opacity="0.1" cx="17" cy="17" r="17" fill="#488FE0"/>
<path d="M9 12.7083C9 11.99 9.30318 11.3012 9.84283 10.7933C10.3825 10.2853 11.1144 10 11.8776 10H22.0599C22.8231 10 23.555 10.2853 24.0947 10.7933C24.6343 11.3012 24.9375 11.99 24.9375 12.7083V22.2917C24.9375 23.01 24.6343 23.6988 24.0947 24.2067C23.555 24.7147 22.8231 25 22.0599 25H11.8776C11.1144 25 10.3825 24.7147 9.84283 24.2067C9.30318 23.6988 9 23.01 9 22.2917V12.7083ZM12.763 19.1667C12.5869 19.1667 12.418 19.2325 12.2935 19.3497C12.1689 19.4669 12.099 19.6259 12.099 19.7917C12.099 19.9574 12.1689 20.1164 12.2935 20.2336C12.418 20.3508 12.5869 20.4167 12.763 20.4167H15.862C16.0381 20.4167 16.207 20.3508 16.3315 20.2336C16.4561 20.1164 16.526 19.9574 16.526 19.7917C16.526 19.6259 16.4561 19.4669 16.3315 19.3497C16.207 19.2325 16.0381 19.1667 15.862 19.1667H12.763ZM12.099 15.2083C12.099 15.5533 12.3965 15.8333 12.763 15.8333H15.862C16.0381 15.8333 16.207 15.7675 16.3315 15.6503C16.4561 15.5331 16.526 15.3741 16.526 15.2083C16.526 15.0426 16.4561 14.8836 16.3315 14.7664C16.207 14.6492 16.0381 14.5833 15.862 14.5833H12.763C12.5869 14.5833 12.418 14.6492 12.2935 14.7664C12.1689 14.8836 12.099 15.0426 12.099 15.2083ZM22.0865 14.8167C22.2038 14.6982 22.2676 14.5415 22.2646 14.3796C22.2615 14.2176 22.1919 14.0632 22.0702 13.9486C21.9485 13.8341 21.7844 13.7685 21.6123 13.7657C21.4403 13.7628 21.2738 13.8229 21.1479 13.9333L19.8464 15.1583L19.4302 14.7667C19.3694 14.7053 19.2961 14.656 19.2146 14.6218C19.1332 14.5877 19.0453 14.5693 18.9561 14.5678C18.8669 14.5664 18.7784 14.5818 18.6957 14.6132C18.613 14.6447 18.5379 14.6915 18.4748 14.7508C18.4118 14.8102 18.362 14.8808 18.3286 14.9587C18.2952 15.0365 18.2788 15.1198 18.2804 15.2038C18.282 15.2877 18.3015 15.3704 18.3378 15.4471C18.3741 15.5238 18.4264 15.5928 18.4917 15.65L19.3771 16.4833C19.5016 16.6004 19.6704 16.6661 19.8464 16.6661C20.0223 16.6661 20.1911 16.6004 20.3156 16.4833L22.0865 14.8167ZM22.0865 18.5167C21.9619 18.3996 21.7932 18.3339 21.6172 18.3339C21.4412 18.3339 21.2724 18.3996 21.1479 18.5167L19.8464 19.7417L19.4302 19.35C19.3694 19.2886 19.2961 19.2393 19.2146 19.2052C19.1332 19.171 19.0453 19.1527 18.9561 19.1512C18.8669 19.1497 18.7784 19.1651 18.6957 19.1966C18.613 19.228 18.5379 19.2748 18.4748 19.3341C18.4118 19.3935 18.362 19.4642 18.3286 19.542C18.2952 19.6198 18.2788 19.7032 18.2804 19.7871C18.282 19.871 18.3015 19.9538 18.3378 20.0304C18.3741 20.1071 18.4264 20.1761 18.4917 20.2333L19.3771 21.0667C19.5016 21.1837 19.6704 21.2494 19.8464 21.2494C20.0223 21.2494 20.1911 21.1837 20.3156 21.0667L22.0865 19.4C22.2108 19.2828 22.2807 19.124 22.2807 18.9583C22.2807 18.7927 22.2108 18.6339 22.0865 18.5167Z" fill="#488FE0"/>
</svg>
