<svg width="19" height="19" viewBox="0 0 19 19" fill="none" xmlns="http://www.w3.org/2000/svg">
<path d="M2.35673 11.648H1.53514C0.786762 11.648 0.162714 11.0506 0.15419 10.3004C0.15212 10.1187 0.186472 9.93845 0.255217 9.77025C0.323951 9.60207 0.425675 9.44936 0.554387 9.32113L2.35673 11.648ZM2.35673 11.648V18.2774V18.3274H2.40673H16.594H16.644V18.2774V11.648H17.4841C17.8481 11.648 18.1909 11.5053 18.4484 11.2479C18.4484 11.2478 18.4484 11.2478 18.4484 11.2478L18.4131 11.2125M2.35673 11.648L18.8466 10.2835H18.7966C18.7973 10.456 18.7637 10.6269 18.6979 10.7864C18.6321 10.9458 18.5353 11.0907 18.4131 11.2125M18.4131 11.2125C18.1649 11.4606 17.8348 11.598 17.4841 11.598H16.644L18.4131 11.2125ZM9.00976 0.869864L0.554447 9.32107L18.8466 10.2832C18.8465 9.92132 18.7038 9.57854 18.4464 9.32114L18.411 9.3565L18.4464 9.32113L10.5222 1.40102L10.5221 1.40102L9.99101 0.869872L9.99089 0.869755C9.8605 0.740226 9.68417 0.667529 9.50038 0.667529C9.31659 0.667529 9.14025 0.740226 9.00986 0.869755L9.00976 0.869864ZM15.1175 10.0714H15.0675V10.1214V16.7508H12.0113V12.1251C12.0113 11.6442 11.6218 11.2547 11.141 11.2547H7.85975C7.37892 11.2547 6.98944 11.6442 6.98944 12.1251V16.7508H3.93329V10.1214V10.0714H3.88329H2.03532L9.50241 2.6104L9.9408 3.04879L9.94081 3.0488L16.9675 10.0714H15.1175ZM8.40194 16.7508V12.6672H10.5988V16.7508H8.40194Z" fill="#424242" stroke="#424242" stroke-width="0.1"/>
</svg>
