<svg width="19" height="19" viewBox="0 0 19 19" fill="none" xmlns="http://www.w3.org/2000/svg">
<path d="M11 4.00009L15 8.00009M11 4.00009L13.293 1.70709C13.4805 1.51962 13.7348 1.41431 14 1.41431C14.2652 1.41431 14.5195 1.51962 14.707 1.70709L17.293 4.29309C17.4805 4.48062 17.5858 4.73493 17.5858 5.00009C17.5858 5.26526 17.4805 5.51957 17.293 5.70709L15 8.00009L11 4.00009ZM11 4.00009L1.293 13.7071C1.10545 13.8946 1.00006 14.1489 1 14.4141V17.0001C1 17.2653 1.10536 17.5197 1.29289 17.7072C1.48043 17.8947 1.73478 18.0001 2 18.0001H4.586C4.85119 18 5.10551 17.8946 5.293 17.7071L15 8.00009L11 4.00009Z" stroke="#488FE0" stroke-width="2" stroke-linecap="round" stroke-linejoin="round"/>
</svg>
