<svg width="24" height="23" viewBox="0 0 24 23" fill="none" xmlns="http://www.w3.org/2000/svg">
<path d="M23.4088 11.0999L12.5481 0.247171C12.4699 0.168818 12.3771 0.106657 12.2748 0.0642439C12.1726 0.0218311 12.0629 0 11.9522 0C11.8415 0 11.7319 0.0218311 11.6297 0.0642439C11.5274 0.106657 11.4345 0.168818 11.3563 0.247171L0.495703 11.0999C0.179297 11.4163 0 11.8461 0 12.2943C0 13.2251 0.756738 13.9818 1.6875 13.9818H2.83184V21.7259C2.83184 22.1926 3.20889 22.5696 3.67559 22.5696H10.2647V16.6634H13.2179V22.5696H20.2289C20.6956 22.5696 21.0727 22.1926 21.0727 21.7259V13.9818H22.217C22.6652 13.9818 23.095 13.8052 23.4114 13.4861C24.068 12.827 24.068 11.7591 23.4088 11.0999Z" fill="white"/>
</svg>
