<svg width="18" height="16" viewBox="0 0 18 16" fill="none" xmlns="http://www.w3.org/2000/svg">
<path d="M9.84477 14.544C11.7189 13.01 15.0532 9.876 15.0532 7C15.0532 5.4087 14.3735 3.88258 13.1636 2.75736C11.9538 1.63214 10.3128 1 8.6018 1C6.89078 1 5.24984 1.63214 4.03996 2.75736C2.83009 3.88258 2.15039 5.4087 2.15039 7C2.15039 9.876 5.48362 13.01 7.35883 14.544C7.70087 14.8279 8.14332 14.9849 8.6018 14.9849C9.06028 14.9849 9.50273 14.8279 9.84477 14.544ZM6.45133 7C6.45133 6.46957 6.6779 5.96086 7.08119 5.58579C7.48448 5.21071 8.03146 5 8.6018 5C9.17214 5 9.71912 5.21071 10.1224 5.58579C10.5257 5.96086 10.7523 6.46957 10.7523 7C10.7523 7.53043 10.5257 8.03914 10.1224 8.41421C9.71912 8.78929 9.17214 9 8.6018 9C8.03146 9 7.48448 8.78929 7.08119 8.41421C6.6779 8.03914 6.45133 7.53043 6.45133 7Z" fill="#488FE0"/>
</svg>
