<svg width="28" height="29" viewBox="0 0 28 29" fill="none" xmlns="http://www.w3.org/2000/svg">
<ellipse opacity="0.1" cx="14" cy="14.47" rx="14" ry="14.47" fill="#488FE0"/>
<path d="M8.5 18.607H6.5C6.36739 18.607 6.24021 18.6615 6.14645 18.7584C6.05268 18.8554 6 18.9868 6 19.1239V21.1916C6 21.3287 6.05268 21.4602 6.14645 21.5572C6.24021 21.6541 6.36739 21.7086 6.5 21.7086H8.5C8.63261 21.7086 8.75979 21.6541 8.85355 21.5572C8.94732 21.4602 9 21.3287 9 21.1916V19.1239C9 18.9868 8.94732 18.8554 8.85355 18.7584C8.75979 18.6615 8.63261 18.607 8.5 18.607ZM8.5 8.26855H6.5C6.36739 8.26855 6.24021 8.32302 6.14645 8.41996C6.05268 8.5169 6 8.64838 6 8.78548V10.8532C6 10.9903 6.05268 11.1217 6.14645 11.2187C6.24021 11.3156 6.36739 11.3701 6.5 11.3701H8.5C8.63261 11.3701 8.75979 11.3156 8.85355 11.2187C8.94732 11.1217 9 10.9903 9 10.8532V8.78548C9 8.64838 8.94732 8.5169 8.85355 8.41996C8.75979 8.32302 8.63261 8.26855 8.5 8.26855V8.26855ZM8.5 13.4378H6.5C6.36739 13.4378 6.24021 13.4922 6.14645 13.5892C6.05268 13.6861 6 13.8176 6 13.9547V16.0224C6 16.1595 6.05268 16.291 6.14645 16.3879C6.24021 16.4849 6.36739 16.5393 6.5 16.5393H8.5C8.63261 16.5393 8.75979 16.4849 8.85355 16.3879C8.94732 16.291 9 16.1595 9 16.0224V13.9547C9 13.8176 8.94732 13.6861 8.85355 13.5892C8.75979 13.4922 8.63261 13.4378 8.5 13.4378ZM21.5 19.1239H11.5C11.3674 19.1239 11.2402 19.1784 11.1464 19.2753C11.0527 19.3723 11 19.5038 11 19.6409V20.6747C11 20.8118 11.0527 20.9433 11.1464 21.0402C11.2402 21.1372 11.3674 21.1916 11.5 21.1916H21.5C21.6326 21.1916 21.7598 21.1372 21.8536 21.0402C21.9473 20.9433 22 20.8118 22 20.6747V19.6409C22 19.5038 21.9473 19.3723 21.8536 19.2753C21.7598 19.1784 21.6326 19.1239 21.5 19.1239ZM21.5 8.78548H11.5C11.3674 8.78548 11.2402 8.83994 11.1464 8.93688C11.0527 9.03382 11 9.1653 11 9.3024V10.3362C11 10.4733 11.0527 10.6048 11.1464 10.7018C11.2402 10.7987 11.3674 10.8532 11.5 10.8532H21.5C21.6326 10.8532 21.7598 10.7987 21.8536 10.7018C21.9473 10.6048 22 10.4733 22 10.3362V9.3024C22 9.1653 21.9473 9.03382 21.8536 8.93688C21.7598 8.83994 21.6326 8.78548 21.5 8.78548V8.78548ZM21.5 13.9547H11.5C11.3674 13.9547 11.2402 14.0092 11.1464 14.1061C11.0527 14.2031 11 14.3345 11 14.4716V15.5055C11 15.6426 11.0527 15.7741 11.1464 15.871C11.2402 15.9679 11.3674 16.0224 11.5 16.0224H21.5C21.6326 16.0224 21.7598 15.9679 21.8536 15.871C21.9473 15.7741 22 15.6426 22 15.5055V14.4716C22 14.3345 21.9473 14.2031 21.8536 14.1061C21.7598 14.0092 21.6326 13.9547 21.5 13.9547Z" fill="#488FE0"/>
</svg>
