<svg width="312" height="312" viewBox="0 0 312 312" fill="none" xmlns="http://www.w3.org/2000/svg">
<circle opacity="0.1" cx="156" cy="156" r="156" fill="url(#paint0_linear_689_1164)"/>
<circle opacity="0.1" cx="156" cy="156" r="118" fill="url(#paint1_linear_689_1164)"/>
<path opacity="0.1" d="M84.4551 273.785L62.4503 273.796C62.4503 273.796 35.7699 260.14 38.1503 209.737C40.5307 159.335 97.8793 127.342 115.418 122.954C132.958 118.566 146.135 117.654 151.443 130.267C156.75 142.88 164.358 145.329 172.208 145.151C180.058 144.974 223.499 140.625 243.041 167.375C258.254 188.204 264.124 235.642 240.078 273.653L84.4551 273.785Z" fill="white"/>
<path d="M211.744 227.508H182V230.958H211.744V227.508Z" fill="#FFC931"/>
<path d="M213.727 224.055H183.985V227.508H213.727V224.055Z" fill="#FFC931"/>
<path d="M211.732 227.385H182V227.629H211.732V227.385Z" fill="white"/>
<path d="M216.731 220.608H186.99V224.061H216.731V220.608Z" fill="#FFC931"/>
<path d="M214.244 217.156H184.5V220.608H214.244V217.156Z" fill="#FFC931"/>
<path d="M217.689 213.709H187.948V217.159H217.689V213.709Z" fill="#FFC931"/>
<path d="M214.244 210.259H184.5V213.712H214.244V210.259Z" fill="#FFC931"/>
<path d="M216.731 206.808H186.99V210.26H216.731V206.808Z" fill="#FFC931"/>
<path d="M213.006 203.355H183.265V206.808H213.006V203.355Z" fill="#FFC931"/>
<path d="M216.731 199.903H186.99V203.355H216.731V199.903Z" fill="#FFC931"/>
<path d="M214.749 196.454H185.005V199.904H214.749V196.454Z" fill="#FFC931"/>
<path d="M216.731 193.001H186.99V196.454H216.731V193.001Z" fill="#FFC931"/>
<path d="M217.681 217.158V213.709H214.233V210.259H216.721V206.808H212.996V203.355H216.721V199.903H214.738V196.453H216.721V193H203.087C201.807 193 202.126 194.634 202.095 195.458C202.069 196.937 200.135 195.969 200.11 197.444V198.91C200.137 200.387 202.075 199.417 202.095 200.896C202.067 201.726 202.379 203.356 201.104 203.354C200.264 203.423 198.367 202.975 198.371 204.345C198.401 205.17 198.086 206.811 199.362 206.807C201.817 206.792 202.23 206.532 202.095 209.267C201.958 211.074 199.743 209.446 199.605 211.251C199.632 212.067 199.325 213.719 200.599 213.708C200.956 213.718 202.235 213.628 202.54 213.83C203.304 214.149 202.996 215.539 203.054 216.166C202.975 218.176 199.682 216.139 199.605 218.152C199.632 218.957 199.325 220.626 200.599 220.607C200.886 220.589 201.335 220.583 201.581 220.729C202.345 221.059 202.038 222.435 202.095 223.068C202.095 223.331 201.991 223.583 201.805 223.769C201.619 223.955 201.367 224.06 201.104 224.06H216.721V220.608H214.233V217.158H217.681Z" fill="#F99247"/>
<path d="M214.738 196.33H185.005V196.573H214.738V196.33Z" fill="white"/>
<path d="M216.721 199.781H186.99V200.024H216.721V199.781Z" fill="white"/>
<path d="M212.997 203.234H183.264V203.477H212.997V203.234Z" fill="white"/>
<path d="M216.721 206.686H186.99V206.929H216.721V206.686Z" fill="white"/>
<path d="M214.232 210.138H184.5V210.381H214.232V210.138Z" fill="white"/>
<path d="M217.681 213.585H187.948V213.831H217.681V213.585Z" fill="white"/>
<path d="M217.681 217.038H187.948V217.281H217.681V217.038Z" fill="white"/>
<path d="M214.232 220.487H184.5V220.731H214.232V220.487Z" fill="white"/>
<path d="M213.727 223.938H183.995V224.182H213.727V223.938Z" fill="white"/>
<path opacity="0.6" d="M144.301 154.911H162.622C162.711 154.805 162.777 154.682 162.815 154.549C162.853 154.416 162.863 154.277 162.844 154.14C162.825 154.003 162.777 153.871 162.704 153.754C162.631 153.636 162.534 153.536 162.42 153.458C161.576 152.883 160.36 153.14 160.36 153.14C160.36 153.14 161.692 147.564 157.923 146.894C154.154 146.223 152.913 150.055 152.913 150.055C152.972 147.51 146.832 142.719 143.301 147.736C142.384 149.038 142.03 150.188 142.008 151.177C141.992 151.953 142.2 152.718 142.607 153.38C143.013 154.043 143.602 154.574 144.301 154.911Z" fill="white"/>
<path opacity="0.6" d="M157.087 242.633H174.496C174.814 242.334 174.812 241.849 174.303 241.585C173.502 241.17 172.346 241.355 172.346 241.355C172.346 241.355 173.613 237.334 170.032 236.85C166.452 236.366 165.272 239.132 165.272 239.132C165.328 237.294 159.496 233.84 156.142 237.457C155.27 238.397 154.934 239.227 154.907 239.939C154.872 241.127 155.784 242.149 157.087 242.633Z" fill="white"/>
<path opacity="0.6" d="M77.6561 196.018C77.6693 195.836 77.6441 195.653 77.582 195.48C77.5199 195.308 77.4223 195.151 77.2955 195.019C76.7856 194.477 75.9177 194.032 74.4559 193.934C74.4559 193.934 74.9584 184.881 68.1198 184.281C60.2774 183.593 60.1823 192.487 60.1823 192.487C60.1823 192.487 56.6179 189.103 54.0462 193.393C54.0462 193.393 49.6015 190.825 47.3619 195.569C47.2958 195.709 47.2747 195.866 47.3014 196.018H77.6561Z" fill="white"/>
<path opacity="0.6" d="M235.417 176.582C235.426 176.461 235.41 176.34 235.369 176.226C235.328 176.113 235.263 176.009 235.179 175.922C234.843 175.564 234.269 175.273 233.305 175.205C233.305 175.205 233.637 169.224 229.119 168.828C223.934 168.374 223.876 174.249 223.876 174.249C223.876 174.249 221.52 172.015 219.823 174.848C219.823 174.848 216.887 173.152 215.406 176.285C215.362 176.377 215.348 176.481 215.367 176.582H235.417Z" fill="white"/>
<path d="M274.972 273.064H47.9941V274H274.972V273.064Z" fill="white"/>
<path d="M100.91 221.239L65.4641 232.823C65.0881 232.946 64.6915 232.993 64.2971 232.962C63.9026 232.932 63.5182 232.823 63.1658 232.643C62.8134 232.464 62.4999 232.216 62.2435 231.915C61.987 231.614 61.7926 231.265 61.6713 230.888L55.3747 211.325C55.131 210.569 55.197 209.746 55.5582 209.038C55.9194 208.33 56.5464 207.794 57.302 207.547L92.7482 195.964C93.1243 195.842 93.5207 195.795 93.9148 195.827C94.3089 195.859 94.6929 195.968 95.0447 196.148C95.3965 196.328 95.7092 196.576 95.965 196.878C96.2207 197.179 96.4144 197.528 96.5349 197.905L102.831 217.468C103.074 218.223 103.008 219.043 102.648 219.749C102.288 220.456 101.663 220.991 100.91 221.239Z" fill="#F4D60C"/>
<path d="M73.6472 226.577L66.0962 229.073C65.7866 229.173 65.4498 229.148 65.1592 229.001C64.8685 228.854 64.6475 228.599 64.5443 228.29C64.4427 227.98 64.468 227.642 64.6147 227.351C64.7613 227.059 65.0175 226.838 65.327 226.735L72.8793 224.238C73.1894 224.137 73.5271 224.162 73.8186 224.309C74.1101 224.455 74.3317 224.711 74.4349 225.021C74.5363 225.332 74.5103 225.67 74.3626 225.962C74.215 226.253 73.9577 226.474 73.6472 226.577Z" fill="#FFFA7B"/>
<path d="M63.3183 232.989C62.9116 232.831 62.5455 232.583 62.2464 232.265C61.9474 231.947 61.7231 231.567 61.5898 231.151L55.3092 211.687C55.2958 211.647 55.2987 211.604 55.3172 211.566C55.3357 211.528 55.3683 211.5 55.408 211.486C55.4431 211.473 55.4815 211.473 55.5166 211.486C55.5385 211.495 55.5582 211.508 55.5743 211.525C55.5903 211.543 55.6022 211.563 55.6092 211.586L61.7404 230.59C62.0713 231.591 62.6738 232.287 63.4849 232.603C64.122 232.85 64.8739 232.85 65.6579 232.588L87.496 225.457C87.5307 225.444 87.5688 225.444 87.6034 225.457C87.6253 225.465 87.6449 225.479 87.661 225.496C87.677 225.513 87.689 225.533 87.696 225.556C87.7026 225.576 87.7052 225.596 87.7037 225.617C87.7021 225.638 87.6965 225.659 87.6871 225.677C87.6777 225.696 87.6647 225.713 87.6489 225.726C87.633 225.74 87.6147 225.75 87.5948 225.757L65.3011 233.041C64.654 233.253 63.9534 233.235 63.3183 232.989Z" fill="#EB5757"/>
<path d="M69.4086 203.714C69.3749 203.701 69.3468 203.676 69.3296 203.645C69.3196 203.624 69.3145 203.601 69.3145 203.577C69.3145 203.554 69.3196 203.531 69.3296 203.51C69.3383 203.489 69.3515 203.469 69.3683 203.454C69.3852 203.438 69.4053 203.426 69.4272 203.419L92.8851 195.754C93.2574 195.632 93.65 195.585 94.0405 195.615C94.431 195.646 94.8117 195.753 95.1606 195.931C95.5095 196.109 95.8198 196.354 96.0736 196.652C96.3275 196.951 96.5198 197.296 96.6397 197.669L101.683 213.328C101.696 213.368 101.693 213.411 101.674 213.449C101.655 213.486 101.622 213.515 101.582 213.528C101.547 213.541 101.509 213.541 101.474 213.528C101.452 213.519 101.433 213.506 101.416 213.488C101.4 213.471 101.388 213.45 101.381 213.428L96.3841 197.951C96.2693 197.594 96.0851 197.263 95.842 196.977C95.5989 196.691 95.3018 196.457 94.9677 196.286C94.6336 196.116 94.2691 196.013 93.8951 195.984C93.5212 195.955 93.1453 196 92.7888 196.117L69.5321 203.718C69.4918 203.731 69.4481 203.729 69.4086 203.714Z" fill="#EB5757"/>
<path d="M214.447 223.275H184.308V226.772H214.447V223.275Z" fill="#FFFA7B"/>
<path d="M214.437 223.152H184.308V223.399H214.437V223.152Z" fill="black"/>
<path d="M137.297 173.469C138.04 173.469 138.642 172.867 138.642 172.125C138.642 171.382 138.04 170.78 137.297 170.78C136.555 170.78 135.953 171.382 135.953 172.125C135.953 172.867 136.555 173.469 137.297 173.469Z" fill="#D49346"/>
<path d="M137.297 167.74C138.134 167.74 138.937 168.073 139.529 168.665C140.121 169.256 140.453 170.059 140.453 170.896V272.063H134.143V170.895C134.143 170.058 134.475 169.255 135.067 168.663C135.659 168.071 136.462 167.739 137.299 167.739L137.297 167.74Z" fill="white"/>
<path d="M173.653 273.153H100.942C100.942 272.048 101.382 270.987 102.163 270.206C102.945 269.424 104.005 268.985 105.11 268.985H169.488C170.593 268.985 171.653 269.424 172.435 270.206C173.217 270.987 173.656 272.048 173.656 273.153H173.653Z" fill="white"/>
<path d="M102.708 222.828L73.6991 174.655L44.6902 222.828L43.642 222.196L73.6991 172.284L103.757 222.196L102.708 222.828Z" fill="white"/>
<path d="M230.022 222.828L201.013 174.655L172.003 222.828L170.955 222.196L201.013 172.284L231.07 222.196L230.022 222.828Z" fill="white"/>
<path d="M201.457 173.469H73.1386C72.782 173.469 72.44 173.327 72.1879 173.075C71.9357 172.823 71.7941 172.481 71.7941 172.125C71.7944 171.768 71.9362 171.426 72.1883 171.175C72.4404 170.923 72.7822 170.781 73.1386 170.781H201.457C201.814 170.781 202.156 170.923 202.408 171.175C202.66 171.426 202.802 171.768 202.802 172.125C202.802 172.301 202.767 172.476 202.7 172.639C202.632 172.802 202.533 172.95 202.408 173.075C202.283 173.2 202.135 173.299 201.972 173.367C201.809 173.434 201.634 173.469 201.457 173.469Z" fill="white"/>
<path d="M73.6966 239.253C49.651 239.253 43.3667 222.104 43.3667 222.104H104.032C104.032 222.104 97.7423 239.253 73.6966 239.253Z" fill="white"/>
<path d="M201.009 239.253C176.965 239.253 170.681 222.104 170.681 222.104H231.343C231.343 222.104 225.055 239.253 201.009 239.253Z" fill="white"/>
<path d="M73.6965 239.536V238.969C87.3602 238.969 95.2297 233.382 99.425 228.695C101.937 225.889 103.188 223.338 103.607 222.39H97.9768V221.823H104.438L104.299 222.205C104.251 222.336 103.082 225.464 99.8547 229.074C95.5754 233.847 87.5701 239.536 73.6965 239.536Z" fill="#EB5757"/>
<path d="M83.3638 221.823H43.3667V222.391H83.3638V221.823Z" fill="#EB5757"/>
<path d="M215.459 221.823H170.681V222.391H215.459V221.823Z" fill="#EB5757"/>
<path d="M201.009 239.536C187.195 239.536 179.203 233.89 174.933 229.153L175.354 228.773C179.551 233.425 187.404 238.969 201.009 238.969V239.536Z" fill="#EB5757"/>
<path d="M178.753 173.186H109.634V173.754H178.753V173.186Z" fill="#EB5757"/>
<path d="M120.587 170.497H78.6858V171.065H120.587V170.497Z" fill="black"/>
<path d="M134.426 269.269H115.821V268.701H133.859V205.81H134.426V269.269Z" fill="#EB5757"/>
<path d="M173.933 273.153H173.365V273.094C173.365 272.081 172.963 271.109 172.248 270.392C171.533 269.674 170.563 269.27 169.55 269.266H140.166V253.119H140.732V268.701H169.55C170.713 268.704 171.828 269.168 172.65 269.991C173.471 270.815 173.933 271.93 173.933 273.094V273.153Z" fill="#EB5757"/>
<path d="M220.778 212.072C221.344 212.049 221.807 211.81 221.977 211.791L221.268 210.883C221.227 210.85 221.193 210.81 221.168 210.764C221.143 210.717 221.127 210.667 221.121 210.615C221.115 210.562 221.12 210.509 221.135 210.459C221.149 210.408 221.174 210.361 221.207 210.32C221.24 210.279 221.28 210.245 221.326 210.22C221.372 210.195 221.423 210.179 221.475 210.173C221.528 210.167 221.581 210.172 221.631 210.186C221.681 210.201 221.729 210.226 221.77 210.259L223.955 211.629C224.067 211.719 224.099 212.006 224.071 212.246C224.506 214.57 224.554 214.932 224.613 215.569L222.287 215.591C221.966 215.614 221.062 215.616 220.889 215.507C220.591 215.318 220.693 215.002 220.671 214.643C220.641 214.129 220.566 213.52 220.518 213.038C220.533 213.018 220.541 212.993 220.539 212.967L220.528 212.864C220.525 212.846 220.518 212.83 220.507 212.817L220.778 212.072Z" fill="#FE9F73"/>
<path d="M244.141 206.945C244.141 206.945 241.561 212.538 240.405 213.637C239.249 214.735 225.75 215.6 225.75 215.6L225.393 211.44L236.258 208.954L239.106 203.567L244.141 206.945Z" fill="#FE9F73"/>
<path d="M238.296 210.622C238.268 210.619 238.241 210.609 238.219 210.592L236.158 209.107C236.141 209.094 236.126 209.079 236.115 209.061C236.104 209.043 236.097 209.023 236.093 209.002C236.09 208.981 236.091 208.96 236.096 208.94C236.1 208.919 236.109 208.9 236.122 208.883C236.134 208.866 236.149 208.851 236.167 208.84C236.185 208.829 236.205 208.821 236.226 208.818C236.247 208.815 236.268 208.815 236.289 208.82C236.309 208.825 236.329 208.834 236.346 208.846L238.41 210.335C238.439 210.356 238.46 210.385 238.47 210.419C238.48 210.453 238.479 210.489 238.467 210.522C238.454 210.556 238.431 210.584 238.401 210.602C238.371 210.621 238.335 210.629 238.3 210.625L238.296 210.622Z" fill="#F07162"/>
<path d="M223.146 211.122C223.146 211.122 224.197 211.587 224.487 211.569C224.777 211.55 225.969 211.307 225.969 211.307L226.553 215.545C225.743 215.615 224.93 215.624 224.119 215.57C222.577 215.488 223.146 211.122 223.146 211.122Z" fill="#FE9F73"/>
<path d="M219.289 213.099C219.299 213.37 219.49 213.572 219.552 213.57L221.609 213.494C221.721 213.492 221.828 213.447 221.908 213.369C221.988 213.291 222.036 213.185 222.041 213.073C222.043 213.014 222.033 212.955 222.011 212.9C221.989 212.844 221.956 212.794 221.914 212.752C221.871 212.71 221.821 212.678 221.766 212.656C221.71 212.634 221.651 212.624 221.592 212.627L219.483 212.703C219.42 212.747 219.369 212.807 219.335 212.876C219.301 212.945 219.285 213.022 219.289 213.099Z" fill="#FE9F73"/>
<path d="M219.326 213.955C219.326 214.226 219.519 214.431 219.581 214.43L221.639 214.396C221.751 214.395 221.858 214.352 221.94 214.275C222.022 214.198 222.071 214.094 222.079 213.982C222.082 213.923 222.073 213.863 222.052 213.808C222.031 213.752 221.999 213.701 221.958 213.659C221.916 213.616 221.867 213.582 221.812 213.56C221.757 213.537 221.698 213.526 221.639 213.526L219.528 213.562C219.464 213.605 219.412 213.664 219.376 213.733C219.341 213.801 219.324 213.878 219.326 213.955Z" fill="#FE9F73"/>
<path d="M219.552 214.708C219.552 214.929 219.704 215.099 219.755 215.098L221.435 215.089C221.528 215.092 221.618 215.058 221.686 214.996C221.755 214.934 221.798 214.848 221.805 214.756C221.807 214.708 221.8 214.66 221.783 214.616C221.766 214.571 221.74 214.53 221.707 214.495C221.673 214.46 221.634 214.433 221.589 214.414C221.545 214.395 221.498 214.386 221.45 214.386L219.721 214.396C219.669 214.429 219.626 214.476 219.597 214.53C219.567 214.585 219.552 214.646 219.552 214.708Z" fill="#FE9F73"/>
<path d="M219.539 213.643C219.519 213.639 219.501 213.628 219.488 213.612C219.476 213.596 219.47 213.576 219.471 213.556C219.473 213.536 219.482 213.517 219.497 213.503C219.511 213.489 219.531 213.481 219.551 213.481L221.605 213.413C221.697 213.412 221.785 213.376 221.85 213.312C221.916 213.249 221.955 213.162 221.96 213.071C221.962 213.023 221.954 212.974 221.936 212.93C221.918 212.885 221.891 212.844 221.856 212.81C221.822 212.776 221.781 212.75 221.736 212.732C221.692 212.714 221.644 212.706 221.596 212.708L219.714 212.777C219.694 212.775 219.675 212.765 219.662 212.75C219.649 212.735 219.641 212.715 219.641 212.695C219.641 212.675 219.649 212.655 219.662 212.64C219.675 212.625 219.694 212.615 219.714 212.613L221.594 212.545C221.665 212.543 221.735 212.555 221.801 212.58C221.866 212.606 221.926 212.645 221.976 212.695C222.026 212.745 222.066 212.804 222.092 212.87C222.118 212.935 222.131 213.005 222.129 213.076C222.122 213.209 222.066 213.334 221.971 213.427C221.876 213.52 221.749 213.574 221.617 213.577L219.561 213.644L219.539 213.643Z" fill="#F07162"/>
<path d="M219.479 212.277C219.489 212.524 219.658 212.697 219.713 212.694L221.54 212.628C221.639 212.625 221.733 212.586 221.805 212.518C221.876 212.449 221.919 212.356 221.925 212.257C221.927 212.205 221.917 212.152 221.898 212.103C221.878 212.054 221.848 212.01 221.811 211.972C221.773 211.935 221.729 211.906 221.68 211.887C221.631 211.867 221.578 211.858 221.525 211.86L219.651 211.929C219.595 211.968 219.55 212.02 219.52 212.081C219.49 212.142 219.476 212.209 219.479 212.277Z" fill="#FE9F73"/>
<path d="M219.7 212.76C219.684 212.757 219.67 212.748 219.659 212.735C219.648 212.723 219.642 212.707 219.641 212.691C219.641 212.681 219.642 212.672 219.646 212.663C219.649 212.654 219.654 212.645 219.661 212.638C219.667 212.631 219.675 212.626 219.684 212.622C219.693 212.618 219.702 212.616 219.712 212.615L221.538 212.556C221.619 212.554 221.696 212.522 221.754 212.466C221.813 212.41 221.848 212.333 221.852 212.252C221.854 212.209 221.847 212.167 221.831 212.127C221.815 212.087 221.791 212.05 221.76 212.02C221.729 211.99 221.693 211.966 221.653 211.95C221.613 211.935 221.571 211.927 221.528 211.929L219.857 211.989C219.847 211.991 219.836 211.99 219.827 211.987C219.817 211.984 219.807 211.979 219.8 211.972C219.792 211.965 219.786 211.957 219.781 211.947C219.777 211.938 219.775 211.928 219.775 211.917C219.775 211.907 219.777 211.897 219.781 211.887C219.786 211.878 219.792 211.869 219.8 211.862C219.807 211.856 219.817 211.851 219.827 211.848C219.836 211.845 219.847 211.844 219.857 211.845L221.528 211.784C221.59 211.782 221.653 211.793 221.711 211.815C221.769 211.838 221.823 211.873 221.867 211.917C221.912 211.961 221.947 212.014 221.971 212.072C221.994 212.131 222.005 212.193 222.003 212.256C221.997 212.374 221.947 212.486 221.863 212.568C221.778 212.651 221.666 212.698 221.547 212.701L219.721 212.761L219.7 212.76Z" fill="#F07162"/>
<path d="M219.631 214.465C219.612 214.46 219.595 214.449 219.583 214.433C219.572 214.416 219.566 214.397 219.568 214.377C219.57 214.357 219.579 214.339 219.593 214.325C219.607 214.311 219.626 214.303 219.646 214.302H221.651C221.739 214.306 221.825 214.274 221.89 214.215C221.955 214.155 221.994 214.073 221.998 213.985C222 213.936 221.993 213.888 221.976 213.843C221.959 213.798 221.933 213.757 221.899 213.722C221.866 213.687 221.825 213.66 221.781 213.641C221.736 213.623 221.688 213.613 221.64 213.614L219.53 213.651C219.51 213.649 219.491 213.639 219.478 213.624C219.465 213.609 219.457 213.589 219.457 213.569C219.457 213.549 219.465 213.529 219.478 213.514C219.491 213.499 219.51 213.49 219.53 213.487L221.641 213.451C221.712 213.45 221.782 213.463 221.847 213.49C221.912 213.517 221.971 213.557 222.02 213.608C222.07 213.659 222.108 213.719 222.133 213.785C222.158 213.851 222.168 213.921 222.165 213.992C222.159 214.122 222.103 214.244 222.008 214.333C221.913 214.421 221.787 214.469 221.657 214.465L219.65 214.472L219.631 214.465Z" fill="#F07162"/>
<path d="M219.737 215.169C219.721 215.166 219.706 215.157 219.696 215.145C219.685 215.132 219.679 215.116 219.679 215.1C219.679 215.08 219.687 215.062 219.7 215.048C219.714 215.035 219.732 215.027 219.751 215.027L221.431 215.018C221.505 215.019 221.576 214.992 221.63 214.943C221.684 214.894 221.718 214.826 221.724 214.753C221.727 214.714 221.721 214.675 221.708 214.638C221.695 214.602 221.674 214.568 221.647 214.54C221.621 214.512 221.589 214.49 221.553 214.474C221.517 214.459 221.479 214.451 221.44 214.451L219.712 214.461C219.693 214.461 219.675 214.453 219.661 214.44C219.648 214.427 219.64 214.408 219.64 214.39C219.64 214.371 219.647 214.352 219.661 214.339C219.674 214.326 219.693 214.318 219.712 214.318L221.44 214.309C221.498 214.309 221.556 214.32 221.61 214.343C221.663 214.366 221.712 214.4 221.752 214.442C221.792 214.485 221.823 214.535 221.843 214.59C221.863 214.645 221.871 214.703 221.867 214.761C221.858 214.871 221.809 214.973 221.728 215.047C221.647 215.121 221.541 215.162 221.431 215.161L219.751 215.17L219.737 215.169Z" fill="#F07162"/>
<path d="M243.831 188.459C243.831 188.459 242.82 186.635 244.847 184.849C246.875 183.062 247.472 185.733 248.335 185.908C249.198 186.083 250.692 185.645 251.395 187.167C252.097 188.69 251.881 189.871 252.788 190.04C253.696 190.209 256.8 192.206 256.301 195.226C255.802 198.246 252.917 198.326 252.917 198.326C252.917 198.326 241.682 199.764 240.667 196.895C239.652 194.026 240.638 192.664 241.987 191.551C242.814 190.867 244.539 190.208 243.831 188.459Z" fill="white"/>
<path d="M245.078 189.279C245.078 189.279 244.468 193.371 245.156 194.279C245.156 194.279 245.492 194.763 246.298 194.773V197.333H249.912V188.934L245.078 189.279Z" fill="#FE9F73"/>
<path d="M246.259 192.492C246.266 192.492 246.273 192.49 246.279 192.485C246.285 192.48 246.289 192.474 246.291 192.466C246.291 192.462 246.292 192.458 246.291 192.453C246.29 192.449 246.288 192.445 246.286 192.441C246.283 192.437 246.28 192.434 246.277 192.432C246.273 192.429 246.269 192.428 246.265 192.427C246.054 192.382 245.919 192.121 245.881 192.035C246.182 191.875 246.366 191.665 246.428 191.418C246.478 191.14 246.416 190.853 246.256 190.621C246.254 190.617 246.25 190.614 246.247 190.612C246.243 190.609 246.239 190.608 246.235 190.607C246.231 190.606 246.226 190.607 246.222 190.608C246.218 190.609 246.214 190.611 246.21 190.613C246.203 190.618 246.198 190.626 246.197 190.634C246.195 190.643 246.197 190.652 246.202 190.659C246.349 190.876 246.407 191.141 246.363 191.4C246.304 191.639 246.117 191.839 245.824 191.992L245.798 192.006L245.808 192.033C245.808 192.049 245.965 192.432 246.251 192.492H246.259Z" fill="#F07162"/>
<path d="M246.298 195.806V194.776C246.298 194.776 248.039 194.674 249.108 194C249.108 194.001 247.657 195.396 246.298 195.806Z" fill="#F07162"/>
<path d="M248.277 190.756C248.294 190.756 248.31 190.75 248.322 190.738C248.328 190.732 248.332 190.724 248.336 190.716C248.339 190.709 248.341 190.7 248.341 190.691C248.341 190.683 248.339 190.674 248.336 190.666C248.332 190.658 248.328 190.651 248.322 190.645C248.313 190.635 247.468 189.772 246.697 190.398C246.69 190.404 246.684 190.41 246.68 190.418C246.676 190.426 246.674 190.434 246.673 190.442C246.672 190.451 246.672 190.46 246.675 190.468C246.677 190.476 246.681 190.484 246.687 190.491C246.692 190.498 246.699 190.503 246.707 190.507C246.714 190.511 246.723 190.514 246.731 190.515C246.74 190.516 246.748 190.515 246.757 190.513C246.765 190.51 246.773 190.506 246.779 190.501C247.457 189.955 248.196 190.707 248.226 190.739C248.233 190.745 248.241 190.75 248.25 190.753C248.259 190.756 248.268 190.757 248.277 190.756Z" fill="white"/>
<path d="M245.987 190.612C245.996 190.612 246.006 190.61 246.014 190.606C246.023 190.602 246.031 190.597 246.037 190.59C246.043 190.583 246.047 190.576 246.05 190.567C246.053 190.559 246.054 190.55 246.053 190.542C246.052 190.533 246.05 190.525 246.046 190.517C246.042 190.51 246.037 190.503 246.03 190.497C246.005 190.475 245.413 189.974 245.042 190.292C245.029 190.304 245.021 190.32 245.02 190.338C245.018 190.355 245.024 190.372 245.035 190.386C245.047 190.398 245.064 190.405 245.082 190.405C245.099 190.405 245.116 190.398 245.129 190.386C245.414 190.139 245.934 190.586 245.939 190.59C245.945 190.597 245.952 190.602 245.96 190.606C245.969 190.61 245.978 190.612 245.987 190.612Z" fill="white"/>
<path d="M245.244 191.062C245.232 191.095 245.23 191.13 245.238 191.164C245.246 191.197 245.263 191.228 245.287 191.253C245.311 191.277 245.342 191.294 245.376 191.302C245.409 191.31 245.444 191.308 245.477 191.297C245.504 191.288 245.528 191.274 245.547 191.254C245.567 191.234 245.582 191.21 245.591 191.183C245.602 191.151 245.604 191.116 245.596 191.082C245.589 191.048 245.572 191.018 245.547 190.993C245.523 190.969 245.492 190.952 245.459 190.944C245.425 190.936 245.39 190.938 245.357 190.949C245.331 190.957 245.307 190.972 245.287 190.992C245.267 191.012 245.252 191.036 245.244 191.062Z" fill="white"/>
<path d="M251.17 192.302C251.388 191.777 251.139 191.175 250.614 190.958C250.089 190.741 249.488 190.99 249.27 191.515C249.053 192.039 249.302 192.641 249.827 192.858C250.352 193.076 250.953 192.827 251.17 192.302Z" fill="#FE9F73"/>
<path d="M250.297 192.543C250.391 192.54 250.481 192.507 250.555 192.448C250.628 192.39 250.681 192.309 250.704 192.218C250.734 192.132 250.734 192.039 250.704 191.953C250.674 191.867 250.616 191.793 250.54 191.744C250.46 191.693 250.367 191.667 250.272 191.669C250.177 191.671 250.085 191.701 250.007 191.755C250.043 191.654 250.115 191.569 250.208 191.517C250.35 191.452 250.511 191.442 250.66 191.487C250.668 191.49 250.677 191.489 250.685 191.485C250.693 191.481 250.699 191.474 250.702 191.466C250.703 191.462 250.704 191.458 250.704 191.453C250.704 191.449 250.702 191.445 250.7 191.441C250.698 191.437 250.696 191.434 250.692 191.431C250.689 191.428 250.685 191.426 250.681 191.425C250.514 191.372 250.334 191.384 250.176 191.459C250.108 191.499 250.049 191.554 250.003 191.619C249.957 191.684 249.926 191.758 249.912 191.836L249.882 191.951L249.966 191.867C250.036 191.798 250.127 191.754 250.224 191.742C250.322 191.729 250.421 191.75 250.506 191.799C250.569 191.842 250.617 191.904 250.641 191.976C250.666 192.049 250.665 192.127 250.64 192.199C250.62 192.277 250.575 192.347 250.512 192.397C250.449 192.447 250.371 192.475 250.291 192.477C250.286 192.477 250.282 192.478 250.278 192.479C250.274 192.481 250.27 192.483 250.267 192.486C250.264 192.489 250.262 192.493 250.26 192.497C250.258 192.501 250.257 192.505 250.257 192.509C250.257 192.518 250.261 192.527 250.267 192.533C250.273 192.539 250.282 192.543 250.291 192.543H250.297Z" fill="#F07162"/>
<path d="M245.078 189.278C245.078 189.278 245.39 187.696 247.509 187.52C249.628 187.345 249.912 188.934 249.912 188.934L247.494 189.428L245.234 189.262L245.078 189.278Z" fill="#FE9F73"/>
<path d="M245.078 187.938C245.078 187.938 246.395 189.227 248.104 188.934C248.104 188.934 248.675 191.023 249.912 190.927C251.149 190.83 250.476 187.938 250.476 187.938C250.476 187.938 248.163 186.996 248.017 186.996C247.87 186.996 245.416 186.849 245.416 186.849L245.078 187.938Z" fill="white"/>
<path d="M246.793 191.709C246.804 191.709 246.815 191.704 246.822 191.697C246.83 191.689 246.834 191.679 246.834 191.668C246.834 191.657 246.83 191.646 246.822 191.639C246.815 191.631 246.804 191.627 246.793 191.627C246.783 191.627 246.772 191.631 246.764 191.639C246.757 191.646 246.752 191.657 246.752 191.668C246.752 191.679 246.757 191.689 246.764 191.697C246.772 191.704 246.783 191.709 246.793 191.709Z" fill="#EA5942"/>
<path d="M247.041 191.856C247.052 191.856 247.063 191.851 247.07 191.844C247.078 191.836 247.082 191.825 247.082 191.815C247.082 191.804 247.078 191.793 247.07 191.786C247.063 191.778 247.052 191.774 247.041 191.774C247.031 191.774 247.02 191.778 247.012 191.786C247.005 191.793 247 191.804 247 191.815C247 191.825 247.005 191.836 247.012 191.844C247.02 191.851 247.031 191.856 247.041 191.856Z" fill="#EA5942"/>
<path d="M247.492 191.562C247.503 191.562 247.513 191.557 247.521 191.55C247.529 191.542 247.533 191.532 247.533 191.521C247.533 191.51 247.529 191.499 247.521 191.492C247.513 191.484 247.503 191.48 247.492 191.48C247.481 191.48 247.471 191.484 247.463 191.492C247.455 191.499 247.451 191.51 247.451 191.521C247.451 191.532 247.455 191.542 247.463 191.55C247.471 191.557 247.481 191.562 247.492 191.562Z" fill="#EA5942"/>
<path d="M247.877 191.856C247.888 191.856 247.899 191.851 247.906 191.844C247.914 191.836 247.918 191.825 247.918 191.815C247.918 191.804 247.914 191.793 247.906 191.786C247.899 191.778 247.888 191.774 247.877 191.774C247.866 191.774 247.856 191.778 247.848 191.786C247.841 191.793 247.836 191.804 247.836 191.815C247.836 191.825 247.841 191.836 247.848 191.844C247.856 191.851 247.866 191.856 247.877 191.856Z" fill="#EA5942"/>
<path d="M248.281 191.46C248.292 191.46 248.302 191.456 248.31 191.448C248.318 191.441 248.322 191.43 248.322 191.419C248.322 191.408 248.318 191.398 248.31 191.39C248.302 191.383 248.292 191.378 248.281 191.378C248.27 191.378 248.26 191.383 248.252 191.39C248.244 191.398 248.24 191.408 248.24 191.419C248.24 191.43 248.244 191.441 248.252 191.448C248.26 191.456 248.27 191.46 248.281 191.46Z" fill="#EA5942"/>
<path d="M248.428 192.048C248.439 192.048 248.449 192.044 248.457 192.036C248.465 192.029 248.469 192.018 248.469 192.007C248.469 191.996 248.465 191.986 248.457 191.978C248.449 191.971 248.439 191.966 248.428 191.966C248.417 191.966 248.407 191.971 248.399 191.978C248.391 191.986 248.387 191.996 248.387 192.007C248.387 192.018 248.391 192.029 248.399 192.036C248.407 192.044 248.417 192.048 248.428 192.048Z" fill="#EA5942"/>
<path d="M245.976 191.47C245.986 191.469 245.995 191.464 246.001 191.456C246.007 191.448 246.011 191.439 246.011 191.429C246.011 191.419 246.007 191.409 246.001 191.402C245.995 191.394 245.986 191.389 245.976 191.387C245.966 191.389 245.957 191.394 245.951 191.402C245.944 191.409 245.941 191.419 245.941 191.429C245.941 191.439 245.944 191.448 245.951 191.456C245.957 191.464 245.966 191.469 245.976 191.47Z" fill="#EA5942"/>
<path d="M245.674 191.8C245.684 191.8 245.695 191.796 245.702 191.788C245.71 191.78 245.714 191.77 245.714 191.759C245.714 191.748 245.71 191.738 245.702 191.73C245.695 191.722 245.684 191.718 245.674 191.718C245.663 191.718 245.652 191.722 245.645 191.73C245.637 191.738 245.633 191.748 245.633 191.759C245.633 191.77 245.637 191.78 245.645 191.788C245.652 191.796 245.663 191.8 245.674 191.8Z" fill="#EA5942"/>
<path d="M245.307 191.653C245.318 191.653 245.328 191.649 245.336 191.641C245.343 191.633 245.348 191.623 245.348 191.612C245.348 191.601 245.343 191.591 245.336 191.583C245.328 191.575 245.318 191.571 245.307 191.571C245.296 191.571 245.286 191.575 245.278 191.583C245.27 191.591 245.266 191.601 245.266 191.612C245.266 191.623 245.27 191.633 245.278 191.641C245.286 191.649 245.296 191.653 245.307 191.653Z" fill="#EA5942"/>
<path d="M245.278 192.232C245.289 192.232 245.3 192.228 245.307 192.22C245.315 192.212 245.319 192.202 245.319 192.191C245.319 192.18 245.315 192.17 245.307 192.162C245.3 192.154 245.289 192.15 245.278 192.15C245.268 192.15 245.257 192.154 245.249 192.162C245.242 192.17 245.237 192.18 245.237 192.191C245.237 192.202 245.242 192.212 245.249 192.22C245.257 192.228 245.268 192.232 245.278 192.232Z" fill="#EA5942"/>
<path d="M245.003 191.892C245.014 191.892 245.024 191.888 245.032 191.88C245.04 191.873 245.044 191.862 245.044 191.851C245.044 191.841 245.04 191.83 245.032 191.823C245.024 191.815 245.014 191.811 245.003 191.811C244.992 191.811 244.982 191.815 244.974 191.823C244.966 191.83 244.962 191.841 244.962 191.851C244.962 191.862 244.966 191.873 244.974 191.88C244.982 191.888 244.992 191.892 245.003 191.892Z" fill="#EA5942"/>
<path d="M245.067 191.388C245.077 191.386 245.086 191.381 245.092 191.373C245.099 191.366 245.102 191.356 245.102 191.346C245.102 191.336 245.099 191.326 245.092 191.319C245.086 191.311 245.077 191.306 245.067 191.304C245.057 191.306 245.049 191.311 245.042 191.319C245.036 191.326 245.032 191.336 245.032 191.346C245.032 191.356 245.036 191.366 245.042 191.373C245.049 191.381 245.057 191.386 245.067 191.388Z" fill="#EA5942"/>
<path d="M247.335 192.112C247.346 192.112 247.357 192.108 247.364 192.1C247.372 192.092 247.376 192.082 247.376 192.071C247.376 192.06 247.372 192.05 247.364 192.042C247.357 192.035 247.346 192.03 247.335 192.03C247.324 192.03 247.314 192.035 247.306 192.042C247.299 192.05 247.294 192.06 247.294 192.071C247.294 192.082 247.299 192.092 247.306 192.1C247.314 192.108 247.324 192.112 247.335 192.112Z" fill="#EA5942"/>
<path d="M247.764 191.296C247.757 191.297 247.75 191.297 247.743 191.296C247.473 191.172 247.002 191.209 247.002 191.209L246.854 191.223L246.965 191.124C247.09 191.003 247.246 190.919 247.417 190.883C247.587 190.848 247.765 190.861 247.928 190.922C247.934 190.924 247.939 190.928 247.943 190.933C247.948 190.938 247.951 190.943 247.954 190.949C247.956 190.956 247.957 190.962 247.957 190.968C247.957 190.975 247.955 190.981 247.952 190.987C247.95 190.993 247.946 190.998 247.942 191.003C247.937 191.007 247.932 191.011 247.926 191.013C247.92 191.015 247.913 191.016 247.907 191.016C247.9 191.016 247.894 191.015 247.888 191.012C247.766 190.966 247.635 190.951 247.506 190.967C247.377 190.983 247.254 191.03 247.147 191.105C247.363 191.096 247.579 191.131 247.781 191.207C247.791 191.212 247.799 191.22 247.804 191.23C247.809 191.24 247.81 191.251 247.808 191.262C247.805 191.272 247.8 191.282 247.791 191.289C247.783 191.296 247.772 191.3 247.761 191.301L247.764 191.296Z" fill="white"/>
<path d="M248.018 233.213L246.901 269.927L241.309 270.479L237.206 231.785L248.018 233.213Z" fill="#FE9F73"/>
<path d="M247.299 233.213L256.953 269.927L262.673 270.479L257.779 231.785L247.299 233.213Z" fill="#FE9F73"/>
<path d="M262.568 237.583C262.314 235.608 259.751 226.885 258.776 224.101C257.802 221.317 255.542 216.765 255.542 216.765L253.792 213.431L255.44 209.024L255.879 209.986C259.799 208.761 262.569 206.158 262.569 206.158L261.938 205.268L260.111 202.799L258.195 200.411L256.466 198.601L254.48 197.642L253.53 197.464C253.483 197.446 253.433 197.433 253.382 197.426L253.234 197.408L252.029 197.182L251.877 197.281C250.551 197.182 249.249 197.147 248.831 197.137C248.17 197.071 244.347 197.137 244.347 197.137L244.335 197.145C243.779 197.211 240.396 197.565 239.745 198.228C239.569 198.407 238.658 200.171 237.714 203.826L237.278 205.858L237.722 206.178L238.298 206.672L239.285 207.042L239.522 207.378L239.908 213.252V213.603L239.39 214.531L238.236 217.064L237.553 218.87L236.717 221.576L236.294 223.385L235.834 225.594L235.453 227.493L235.188 229.098L234.981 230.882C234.981 230.882 234.799 231.956 234.799 231.985C234.799 232.015 234.66 233.714 234.66 233.714L234.576 235.204L234.437 237.55L234.51 239.388L234.437 240.925L234.82 243.335C247.277 248.71 263.451 242.171 263.451 242.171L262.568 237.583Z" fill="#7FC6A6"/>
<path d="M255.271 199.579C255.262 199.579 255.253 199.577 255.244 199.573C255.236 199.569 255.229 199.563 255.223 199.555C254.639 198.776 253.685 198.459 253.675 198.457C253.66 198.452 253.647 198.441 253.64 198.426C253.632 198.412 253.631 198.395 253.635 198.38C253.638 198.372 253.642 198.365 253.647 198.359C253.652 198.353 253.658 198.348 253.666 198.345C253.673 198.341 253.681 198.339 253.689 198.338C253.697 198.338 253.705 198.339 253.712 198.342C254.343 198.565 254.899 198.96 255.317 199.483C255.322 199.489 255.326 199.496 255.328 199.504C255.33 199.512 255.33 199.52 255.329 199.528C255.328 199.535 255.326 199.543 255.322 199.55C255.318 199.557 255.312 199.563 255.306 199.568C255.296 199.575 255.284 199.578 255.271 199.579Z" fill="white"/>
<path d="M255.158 200.139C255.148 200.139 255.139 200.137 255.131 200.133C255.122 200.129 255.115 200.122 255.11 200.115C254.524 199.336 253.57 199.02 253.56 199.016C253.545 199.011 253.532 199 253.525 198.986C253.518 198.971 253.517 198.955 253.522 198.939C253.527 198.924 253.538 198.912 253.552 198.904C253.566 198.897 253.583 198.896 253.598 198.901C253.638 198.915 254.598 199.232 255.203 200.042C255.208 200.048 255.212 200.056 255.214 200.063C255.216 200.071 255.216 200.079 255.215 200.087C255.214 200.095 255.211 200.103 255.207 200.109C255.203 200.116 255.197 200.122 255.191 200.127C255.182 200.135 255.17 200.139 255.158 200.139Z" fill="white"/>
<path d="M262.599 237.847H262.62C262.647 237.842 262.671 237.826 262.688 237.803C262.704 237.78 262.71 237.752 262.706 237.724C259.816 223.122 254.368 214.152 253.918 213.43L255.464 209.297L255.822 210.131L255.917 210.1C260.302 208.711 262.654 206.304 262.677 206.273L262.74 206.209L262.688 206.135C262.504 205.871 258.154 199.625 256.275 198.345C254.396 197.066 251.313 197.028 251.183 197.027C251.156 197.03 251.132 197.042 251.113 197.063C251.095 197.083 251.085 197.109 251.085 197.136C251.085 197.163 251.095 197.189 251.113 197.21C251.132 197.23 251.156 197.243 251.183 197.245C251.216 197.245 254.318 197.277 256.153 198.526C257.89 199.708 261.948 205.457 262.457 206.18C262.061 206.563 259.822 208.603 255.947 209.852L255.453 208.7L253.677 213.445L253.707 213.492C253.765 213.581 259.502 222.638 262.494 237.757C262.498 237.782 262.511 237.805 262.53 237.821C262.549 237.838 262.574 237.847 262.599 237.847Z" fill="white"/>
<path d="M255.884 210.099C255.897 210.099 255.91 210.097 255.922 210.092C255.949 210.082 255.971 210.061 255.983 210.035C255.995 210.008 255.996 209.978 255.986 209.951L254.153 205.105C254.148 205.092 254.14 205.08 254.13 205.069C254.12 205.059 254.108 205.051 254.095 205.045C254.082 205.039 254.068 205.036 254.054 205.035C254.04 205.035 254.025 205.037 254.012 205.042C253.999 205.047 253.986 205.055 253.976 205.065C253.965 205.075 253.957 205.087 253.951 205.1C253.945 205.113 253.942 205.127 253.942 205.141C253.941 205.155 253.944 205.17 253.949 205.183L255.781 210.028C255.789 210.049 255.803 210.067 255.821 210.08C255.84 210.092 255.861 210.099 255.884 210.099Z" fill="white"/>
<path d="M252.233 213.708H252.244L253.808 213.543C253.823 213.541 253.837 213.537 253.85 213.53C253.863 213.522 253.874 213.513 253.883 213.501C253.892 213.49 253.899 213.477 253.903 213.463C253.907 213.448 253.908 213.434 253.906 213.419C253.904 213.405 253.9 213.391 253.893 213.378C253.885 213.365 253.876 213.354 253.864 213.345C253.853 213.336 253.84 213.329 253.826 213.325C253.812 213.321 253.797 213.32 253.782 213.322L252.219 213.487C252.192 213.491 252.168 213.505 252.15 213.526C252.133 213.547 252.124 213.574 252.125 213.601C252.127 213.629 252.138 213.655 252.158 213.674C252.177 213.693 252.203 213.704 252.23 213.706L252.233 213.708Z" fill="white"/>
<path d="M234.655 243.354H234.663C234.692 243.352 234.718 243.338 234.738 243.317C234.757 243.295 234.767 243.267 234.765 243.238C234.148 233.204 235.599 225.696 236.93 221.164C238.373 216.255 239.984 213.685 240 213.66L240.02 213.629L239.548 207.253L239.533 207.23C237.521 204.172 239.85 201.762 239.95 201.661C239.96 201.65 239.968 201.638 239.973 201.625C239.978 201.612 239.981 201.597 239.981 201.583C239.981 201.569 239.978 201.555 239.972 201.541C239.967 201.528 239.959 201.516 239.948 201.506C239.938 201.496 239.926 201.488 239.913 201.483C239.899 201.477 239.885 201.475 239.871 201.475C239.857 201.475 239.842 201.478 239.829 201.483C239.816 201.489 239.804 201.497 239.794 201.507C239.768 201.533 237.253 204.129 239.335 207.326L239.796 213.573C239.609 213.882 238.09 216.448 236.723 221.092C235.385 225.642 233.921 233.179 234.547 243.252C234.549 243.279 234.561 243.305 234.581 243.324C234.601 243.343 234.628 243.354 234.655 243.354Z" fill="white"/>
<path d="M241.274 207.321H247.299C247.328 207.321 247.356 207.31 247.376 207.289C247.396 207.269 247.408 207.241 247.408 207.213C247.408 207.184 247.396 207.156 247.376 207.136C247.356 207.115 247.328 207.104 247.299 207.104H241.274C241.245 207.104 241.218 207.115 241.197 207.136C241.177 207.156 241.166 207.184 241.166 207.213C241.166 207.241 241.177 207.269 241.197 207.289C241.218 207.31 241.245 207.321 241.274 207.321Z" fill="white"/>
<path d="M242.145 208.374H246.137C246.153 208.376 246.168 208.374 246.183 208.37C246.198 208.365 246.211 208.357 246.223 208.347C246.234 208.337 246.243 208.324 246.249 208.31C246.256 208.296 246.259 208.281 246.259 208.265C246.259 208.25 246.256 208.235 246.249 208.22C246.243 208.206 246.234 208.194 246.223 208.183C246.211 208.173 246.198 208.165 246.183 208.161C246.168 208.156 246.153 208.154 246.137 208.156H242.145C242.118 208.159 242.093 208.172 242.075 208.192C242.056 208.212 242.046 208.238 242.046 208.265C242.046 208.292 242.056 208.318 242.075 208.339C242.093 208.359 242.118 208.372 242.145 208.374Z" fill="white"/>
<path d="M235.506 272.25H246.899V269.927C246.899 269.927 246.07 268.816 244.808 269.38C244.808 269.38 242.94 270.752 241.258 269.113L237.04 270.949C237.04 270.949 235.506 271.46 235.506 272.25Z" fill="white"/>
<path d="M235.285 272.25H246.899V273.064H235.285C235.212 273.064 235.143 273.035 235.091 272.984C235.04 272.932 235.011 272.863 235.011 272.79V272.525C235.011 272.452 235.04 272.382 235.091 272.331C235.143 272.279 235.212 272.25 235.285 272.25Z" fill="white"/>
<path d="M268.284 272.25H256.89V269.927C256.89 269.927 257.718 268.816 258.98 269.38C258.98 269.38 260.848 270.752 262.531 269.113L266.75 270.949C266.75 270.949 268.284 271.46 268.284 272.25Z" fill="white"/>
<path d="M268.504 273.064H256.89V272.251H268.504C268.577 272.251 268.646 272.279 268.698 272.331C268.749 272.382 268.778 272.452 268.778 272.525V272.79C268.778 272.863 268.749 272.933 268.698 272.984C268.646 273.035 268.577 273.064 268.504 273.064Z" fill="white"/>
<path d="M239.286 207.15C239.313 207.149 239.338 207.14 239.358 207.123C239.377 207.106 239.391 207.083 239.395 207.057C239.399 207.029 239.392 207 239.375 206.977C239.357 206.954 239.332 206.938 239.304 206.934C238.29 206.778 237.559 205.964 237.4 205.772C237.443 205.601 237.501 205.358 237.573 205.059C238.038 203.084 239.13 198.481 240.289 198.074C241.67 197.587 243.993 197.298 244.011 197.296C244.026 197.294 244.04 197.29 244.052 197.283C244.065 197.275 244.076 197.266 244.085 197.254C244.094 197.243 244.1 197.23 244.104 197.216C244.108 197.202 244.108 197.187 244.106 197.173C244.102 197.144 244.087 197.118 244.064 197.1C244.041 197.082 244.012 197.074 243.983 197.077C243.959 197.077 241.619 197.373 240.215 197.866C238.944 198.313 237.869 202.835 237.359 205.008C237.281 205.338 237.22 205.6 237.175 205.769L237.162 205.821L237.194 205.863C237.227 205.908 238.039 206.958 239.27 207.148L239.286 207.15Z" fill="white"/>
<path d="M245.934 192.948C245.952 192.94 247.168 192.701 247.168 192.701C247.168 192.701 247.105 193.232 246.655 193.324C246.204 193.417 245.934 192.948 245.934 192.948Z" fill="#FBFDFC"/>
<path d="M257.306 222.442C256.852 222.298 256.412 222.112 255.992 221.887C255.375 221.544 255.347 222.09 255.455 222.302C255.564 222.515 256.248 223.228 256.248 223.228L257.306 222.442Z" fill="#F07162"/>
<path d="M257.764 222.323C257.754 222.342 257.743 222.365 257.733 222.381C256.727 222.523 255.557 222.689 255.264 222.727C254.736 222.799 253.042 223.627 252.565 224.16C251.701 225.128 252.318 225.094 252.318 225.094C251.517 226.184 252.508 226.006 252.508 226.006C251.704 226.92 252.67 226.933 252.67 226.933C252.288 227.468 252.423 227.674 252.596 227.761C252.66 227.789 252.73 227.803 252.8 227.799C252.87 227.796 252.938 227.777 253 227.742C253.229 227.619 253.74 227.341 254.26 227.042C254.26 227.042 255.964 226.484 259.065 225.854L260.27 225.484L257.764 222.323Z" fill="#FE9F73"/>
<path d="M253.69 226.093C253.706 226.087 253.724 226.088 253.74 226.095C253.756 226.103 253.768 226.116 253.774 226.132C253.78 226.149 253.779 226.167 253.771 226.182C253.764 226.198 253.751 226.21 253.734 226.216C253.373 226.445 253.031 226.702 252.712 226.987C252.7 226.999 252.683 227.005 252.666 227.005C252.649 227.005 252.633 226.999 252.621 226.987C252.614 226.981 252.61 226.974 252.606 226.966C252.603 226.958 252.601 226.949 252.601 226.941C252.601 226.932 252.603 226.924 252.606 226.916C252.61 226.908 252.614 226.901 252.621 226.895C252.946 226.605 253.296 226.342 253.665 226.11L253.69 226.093Z" fill="#F07162"/>
<path d="M253.529 225.298C253.544 225.295 253.559 225.297 253.573 225.304C253.586 225.312 253.596 225.323 253.602 225.337C253.608 225.353 253.608 225.37 253.601 225.386C253.594 225.401 253.582 225.413 253.566 225.42C253.199 225.579 252.858 225.793 252.555 226.054C252.543 226.066 252.527 226.073 252.509 226.073C252.492 226.073 252.476 226.066 252.464 226.054C252.452 226.042 252.445 226.026 252.445 226.009C252.445 225.992 252.452 225.976 252.464 225.964C252.778 225.692 253.132 225.47 253.513 225.306L253.529 225.298Z" fill="#F07162"/>
<path d="M253.196 224.421C253.204 224.418 253.212 224.417 253.221 224.418C253.229 224.419 253.238 224.421 253.245 224.425C253.253 224.429 253.26 224.434 253.265 224.441C253.271 224.447 253.275 224.455 253.277 224.463C253.28 224.471 253.281 224.48 253.28 224.488C253.279 224.497 253.277 224.505 253.273 224.512C253.269 224.52 253.264 224.527 253.257 224.532C253.251 224.538 253.243 224.542 253.235 224.545C252.915 224.697 252.62 224.899 252.362 225.142C252.35 225.154 252.334 225.161 252.317 225.161C252.3 225.161 252.283 225.154 252.271 225.142C252.265 225.136 252.26 225.129 252.257 225.121C252.254 225.113 252.252 225.105 252.252 225.096C252.252 225.088 252.254 225.079 252.257 225.072C252.26 225.064 252.265 225.057 252.271 225.051C252.54 224.796 252.847 224.586 253.182 224.427L253.196 224.421Z" fill="#F07162"/>
<path d="M265.88 214.133C265.895 213.113 263.295 208.632 262.251 206.674C260.627 208.089 258.281 209.237 257.217 209.637C258.252 211.288 259.439 213.444 259.933 214.206C260.443 215.003 258.438 221.317 257.728 222.528L260.279 225.485C262.042 223.862 265.83 217.659 265.88 214.133Z" fill="#FE9F73"/>
<path d="M60.0223 214.054L60.671 213.835L59.871 211.467L60.2303 211.346L59.1952 210.564L61.6115 213.517L62.0673 213.364L62.1999 209.549L61.8484 210.799L62.2077 210.678L63.0077 213.046L63.6564 212.827L62.4808 209.347L61.6465 209.629L61.547 212.5L61.5036 212.514L59.6811 210.293L58.8467 210.575L60.0223 214.054ZM65.6188 212.225C65.8133 212.16 65.9732 212.079 66.0984 211.983C66.2246 211.885 66.3218 211.78 66.3901 211.669C66.4599 211.558 66.507 211.448 66.5312 211.34C66.5549 211.229 66.5631 211.129 66.5558 211.038L66.5524 211.013L65.8965 211.234L65.8942 211.251C65.8895 211.29 65.8717 211.339 65.8408 211.396C65.811 211.45 65.7651 211.505 65.703 211.56C65.641 211.615 65.5586 211.66 65.4557 211.695C65.3287 211.738 65.2098 211.747 65.0992 211.721C64.9885 211.696 64.8904 211.639 64.8047 211.549C64.719 211.46 64.6509 211.341 64.6004 211.191L64.5043 210.907C64.4521 210.752 64.4331 210.614 64.4471 210.491C64.4621 210.366 64.5038 210.261 64.5722 210.177C64.6416 210.091 64.7325 210.029 64.8451 209.991C64.9592 209.952 65.0681 209.946 65.1718 209.972C65.2765 209.996 65.3709 210.052 65.455 210.142C65.5407 210.231 65.6104 210.356 65.6642 210.515L65.7595 210.797L65.9489 210.268L64.1138 210.888L64.2629 211.329L66.4356 210.595L66.3615 210.376C66.2708 210.108 66.1411 209.891 65.9725 209.726C65.8039 209.56 65.6068 209.454 65.3812 209.407C65.1556 209.359 64.9134 209.379 64.6546 209.467C64.3974 209.554 64.1924 209.687 64.0396 209.865C63.8885 210.044 63.7957 210.254 63.7613 210.497C63.7285 210.739 63.7596 211.001 63.8546 211.282L63.8554 211.284C63.9516 211.569 64.0866 211.796 64.2607 211.967C64.4347 212.137 64.6371 212.246 64.8681 212.294C65.1001 212.339 65.3503 212.316 65.6188 212.225ZM67.4038 211.561L68.108 211.323L67.567 209.722C67.5328 209.62 67.5225 209.523 67.5361 209.431C67.5491 209.337 67.5826 209.256 67.6365 209.188C67.6915 209.117 67.7648 209.066 67.8565 209.035C67.9931 208.989 68.1136 208.993 68.2179 209.048C68.3217 209.1 68.3975 209.197 68.4453 209.339L69.0123 211.017L69.7164 210.779L69.1649 209.147C69.1323 209.05 69.1228 208.959 69.1364 208.872C69.15 208.785 69.1841 208.708 69.2385 208.641C69.2946 208.574 69.3701 208.524 69.4649 208.492C69.6128 208.442 69.7365 208.445 69.836 208.501C69.9355 208.557 70.0124 208.665 70.0667 208.826L70.6232 210.473L71.3273 210.235L70.7114 208.412C70.6495 208.229 70.5609 208.083 70.4456 207.975C70.3314 207.865 70.1978 207.796 70.0447 207.767C69.8933 207.737 69.7291 207.753 69.5523 207.812C69.4285 207.854 69.3206 207.914 69.2286 207.991C69.1361 208.068 69.063 208.156 69.0092 208.256C68.9548 208.355 68.9241 208.461 68.9171 208.572L68.8737 208.587C68.8019 208.497 68.7193 208.427 68.6257 208.378C68.5321 208.329 68.4298 208.302 68.3187 208.296C68.2071 208.289 68.091 208.306 67.9704 208.347C67.7968 208.405 67.659 208.498 67.557 208.626C67.4545 208.752 67.4003 208.899 67.3946 209.068L67.3512 209.082L67.211 208.668L66.5069 208.906L67.4038 211.561ZM73.5911 209.516C73.8129 209.441 73.9858 209.322 74.1096 209.158C74.2329 208.993 74.3034 208.794 74.3213 208.56C74.3407 208.326 74.3027 208.068 74.2071 207.785L74.2054 207.78C74.1093 207.495 73.9833 207.266 73.8276 207.091C73.6718 206.916 73.495 206.801 73.2973 206.746C73.0996 206.691 72.889 206.701 72.6656 206.777C72.4839 206.838 72.3365 206.934 72.2232 207.066C72.1116 207.197 72.0465 207.346 72.0278 207.513L71.9844 207.528L71.4981 206.088L70.7939 206.326L72.0339 209.996L72.738 209.759L72.5987 209.346L72.6421 209.332C72.7596 209.451 72.9002 209.528 73.064 209.562C73.2273 209.595 73.403 209.58 73.5911 209.516ZM73.1528 209.014C73.029 209.056 72.9107 209.061 72.7979 209.029C72.6866 208.997 72.5863 208.93 72.4968 208.83C72.4089 208.729 72.3378 208.598 72.2835 208.437L72.2819 208.432C72.2265 208.268 72.2042 208.12 72.2149 207.987C72.2251 207.853 72.2646 207.74 72.3335 207.646C72.4034 207.551 72.4994 207.483 72.6216 207.442C72.747 207.399 72.8648 207.395 72.9749 207.43C73.0861 207.462 73.1857 207.529 73.2735 207.63C73.3625 207.729 73.4344 207.859 73.4892 208.022L73.4909 208.027C73.5457 208.189 73.568 208.337 73.5579 208.471C73.5493 208.605 73.5106 208.718 73.4417 208.812C73.3745 208.904 73.2782 208.972 73.1528 209.014ZM76.4125 208.579C76.6071 208.513 76.7669 208.432 76.8921 208.336C77.0183 208.238 77.1156 208.134 77.1838 208.023C77.2537 207.912 77.3007 207.802 77.325 207.693C77.3487 207.583 77.3568 207.483 77.3495 207.392L77.3462 207.366L76.6903 207.588L76.6879 207.605C76.6832 207.644 76.6655 207.692 76.6346 207.749C76.6047 207.804 76.5588 207.859 76.4968 207.914C76.4348 207.969 76.3523 208.014 76.2494 208.048C76.1224 208.091 76.0036 208.1 75.8929 208.075C75.7823 208.049 75.6841 207.992 75.5985 207.903C75.5128 207.814 75.4447 207.694 75.3942 207.545L75.298 207.26C75.2459 207.106 75.2268 206.967 75.2408 206.844C75.2559 206.719 75.2976 206.615 75.3659 206.531C75.4353 206.445 75.5263 206.382 75.6388 206.344C75.753 206.306 75.8619 206.3 75.9656 206.325C76.0703 206.349 76.1647 206.406 76.2488 206.496C76.3345 206.585 76.4042 206.709 76.4579 206.868L76.5533 207.15L76.7427 206.622L74.9076 207.242L75.0567 207.683L77.2294 206.949L77.1553 206.729C77.0646 206.461 76.9349 206.244 76.7663 206.079C76.5976 205.914 76.4005 205.808 76.175 205.76C75.9494 205.713 75.7072 205.733 75.4484 205.82C75.1911 205.907 74.9861 206.04 74.8334 206.219C74.6823 206.397 74.5895 206.608 74.555 206.85C74.5222 207.092 74.5533 207.354 74.6484 207.636L74.6492 207.638C74.7453 207.922 74.8804 208.15 75.0544 208.32C75.2284 208.491 75.4309 208.6 75.6618 208.647C75.8938 208.692 76.1441 208.67 76.4125 208.579ZM78.1976 207.914L78.9017 207.676L78.3999 206.191C78.3575 206.065 78.3477 205.949 78.3703 205.841C78.3929 205.733 78.4452 205.638 78.5269 205.557C78.6082 205.474 78.7155 205.41 78.8489 205.365C78.9036 205.346 78.9588 205.332 79.0146 205.322C79.0714 205.31 79.1285 205.302 79.1859 205.297L78.9782 204.682C78.9395 204.684 78.8958 204.69 78.847 204.699C78.7998 204.708 78.7521 204.72 78.7039 204.737C78.5319 204.795 78.4016 204.884 78.313 205.003C78.2239 205.121 78.182 205.26 78.1875 205.419L78.1441 205.434L78.0048 205.021L77.3006 205.259L78.1976 207.914ZM81.3609 206.907C81.5876 206.831 81.7766 206.727 81.9279 206.597C82.0787 206.466 82.1819 206.318 82.2376 206.154C82.2933 205.99 82.2915 205.821 82.2323 205.646L82.2315 205.643C82.1653 205.447 82.0491 205.313 81.883 205.24C81.7169 205.167 81.4914 205.146 81.2066 205.178L80.7335 205.233C80.5871 205.25 80.4781 205.246 80.4067 205.22C80.3352 205.194 80.2875 205.146 80.2636 205.075L80.2628 205.072C80.2427 205.013 80.243 204.956 80.2637 204.9C80.286 204.844 80.3245 204.794 80.379 204.748C80.4336 204.703 80.501 204.667 80.5814 204.64C80.7132 204.595 80.8272 204.588 80.9234 204.618C81.019 204.647 81.0887 204.694 81.1325 204.76L81.1389 204.771L81.7925 204.55L81.7892 204.541C81.7312 204.401 81.6385 204.288 81.5109 204.202C81.3845 204.114 81.2284 204.063 81.0426 204.049C80.8564 204.033 80.6475 204.064 80.416 204.142C80.1957 204.217 80.0137 204.317 79.8699 204.442C79.7276 204.567 79.6311 204.708 79.5802 204.865C79.5304 205.02 79.5337 205.181 79.5902 205.348L79.591 205.35C79.6578 205.548 79.7751 205.689 79.9428 205.772C80.1122 205.854 80.3323 205.88 80.6032 205.849L81.0787 205.794C81.224 205.779 81.3335 205.785 81.4072 205.812C81.4808 205.839 81.5296 205.888 81.5535 205.958L81.5551 205.963C81.5746 206.021 81.5724 206.078 81.5485 206.135C81.5246 206.191 81.4832 206.244 81.4244 206.292C81.365 206.339 81.2903 206.378 81.2003 206.408C81.062 206.455 80.943 206.465 80.843 206.44C80.7447 206.414 80.6673 206.365 80.6106 206.293L80.6025 206.285L79.9105 206.519L79.9161 206.528C79.9833 206.673 80.0841 206.789 80.2186 206.874C80.3547 206.959 80.5185 207.006 80.7102 207.017C80.9028 207.025 81.1197 206.989 81.3609 206.907ZM83.1074 206.255L83.8115 206.018L83.2925 204.481C83.2518 204.361 83.2374 204.249 83.2493 204.147C83.2629 204.044 83.3001 203.955 83.361 203.881C83.4229 203.804 83.5077 203.748 83.6154 203.711C83.7826 203.655 83.9219 203.662 84.0333 203.731C84.1446 203.801 84.2321 203.93 84.2956 204.118L84.8219 205.676L85.5261 205.438L84.946 203.721C84.8743 203.509 84.7781 203.341 84.6574 203.217C84.5383 203.092 84.3982 203.014 84.2371 202.983C84.0771 202.949 83.8982 202.966 83.7004 203.033C83.5107 203.097 83.3657 203.192 83.2653 203.319C83.1649 203.446 83.1087 203.592 83.0964 203.758L83.053 203.772L82.5716 202.347L81.8674 202.585L83.1074 206.255ZM86.2133 205.206L86.9175 204.968L86.0205 202.313L85.3164 202.551L86.2133 205.206ZM85.5332 202.024C85.6425 201.987 85.723 201.918 85.7746 201.816C85.8257 201.713 85.8331 201.607 85.7967 201.5C85.7597 201.39 85.6899 201.311 85.5872 201.261C85.484 201.21 85.3777 201.203 85.2684 201.24C85.1607 201.276 85.0805 201.347 85.0278 201.45C84.9745 201.553 84.9664 201.658 85.0033 201.768C85.0397 201.875 85.1103 201.954 85.2152 202.005C85.3195 202.054 85.4255 202.06 85.5332 202.024ZM87.9238 205.609L88.628 205.371L88.1872 204.066L88.2306 204.052C88.3082 204.133 88.3973 204.195 88.4978 204.238C88.5999 204.281 88.709 204.304 88.8249 204.308C88.9419 204.309 89.0615 204.29 89.1836 204.248C89.4071 204.173 89.5808 204.053 89.7046 203.89C89.8284 203.726 89.8993 203.527 89.9171 203.294C89.9349 203.06 89.8958 202.801 89.7996 202.517L89.798 202.512C89.7024 202.229 89.5762 202.001 89.4194 201.829C89.2636 201.654 89.0865 201.538 88.8883 201.481C88.6901 201.425 88.48 201.434 88.2582 201.509C88.1328 201.551 88.0249 201.608 87.9345 201.68C87.8435 201.75 87.7709 201.832 87.7165 201.926C87.6638 202.019 87.6301 202.121 87.6155 202.231L87.5721 202.246L87.4336 201.836L86.7295 202.074L87.9238 205.609ZM88.7453 203.746C88.6232 203.788 88.5057 203.792 88.3928 203.761C88.2816 203.728 88.1813 203.662 88.0918 203.561C88.0018 203.459 87.9296 203.328 87.8753 203.167L87.8737 203.162C87.8183 202.998 87.7951 202.85 87.8043 202.718C87.8144 202.584 87.854 202.47 87.9228 202.377C87.9933 202.284 88.0904 202.216 88.2142 202.174C88.3396 202.132 88.4571 202.127 88.5667 202.16C88.6779 202.192 88.7774 202.259 88.8653 202.36C88.9548 202.46 89.027 202.592 89.0818 202.754L89.0834 202.759C89.1383 202.921 89.1606 203.069 89.1504 203.204C89.1419 203.337 89.1031 203.451 89.0343 203.544C88.9671 203.636 88.8707 203.704 88.7453 203.746ZM63.0611 219.423C63.2926 219.345 63.4789 219.239 63.62 219.105C63.7606 218.97 63.8558 218.814 63.9055 218.638C63.9552 218.462 63.9606 218.273 63.9217 218.073L63.916 218.057L63.2657 218.279L63.2633 218.288C63.2784 218.433 63.254 218.554 63.19 218.651C63.126 218.748 63.0216 218.821 62.8769 218.87C62.7515 218.912 62.6346 218.916 62.526 218.881C62.4175 218.846 62.319 218.774 62.2306 218.666C62.1432 218.556 62.0693 218.412 62.0091 218.233L62.0074 218.228C61.9471 218.05 61.9189 217.892 61.9226 217.755C61.9263 217.617 61.961 217.503 62.0267 217.411C62.0934 217.316 62.1894 217.248 62.3148 217.206C62.4659 217.155 62.5982 217.154 62.7116 217.203C62.8261 217.251 62.9171 217.335 62.9847 217.455L62.9887 217.459L63.6422 217.238L63.6398 217.231C63.5521 217.04 63.4345 216.888 63.287 216.775C63.1395 216.662 62.9678 216.594 62.7718 216.57C62.5759 216.547 62.3605 216.575 62.1258 216.654C61.8493 216.748 61.6323 216.882 61.4747 217.057C61.3181 217.23 61.2237 217.436 61.1914 217.674C61.1591 217.912 61.1924 218.178 61.2912 218.47L61.2928 218.475C61.3922 218.769 61.5276 219.003 61.699 219.176C61.8698 219.348 62.0701 219.456 62.2999 219.5C62.5308 219.542 62.7846 219.516 63.0611 219.423ZM65.5135 218.578C65.6292 218.539 65.731 218.488 65.8187 218.424C65.9075 218.358 65.9791 218.284 66.0335 218.201C66.089 218.116 66.1254 218.025 66.1427 217.928L66.1861 217.913L66.3051 218.265L66.9996 218.03L66.3869 216.217C66.3234 216.029 66.2257 215.883 66.0938 215.779C65.9629 215.672 65.8036 215.612 65.6157 215.596C65.4273 215.579 65.2157 215.61 64.981 215.69C64.7591 215.765 64.5747 215.863 64.4276 215.984C64.2821 216.105 64.1791 216.24 64.1185 216.39C64.0596 216.538 64.0468 216.694 64.0802 216.857L64.0851 216.879L64.7362 216.659L64.7378 216.648C64.7385 216.56 64.7712 216.482 64.8358 216.413C64.9015 216.343 64.9979 216.286 65.1249 216.243C65.2696 216.194 65.3903 216.188 65.4871 216.225C65.5849 216.26 65.6533 216.336 65.6924 216.452L65.9784 217.298C66.0099 217.391 66.0135 217.484 65.9892 217.576C65.9643 217.667 65.9166 217.749 65.8461 217.821C65.7755 217.893 65.6856 217.948 65.5763 217.985C65.4541 218.026 65.3446 218.031 65.2479 217.999C65.1512 217.967 65.0857 217.9 65.0515 217.799L65.0499 217.794C65.0173 217.698 65.0285 217.609 65.0834 217.528C65.1384 217.447 65.24 217.376 65.3884 217.317L66.2515 216.961L66.1065 216.532L65.1381 216.926C64.8151 217.057 64.5874 217.221 64.4551 217.418C64.3223 217.613 64.2964 217.83 64.3773 218.07L64.3789 218.075C64.4332 218.236 64.5177 218.364 64.6324 218.459C64.7466 218.553 64.8799 218.611 65.0324 218.633C65.1859 218.653 65.3463 218.635 65.5135 218.578ZM67.6892 217.797L68.3934 217.559L67.8916 216.074C67.8492 215.949 67.8393 215.832 67.862 215.724C67.8846 215.616 67.9368 215.521 68.0186 215.44C68.0998 215.357 68.2071 215.293 68.3406 215.248C68.3952 215.229 68.4504 215.215 68.5062 215.205C68.563 215.193 68.6202 215.185 68.6776 215.18L68.4698 214.565C68.4312 214.567 68.3875 214.573 68.3387 214.582C68.2915 214.591 68.2438 214.604 68.1956 214.62C68.0235 214.678 67.8932 214.767 67.8046 214.886C67.7155 215.004 67.6737 215.143 67.6791 215.302L67.6357 215.317L67.4964 214.904L66.7923 215.142L67.6892 217.797ZM70.744 216.811C70.9321 216.748 71.0811 216.653 71.1912 216.528C71.3007 216.402 71.365 216.256 71.3842 216.09L71.4276 216.075L71.5669 216.487L72.271 216.249L71.0311 212.579L70.3269 212.817L70.8133 214.257L70.7699 214.271C70.6551 214.149 70.5129 214.07 70.3431 214.034C70.175 213.998 70.0001 214.01 69.8185 214.072C69.5934 214.148 69.419 214.267 69.2951 214.431C69.1713 214.595 69.1005 214.793 69.0826 215.027C69.0664 215.26 69.1063 215.519 69.2025 215.803L69.2041 215.808C69.2997 216.091 69.4254 216.32 69.5812 216.495C69.7386 216.669 69.9164 216.784 70.1146 216.841C70.3139 216.895 70.5237 216.885 70.744 216.811ZM70.7855 216.147C70.6618 216.189 70.5443 216.193 70.433 216.161C70.3218 216.129 70.2223 216.062 70.1344 215.961C70.0465 215.86 69.9752 215.728 69.9203 215.566L69.9187 215.561C69.8638 215.399 69.841 215.252 69.8501 215.12C69.8587 214.986 69.8974 214.872 69.9662 214.779C70.0361 214.684 70.1322 214.616 70.2544 214.575C70.3782 214.533 70.4959 214.529 70.6077 214.563C70.7205 214.594 70.8208 214.661 70.9087 214.762C70.9977 214.861 71.0698 214.992 71.1252 215.156L71.1269 215.161C71.1812 215.322 71.2032 215.469 71.1931 215.603C71.1845 215.737 71.1458 215.85 71.0769 215.944C71.0081 216.037 70.9109 216.104 70.7855 216.147Z" fill="white"/>
<defs>
<linearGradient id="paint0_linear_689_1164" x1="156" y1="-147" x2="156" y2="586.114" gradientUnits="userSpaceOnUse">
<stop stop-color="#003D86"/>
<stop offset="0.54085" stop-color="#1D4BC1" stop-opacity="0"/>
</linearGradient>
<linearGradient id="paint1_linear_689_1164" x1="156" y1="-134" x2="157.605" y2="518.83" gradientUnits="userSpaceOnUse">
<stop offset="0.0836398" stop-color="#1D68C1"/>
<stop offset="0.572985" stop-color="#003D86" stop-opacity="0"/>
</linearGradient>
</defs>
</svg>
