<svg width="24" height="23" viewBox="0 0 24 23" fill="none" xmlns="http://www.w3.org/2000/svg">
<path d="M23.4088 11.3155L12.5481 0.462747C12.4699 0.384394 12.3771 0.322233 12.2748 0.27982C12.1726 0.237407 12.0629 0.215576 11.9522 0.215576C11.8415 0.215576 11.7319 0.237407 11.6297 0.27982C11.5274 0.322233 11.4345 0.384394 11.3563 0.462747L0.495703 11.3155C0.179297 11.6319 0 12.0617 0 12.5099C0 13.4407 0.756738 14.1974 1.6875 14.1974H2.83184V21.9415C2.83184 22.4082 3.20889 22.7852 3.67559 22.7852H10.2647V16.879H13.2179V22.7852H20.2289C20.6956 22.7852 21.0727 22.4082 21.0727 21.9415V14.1974H22.217C22.6652 14.1974 23.095 14.0208 23.4114 13.7017C24.068 13.0425 24.068 11.9747 23.4088 11.3155Z" fill="#9E9E9E"/>
</svg>
