<svg width="34" height="34" viewBox="0 0 34 34" fill="none" xmlns="http://www.w3.org/2000/svg">
<circle opacity="0.1" cx="17" cy="17" r="17" fill="#488FE0"/>
<path d="M24.3335 10.5833H15.5463L13.9816 9.01858C13.8966 8.93334 13.7956 8.86572 13.6843 8.81963C13.5731 8.77354 13.4539 8.74988 13.3335 8.75H9.66683C8.65575 8.75 7.8335 9.57225 7.8335 10.5833V23.4167C7.8335 24.4278 8.65575 25.25 9.66683 25.25H24.3335C25.3446 25.25 26.1668 24.4278 26.1668 23.4167V12.4167C26.1668 11.4056 25.3446 10.5833 24.3335 10.5833ZM20.6668 18.8333H17.9168V21.5833H16.0835V18.8333H13.3335V17H16.0835V14.25H17.9168V17H20.6668V18.8333Z" fill="#488FE0"/>
</svg>
