<svg width="18" height="18" viewBox="0 0 18 18" fill="none" xmlns="http://www.w3.org/2000/svg">
<path d="M3.16839 1.5242L9.00039 7.3562L14.8084 1.5482C14.9102 1.43986 15.0328 1.35319 15.1689 1.29339C15.305 1.23359 15.4517 1.20189 15.6004 1.2002C15.9186 1.2002 16.2239 1.32662 16.4489 1.55167C16.674 1.77671 16.8004 2.08194 16.8004 2.4002C16.8032 2.54732 16.7759 2.69346 16.7202 2.82965C16.6645 2.96585 16.5815 3.08922 16.4764 3.1922L10.6084 9.0002L16.4764 14.8682C16.6742 15.0617 16.7901 15.3237 16.8004 15.6002C16.8004 15.9185 16.674 16.2237 16.4489 16.4487C16.2239 16.6738 15.9186 16.8002 15.6004 16.8002C15.4475 16.8065 15.2949 16.781 15.1523 16.7252C15.0098 16.6695 14.8804 16.5847 14.7724 16.4762L9.00039 10.6442L3.18039 16.4642C3.079 16.5689 2.95787 16.6525 2.82399 16.7102C2.69012 16.7679 2.54615 16.7985 2.40039 16.8002C2.08213 16.8002 1.77691 16.6738 1.55186 16.4487C1.32682 16.2237 1.20039 15.9185 1.20039 15.6002C1.19759 15.4531 1.22489 15.3069 1.2806 15.1707C1.33632 15.0345 1.41928 14.9112 1.52439 14.8082L7.39239 9.0002L1.52439 3.1322C1.32661 2.93871 1.21064 2.67669 1.20039 2.4002C1.20039 2.08194 1.32682 1.77671 1.55186 1.55167C1.77691 1.32662 2.08213 1.2002 2.40039 1.2002C2.68839 1.2038 2.96439 1.3202 3.16839 1.5242Z" fill="#BDBDBD"/>
</svg>
