<svg width="22" height="22" viewBox="0 0 22 22" fill="none" xmlns="http://www.w3.org/2000/svg">
<path d="M2.75 5.00004H1.25C1.05109 5.00004 0.860322 4.92102 0.71967 4.78036C0.579018 4.63971 0.5 4.44895 0.5 4.25004C0.5 4.05112 0.579018 3.86036 0.71967 3.71971C0.860322 3.57905 1.05109 3.50004 1.25 3.50004H7.25V1.24854C7.25 1.04962 7.32902 0.858857 7.46967 0.718205C7.61032 0.577553 7.80109 0.498535 8 0.498535H14C14.1989 0.498535 14.3897 0.577553 14.5303 0.718205C14.671 0.858857 14.75 1.04962 14.75 1.24854V3.50004H20.75C20.9489 3.50004 21.1397 3.57905 21.2803 3.71971C21.421 3.86036 21.5 4.05112 21.5 4.25004C21.5 4.44895 21.421 4.63971 21.2803 4.78036C21.1397 4.92102 20.9489 5.00004 20.75 5.00004H19.25V20.75C19.25 20.9489 19.171 21.1397 19.0303 21.2804C18.8897 21.421 18.6989 21.5 18.5 21.5H3.5C3.30109 21.5 3.11032 21.421 2.96967 21.2804C2.82902 21.1397 2.75 20.9489 2.75 20.75V5.00004ZM13.25 3.50004V2.00004H8.75V3.50004H13.25ZM4.25 20H17.75V5.00004H4.25V20ZM8.75 17C8.55109 17 8.36032 16.921 8.21967 16.7804C8.07902 16.6397 8 16.4489 8 16.25V8.75004C8 8.55112 8.07902 8.36036 8.21967 8.21971C8.36032 8.07905 8.55109 8.00004 8.75 8.00004C8.94891 8.00004 9.13968 8.07905 9.28033 8.21971C9.42098 8.36036 9.5 8.55112 9.5 8.75004V16.25C9.5 16.4489 9.42098 16.6397 9.28033 16.7804C9.13968 16.921 8.94891 17 8.75 17ZM13.25 17C13.0511 17 12.8603 16.921 12.7197 16.7804C12.579 16.6397 12.5 16.4489 12.5 16.25V8.75004C12.5 8.55112 12.579 8.36036 12.7197 8.21971C12.8603 8.07905 13.0511 8.00004 13.25 8.00004C13.4489 8.00004 13.6397 8.07905 13.7803 8.21971C13.921 8.36036 14 8.55112 14 8.75004V16.25C14 16.4489 13.921 16.6397 13.7803 16.7804C13.6397 16.921 13.4489 17 13.25 17Z" fill="#488FE0"/>
</svg>
