<svg width="34" height="34" viewBox="0 0 34 34" fill="none" xmlns="http://www.w3.org/2000/svg">
<circle opacity="0.1" cx="17" cy="17" r="17" fill="#488FE0"/>
<path d="M17 6.5C14.8128 6.50258 12.7158 7.3726 11.1692 8.91922C9.62261 10.4658 8.75259 12.5628 8.75001 14.75C8.74739 16.5374 9.33124 18.2763 10.412 19.7C10.412 19.7 10.637 19.9963 10.6738 20.039L17 27.5L23.3293 20.0353C23.3623 19.9955 23.588 19.7 23.588 19.7L23.5888 19.6978C24.669 18.2747 25.2526 16.5366 25.25 14.75C25.2474 12.5628 24.3774 10.4658 22.8308 8.91922C21.2842 7.3726 19.1873 6.50258 17 6.5ZM17 17.75C16.4067 17.75 15.8266 17.5741 15.3333 17.2444C14.84 16.9148 14.4554 16.4462 14.2284 15.8981C14.0013 15.3499 13.9419 14.7467 14.0577 14.1647C14.1734 13.5828 14.4591 13.0482 14.8787 12.6287C15.2982 12.2091 15.8328 11.9234 16.4147 11.8076C16.9967 11.6919 17.5999 11.7513 18.1481 11.9784C18.6962 12.2054 19.1648 12.5899 19.4944 13.0833C19.8241 13.5766 20 14.1567 20 14.75C19.999 15.5453 19.6826 16.3078 19.1202 16.8702C18.5578 17.4326 17.7954 17.749 17 17.75Z" fill="#488FE0"/>
</svg>
