<svg width="312" height="312" viewBox="0 0 312 312" fill="none" xmlns="http://www.w3.org/2000/svg">
<circle opacity="0.1" cx="156" cy="156" r="156" fill="url(#paint0_linear_1047_732)"/>
<circle opacity="0.1" cx="156" cy="156" r="118" fill="url(#paint1_linear_1047_732)"/>
<path d="M251.9 165.996C245.444 151.395 231.781 135.498 211.972 130.571C182.042 123.126 179.069 104.111 124.98 105.113C117.086 105.232 109.225 106.018 101.535 107.458C97.7732 108.171 94.0722 109.072 90.4545 110.153C58.5563 119.681 41.354 141.394 39.2151 164.335C36.4043 194.51 62.9389 209.279 80.2025 217.964C97.4661 226.649 117.565 259.579 170.747 258.919C178.867 258.844 186.957 258.04 194.855 256.52C212.858 252.994 231.308 244.905 242.279 232.853C243.104 231.948 243.892 231.029 244.646 230.075C259.405 211.572 260.707 185.898 251.9 165.996Z" fill="white" fill-opacity="0.1"/>
<path d="M78.1826 181.408C78.1863 181.397 78.186 181.384 78.1817 181.373C78.1774 181.362 78.1694 181.353 78.1589 181.347C78.1476 181.342 78.1348 181.342 78.1233 181.346C78.1118 181.35 78.1025 181.359 78.0974 181.37C76.7756 184.545 75.7284 187.828 74.9673 191.182C74.2049 194.536 73.631 197.93 73.2484 201.348L73.0022 203.92C72.9643 204.346 72.9169 204.777 72.8885 205.208L72.8175 206.496C72.7796 207.353 72.7275 208.215 72.7039 209.076V211.657L72.7323 212.95C72.7323 213.381 72.7796 213.807 72.8128 214.238C72.8743 215.095 72.9264 215.957 73.0069 216.814C73.1727 218.523 73.4284 220.228 73.6935 221.923C73.6957 221.934 73.7017 221.944 73.7104 221.951C73.719 221.958 73.7298 221.961 73.7409 221.961C73.7469 221.961 73.7529 221.96 73.7584 221.958C73.7639 221.955 73.7688 221.952 73.7728 221.947C73.7769 221.943 73.7799 221.937 73.7817 221.932C73.7836 221.926 73.7842 221.92 73.7835 221.914C73.7835 221.052 73.7409 220.195 73.7219 219.338C73.703 218.481 73.6225 217.633 73.6367 216.776C73.6509 215.919 73.6367 215.067 73.6083 214.209V212.931V211.652V209.091L73.6793 206.534L73.7077 205.255C73.7077 204.829 73.7551 204.403 73.7788 203.977L73.935 201.419C74.2261 198.014 74.7098 194.627 75.384 191.276C76.0284 187.912 76.9648 184.61 78.1826 181.408Z" fill="white"/>
<path d="M78.5473 194.79C78.5503 194.779 78.5489 194.768 78.5436 194.758C78.5383 194.748 78.5295 194.741 78.5189 194.738C78.5136 194.736 78.5079 194.734 78.5022 194.734C78.4964 194.734 78.4907 194.735 78.4854 194.738C78.4801 194.74 78.4753 194.743 78.4713 194.747C78.4673 194.751 78.4641 194.756 78.4621 194.762C76.9983 199.032 76.026 203.454 75.5641 207.945C75.3368 210.184 75.0905 212.424 75.0574 214.678C74.9991 216.932 75.0781 219.187 75.2941 221.431C75.296 221.441 75.301 221.451 75.3087 221.459C75.3163 221.466 75.3261 221.472 75.3368 221.473C75.3485 221.473 75.3599 221.469 75.3687 221.461C75.3774 221.453 75.3829 221.442 75.3841 221.431C75.6446 219.191 75.8056 216.951 75.9571 214.716C76.1086 212.481 76.137 210.241 76.2838 208.006C76.5971 203.537 77.3553 199.109 78.5473 194.79Z" fill="white"/>
<path d="M85.9676 199.502C85.9636 199.498 85.9588 199.494 85.9535 199.492C85.9483 199.49 85.9426 199.489 85.9368 199.489C85.9311 199.489 85.9254 199.49 85.9201 199.492C85.9148 199.494 85.91 199.498 85.906 199.502C84.0499 200.693 82.378 202.15 80.9435 203.825C80.2225 204.669 79.5732 205.572 79.002 206.524L78.6042 207.277L78.2917 208.058C78.1876 208.317 78.0975 208.581 78.0218 208.849C77.9413 209.114 77.8513 209.379 77.7803 209.649C77.2099 211.792 76.8655 213.989 76.7527 216.203C76.6428 218.403 76.7252 220.609 76.999 222.795C77 222.804 77.0043 222.813 77.0112 222.82C77.0181 222.827 77.0271 222.831 77.0368 222.832C77.0425 222.834 77.0485 222.834 77.0543 222.833C77.06 222.832 77.0654 222.829 77.07 222.825C77.0746 222.822 77.0783 222.817 77.0807 222.812C77.0832 222.806 77.0844 222.8 77.0842 222.795L77.6477 216.269C77.804 214.11 78.0806 211.962 78.4764 209.834C78.5332 209.574 78.609 209.313 78.6753 209.053C78.7382 208.793 78.8157 208.537 78.9073 208.286L79.1725 207.533L79.5134 206.818C80.0302 205.871 80.6241 204.968 81.2891 204.119C82.6134 202.389 84.1832 200.863 85.9487 199.587C85.9578 199.585 85.9663 199.581 85.973 199.574C85.9798 199.568 85.9844 199.56 85.9864 199.551C85.9885 199.541 85.9878 199.532 85.9844 199.523C85.9811 199.515 85.9752 199.507 85.9676 199.502Z" fill="white"/>
<path d="M82.3782 207.883C81.4123 208.587 80.6362 209.519 80.1195 210.597C79.5772 211.652 79.1532 212.763 78.8552 213.911C78.7652 214.195 78.6989 214.484 78.6374 214.773L78.429 215.644C78.3209 216.227 78.2482 216.815 78.2112 217.406C78.2112 217.998 78.2112 218.59 78.2112 219.177C78.2623 219.768 78.3445 220.356 78.4574 220.938C78.4597 220.948 78.4644 220.956 78.4711 220.963C78.4778 220.969 78.4861 220.974 78.4953 220.976C78.5013 220.978 78.5074 220.978 78.5134 220.977C78.5194 220.975 78.5251 220.973 78.53 220.969C78.5349 220.966 78.539 220.961 78.542 220.956C78.545 220.95 78.5469 220.945 78.5474 220.938C78.6855 220.367 78.7898 219.789 78.8599 219.205C78.9546 218.632 79.0446 218.059 79.1109 217.491C79.1772 216.923 79.2719 216.355 79.3145 215.782C79.3571 215.209 79.4376 214.636 79.5607 214.077C79.7542 212.948 80.0718 211.845 80.5078 210.786C80.9057 209.703 81.5549 208.729 82.4019 207.945C82.4074 207.936 82.4103 207.926 82.4103 207.916C82.4103 207.906 82.4074 207.896 82.4019 207.888C82.3946 207.884 82.3864 207.882 82.3782 207.883Z" fill="white"/>
<path d="M71.9701 214.418C71.7286 211.525 71.2503 208.655 70.7958 205.79C70.3412 202.925 69.8487 200.065 69.3183 197.21C68.788 194.354 68.2103 191.527 67.5947 188.686C67.5914 188.675 67.5844 188.666 67.5748 188.66C67.5652 188.654 67.5538 188.651 67.5426 188.653C67.5309 188.655 67.5205 188.662 67.5135 188.672C67.5064 188.681 67.5033 188.693 67.5047 188.705C68.0019 191.546 68.4518 194.425 68.8732 197.29C69.2947 200.155 69.7161 203.025 70.0807 205.894C70.4453 208.764 70.7105 211.652 71.0704 214.517L72.1311 223.14C72.1311 223.151 72.1356 223.162 72.1436 223.17C72.1516 223.178 72.1624 223.183 72.1737 223.183C72.1855 223.183 72.1969 223.179 72.2056 223.171C72.2144 223.163 72.2199 223.152 72.2211 223.14C72.2542 222.411 72.2542 221.686 72.2732 220.957C72.2921 220.228 72.2448 219.503 72.2305 218.774C72.2021 217.316 72.079 215.867 71.9701 214.418Z" fill="white"/>
<path d="M70.2321 214.375C70.0806 213.229 69.8675 212.088 69.6497 210.952L69.2424 209.261C69.1098 208.698 68.982 208.134 68.8162 207.575C68.2437 205.33 67.5094 203.128 66.6191 200.989L66.2687 200.193L65.8851 199.412C65.6389 198.886 65.3405 198.389 65.0612 197.882C64.4922 196.867 63.7881 195.933 62.9682 195.107C62.9596 195.1 62.9487 195.096 62.9374 195.096C62.9261 195.096 62.9152 195.1 62.9066 195.107C62.8979 195.116 62.8931 195.128 62.8931 195.14C62.8931 195.153 62.8979 195.165 62.9066 195.174C63.6625 196.031 64.2996 196.987 64.8007 198.015C65.0517 198.526 65.3169 199.033 65.5347 199.568L65.8756 200.354L66.174 201.159C66.978 203.304 67.6238 205.506 68.1059 207.746C68.3711 208.863 68.5463 210 68.7594 211.122L69.0293 212.817C69.1288 213.386 69.2519 213.944 69.3277 214.513C69.5123 215.644 69.7207 216.776 69.9148 217.908C70.109 219.039 70.2984 220.181 70.5399 221.312C70.5411 221.323 70.5461 221.333 70.5539 221.34C70.5618 221.347 70.572 221.35 70.5825 221.35C70.5943 221.35 70.6057 221.346 70.6144 221.338C70.6232 221.33 70.6287 221.319 70.6299 221.308C70.6299 220.149 70.603 218.992 70.5494 217.837C70.4925 216.677 70.3552 215.531 70.2321 214.375Z" fill="white"/>
<path d="M67.836 214.527C67.301 213.007 66.6806 211.52 66.0035 210.061C65.3195 208.605 64.5479 207.191 63.6927 205.828C63.6864 205.818 63.6764 205.811 63.6648 205.808C63.6533 205.805 63.6412 205.808 63.6311 205.814C63.6211 205.82 63.6139 205.83 63.6113 205.842C63.6086 205.853 63.6106 205.865 63.6169 205.875C64.359 207.289 65.0168 208.745 65.5868 210.237C66.174 211.719 66.7043 213.225 67.1494 214.749C67.5945 216.274 67.926 217.832 68.3332 219.361C68.7405 220.891 69.1051 222.444 69.5739 223.993C69.5768 224.002 69.5824 224.01 69.59 224.016C69.5976 224.022 69.6069 224.025 69.6165 224.026C69.6225 224.026 69.6285 224.026 69.6343 224.024C69.64 224.022 69.6453 224.019 69.6498 224.015C69.6542 224.011 69.6578 224.006 69.6602 224.001C69.6627 223.995 69.6639 223.989 69.6639 223.983C69.6746 222.364 69.5159 220.749 69.1903 219.163C68.8651 217.583 68.4122 216.033 67.836 214.527Z" fill="white"/>
<path d="M67.7366 219.589C67.4404 218.641 67.0116 217.741 66.4628 216.913C65.9476 216.067 65.3235 215.291 64.6066 214.607C64.238 214.277 63.842 213.98 63.4228 213.717C63.0104 213.45 62.5603 213.245 62.0874 213.111C62.0768 213.108 62.0654 213.109 62.0556 213.115C62.0459 213.12 62.0386 213.129 62.0353 213.139C62.0292 213.148 62.0259 213.158 62.0259 213.168C62.0259 213.178 62.0292 213.188 62.0353 213.196C62.8903 213.605 63.6477 214.193 64.2562 214.92C64.8726 215.63 65.3932 216.418 65.8046 217.264C66.2403 218.097 66.4676 219.016 66.8511 219.873C67.0216 220.313 67.1873 220.754 67.3815 221.194C67.5467 221.651 67.7413 222.097 67.9639 222.529C67.9686 222.537 67.9749 222.542 67.9823 222.547C67.9897 222.551 67.9981 222.553 68.0065 222.553C68.0183 222.553 68.0297 222.549 68.0385 222.541C68.0472 222.533 68.0527 222.522 68.0539 222.51C68.0682 222.016 68.0492 221.521 67.9971 221.028C67.9545 220.55 67.855 220.067 67.7366 219.589Z" fill="white"/>
<path d="M67.9165 192.83C66.4695 192.425 65.1604 191.633 64.1306 190.539C63.1008 189.445 62.3894 188.09 62.0731 186.622C60.9793 181.512 64.5071 183.705 61.3439 175.669C58.1807 167.633 58.91 165.81 59.9896 163.499C61.0693 161.188 61.6943 161.918 62.6698 164.958C63.6453 167.998 67.1873 172.747 68.5131 181.635C69.839 190.524 67.9165 192.83 67.9165 192.83Z" fill="#7FC6A6"/>
<path d="M77.2876 184.188C77.2876 184.188 74.1245 183.094 74.0013 177.132C73.8782 171.17 76.3122 172.397 76.6768 164.958C77.0414 157.519 77.5291 152.3 78.8692 152.172C80.2093 152.045 83.7371 155.833 84.9541 164.115C86.171 172.397 83.3725 177.847 80.9385 180.3C78.5046 182.753 77.2876 184.188 77.2876 184.188Z" fill="#7FC6A6"/>
<path d="M66.2118 200.013C66.2118 200.013 65.4825 195.628 64.0193 193.559C62.5561 191.49 59.3977 189.667 57.3284 185.651C55.2591 181.635 52.9482 179.685 53.0666 185.405C53.185 191.125 55.7279 194.047 58.91 195.993C62.0921 197.939 66.2118 200.013 66.2118 200.013Z" fill="#7FC6A6"/>
<path d="M64.8718 207.556C64.8718 207.556 61.9501 201.959 57.6931 197.821C53.4361 193.682 50.0456 191.613 51.2436 193.682C52.4416 195.751 53.9191 195.628 55.9789 199.279C58.0388 202.93 57.4516 205.61 60.3685 207.679C63.2855 209.749 64.8718 207.556 64.8718 207.556Z" fill="#7FC6A6"/>
<path d="M64.5072 214.74C64.3888 214.371 64.2657 211.695 60.1271 209.503C55.9884 207.31 52.0771 208.167 52.579 209.261C53.081 210.355 55.6238 212.183 58.1809 213.277C60.7379 214.371 64.5072 214.74 64.5072 214.74Z" fill="#7FC6A6"/>
<path d="M77.0366 200.255C77.0366 200.255 75.2088 197.944 76.1843 193.076C77.1597 188.208 79.3569 189.425 81.7719 186.868C84.1869 184.311 83.7181 183.946 86.152 181.271C88.586 178.595 90.7784 177.132 91.7492 178.226C92.7199 179.32 91.2756 182.729 89.803 184.675C88.3303 186.622 86.0147 187.597 84.9351 190.031C83.8554 192.465 84.3479 196.362 81.5446 198.209C78.7413 200.056 77.0366 200.255 77.0366 200.255Z" fill="#7FC6A6"/>
<path d="M83.1311 201.595C83.1311 201.595 87.5112 196.604 90.6744 192.953C93.8376 189.302 95.0546 186.503 95.1777 188.937C95.3008 191.371 96.2715 193.317 93.7192 196.48C91.1669 199.644 83.1311 201.595 83.1311 201.595Z" fill="#7FC6A6"/>
<path d="M80.8251 209.626C80.8251 209.626 80.7067 207.679 87.6439 203.176C94.5811 198.673 97.4886 197.821 96.7593 199.629C96.0301 201.438 92.9711 203.28 89.7037 206.567C86.4364 209.853 80.8251 209.626 80.8251 209.626Z" fill="#7FC6A6"/>
<path d="M68.2055 192.313C68.2055 192.313 66.5766 183.582 64.8908 177.374C63.2051 171.166 62.0923 167.396 62.0923 167.396" stroke="white" stroke-linecap="round" stroke-linejoin="round"/>
<path d="M77.0083 184.283C77.0083 184.283 79.9631 174.812 80.9386 169.096C81.9141 163.381 80.8249 159.119 80.3514 156.562" stroke="white" stroke-linecap="round" stroke-linejoin="round"/>
<path d="M65.8284 199.828C64.517 197.576 63.0169 195.439 61.3441 193.44C58.6686 190.273 56.6088 188.573 55.3823 185.528" stroke="white" stroke-linecap="round" stroke-linejoin="round"/>
<path d="M77.0369 200.255C77.0369 200.255 77.9839 194.411 80.3184 191.371C82.6529 188.331 87.2556 183.582 89.0834 180.537" stroke="white" stroke-linecap="round" stroke-linejoin="round"/>
<path d="M64.223 214.607C64.223 214.607 60.127 211.936 57.2053 210.478" stroke="white" stroke-linecap="round" stroke-linejoin="round"/>
<path d="M87.6723 239.136C87.3977 231.749 79.1914 226.824 79.1914 226.824H66.6192C66.6192 226.824 58.413 231.744 58.1431 239.136C57.8731 246.528 67.4432 273.599 67.4432 273.599H78.3722C78.3722 273.599 87.928 246.509 87.6723 239.136Z" fill="white" stroke="white" stroke-linecap="round" stroke-linejoin="round"/>
<path d="M80.8108 219.565H64.7629L66.6144 226.829H78.9593L80.8108 219.565Z" fill="white" stroke="white" stroke-linecap="round" stroke-linejoin="round"/>
<path d="M267.627 273.479H47.7344" stroke="white" stroke-linecap="round" stroke-linejoin="round"/>
<path d="M232 131V146.64C231.999 149.122 231.081 151.503 229.449 153.259C227.816 155.014 225.602 156 223.293 156H205" stroke="white" stroke-linecap="round" stroke-linejoin="round" stroke-dasharray="5 5"/>
<path d="M206 154L202 155.998L206 158V154Z" fill="white"/>
<path d="M248 125.576L223.427 120.518L219.807 138.11L244.379 143.167L248 125.576Z" fill="#F2994A"/>
<path d="M246.725 123.938L222.152 118.88L218.532 136.472L243.104 141.529L246.725 123.938Z" fill="#F2994A" stroke="white" stroke-miterlimit="10"/>
<path d="M222.155 118.877L232.63 130.203L246.727 123.936" stroke="white" stroke-linecap="round" stroke-linejoin="round"/>
<path d="M132 139H130V143H132V139Z" stroke="#263238" stroke-linecap="round" stroke-linejoin="round"/>
<path d="M193 99.102V241.902C193 243.785 192.251 245.59 190.918 246.921C189.585 248.252 187.777 249 185.892 249H124.104C122.219 248.999 120.412 248.251 119.08 246.92C117.748 245.589 117 243.784 117 241.902V99.102C116.999 98.1697 117.182 97.2464 117.538 96.3848C117.895 95.5232 118.418 94.7402 119.078 94.0806C119.737 93.421 120.521 92.8978 121.383 92.5408C122.246 92.1838 123.17 92 124.104 92H150.624L150.645 92.079C151.307 94.456 152.826 96.0019 154.515 96.0019H155.485C157.149 96.0019 158.693 94.456 159.355 92.079L159.38 92H185.892C186.826 92 187.751 92.1837 188.613 92.5407C189.476 92.8976 190.26 93.4208 190.92 94.0804C191.58 94.7399 192.103 95.5229 192.46 96.3845C192.817 97.2461 193.001 98.1695 193 99.102Z" fill="white" stroke="#263238" stroke-miterlimit="10"/>
<path d="M117 205V241.97C117 243.834 117.748 245.621 119.08 246.939C120.412 248.258 122.219 248.999 124.104 249H185.892C187.777 249 189.585 248.259 190.918 246.941C192.251 245.623 193 243.834 193 241.97V205H117Z" fill="#DBDBDB" stroke="#263238" stroke-linecap="round" stroke-linejoin="round"/>
<path d="M140.048 209H120.952C120.426 209 120 209.423 120 209.945V215.055C120 215.577 120.426 216 120.952 216H140.048C140.574 216 141 215.577 141 215.055V209.945C141 209.423 140.574 209 140.048 209Z" fill="white"/>
<path d="M163.048 209H143.952C143.426 209 143 209.423 143 209.945V215.055C143 215.577 143.426 216 143.952 216H163.048C163.574 216 164 215.577 164 215.055V209.945C164 209.423 163.574 209 163.048 209Z" fill="white"/>
<path d="M187.048 209H167.952C167.426 209 167 209.423 167 209.945V215.055C167 215.577 167.426 216 167.952 216H187.048C187.574 216 188 215.577 188 215.055V209.945C188 209.423 187.574 209 187.048 209Z" fill="white"/>
<path d="M140.048 218H120.952C120.426 218 120 218.423 120 218.945V224.055C120 224.577 120.426 225 120.952 225H140.048C140.574 225 141 224.577 141 224.055V218.945C141 218.423 140.574 218 140.048 218Z" fill="white"/>
<path d="M163.048 218H143.952C143.426 218 143 218.423 143 218.945V224.055C143 224.577 143.426 225 143.952 225H163.048C163.574 225 164 224.577 164 224.055V218.945C164 218.423 163.574 218 163.048 218Z" fill="white"/>
<path d="M187.048 218H167.952C167.426 218 167 218.423 167 218.945V224.055C167 224.577 167.426 225 167.952 225H187.048C187.574 225 188 224.577 188 224.055V218.945C188 218.423 187.574 218 187.048 218Z" fill="white"/>
<path d="M140.048 227H120.952C120.426 227 120 227.423 120 227.945V233.055C120 233.577 120.426 234 120.952 234H140.048C140.574 234 141 233.577 141 233.055V227.945C141 227.423 140.574 227 140.048 227Z" fill="white"/>
<path d="M163.048 227H143.952C143.426 227 143 227.423 143 227.945V233.055C143 233.577 143.426 234 143.952 234H163.048C163.574 234 164 233.577 164 233.055V227.945C164 227.423 163.574 227 163.048 227Z" fill="white"/>
<path d="M187.048 227H167.952C167.426 227 167 227.423 167 227.945V233.055C167 233.577 167.426 234 167.952 234H187.048C187.574 234 188 233.577 188 233.055V227.945C188 227.423 187.574 227 187.048 227Z" fill="white"/>
<path d="M163.048 236H143.952C143.426 236 143 236.423 143 236.945V242.055C143 242.577 143.426 243 143.952 243H163.048C163.574 243 164 242.577 164 242.055V236.945C164 236.423 163.574 236 163.048 236Z" fill="white"/>
<path d="M185 243H171.84L169 239.737L171.84 236H185V243Z" fill="white"/>
<path d="M193 106V99.2285C193 97.3114 192.251 95.4728 190.918 94.1172C189.585 92.7616 187.777 92 185.892 92H159.38L159.355 92.0804C158.693 94.5012 157.17 96.0756 155.485 96.0756H154.515C152.826 96.0756 151.307 94.5012 150.645 92.0804L150.624 92H124.104C122.22 92 120.413 92.7611 119.081 94.1159C117.748 95.4708 117 97.3083 117 99.2243V105.996L193 106Z" fill="#DBDBDB" stroke="#263238" stroke-linecap="round" stroke-linejoin="round"/>
<path d="M198 133.622V119.411H196.716V101.217C196.716 98.242 195.533 95.389 193.428 93.2854C191.324 91.1818 188.469 90 185.492 90H125.219C123.746 90 122.286 90.2902 120.925 90.8539C119.563 91.4177 118.326 92.244 117.285 93.2856C116.243 94.3273 115.416 95.5639 114.853 96.9247C114.289 98.2856 113.999 99.7441 114 101.217V245.787C113.999 247.26 114.289 248.718 114.853 250.079C115.417 251.439 116.243 252.676 117.285 253.717C118.327 254.758 119.564 255.584 120.925 256.148C122.287 256.711 123.746 257.001 125.219 257H185.492C186.966 257.001 188.425 256.711 189.787 256.148C191.149 255.584 192.386 254.759 193.428 253.717C194.47 252.676 195.297 251.44 195.861 250.079C196.425 248.718 196.716 247.26 196.716 245.787V145.733H198V137.336H196.716V133.609L198 133.622ZM193.19 237.775C193.19 239.248 192.9 240.707 192.336 242.068C191.772 243.428 190.945 244.665 189.903 245.707C188.86 246.748 187.623 247.574 186.262 248.138C184.9 248.702 183.44 248.992 181.966 248.992H128.745C125.769 248.991 122.915 247.809 120.812 245.705C118.708 243.602 117.526 240.749 117.526 237.775V103.78C117.525 102.307 117.814 100.848 118.377 99.4865C118.941 98.1252 119.767 96.8881 120.809 95.846C121.851 94.8039 123.088 93.9772 124.45 93.4132C125.811 92.8492 127.271 92.5589 128.745 92.5589H151.001L151.022 92.6376C151.681 95.006 153.193 96.5463 154.875 96.5463H155.84C157.498 96.5463 159.035 95.006 159.694 92.6376L159.718 92.5589H181.966C183.441 92.5584 184.901 92.8483 186.263 93.412C187.625 93.9758 188.863 94.8024 189.905 95.8445C190.948 96.8867 191.774 98.1239 192.338 99.4856C192.901 100.847 193.191 102.306 193.19 103.78V237.775Z" fill="#F4D60C" stroke="white" stroke-linecap="round" stroke-linejoin="round"/>
<path d="M184.059 91H124.945C122.043 91 119.26 92.14 117.207 94.1692C115.155 96.1985 114.001 98.9509 114 101.821V244.179C114 245.6 114.283 247.008 114.833 248.321C115.383 249.634 116.19 250.827 117.206 251.832C118.222 252.837 119.429 253.634 120.757 254.177C122.085 254.721 123.508 255.001 124.945 255H184.059C185.496 255.001 186.919 254.721 188.247 254.177C189.574 253.634 190.781 252.837 191.797 251.832C192.813 250.827 193.619 249.634 194.168 248.321C194.718 247.007 195.001 245.6 195 244.179V101.821C195 98.9512 193.847 96.1988 191.796 94.1695C189.744 92.1401 186.961 91 184.059 91ZM192.751 237.708C192.751 240.578 191.598 243.331 189.546 245.361C187.495 247.391 184.712 248.532 181.81 248.533H127.194C125.757 248.533 124.334 248.253 123.006 247.709C121.679 247.165 120.472 246.367 119.456 245.362C118.44 244.357 117.635 243.163 117.085 241.85C116.536 240.537 116.253 239.129 116.253 237.708V102.84C116.252 101.419 116.534 100.012 117.084 98.6983C117.633 97.385 118.438 96.1915 119.454 95.1862C120.469 94.1808 121.675 93.3833 123.003 92.8392C124.33 92.2951 125.753 92.015 127.19 92.015H150.098L150.119 92.0937C150.785 94.4634 152.314 96.0046 154.014 96.0046H154.99C156.666 96.0046 158.22 94.4634 158.886 92.0937L158.911 92.015H181.81C184.712 92.015 187.494 93.1551 189.546 95.1845C191.598 97.2138 192.751 99.9662 192.751 102.836V237.708Z" fill="#F4D60C" stroke="#F4D60C" stroke-linecap="round" stroke-linejoin="round"/>
<path d="M155 92.5059C155 92.2087 154.971 91.9179 154.917 91.6703C154.862 91.4227 154.784 91.2296 154.692 91.1153C154.601 91.001 154.5 90.9708 154.403 91.0285C154.306 91.0862 154.216 91.2292 154.146 91.4393C154.076 91.6495 154.029 91.9173 154.01 92.2088C153.99 92.5003 154 92.8024 154.038 93.0767C154.077 93.3511 154.141 93.5853 154.223 93.7496C154.306 93.914 154.403 94.0012 154.502 94C154.634 94 154.761 93.8426 154.854 93.5624C154.948 93.2822 155 92.9021 155 92.5059Z" fill="white"/>
<path d="M179.211 239.502L180.851 237.209C180.946 237.077 181 236.897 181 236.709C181 236.521 180.947 236.341 180.853 236.208C180.758 236.075 180.63 236 180.496 236C180.362 236 180.234 236.074 180.139 236.206L178.498 238.504L176.861 236.206C176.814 236.14 176.759 236.089 176.697 236.053C176.636 236.018 176.57 236 176.504 236C176.37 236 176.242 236.075 176.147 236.208C176.053 236.341 176 236.521 176 236.709C176 236.897 176.054 237.077 176.149 237.209L177.786 239.502L176.149 241.795C176.102 241.86 176.064 241.938 176.039 242.023C176.013 242.109 176 242.201 176 242.294C176 242.387 176.013 242.478 176.039 242.564C176.064 242.65 176.102 242.728 176.149 242.793C176.195 242.859 176.25 242.912 176.312 242.948C176.373 242.983 176.439 243.001 176.505 243C176.571 243.001 176.637 242.983 176.698 242.947C176.76 242.911 176.815 242.859 176.861 242.793L178.498 240.5L180.139 242.793C180.185 242.859 180.24 242.912 180.302 242.948C180.363 242.983 180.429 243.001 180.495 243C180.561 243 180.627 242.982 180.688 242.947C180.749 242.911 180.805 242.859 180.851 242.793C180.945 242.66 180.997 242.48 180.997 242.294C180.997 242.107 180.945 241.928 180.851 241.795L179.211 239.502Z" fill="#263238"/>
<path d="M129.954 215V210.947L129.772 211L129.477 211.074L129.188 211.136L129 211.185V210.551L129.269 210.465C129.371 210.428 129.487 210.387 129.604 210.337C129.721 210.294 129.833 210.241 129.939 210.181C130.034 210.129 130.121 210.068 130.198 210H131V215H129.954Z" fill="#263238"/>
<path d="M153 214.996V214.398L153.941 212.514L154.139 212.107C154.198 211.978 154.249 211.842 154.289 211.701C154.328 211.555 154.347 211.403 154.346 211.249C154.351 211.107 154.325 210.966 154.27 210.842C154.244 210.793 154.209 210.754 154.168 210.729C154.126 210.703 154.081 210.692 154.035 210.696C153.992 210.692 153.949 210.7 153.909 210.719C153.868 210.738 153.831 210.767 153.8 210.806C153.741 210.884 153.702 210.983 153.687 211.09C153.664 211.224 153.653 211.36 153.656 211.497V211.705H153.028V211.485C153.025 211.223 153.059 210.962 153.129 210.716C153.189 210.503 153.298 210.32 153.442 210.191C153.616 210.057 153.817 209.991 154.019 210.004C154.154 209.99 154.288 210.013 154.415 210.072C154.542 210.131 154.657 210.224 154.753 210.346C154.927 210.61 155.014 210.952 154.998 211.298C155 211.486 154.978 211.673 154.932 211.851C154.888 212.016 154.83 212.174 154.76 212.323C154.687 212.475 154.608 212.63 154.524 212.787L153.743 214.325H154.901V215L153 214.996Z" fill="#263238"/>
<path d="M177.497 214.993C177.194 215.005 176.893 214.947 176.626 214.824C176.408 214.71 176.242 214.538 176.153 214.334C176.047 214.098 175.995 213.847 176.001 213.594V213.426H176.977V213.57C176.977 213.705 176.993 213.84 177.024 213.972C177.041 214.068 177.098 214.155 177.185 214.217C177.276 214.278 177.391 214.308 177.507 214.302C177.627 214.309 177.745 214.278 177.838 214.213C177.919 214.14 177.97 214.047 177.985 213.948C178.015 213.816 178.029 213.681 178.028 213.546C178.039 213.343 177.991 213.142 177.886 212.959C177.829 212.884 177.749 212.822 177.655 212.781C177.561 212.74 177.456 212.721 177.351 212.726H177.19V212.059H177.336C177.436 212.066 177.537 212.055 177.631 212.024C177.724 211.993 177.808 211.945 177.876 211.882C177.992 211.714 178.045 211.521 178.028 211.327C178.038 211.161 177.999 210.995 177.914 210.845C177.871 210.785 177.808 210.736 177.734 210.706C177.659 210.675 177.575 210.663 177.493 210.672C177.41 210.664 177.325 210.678 177.252 210.712C177.179 210.747 177.121 210.8 177.085 210.865C177.009 211.023 176.972 211.193 176.977 211.363V211.544H176.001V211.311C175.991 211.067 176.052 210.824 176.176 210.604C176.284 210.412 176.462 210.256 176.683 210.157C176.933 210.048 177.211 209.994 177.493 210.001C177.778 209.993 178.061 210.046 178.317 210.153C178.536 210.25 178.714 210.403 178.823 210.592C178.949 210.809 179.009 211.049 178.999 211.291C179.011 211.541 178.937 211.788 178.786 212.003C178.662 212.176 178.468 212.304 178.241 212.364C178.392 212.405 178.529 212.477 178.639 212.573C178.761 212.689 178.851 212.827 178.904 212.975C178.971 213.162 179.003 213.356 178.999 213.55C179.005 213.814 178.956 214.077 178.852 214.326C178.765 214.539 178.599 214.723 178.378 214.849C178.108 214.969 177.801 215.019 177.497 214.993Z" fill="#263238"/>
<path d="M129.583 223.996V222.762H128V222.039L129.382 219H130.455V222.088H131V222.766H130.455V224L129.583 223.996ZM128.759 222.088H129.583V219.917L128.759 222.088Z" fill="#263238"/>
<path d="M153.978 223.998C153.768 224.013 153.559 223.95 153.377 223.815C153.235 223.691 153.131 223.507 153.083 223.297C153.025 223.043 152.997 222.779 153 222.514H153.639C153.639 222.662 153.647 222.81 153.665 222.956C153.677 223.065 153.714 223.168 153.77 223.252C153.801 223.289 153.837 223.318 153.878 223.335C153.918 223.353 153.961 223.359 154.003 223.353C154.049 223.359 154.095 223.35 154.136 223.325C154.178 223.301 154.213 223.263 154.24 223.215C154.293 223.099 154.324 222.969 154.329 222.834C154.329 222.668 154.348 222.478 154.348 222.259C154.349 222.092 154.34 221.926 154.323 221.76C154.31 221.64 154.274 221.526 154.217 221.428C154.187 221.387 154.149 221.355 154.108 221.335C154.066 221.314 154.022 221.306 153.978 221.31C153.935 221.31 153.893 221.32 153.853 221.34C153.814 221.36 153.778 221.39 153.748 221.428C153.683 221.516 153.637 221.623 153.614 221.74H153.045L153.083 219H154.827V219.754H153.639L153.601 220.937C153.657 220.858 153.729 220.798 153.808 220.763C153.911 220.716 154.019 220.689 154.128 220.682C154.304 220.661 154.481 220.72 154.626 220.848C154.762 220.982 154.861 221.166 154.91 221.375C154.973 221.638 155.003 221.911 155 222.186C155.001 222.427 154.988 222.668 154.961 222.907C154.938 223.107 154.886 223.299 154.808 223.475C154.732 223.635 154.621 223.765 154.489 223.848C154.33 223.949 154.155 224 153.978 223.998Z" fill="#263238"/>
<path d="M177.481 223.994C177.176 224.009 176.875 223.921 176.624 223.743C176.404 223.566 176.241 223.326 176.155 223.053C176.051 222.742 175.998 222.416 176 222.087V220.031C175.996 219.683 176.039 219.337 176.127 219.002C176.203 218.713 176.367 218.458 176.595 218.273C176.859 218.078 177.18 217.982 177.505 218.003C177.785 217.991 178.063 218.05 178.315 218.177C178.521 218.277 178.686 218.448 178.784 218.659C178.889 218.914 178.941 219.189 178.934 219.466C178.932 219.482 178.932 219.498 178.934 219.514V219.557H177.997C178.006 219.358 177.975 219.159 177.903 218.973C177.864 218.904 177.805 218.848 177.735 218.813C177.665 218.777 177.587 218.764 177.509 218.775C177.455 218.773 177.401 218.782 177.35 218.802C177.299 218.822 177.253 218.852 177.214 218.891C177.128 219.001 177.071 219.133 177.05 219.273C177.012 219.505 176.995 219.741 176.998 219.977V220.682C177.071 220.565 177.175 220.473 177.298 220.417C177.446 220.349 177.606 220.316 177.767 220.32C178.027 220.3 178.285 220.373 178.498 220.528C178.684 220.683 178.818 220.894 178.882 221.131C178.965 221.416 179.005 221.713 178.999 222.01C179.004 222.357 178.956 222.702 178.859 223.034C178.776 223.314 178.613 223.561 178.39 223.743C178.126 223.935 177.803 224.024 177.481 223.994ZM177.481 223.222C177.539 223.226 177.597 223.216 177.65 223.194C177.704 223.171 177.752 223.136 177.79 223.092C177.868 222.986 177.918 222.861 177.936 222.729C177.966 222.549 177.98 222.367 177.978 222.184C177.98 221.995 177.973 221.807 177.954 221.619C177.947 221.476 177.902 221.337 177.823 221.218C177.78 221.167 177.726 221.127 177.665 221.102C177.603 221.077 177.537 221.067 177.472 221.073C177.396 221.073 177.321 221.088 177.252 221.117C177.188 221.147 177.129 221.188 177.078 221.238C177.032 221.28 176.993 221.328 176.961 221.382V222.305C176.959 222.457 176.975 222.61 177.008 222.758C177.031 222.884 177.086 223 177.167 223.096C177.21 223.138 177.261 223.17 177.317 223.19C177.373 223.21 177.432 223.217 177.491 223.212L177.481 223.222Z" fill="#263238"/>
<path d="M129.327 233L130.233 228.654H129V228H131V228.523L130.083 233H129.327Z" fill="#263238"/>
<path d="M153.995 232.997C153.79 233.01 153.586 232.946 153.41 232.812C153.263 232.687 153.152 232.504 153.095 232.291C153.029 232.041 152.997 231.779 153 231.516C152.998 231.381 153.009 231.247 153.032 231.115C153.05 231.003 153.08 230.896 153.12 230.794C153.159 230.701 153.208 230.614 153.265 230.537C153.322 230.465 153.388 230.404 153.46 230.356C153.342 230.252 153.244 230.115 153.173 229.955C153.09 229.75 153.049 229.52 153.054 229.289C153.049 229.053 153.083 228.817 153.155 228.599C153.219 228.411 153.329 228.254 153.469 228.154C153.633 228.046 153.815 227.994 153.998 228.001C154.182 227.992 154.365 228.046 154.527 228.158C154.666 228.26 154.777 228.416 154.842 228.603C154.913 228.82 154.946 229.054 154.939 229.289C154.943 229.521 154.903 229.751 154.823 229.959C154.754 230.118 154.659 230.255 154.543 230.36C154.614 230.408 154.678 230.469 154.735 230.541C154.792 230.618 154.84 230.705 154.88 230.798C154.92 230.9 154.949 231.007 154.968 231.119C154.991 231.251 155.001 231.385 154.999 231.52C155.005 231.783 154.974 232.045 154.908 232.295C154.849 232.507 154.739 232.69 154.593 232.816C154.413 232.952 154.204 233.015 153.995 232.997ZM153.995 232.367C154.038 232.371 154.082 232.362 154.122 232.341C154.163 232.32 154.199 232.288 154.228 232.246C154.281 232.157 154.316 232.052 154.329 231.941C154.345 231.817 154.353 231.691 154.354 231.564C154.357 231.43 154.349 231.295 154.329 231.163C154.315 231.05 154.278 230.943 154.222 230.854C154.194 230.813 154.159 230.781 154.12 230.76C154.08 230.739 154.038 230.73 153.995 230.734C153.953 230.73 153.91 230.74 153.871 230.761C153.832 230.781 153.797 230.813 153.768 230.854C153.714 230.943 153.677 231.048 153.661 231.159C153.639 231.291 153.629 231.425 153.63 231.56C153.629 231.695 153.638 231.829 153.655 231.962C153.668 232.072 153.706 232.177 153.762 232.262C153.792 232.301 153.829 232.33 153.869 232.348C153.91 232.366 153.953 232.372 153.995 232.367ZM153.995 230.035C154.03 230.035 154.064 230.026 154.096 230.008C154.128 229.99 154.157 229.964 154.181 229.931C154.23 229.852 154.264 229.758 154.278 229.658C154.299 229.526 154.308 229.392 154.307 229.257C154.311 229.101 154.286 228.945 154.234 228.804C154.212 228.748 154.178 228.701 154.135 228.671C154.093 228.64 154.044 228.626 153.995 228.631C153.946 228.628 153.896 228.642 153.853 228.672C153.809 228.703 153.774 228.748 153.749 228.804C153.695 228.942 153.669 229.095 153.674 229.249C153.673 229.384 153.682 229.518 153.702 229.65C153.719 229.752 153.754 229.847 153.806 229.927C153.83 229.96 153.859 229.987 153.892 230.006C153.924 230.024 153.959 230.035 153.995 230.035Z" fill="#263238"/>
<path d="M154.011 241.999C153.813 242.01 153.617 241.935 153.447 241.783C153.299 241.637 153.183 241.43 153.112 241.187C153.035 240.908 152.997 240.609 153 240.307V237.717C152.995 237.411 153.032 237.107 153.109 236.823C153.171 236.577 153.283 236.365 153.428 236.218C153.601 236.064 153.8 235.989 154.002 236.001C154.202 235.989 154.4 236.064 154.572 236.218C154.717 236.365 154.829 236.577 154.891 236.823C154.968 237.107 155.005 237.411 155 237.717V240.307C155.003 240.609 154.965 240.908 154.888 241.187C154.817 241.43 154.701 241.637 154.553 241.783C154.39 241.93 154.202 242.005 154.011 241.999ZM154.011 241.143C154.053 241.148 154.094 241.138 154.132 241.113C154.17 241.089 154.204 241.052 154.231 241.004C154.281 240.907 154.313 240.793 154.327 240.673C154.342 240.547 154.349 240.42 154.349 240.293V237.731C154.35 237.598 154.342 237.464 154.327 237.333C154.316 237.21 154.284 237.094 154.234 236.996C154.207 236.949 154.172 236.912 154.133 236.888C154.095 236.865 154.053 236.856 154.011 236.862C153.969 236.856 153.927 236.865 153.887 236.888C153.848 236.912 153.813 236.949 153.785 236.996C153.735 237.094 153.703 237.21 153.692 237.333C153.677 237.464 153.67 237.598 153.67 237.731V240.293C153.671 240.42 153.679 240.547 153.696 240.673C153.711 240.793 153.745 240.906 153.794 241.004C153.821 241.051 153.854 241.089 153.892 241.113C153.929 241.137 153.97 241.147 154.011 241.143Z" fill="#263238"/>
<path d="M177.507 232.999C177.224 233.008 176.943 232.958 176.689 232.854C176.478 232.764 176.311 232.615 176.214 232.433C176.106 232.22 176.054 231.99 176.061 231.759V231.694H177.012C177.001 231.861 177.035 232.027 177.112 232.18C177.153 232.238 177.214 232.285 177.287 232.315C177.36 232.344 177.441 232.354 177.521 232.345C177.576 232.347 177.631 232.34 177.683 232.324C177.735 232.307 177.782 232.281 177.821 232.248C177.906 232.155 177.961 232.044 177.977 231.927C178.014 231.735 178.03 231.54 178.025 231.345V230.759C177.953 230.855 177.849 230.931 177.725 230.976C177.576 231.031 177.414 231.06 177.25 231.06C176.986 231.077 176.724 231.011 176.513 230.876C176.323 230.742 176.185 230.563 176.118 230.362C175.95 229.843 175.961 229.294 176.152 228.78C176.237 228.553 176.403 228.354 176.627 228.21C176.884 228.062 177.191 227.989 177.502 228.001C177.81 227.99 178.114 228.061 178.372 228.202C178.595 228.343 178.76 228.537 178.847 228.76C178.953 229.018 179.005 229.29 179 229.563V231.289C179.003 231.58 178.96 231.871 178.871 232.152C178.802 232.41 178.623 232.638 178.368 232.792C178.113 232.946 177.799 233.015 177.488 232.987L177.507 232.999ZM177.507 230.43C177.621 230.435 177.735 230.405 177.825 230.346C177.897 230.294 177.96 230.233 178.011 230.165V229.406C178.013 229.272 177.999 229.137 177.968 229.005C177.947 228.903 177.894 228.807 177.816 228.728C177.775 228.692 177.725 228.664 177.67 228.646C177.615 228.628 177.556 228.621 177.497 228.624C177.439 228.621 177.382 228.63 177.328 228.648C177.275 228.667 177.227 228.696 177.188 228.732C177.108 228.82 177.056 228.923 177.036 229.033C177.005 229.183 176.991 229.335 176.993 229.487C176.993 229.659 176.993 229.816 176.993 229.956C177.003 230.075 177.049 230.19 177.126 230.289C177.171 230.34 177.23 230.38 177.299 230.404C177.367 230.429 177.442 230.438 177.516 230.43H177.507Z" fill="#263238"/>
<path d="M222.589 252.092C222.589 252.092 214.374 241.148 204.122 233.553C193.87 225.957 185.086 222.856 182.671 223.58C180.256 224.305 178.149 226.62 178.149 226.62L149.51 255.368C149.51 255.368 140.068 262.826 139.021 263.48C137.975 264.133 133.107 267.173 130.119 268.111C127.131 269.049 122.239 268.902 122.211 269.811C122.182 270.72 122.845 271.421 124.309 272.037C127.018 273.103 129.882 273.727 132.789 273.883C135.008 273.923 137.215 274.217 139.367 274.759C140.385 275.02 143.307 276.36 144.022 275.233C144.737 274.106 145.726 267.656 145.977 266.979C146.228 266.302 155.325 259.767 161.656 256.652C167.987 253.536 175.791 248.422 178.026 245.983C180.261 243.544 183.561 239.775 183.561 239.775C183.561 239.775 193.747 249.411 197.256 253.981C200.765 258.55 206.404 264.157 216.623 268.902C226.842 273.647 230.602 269.773 231.302 265.923C232.003 262.074 222.589 252.092 222.589 252.092Z" fill="white" stroke="#263238" stroke-linecap="round" stroke-linejoin="round"/>
<path d="M204.127 233.553C193.88 225.977 185.091 222.856 182.676 223.581C180.261 224.305 178.149 226.621 178.149 226.621L149.851 255.032C150.462 256.751 151.863 258.967 155.06 260.421C157.202 259.044 159.415 257.779 161.689 256.633C168.044 253.522 175.824 248.403 178.059 245.964C180.294 243.526 183.594 239.756 183.594 239.756C183.594 239.756 193.78 249.393 197.289 253.962C200.798 258.532 210.306 271.227 221.202 274.097C241.261 279.376 240.574 269.148 241.261 265.298C241.947 261.449 222.623 252.096 222.623 252.096C222.623 252.096 214.374 241.148 204.127 233.553Z" fill="#263238" stroke="#263238" stroke-linecap="round" stroke-linejoin="round"/>
<path d="M122.211 269.825C122.182 270.734 122.845 271.435 124.309 272.051C127.018 273.117 129.882 273.741 132.789 273.898C135.008 273.937 137.215 274.231 139.367 274.774C140.385 275.034 143.307 276.374 144.022 275.247C144.637 274.3 145.442 269.38 145.83 267.595C142.71 267.694 139.163 266.335 139.163 266.335C139.163 266.335 139.414 265.545 139.021 263.494C137.979 264.148 133.107 267.188 130.119 268.125C127.131 269.063 122.239 268.916 122.211 269.825Z" fill="white" stroke="#263238" stroke-linecap="round" stroke-linejoin="round"/>
<path d="M257.806 210.009C255.093 207.589 248.994 201.779 244.732 194.52C240.47 187.261 241.635 184.95 238.439 179.22C235.242 173.491 230.597 170.697 224.304 171.956C219.19 172.979 216.566 176.048 215.78 177.165C215.6 177.416 215.416 177.639 215.217 177.89C214.293 178.969 211.386 182.956 209.212 192.29C206.598 203.522 206.693 209.043 210.666 211.657C214.639 214.271 217.442 213.111 218.602 214.37C219.763 215.63 220.156 217.178 219.185 217.178C218.915 217.187 218.647 217.14 218.397 217.039C218.147 216.939 217.92 216.788 217.731 216.596C217.731 216.596 219.961 219.986 222.092 219.016C224.223 218.045 226.643 214.564 225.09 209.914C223.537 205.264 219.379 200.524 218.702 199.653C218.025 198.782 216.666 188.71 216.666 188.71C216.666 188.71 216.765 185.319 220.539 186.484C224.313 187.649 229.451 189.775 231.094 193.166C232.737 196.556 238.841 204.204 244.168 206.524C249.495 208.844 251.607 210.994 253.544 216.676C255.481 222.359 255.481 224.253 255.481 224.253C255.481 224.253 259.454 222.416 260.216 218.253C260.979 214.091 260.514 212.415 257.806 210.009ZM211.035 210.203C209.198 208.172 210.358 204.493 210.358 204.493C209.781 209.701 215.78 212.628 215.78 212.628C215.78 212.628 212.877 212.239 211.035 210.203Z" fill="#263238" stroke="#263238" stroke-linecap="round" stroke-linejoin="round"/>
<path d="M223.039 252.987C223.039 252.987 210.178 250.709 206.991 251.845C203.805 252.982 195.499 266.643 194.021 268.234C192.544 269.825 190.948 270.512 189.58 270.512C188.211 270.512 183.32 269.603 180.479 270.171C177.637 270.739 174.105 272.539 174.446 274.267C174.787 275.995 176.378 276.772 181.615 277.582C186.852 278.391 192.426 276.44 193.903 275.645C195.38 274.849 197.09 273.713 197.549 273.486C198.009 273.258 202.1 272.344 204.373 270.867C206.063 269.701 207.662 268.408 209.155 266.998C209.155 266.998 218.83 271.435 222.471 273.372C226.112 275.309 231.8 276.559 234.986 276.559C238.173 276.559 245.115 275.645 246.825 274.849C248.534 274.054 251.716 270.981 251.716 267.453C251.716 263.925 252.095 258.996 250.94 258.787C249.784 258.579 248.757 259.029 247.625 258.915C246.493 258.801 240.228 255.274 238.628 254.592C237.027 253.91 223.039 252.987 223.039 252.987Z" fill="#263238" stroke="#263238" stroke-linecap="round" stroke-linejoin="round"/>
<path d="M203.099 255.904C204.311 254.478 205.602 253.123 206.968 251.845C208.388 250.709 218.943 251.926 218.943 251.926" stroke="white" stroke-linecap="round" stroke-linejoin="round"/>
<path d="M201.086 258.219C201.086 258.219 201.56 257.646 202.275 256.841" stroke="white" stroke-linecap="round" stroke-linejoin="round"/>
<path d="M193.652 268.58C192.269 269.92 190.811 270.512 189.556 270.512C188.192 270.512 183.296 269.603 180.455 270.171C177.614 270.739 174.081 272.539 174.422 274.267C174.763 275.995 176.354 276.772 181.591 277.582C186.829 278.391 192.402 276.441 193.879 275.645C195.357 274.849 196.976 273.751 197.483 273.505C196.52 273.018 195.677 272.324 195.014 271.473C194.352 270.621 193.887 269.633 193.652 268.58Z" fill="white" stroke="#263238" stroke-linecap="round" stroke-linejoin="round"/>
<path d="M189.892 272.898C189.343 272.008 189.959 271.033 190.532 270.398C190.21 270.472 189.881 270.51 189.551 270.512C188.188 270.512 183.291 269.603 180.45 270.171C177.609 270.739 174.077 272.539 174.417 274.267C174.758 275.995 176.349 276.772 181.587 277.582C186.824 278.391 192.397 276.44 193.875 275.645L194.566 275.261C193.131 275.048 190.693 274.191 189.892 272.898Z" fill="white" stroke="#263238" stroke-linecap="round" stroke-linejoin="round"/>
<path d="M224.981 205.946C224.981 205.946 216.074 206.041 215.103 209.431C214.132 212.822 215.008 229.476 214.909 235.002C214.809 240.528 214.814 244.103 215.491 245.462C216.168 246.821 220.141 249.331 220.43 249.43C220.719 249.53 220.331 252.527 220.331 252.527C220.331 252.527 227.206 253.398 231.08 253.498C234.953 253.597 238.438 255.046 242.023 257.854C245.608 260.662 247.928 262.5 247.928 262.5L250.154 260.08C250.154 260.08 251.03 268.291 251.996 272.079C252.962 275.867 256.257 276.047 257.204 276.047C258.151 276.047 261.367 275.953 261.367 275.953C261.367 275.953 258.27 270.237 256.916 266.364C255.561 262.49 254.69 259.199 254.69 259.199C254.69 259.199 255.367 258.134 255.367 255.809C255.367 253.484 254.894 252.129 254.979 249.809C255.064 247.489 259.241 237.317 257.498 225.986C255.755 214.654 256.333 211.463 252.071 209.237C247.81 207.012 238.519 205.653 235.905 205.449C233.291 205.245 224.981 205.946 224.981 205.946Z" fill="#7FC6A6" stroke="#263238" stroke-linecap="round" stroke-linejoin="round"/>
<path d="M218.688 199.653C218.431 199.112 218.254 198.536 218.162 197.944C216.131 194.548 214.293 191.044 213.81 189.377C213.081 186.854 213.645 182.052 214.023 179.528C212.712 181.612 210.766 185.561 209.198 192.29C206.584 203.522 206.679 209.043 210.652 211.657C214.625 214.271 217.428 213.111 218.588 214.37C219.748 215.63 220.141 217.178 219.171 217.178C218.901 217.187 218.633 217.14 218.383 217.039C218.133 216.939 217.906 216.788 217.717 216.596C217.717 216.596 219.947 219.986 222.078 219.016C224.209 218.045 226.629 214.564 225.076 209.914C223.522 205.264 219.365 200.524 218.688 199.653ZM211.035 210.203C209.198 208.172 210.358 204.493 210.358 204.493C209.781 209.701 215.78 212.628 215.78 212.628C215.78 212.628 212.878 212.239 211.035 210.203Z" fill="#263238" stroke="#263238" stroke-linecap="round" stroke-linejoin="round"/>
<path d="M237.292 250.704L240.053 251.097" stroke="#263238" stroke-linecap="round" stroke-linejoin="round"/>
<path d="M221.581 235.812C221.581 235.812 219.63 247.498 220.459 247.972C221.013 248.289 229.664 249.591 235.285 250.411" stroke="#263238" stroke-linecap="round" stroke-linejoin="round"/>
<path d="M221.283 248.559L220.331 252.518" stroke="#263238" stroke-linecap="round" stroke-linejoin="round"/>
<path d="M242.179 255.941C242.179 255.941 248.023 257.944 250.916 258.783C253.809 259.621 254.231 259.313 254.231 259.313" stroke="#263238" stroke-linecap="round" stroke-linejoin="round"/>
<path d="M232.382 214.678L236.748 217.159L236.866 213.499" stroke="#263238" stroke-linecap="round" stroke-linejoin="round"/>
<path d="M226.42 214.209L225.592 214.858" stroke="#263238" stroke-linecap="round" stroke-linejoin="round"/>
<path d="M220.927 222.117L220.871 219.873" stroke="#263238" stroke-linecap="round" stroke-linejoin="round"/>
<path d="M218.863 183.771C218.863 183.771 213.81 188.184 213.81 189.377C213.81 190.571 215.463 195.808 216.107 197.901C216.895 200.156 218.147 202.22 219.781 203.962C221.254 205.525 224.1 207.362 224.744 207.362C225.261 207.307 225.76 207.145 226.212 206.889C226.212 206.889 226.581 214.422 227.869 217.088C229.157 219.754 229.797 219.66 230.071 219.016C230.346 218.372 233.751 207.258 233.751 207.258L235.403 199.355L231.909 190.358C231.909 190.358 227.041 186.044 223.735 184.94C220.43 183.837 218.863 183.771 218.863 183.771Z" fill="white" stroke="#263238" stroke-linecap="round" stroke-linejoin="round"/>
<path d="M221.713 199.667C221.713 199.667 221.713 201.32 221.988 201.414C222.263 201.509 223.456 201.888 223.825 200.941" stroke="#263238" stroke-linecap="round" stroke-linejoin="round"/>
<path d="M222.722 203.252C222.722 203.252 225.478 203.621 226.397 201.689" stroke="#263238" stroke-linecap="round" stroke-linejoin="round"/>
<path d="M226.212 206.926C226.212 206.926 229.247 204.559 230.9 202.333C230.9 202.333 229.063 206.652 228.532 207.755C228.214 208.378 227.937 209.022 227.704 209.682L226.212 206.926Z" fill="#263238" stroke="#263238" stroke-linecap="round" stroke-linejoin="round"/>
<path d="M224.559 195.443C224.559 195.443 227.041 196.177 228.054 194.615" stroke="#263238" stroke-linecap="round" stroke-linejoin="round"/>
<path d="M223.456 193.237C223.456 193.237 226.212 191.674 228.144 192.318" stroke="#263238" stroke-linecap="round" stroke-linejoin="round"/>
<path d="M216.936 196.542C217.361 196.807 217.862 196.924 218.36 196.874C218.859 196.824 219.327 196.611 219.691 196.267" stroke="#263238" stroke-linecap="round" stroke-linejoin="round"/>
<path d="M219.507 194.245C219.507 194.245 218.129 193.327 216.107 194.34" stroke="#263238" stroke-linecap="round" stroke-linejoin="round"/>
<path d="M245.295 217.661C245.295 217.661 244.23 221.341 244.618 223.86C245.006 226.379 244.424 234.509 244.424 234.898C244.424 235.286 242.293 236.252 242.392 236.929C242.513 237.583 242.671 238.23 242.866 238.866L239.769 237.606L235.602 243.128C238.309 245.576 241.301 247.689 244.514 249.421C250.125 252.518 253.984 251.552 253.984 251.552C253.984 251.552 256.215 237.9 256.504 231.796C256.792 225.692 258.152 217.661 256.03 211.946C254.363 207.485 247.033 206.912 245.38 214.564" fill="#7FC6A6"/>
<path d="M245.295 217.661C245.295 217.661 244.23 221.341 244.618 223.86C245.006 226.379 244.424 234.509 244.424 234.898C244.424 235.286 242.293 236.252 242.392 236.929C242.513 237.583 242.671 238.23 242.866 238.866L239.769 237.606L235.602 243.128C238.309 245.576 241.301 247.689 244.514 249.421C250.125 252.518 253.984 251.552 253.984 251.552C253.984 251.552 256.215 237.9 256.504 231.796C256.792 225.692 258.152 217.661 256.03 211.946C254.363 207.485 247.033 206.912 245.38 214.564" stroke="#263238" stroke-linecap="round" stroke-linejoin="round"/>
<path d="M250.471 232.966L251.413 232.573" stroke="#263238" stroke-linecap="round" stroke-linejoin="round"/>
<path d="M245.603 234.992L249.292 233.458" stroke="#263238" stroke-linecap="round" stroke-linejoin="round"/>
<path d="M243.572 239.06C243.572 239.06 251.707 237.029 251.622 237.706C251.536 238.383 248.814 238.653 248.814 238.653" stroke="#263238" stroke-linecap="round" stroke-linejoin="round"/>
<path d="M244.443 239.448C244.443 239.448 250.447 240.126 251.513 242.645" stroke="#263238" stroke-linecap="round" stroke-linejoin="round"/>
<path d="M250.504 245.14C250.85 245.362 251.226 245.531 251.621 245.642" stroke="#263238" stroke-linecap="round" stroke-linejoin="round"/>
<path d="M243.96 240.32C243.96 240.32 247.151 242.953 249.505 244.52" stroke="#263238" stroke-linecap="round" stroke-linejoin="round"/>
<path d="M206.466 222.472C206.466 222.472 204.283 227.137 205.112 227.904C205.94 228.671 210.893 233.449 211.367 233.686C211.84 233.922 213.195 238.056 213.905 239.647C214.615 241.238 215.027 244.96 216.386 245.491C217.745 246.021 220.648 243.251 220.695 241.83C220.743 240.41 220.695 239.884 219.393 238.042C218.091 236.2 215.131 230.309 215.131 230.309L207.044 221.511L206.466 222.472Z" fill="white" stroke="#263238" stroke-linecap="round" stroke-linejoin="round"/>
<path d="M202.692 216.686L211.84 231.559L218.863 232.507L212.016 218.987L202.692 216.686Z" fill="#263238" stroke="#263238" stroke-linecap="round" stroke-linejoin="round"/>
<path d="M239.798 237.606C239.798 237.606 229.337 230.248 226.629 228.41C225.276 227.526 223.982 226.555 222.755 225.503C222.755 225.503 222.462 223.666 221.808 222.889C221.155 222.112 220.454 221.942 219.194 222.018C217.935 222.094 216.869 222.307 216.097 222.018C215.326 221.729 213.867 219.309 213.678 220.37C213.488 221.431 213.578 222.212 214.549 222.989C215.52 223.765 216.869 224.049 217.258 224.243C217.646 224.438 216.642 224.594 216.642 224.594C215.091 225.139 213.435 225.322 211.803 225.129C210.174 224.92 208.582 224.493 207.067 223.86C206.39 223.666 206.485 224.632 207.261 225.214C208.038 225.797 208.521 226.085 208.521 226.085C208.521 226.085 206.101 225.697 206.39 226.474C206.679 227.25 207.744 227.923 208.422 228.41C209.099 228.898 209.781 229.765 210.358 230.054C210.936 230.342 211.035 231.701 212.006 232.284C212.977 232.866 212.688 232.8 215.165 233.023C217.756 233.231 220.361 233.21 222.949 232.961L235.631 243.128L239.798 237.606Z" fill="white" stroke="#263238" stroke-linecap="round" stroke-linejoin="round"/>
<path d="M208.521 226.085C208.521 226.085 210.941 227.245 211.329 227.245H216.538" stroke="#263238" stroke-linecap="round" stroke-linejoin="round"/>
<path d="M208.01 228.197C208.574 228.265 209.127 228.404 209.657 228.609C209.998 228.837 212.21 229.277 212.892 229.391C213.913 229.461 214.937 229.48 215.96 229.447" stroke="#263238" stroke-linecap="round" stroke-linejoin="round"/>
<path d="M210.358 230.054C210.358 230.054 213.062 231.379 213.573 231.474C214.68 231.504 215.787 231.466 216.888 231.361" stroke="#263238" stroke-linecap="round" stroke-linejoin="round"/>
<path d="M242.118 199.653C238.62 195.902 235.416 191.887 232.534 187.644C232.534 187.644 231.468 202.845 233.793 209.332C236.118 215.819 244.637 213.12 247.639 211.463C250.641 209.805 251.707 208.56 253.544 208.849C249.36 206.282 245.52 203.192 242.118 199.653Z" fill="#263238" stroke="#263238" stroke-linecap="round" stroke-linejoin="round"/>
<path d="M220.312 183.004C216.931 178.988 218.863 183.771 218.863 183.771C218.863 183.771 225.341 189.955 231.909 190.4C231.909 190.386 223.693 187.019 220.312 183.004Z" fill="#263238" stroke="#263238" stroke-linecap="round" stroke-linejoin="round"/>
<defs>
<linearGradient id="paint0_linear_1047_732" x1="156" y1="-147" x2="156" y2="586.114" gradientUnits="userSpaceOnUse">
<stop stop-color="#003D86"/>
<stop offset="0.54085" stop-color="#1D4BC1" stop-opacity="0"/>
</linearGradient>
<linearGradient id="paint1_linear_1047_732" x1="156" y1="-134" x2="157.605" y2="518.83" gradientUnits="userSpaceOnUse">
<stop offset="0.0836398" stop-color="#1D68C1"/>
<stop offset="0.572985" stop-color="#003D86" stop-opacity="0"/>
</linearGradient>
</defs>
</svg>
