<svg width="25" height="25" viewBox="0 0 25 25" fill="none" xmlns="http://www.w3.org/2000/svg">
<path fill-rule="evenodd" clip-rule="evenodd" d="M4.29797 4.3493C5.36983 3.26702 6.64533 2.40737 8.05101 1.81986C9.45669 1.23234 10.9648 0.928571 12.4884 0.926041C14.0121 0.923512 15.5211 1.22228 16.9288 1.80512C18.3364 2.38796 19.6147 3.24337 20.6902 4.32208C22.3067 5.94105 23.4071 8.00237 23.8525 10.2458C24.2978 12.4893 24.0683 14.8144 23.1927 16.9276C22.3171 19.0407 20.8348 20.8473 18.9329 22.1192C17.0309 23.3911 14.7946 24.0714 12.5062 24.0742C9.43915 24.0686 6.49915 22.8492 4.3293 20.6828C2.15944 18.5164 0.93634 15.5792 0.927546 12.5138C0.900455 10.9948 1.18561 9.48648 1.76535 8.08211C2.34509 6.67774 3.20709 5.40725 4.29797 4.3493ZM18.3242 13.6417V11.3587H13.6498V6.68374H11.3656V11.3557H6.69115V13.6387H11.3656V18.3106H13.6498V13.6387L18.3242 13.6417Z" fill="#9E9E9E"/>
</svg>
