<svg width="14" height="14" viewBox="0 0 14 14" fill="none" xmlns="http://www.w3.org/2000/svg">
<path d="M10.6775 2.15621C10.6186 2.09732 10.5488 2.05061 10.4719 2.01874C10.395 1.98686 10.3126 1.97046 10.2294 1.97046C10.1461 1.97046 10.0637 1.98686 9.98684 2.01874C9.90997 2.0506 9.84013 2.0973 9.78132 2.15617L10.6775 2.15621ZM10.6775 2.15621C11.0072 2.48586 11.2687 2.87723 11.4471 3.30796C11.6256 3.73871 11.7174 4.20038 11.7174 4.66663C11.7174 5.13287 11.6256 5.59455 11.4471 6.02529C11.2687 6.45604 11.0071 6.84741 10.6774 7.17707C10.6186 7.23591 10.5487 7.28258 10.4719 7.31442C10.395 7.34627 10.3126 7.36266 10.2294 7.36266C10.1462 7.36266 10.0638 7.34627 9.98688 7.31442C9.91 7.28258 9.84014 7.23591 9.7813 7.17706C9.72246 7.11822 9.67579 7.04837 9.64394 6.97149C9.6121 6.89461 9.59571 6.81221 9.59571 6.729C9.59571 6.64579 9.6121 6.56339 9.64394 6.48651C9.67579 6.40963 9.72246 6.33978 9.7813 6.28094C10.2094 5.85275 10.4498 5.27208 10.4498 4.66663C10.4498 4.06118 10.2094 3.48052 9.78132 3.05233M10.6775 2.15621L9.78132 3.05233M9.78132 3.05233C9.78131 3.05233 9.78131 3.05232 9.7813 3.05231L9.81666 3.01696L9.78132 3.05233ZM10.1762 9.76234L10.1777 9.76271C10.2185 9.59992 10.3223 9.45999 10.4662 9.37366C10.6101 9.28733 10.7824 9.26166 10.9453 9.30228L10.9453 9.30229C11.7363 9.50005 12.2377 10.0059 12.5249 10.5814C12.8025 11.1361 12.8837 11.7542 12.8837 12.25C12.8837 12.4179 12.8169 12.579 12.6982 12.6978C12.5794 12.8166 12.4183 12.8833 12.2503 12.8833C12.0824 12.8833 11.9213 12.8166 11.8025 12.6978C11.6837 12.579 11.617 12.4179 11.617 12.25C11.617 11.8714 11.5523 11.468 11.3925 11.1477L10.1762 9.76234ZM10.1762 9.76234V9.76944M10.1762 9.76234V9.76944M10.1762 9.76944C10.1377 9.93049 10.1638 10.1003 10.249 10.2424C10.3354 10.3864 10.4753 10.4901 10.6381 10.531L10.6381 10.531C11.0138 10.6249 11.2421 10.8476 11.3924 11.1476L10.1762 9.76944ZM4.2191 3.05207C4.64731 2.62386 5.22808 2.38329 5.83366 2.38329C6.43924 2.38329 7.02001 2.62386 7.44822 3.05207C7.87643 3.48027 8.11699 4.06105 8.11699 4.66663C8.11699 5.2722 7.87643 5.85298 7.44822 6.28119C7.02001 6.70939 6.43924 6.94996 5.83366 6.94996C5.22808 6.94996 4.64731 6.70939 4.2191 6.28119C3.79089 5.85298 3.55033 5.2722 3.55033 4.66663C3.55033 4.06105 3.79089 3.48027 4.2191 3.05207ZM3.32343 2.1564C2.65768 2.82215 2.28366 3.72511 2.28366 4.66663C2.28366 5.60814 2.65768 6.5111 3.32343 7.17685C3.98918 7.84261 4.89214 8.21663 5.83366 8.21663C6.77518 8.21663 7.67813 7.84261 8.34389 7.17685C9.00964 6.5111 9.38366 5.60814 9.38366 4.66663C9.38366 3.72511 9.00964 2.82215 8.34389 2.1564C7.67813 1.49064 6.77518 1.11663 5.83366 1.11663C4.89214 1.11663 3.98918 1.49064 3.32343 2.1564ZM2.38366 12.25C2.38366 11.2294 3.09004 10.55 3.79199 10.55H7.87533C8.57728 10.55 9.28366 11.2294 9.28366 12.25C9.28366 12.4179 9.35038 12.579 9.46916 12.6978C9.58793 12.8166 9.74902 12.8833 9.91699 12.8833C10.085 12.8833 10.2461 12.8166 10.3648 12.6978C10.4836 12.579 10.5503 12.4179 10.5503 12.25C10.5503 10.6939 9.43012 9.28329 7.87533 9.28329H3.79199C2.2372 9.28329 1.11699 10.6939 1.11699 12.25C1.11699 12.4179 1.18372 12.579 1.30249 12.6978C1.42126 12.8166 1.58236 12.8833 1.75033 12.8833C1.9183 12.8833 2.07939 12.8166 2.19816 12.6978C2.31693 12.579 2.38366 12.4179 2.38366 12.25Z" fill="#488FE0" stroke="#488FE0" stroke-width="0.1"/>
</svg>
