<svg width="37" height="37" viewBox="0 0 37 37" fill="none" xmlns="http://www.w3.org/2000/svg">
<circle opacity="0.1" cx="18.5" cy="18.5" r="18.5" fill="#488FE0"/>
<path d="M12.157 20.6144V19.0287H13.7428V20.6144H12.157ZM7.3999 12.6858C7.3999 11.8447 7.73403 11.038 8.32879 10.4433C8.92355 9.8485 9.73022 9.51437 10.5713 9.51437H21.6713C22.5124 9.51437 23.3191 9.8485 23.9139 10.4433C24.5086 11.038 24.8428 11.8447 24.8428 12.6858V22.9929C24.8428 23.2032 24.9263 23.4049 25.075 23.5536C25.2237 23.7023 25.4253 23.7858 25.6356 23.7858C25.8459 23.7858 26.0476 23.7023 26.1963 23.5536C26.3449 23.4049 26.4285 23.2032 26.4285 22.9929V12.6858C27.2696 12.6858 28.0763 13.0199 28.671 13.6147C29.2658 14.2094 29.5999 15.0161 29.5999 15.8572V22.9929C29.5999 24.0443 29.1822 25.0527 28.4388 25.7961C27.6953 26.5396 26.687 26.9572 25.6356 26.9572H11.3642C10.3128 26.9572 9.30446 26.5396 8.56101 25.7961C7.81757 25.0527 7.3999 24.0443 7.3999 22.9929V12.6858ZM11.3642 14.2715C11.1539 14.2715 10.9522 14.355 10.8036 14.5037C10.6549 14.6524 10.5713 14.8541 10.5713 15.0644C10.5713 15.2747 10.6549 15.4763 10.8036 15.625C10.9522 15.7737 11.1539 15.8572 11.3642 15.8572H20.8785C21.0888 15.8572 21.2904 15.7737 21.4391 15.625C21.5878 15.4763 21.6713 15.2747 21.6713 15.0644C21.6713 14.8541 21.5878 14.6524 21.4391 14.5037C21.2904 14.355 21.0888 14.2715 20.8785 14.2715H11.3642ZM11.3642 17.4429C11.1539 17.4429 10.9522 17.5265 10.8036 17.6752C10.6549 17.8239 10.5713 18.0255 10.5713 18.2358V21.4072C10.5713 21.6175 10.6549 21.8192 10.8036 21.9679C10.9522 22.1166 11.1539 22.2001 11.3642 22.2001H14.5356C14.7459 22.2001 14.9476 22.1166 15.0963 21.9679C15.2449 21.8192 15.3285 21.6175 15.3285 21.4072V18.2358C15.3285 18.0255 15.2449 17.8239 15.0963 17.6752C14.9476 17.5265 14.7459 17.4429 14.5356 17.4429H11.3642ZM17.707 17.4429C17.4968 17.4429 17.2951 17.5265 17.1464 17.6752C16.9977 17.8239 16.9142 18.0255 16.9142 18.2358C16.9142 18.4461 16.9977 18.6477 17.1464 18.7964C17.2951 18.9451 17.4968 19.0287 17.707 19.0287H20.8785C21.0888 19.0287 21.2904 18.9451 21.4391 18.7964C21.5878 18.6477 21.6713 18.4461 21.6713 18.2358C21.6713 18.0255 21.5878 17.8239 21.4391 17.6752C21.2904 17.5265 21.0888 17.4429 20.8785 17.4429H17.707ZM17.707 20.6144C17.4968 20.6144 17.2951 20.6979 17.1464 20.8466C16.9977 20.9953 16.9142 21.197 16.9142 21.4072C16.9142 21.6175 16.9977 21.8192 17.1464 21.9679C17.2951 22.1166 17.4968 22.2001 17.707 22.2001H20.8785C21.0888 22.2001 21.2904 22.1166 21.4391 21.9679C21.5878 21.8192 21.6713 21.6175 21.6713 21.4072C21.6713 21.197 21.5878 20.9953 21.4391 20.8466C21.2904 20.6979 21.0888 20.6144 20.8785 20.6144H17.707Z" fill="#488FE0"/>
</svg>
