<svg width="27" height="27" viewBox="0 0 27 27" fill="none" xmlns="http://www.w3.org/2000/svg">
<path d="M24.4 22.8V13.7925C23.8625 13.9933 23.2956 14.1045 22.722 14.1215C22.663 14.1215 22.607 14.124 22.552 14.124C21.5484 14.1267 20.5639 13.8497 19.709 13.324C18.8542 13.8496 17.8699 14.1266 16.8665 14.124C15.8672 14.1254 14.8878 13.8446 14.041 13.314C13.1824 13.8466 12.1914 14.1273 11.181 14.124C10.1748 14.1253 9.18901 13.8406 8.3385 13.303C7.48799 13.8406 6.50217 14.1253 5.496 14.124C5.4415 14.124 5.3865 14.124 5.3275 14.1215H5.3245C4.7342 14.104 4.15114 13.9866 3.6 13.7745V22.8H2V24.4H26V22.8H24.4ZM12.4 19.6H7.6V15.8C7.6 15.747 7.62107 15.6961 7.65858 15.6586C7.69609 15.6211 7.74696 15.6 7.8 15.6H12.2C12.253 15.6 12.3039 15.6211 12.3414 15.6586C12.3789 15.6961 12.4 15.747 12.4 15.8V19.6ZM20.4 22.8H16.4V15.8C16.4 15.747 16.4211 15.6961 16.4586 15.6586C16.4961 15.6211 16.547 15.6 16.6 15.6H20.2C20.253 15.6 20.3039 15.6211 20.3414 15.6586C20.3789 15.6961 20.4 15.747 20.4 15.8V22.8ZM25.8285 8.914L23.4945 3.6C22.8 2 22.8 2 21.2 2H6.8C5.2 2 5.2 2 4.503 3.6L2.169 8.914C1.719 9.8845 2.3135 10.881 2.314 10.8815L2.3345 10.9145C2.3555 10.9475 2.391 11.002 2.4155 11.033C2.4205 11.0395 2.425 11.0465 2.4295 11.053L2.6915 11.3725L2.957 11.6295L2.978 11.6475C3.12561 11.7735 3.2835 11.8868 3.45 11.9865V11.989C3.99415 12.3186 4.61411 12.5024 5.25 12.5225H5.3735C6.33564 12.5243 7.26271 12.1614 7.968 11.507C8.06984 11.4126 8.16617 11.3125 8.2565 11.207C8.34714 11.3123 8.44362 11.4125 8.5455 11.507C9.25079 12.1614 10.1779 12.5243 11.14 12.5225C12.304 12.5225 13.3435 12.0225 14.0215 11.2445C14.0225 11.2436 14.0239 11.243 14.0253 11.243C14.0266 11.243 14.028 11.2436 14.029 11.2445L14.312 11.5075C15.0174 12.162 15.9447 12.5249 16.907 12.523C18.0715 12.523 19.1125 12.023 19.79 11.2425C20.468 12.023 21.5085 12.523 22.6735 12.523H22.798C23.4179 12.4999 24.0211 12.3155 24.548 11.988C24.5955 11.9595 24.641 11.9295 24.687 11.8995C25.0424 11.6598 25.3517 11.358 25.6 11.0085L25.7 10.8585C25.745 10.7565 26.2605 9.8435 25.8285 8.914Z" fill="#9E9E9E"/>
</svg>
