<svg width="259" height="89" viewBox="0 0 259 89" fill="none" xmlns="http://www.w3.org/2000/svg">
<path d="M192.052 25.265C193.62 25.8476 195.334 25.8864 196.964 25.5121C203.796 23.9441 227.285 19.7924 223.203 37.9945C222.315 41.6059 208.557 61.8305 228.149 69.2134C229.585 69.7612 231.103 70.0602 232.639 70.0976C238.671 70.2219 250.625 68.7978 255.628 63.705C261.671 57.5531 255.069 60.4705 255.069 60.4705C255.069 60.4705 232.093 70.4968 223.977 59.8596C223.074 58.676 222.499 56.957 222.335 55.4771C222.049 52.9114 223.188 49.5208 224.685 46.5692C226.71 42.5745 236.435 24.6046 215.321 19.3697C210.458 18.2115 203.393 17.171 194.285 21.006C188.972 23.2428 190.148 24.5577 192.052 25.265Z" fill="#E0E0E0"/>
<path d="M196.756 18.5551L190.641 20.8439C188.53 21.6339 187.459 23.9857 188.249 26.0967L188.552 26.9067C189.342 29.0177 191.694 30.0885 193.805 29.2984L199.92 27.0097C202.031 26.2196 203.102 23.8678 202.312 21.7568L202.009 20.9469C201.219 18.8359 198.867 17.7651 196.756 18.5551Z" fill="#BDBDBD"/>
<path d="M159.218 25.179L139.05 32.7271C137.994 33.1221 137.459 34.298 137.854 35.3535L137.933 35.5658C138.328 36.6213 139.504 37.1567 140.56 36.7617L160.728 29.2136C161.783 28.8185 162.319 27.6426 161.924 26.5871L161.844 26.3749C161.449 25.3194 160.273 24.7839 159.218 25.179Z" fill="white"/>
<path d="M164.845 40.218L144.677 47.7662C143.621 48.1612 143.086 49.3371 143.481 50.3926L143.56 50.6049C143.955 51.6604 145.131 52.1958 146.187 51.8008L166.355 44.2526C167.41 43.8575 167.946 42.6816 167.551 41.6261L167.471 41.4139C167.076 40.3584 165.9 39.8229 164.845 40.218Z" fill="white"/>
<path d="M183.467 14.9157L167.121 21.0333C165.01 21.8234 163.939 24.1752 164.729 26.2862L170.31 41.1974C171.1 43.3084 173.452 44.3793 175.563 43.5892L191.909 37.4716C194.02 36.6815 195.091 34.3297 194.301 32.2187L188.72 17.3075C187.93 15.1965 185.578 14.1256 183.467 14.9157Z" fill="#E0E0E0"/>
<path d="M168.809 18.8278L152.463 24.9454C150.352 25.7355 149.281 28.0873 150.071 30.1983L156.729 47.988C157.519 50.099 159.871 51.1699 161.982 50.3798L178.328 44.2622C180.439 43.4721 181.51 41.1203 180.72 39.0093L174.062 21.2196C173.272 19.1086 170.92 18.0377 168.809 18.8278Z" fill="#E0E0E0"/>
<path d="M171.37 15.2181L171.242 15.266C169.834 15.7927 169.12 17.3606 169.647 18.7679L178.974 43.6894C179.501 45.0968 181.069 45.8107 182.476 45.284L182.604 45.236C184.012 44.7093 184.726 43.1414 184.199 41.7341L174.872 16.8126C174.345 15.4052 172.777 14.6913 171.37 15.2181Z" fill="#E0E0E0"/>
<path d="M4.6942 31.1515C4.6942 31.1515 37.5222 21.926 32.7561 43.1807C31.9284 46.5438 20.014 63.8605 34.2059 72.1746C37.2532 73.9599 40.7699 74.7507 44.3014 74.7322C50.6332 74.6993 60.671 73.4806 65.1804 68.8907C71.2239 62.7386 64.6215 65.6561 64.6215 65.6561C64.6215 65.6561 45.7679 73.4114 36.0684 67.2294C32.7565 65.1186 31.2553 61.0316 32.1546 57.2084C32.6143 55.3094 33.3143 53.4767 34.2377 51.7548C36.3472 47.8039 45.9879 29.7901 24.8742 24.5553C20.0105 23.397 12.9462 22.3566 3.83755 26.1916C-5.27113 30.0266 4.6942 31.1515 4.6942 31.1515Z" fill="#E0E0E0"/>
<path d="M69.5958 60.8989L63.4805 63.1876C61.3695 63.9777 60.2987 66.3295 61.0888 68.4405L61.3919 69.2505C62.182 71.3615 64.5338 72.4323 66.6448 71.6422L72.7601 69.3535C74.8711 68.5634 75.9419 66.2116 75.1519 64.1006L74.8487 63.2906C74.0586 61.1796 71.7069 60.1088 69.5958 60.8989Z" fill="#BDBDBD"/>
<path d="M79.9266 50.8385L70.8633 54.2306C68.7523 55.0207 67.6815 57.3724 68.4716 59.4835L72.8418 71.1604C73.6319 73.2714 75.9837 74.3423 78.0947 73.5522L87.1579 70.1602C89.2689 69.3701 90.3397 67.0183 89.5497 64.9073L85.1794 53.2303C84.3894 51.1193 82.0376 50.0485 79.9266 50.8385Z" fill="#E0E0E0"/>
<path d="M95.0139 41.8488L81.4981 46.9073C79.3871 47.6974 78.3163 50.0492 79.1063 52.1602L85.7644 69.95C86.5544 72.061 88.9062 73.1318 91.0172 72.3417L104.533 67.2833C106.644 66.4932 107.715 64.1414 106.925 62.0304L100.267 44.2406C99.4767 42.1296 97.1249 41.0588 95.0139 41.8488Z" fill="#E0E0E0"/>
<path d="M97.8795 38.1634L97.7513 38.2113C96.344 38.7381 95.6301 40.3059 96.1568 41.7132L105.484 66.6347C106.011 68.0421 107.579 68.7559 108.986 68.2292L109.114 68.1813C110.521 67.6545 111.235 66.0867 110.709 64.6793L101.381 39.7579C100.855 38.3505 99.2869 37.6367 97.8795 38.1634Z" fill="#E0E0E0"/>
<path d="M132.389 22.287C131.903 22.233 131.456 21.9922 131.143 21.6154C130.83 21.2386 130.676 20.7551 130.712 20.2668L131.721 1.84672C131.781 0.746409 132.71 -0.0895688 133.765 0.00770107L135.234 0.143743C136.288 0.241013 137.043 1.23208 136.896 2.32463L134.418 20.6087C134.361 21.0957 134.118 21.542 133.74 21.8546C133.362 22.1673 132.879 22.3221 132.389 22.287V22.287Z" fill="#E0E0E0"/>
<path d="M123.682 23.8755C123.531 23.92 123.372 23.9342 123.215 23.9174C123.058 23.9005 122.906 23.853 122.768 23.7774C122.629 23.7017 122.507 23.5996 122.408 23.4767C122.309 23.3539 122.235 23.2127 122.191 23.0613L118.589 11.6031C118.485 11.2772 118.513 10.9231 118.669 10.6185C118.825 10.3138 119.096 10.0835 119.422 9.97806L120.354 9.69673C120.514 9.65003 120.682 9.63701 120.847 9.65849C121.013 9.67997 121.172 9.73548 121.314 9.82151C121.457 9.90754 121.58 10.0222 121.676 10.1583C121.773 10.2944 121.84 10.449 121.873 10.6123L124.542 22.352C124.617 22.6676 124.569 22.9996 124.41 23.2819C124.251 23.5642 123.991 23.7762 123.682 23.8755V23.8755Z" fill="#E0E0E0"/>
<path d="M118.822 30.4833C118.177 31.2828 116.879 31.2733 115.88 30.4617L98.1445 16.0519C97.0851 15.1912 96.7725 13.7664 97.4571 12.9189L98.4111 11.7369C99.0957 10.889 100.502 10.9585 101.504 11.8898L118.286 27.4817C119.231 28.3597 119.467 29.6838 118.822 30.4833Z" fill="#E0E0E0"/>
<path d="M127.02 67.7018C127.477 67.8783 127.847 68.2252 128.053 68.6694C128.26 69.1136 128.285 69.6205 128.125 70.0833L122.446 87.6344C122.107 88.6829 120.995 89.2533 120 88.8905L118.614 88.384C117.619 88.0207 117.142 86.8692 117.564 85.8511L124.63 68.8064C124.809 68.3498 125.158 67.9801 125.603 67.7743C126.048 67.5685 126.556 67.5425 127.02 67.7018V67.7018Z" fill="#E0E0E0"/>
<path d="M135.847 68.3882C136.005 68.3838 136.162 68.4106 136.309 68.4669C136.457 68.5233 136.592 68.6081 136.706 68.7166C136.821 68.825 136.913 68.955 136.977 69.0991C137.042 69.2431 137.077 69.3985 137.081 69.5562L137.637 81.5543C137.655 81.8961 137.537 82.2311 137.308 82.4858C137.079 82.7405 136.759 82.8942 136.417 82.913L135.444 82.9468C135.277 82.9511 135.111 82.9208 134.957 82.8578C134.803 82.7948 134.663 82.7005 134.547 82.5809C134.431 82.4612 134.341 82.3189 134.283 82.1627C134.225 82.0065 134.2 81.84 134.209 81.6736L134.627 69.6416C134.636 69.3176 134.766 69.0087 134.992 68.7764C135.218 68.5442 135.524 68.4055 135.847 68.3882V68.3882Z" fill="#E0E0E0"/>
<path d="M142.23 63.2416C143.059 62.6334 144.311 62.974 145.069 64.0138L158.537 82.4747C159.341 83.5776 159.28 85.0344 158.401 85.6795L157.176 86.5785C156.298 87.2236 154.957 86.7972 154.225 85.6407L141.981 66.28C141.293 65.1903 141.402 63.8497 142.23 63.2416Z" fill="#E0E0E0"/>
</svg>
