<svg width="34" height="34" viewBox="0 0 34 34" fill="none" xmlns="http://www.w3.org/2000/svg">
<path d="M7.08301 12.9622V9.91634C7.08301 8.35801 8.35801 7.08301 9.91634 7.08301H24.083C25.6413 7.08301 26.9163 8.35801 26.9163 9.91634V12.9763C25.273 13.5572 24.083 15.1155 24.083 16.9572V19.833H9.91634V16.943C9.91634 15.1155 8.72634 13.543 7.08301 12.9622ZM28.333 14.1663C26.7747 14.1663 25.4997 15.4413 25.4997 16.9997V21.2497H8.49967V16.9997C8.49967 16.2482 8.20116 15.5276 7.66981 14.9962C7.13846 14.4649 6.41779 14.1663 5.66634 14.1663C4.91489 14.1663 4.19422 14.4649 3.66287 14.9962C3.13152 15.5276 2.83301 16.2482 2.83301 16.9997V24.083C2.83301 25.6413 4.10801 26.9163 5.66634 26.9163V29.7497H8.49967V26.9163H25.4997V29.7497H28.333V26.9163C29.8913 26.9163 31.1663 25.6413 31.1663 24.083V16.9997C31.1663 15.4413 29.8913 14.1663 28.333 14.1663Z" fill="#9E9E9E"/>
</svg>
