<svg width="15" height="18" viewBox="0 0 15 18" fill="none" xmlns="http://www.w3.org/2000/svg">
<path d="M0 15.4211C0 15.884 0.252856 16.328 0.702944 16.6554C1.15303 16.9827 1.76348 17.1666 2.4 17.1666H4C4.63652 17.1666 5.24697 16.9827 5.69706 16.6554C6.14714 16.328 6.4 15.884 6.4 15.4211L6.4 2.62049C6.4 2.15755 6.14714 1.71357 5.69706 1.38621C5.24697 1.05886 4.63652 0.87496 4 0.87496H2.4C1.76348 0.87496 1.15303 1.05886 0.702944 1.38621C0.252856 1.71357 0 2.15755 0 2.62049L0 15.4211ZM8.6 15.4211C8.6 15.884 8.85286 16.328 9.30294 16.6554C9.75303 16.9827 10.3635 17.1666 11 17.1666H12.6C13.2365 17.1666 13.847 16.9827 14.2971 16.6554C14.7471 16.328 15 15.884 15 15.4211L15 2.62049C15 2.15755 14.7471 1.71357 14.2971 1.38621C13.847 1.05886 13.2365 0.87496 12.6 0.87496H11C10.3635 0.87496 9.75303 1.05886 9.30294 1.38621C8.85286 1.71357 8.6 2.15755 8.6 2.62049L8.6 15.4211Z" fill="#9E9E9E"/>
</svg>
