<svg width="23" height="22" viewBox="0 0 23 22" fill="none" xmlns="http://www.w3.org/2000/svg">
<path d="M22.5264 11.1295L12.4702 1.08067C12.3978 1.00812 12.3118 0.950563 12.2171 0.911292C12.1224 0.872021 12.021 0.851807 11.9185 0.851807C11.816 0.851807 11.7145 0.872021 11.6198 0.911292C11.5251 0.950563 11.4391 1.00812 11.3667 1.08067L1.31055 11.1295C1.01758 11.4225 0.851562 11.8204 0.851562 12.2355C0.851562 13.0973 1.55225 13.798 2.41406 13.798H3.47363V20.9684C3.47363 21.4005 3.82275 21.7496 4.25488 21.7496H10.356V16.2809H13.0903V21.7496H19.582C20.0142 21.7496 20.3633 21.4005 20.3633 20.9684V13.798H21.4229C21.8379 13.798 22.2358 13.6344 22.5288 13.339C23.1367 12.7286 23.1367 11.7398 22.5264 11.1295V11.1295Z" fill="#9E9E9E"/>
</svg>
