<svg width="34" height="34" viewBox="0 0 34 34" fill="none" xmlns="http://www.w3.org/2000/svg">
<circle opacity="0.1" cx="17" cy="17" r="17" fill="#488FE0"/>
<path d="M8.74984 9.6665C8.26361 9.6665 7.79729 9.85966 7.45347 10.2035C7.10966 10.5473 6.9165 11.0136 6.9165 11.4998V21.5832H8.74984C8.74984 22.3125 9.03957 23.012 9.55529 23.5277C10.071 24.0434 10.7705 24.3332 11.4998 24.3332C12.2292 24.3332 12.9287 24.0434 13.4444 23.5277C13.9601 23.012 14.2498 22.3125 14.2498 21.5832H19.7498C19.7498 22.3125 20.0396 23.012 20.5553 23.5277C21.071 24.0434 21.7705 24.3332 22.4998 24.3332C23.2292 24.3332 23.9287 24.0434 24.4444 23.5277C24.9601 23.012 25.2498 22.3125 25.2498 21.5832H27.0832V16.9998L24.3332 13.3332H21.5832V9.6665H8.74984ZM15.1665 11.4998L18.8332 15.1665L15.1665 18.8332V16.0832H9.6665V14.2498H15.1665V11.4998ZM21.5832 14.7082H23.8748L25.6807 16.9998H21.5832V14.7082ZM11.4998 20.2082C11.8645 20.2082 12.2142 20.353 12.4721 20.6109C12.73 20.8688 12.8748 21.2185 12.8748 21.5832C12.8748 21.9478 12.73 22.2976 12.4721 22.5554C12.2142 22.8133 11.8645 22.9582 11.4998 22.9582C11.1352 22.9582 10.7854 22.8133 10.5276 22.5554C10.2697 22.2976 10.1248 21.9478 10.1248 21.5832C10.1248 21.2185 10.2697 20.8688 10.5276 20.6109C10.7854 20.353 11.1352 20.2082 11.4998 20.2082ZM22.4998 20.2082C22.8645 20.2082 23.2142 20.353 23.4721 20.6109C23.73 20.8688 23.8748 21.2185 23.8748 21.5832C23.8748 21.9478 23.73 22.2976 23.4721 22.5554C23.2142 22.8133 22.8645 22.9582 22.4998 22.9582C22.1352 22.9582 21.7854 22.8133 21.5276 22.5554C21.2697 22.2976 21.1248 21.9478 21.1248 21.5832C21.1248 21.2185 21.2697 20.8688 21.5276 20.6109C21.7854 20.353 22.1352 20.2082 22.4998 20.2082Z" fill="#488FE0"/>
</svg>
