<svg width="27" height="27" viewBox="0 0 27 27" fill="none" xmlns="http://www.w3.org/2000/svg">
<path d="M21.5545 3L16.1227 7.88864V19.8386L21.5545 14.95V3ZM7.975 6.25909C5.85659 6.25909 3.57523 6.69364 2 7.88864V23.8147C2 24.0863 2.27159 24.3579 2.54318 24.3579C2.65182 24.3579 2.70614 24.2819 2.81477 24.2819C4.28136 23.5757 6.39977 23.0977 7.975 23.0977C10.0934 23.0977 12.3748 23.5323 13.95 24.7273C15.4166 23.8039 18.0782 23.0977 19.925 23.0977C21.7175 23.0977 23.5643 23.4345 25.0852 24.2493C25.1939 24.3036 25.2482 24.2819 25.3568 24.2819C25.6284 24.2819 25.9 24.0103 25.9 23.7387V7.88864C25.2482 7.39977 24.542 7.07386 23.7273 6.80227V21.4682C22.5323 21.088 21.2286 20.925 19.925 20.925C18.0782 20.925 15.4166 21.6311 13.95 22.5545V7.88864C12.3748 6.69364 10.0934 6.25909 7.975 6.25909Z" fill="#9E9E9E"/>
</svg>
