<svg width="95" height="68" viewBox="0 0 95 68" fill="none" xmlns="http://www.w3.org/2000/svg">
<rect x="0.280884" y="31.45" width="54.4" height="5.1" fill="#8EF50C"/>
<circle cx="55.5309" cy="34" r="34" fill="#8EF50C"/>
<path d="M93.2092 35.6935C93.9668 35.0175 93.9668 33.8325 93.2092 33.1566L90.4502 30.6947C89.3545 29.7171 87.6184 30.4948 87.6184 31.9632V36.8869C87.6184 38.3552 89.3545 39.1329 90.4502 38.1553L93.2092 35.6935Z" fill="#8EF50C"/>
<path d="M18.7025 35.6935C17.9449 35.0175 17.9449 33.8325 18.7025 33.1566L21.4616 30.6947C22.5572 29.7171 24.2934 30.4948 24.2934 31.9632V36.8869C24.2934 38.3552 22.5572 39.1329 21.4616 38.1553L18.7025 35.6935Z" fill="#8EF50C"/>
<mask id="mask0_1137_733" style="mask-type:alpha" maskUnits="userSpaceOnUse" x="25" y="4" width="61" height="60">
<circle cx="55.531" cy="34" r="28.05" stroke="white" stroke-width="3.4"/>
</mask>
<g mask="url(#mask0_1137_733)">
<rect x="22.3809" y="36.55" width="65.45" height="27.2" fill="white"/>
</g>
</svg>
