<svg width="312" height="312" viewBox="0 0 312 312" fill="none" xmlns="http://www.w3.org/2000/svg">
<circle opacity="0.1" cx="156" cy="156" r="156" fill="url(#paint0_linear_689_1163)"/>
<circle opacity="0.1" cx="156" cy="156" r="118" fill="url(#paint1_linear_689_1163)"/>
<path d="M271.193 273.352H55.2517V274H271.193V273.352Z" fill="white"/>
<path d="M106.132 245C82.5278 245.081 59.8186 229.347 52.7164 207.987C50.0437 199.932 49.9318 190.004 56.4716 184.276C61.5631 179.82 69.0522 179.25 75.8822 178.156C82.7122 177.063 90.3193 174.476 92.7894 168.335C94.6459 163.731 92.9739 158.617 92.5718 153.7C91.571 141.507 99.4622 129.108 111.317 124.273C123.172 119.438 138.075 122.519 146.722 131.589C150.151 135.182 152.594 139.517 155.732 143.34C158.87 147.163 163.04 150.61 168.095 151.316C176.824 152.528 184.059 145.497 191.838 141.553C206.254 134.249 226.003 138.523 235.678 151.016C239.675 156.187 242.076 162.486 246.908 166.969C251.609 171.328 258.094 173.488 263.298 177.296C275.041 185.893 278.391 202.494 272.873 215.554C267.355 228.614 254.321 237.999 240.068 241.885C225.816 245.772 210.481 244.684 196.089 241.279C190.323 239.913 184.413 238.168 178.553 239.11C172.403 240.098 167.248 243.885 161.83 246.814C142.447 257.281 116.962 256.623 98.2166 245.169L106.132 245Z" fill="white" fill-opacity="0.1"/>
<path d="M77.9602 189.261V189.564C77.5822 202.448 78.9035 212.488 81.1348 220.313L87.7592 224.442L82.317 223.596L82.1628 223.572C85.1167 232.173 89.2044 237.728 93.0654 241.303C95.0399 243.155 97.2685 244.715 99.6838 245.935L100.056 246.117C100.358 246.265 100.66 246.395 100.939 246.517L104.585 246.707C104.633 246.538 104.682 246.368 104.727 246.198C104.757 246.092 104.787 245.986 104.812 245.877C104.836 245.768 104.89 245.596 104.923 245.456C109.232 228.828 103.805 215.562 96.7117 206.108C96.6922 206.074 96.6689 206.042 96.6422 206.014C94.343 202.978 91.7801 200.151 88.9837 197.568L87.3722 201.679L87.1394 195.923C84.3523 193.482 81.3566 191.29 78.1869 189.374L77.9602 189.261Z" fill="#7FC6A6"/>
<path d="M77.8302 189.322L77.9511 189.576L85.4342 205.278L85.5703 205.556L87.6081 209.837L87.6807 209.979L94.1871 223.63L94.1962 223.648L104.796 245.892L104.957 246.223L105.211 246.753L105.528 246.768L105.277 246.241L104.908 245.468L94.4472 223.517L94.2506 223.112L78.1719 189.383L78.0842 189.198L77.8302 189.322Z" fill="white"/>
<path d="M78.4446 203.511L78.3058 203.714L87.5852 210.108L87.724 209.906L78.4446 203.511Z" fill="white"/>
<path d="M78.3793 200.418L78.2405 200.62L85.5145 205.633L85.6533 205.431L78.3793 200.418Z" fill="white"/>
<path d="M96.4676 206.008L94.1837 223.652L94.4266 223.683L96.7105 206.039L96.4676 206.008Z" fill="white"/>
<path d="M106.033 249.57C106.033 249.57 97.395 253.66 85.1046 246.32L89.0896 244.423L82.5861 244.687C77.7878 241.324 72.524 236.205 67.0576 228.486L68.5693 227.765L66.598 227.844C65.6748 226.525 64.7476 225.13 63.8164 223.66C66.7413 223.482 69.6764 223.574 72.5845 223.936L75.233 227.529L74.4832 224.196C85.0442 225.796 100.406 231.336 106.033 249.57Z" fill="#3F9896"/>
<path d="M63.8941 223.552L63.7552 223.79L106.617 248.895L106.756 248.657L63.8941 223.552Z" fill="white"/>
<path d="M74.9813 230.166L68.8459 230.8L68.8723 231.056L75.0076 230.422L74.9813 230.166Z" fill="white"/>
<path d="M77.8916 231.837L70.7358 233.114L70.7809 233.367L77.9367 232.09L77.8916 231.837Z" fill="white"/>
<path d="M104.131 154.354V265.305C104.131 265.673 104.204 266.039 104.345 266.379C104.486 266.72 104.692 267.029 104.952 267.289C105.213 267.55 105.522 267.757 105.862 267.897C106.202 268.038 106.566 268.11 106.934 268.11H161.356C162.099 268.11 162.812 267.815 163.337 267.289C163.863 266.763 164.158 266.049 164.159 265.305V154.354C164.159 153.985 164.087 153.62 163.947 153.279C163.806 152.938 163.599 152.628 163.339 152.368C163.079 152.107 162.77 151.9 162.429 151.759C162.089 151.618 161.725 151.546 161.356 151.546H106.934C106.566 151.546 106.201 151.618 105.861 151.759C105.521 151.9 105.212 152.107 104.951 152.368C104.691 152.628 104.484 152.938 104.344 153.279C104.203 153.62 104.131 153.985 104.131 154.354Z" fill="#F2C94C"/>
<path d="M101.552 154.354V265.305C101.552 265.673 101.625 266.039 101.766 266.379C101.907 266.72 102.113 267.029 102.373 267.289C102.634 267.55 102.943 267.757 103.283 267.897C103.623 268.038 103.987 268.11 104.355 268.11H158.777C159.52 268.11 160.233 267.815 160.758 267.289C161.284 266.763 161.579 266.049 161.58 265.305V154.354C161.581 153.985 161.508 153.62 161.368 153.279C161.227 152.938 161.02 152.628 160.76 152.368C160.5 152.107 160.191 151.9 159.85 151.759C159.51 151.618 159.146 151.546 158.777 151.546H104.355C103.987 151.546 103.622 151.618 103.282 151.759C102.942 151.9 102.633 152.107 102.372 152.368C102.112 152.628 101.905 152.938 101.765 153.279C101.624 153.62 101.552 153.985 101.552 154.354Z" fill="#F4D60C"/>
<path d="M105.882 165.369V253.308C105.882 255.099 107.239 256.553 108.905 256.553H154.638C156.313 256.553 157.662 255.099 157.662 253.308V165.369C157.662 163.575 156.307 162.124 154.638 162.124H108.911C107.239 162.124 105.882 163.575 105.882 165.369Z" fill="white"/>
<path d="M104.573 253.308V165.369C104.557 164.354 104.942 163.375 105.646 162.645C106.349 161.916 107.313 161.495 108.325 161.476H155.225C156.238 161.494 157.202 161.915 157.906 162.644C158.61 163.374 158.996 164.354 158.98 165.369V253.308C158.996 254.323 158.61 255.303 157.906 256.033C157.202 256.763 156.238 257.183 155.225 257.201H108.325C107.313 257.182 106.349 256.762 105.646 256.032C104.942 255.302 104.557 254.323 104.573 253.308ZM108.325 162.776C107.656 162.794 107.022 163.077 106.561 163.563C106.1 164.049 105.851 164.699 105.867 165.369V253.308C105.851 253.979 106.1 254.628 106.561 255.114C107.022 255.6 107.656 255.883 108.325 255.902H155.225C155.894 255.883 156.528 255.6 156.989 255.114C157.45 254.628 157.699 253.979 157.683 253.308V165.369C157.699 164.699 157.45 164.049 156.989 163.563C156.528 163.077 155.894 162.794 155.225 162.776H108.325Z" fill="#F5F5F5"/>
<path d="M158.783 268.337H114.42V267.883H158.783C159.466 267.883 160.121 267.611 160.604 267.128C161.087 266.644 161.359 265.989 161.359 265.305V154.354C161.359 153.67 161.087 153.014 160.604 152.53C160.121 152.046 159.466 151.774 158.783 151.773H104.361V151.319H158.783C159.585 151.319 160.354 151.638 160.921 152.206C161.488 152.774 161.807 153.545 161.807 154.348V265.305C161.807 265.703 161.729 266.097 161.578 266.465C161.426 266.833 161.203 267.167 160.922 267.449C160.642 267.73 160.308 267.954 159.941 268.106C159.574 268.259 159.181 268.337 158.783 268.337Z" fill="white"/>
<path d="M191.452 145.39C188.712 145.468 186.058 146.358 183.823 147.948C181.588 149.537 179.874 151.755 178.898 154.321C177.921 156.887 177.726 159.685 178.336 162.362C178.947 165.039 180.336 167.474 182.328 169.36C184.32 171.246 186.826 172.497 189.528 172.956C192.23 173.415 195.007 173.061 197.508 171.939C200.01 170.817 202.122 168.976 203.58 166.651C205.037 164.325 205.773 161.619 205.696 158.874C205.591 155.193 204.032 151.705 201.361 149.176C198.69 146.648 195.125 145.286 191.452 145.39ZM202.996 158.953C203.057 161.149 202.472 163.314 201.312 165.179C200.153 167.043 198.47 168.524 196.475 169.436C194.48 170.347 192.261 170.65 190.096 170.305C187.93 169.96 185.914 168.984 184.3 167.497C182.685 166.011 181.544 164.08 181.018 161.947C180.493 159.815 180.606 157.574 181.344 155.505C182.083 153.436 183.413 151.632 185.169 150.317C186.926 149.001 189.03 148.234 191.219 148.11H191.522C194.424 148.032 197.243 149.089 199.381 151.058C201.519 153.028 202.807 155.754 202.971 158.659C202.986 158.75 202.993 158.85 202.996 158.953Z" fill="#FCC659"/>
<path d="M202.98 158.647C202.98 158.75 202.98 158.85 202.996 158.95C203.057 161.146 202.472 163.311 201.312 165.176C200.153 167.04 198.47 168.521 196.475 169.433C194.48 170.344 192.261 170.647 190.096 170.302C187.93 169.957 185.914 168.98 184.3 167.494C182.685 166.008 181.544 164.077 181.018 161.944C180.492 159.811 180.606 157.571 181.344 155.502C182.083 153.433 183.413 151.629 185.169 150.313C186.926 148.998 189.03 148.231 191.219 148.107H191.521C194.424 148.026 197.245 149.081 199.384 151.049C201.523 153.016 202.813 155.742 202.98 158.647Z" fill="#F49B51"/>
<path d="M225.009 171.146C222.703 170.961 220.394 171.466 218.373 172.596C216.353 173.726 214.712 175.431 213.659 177.495C212.606 179.559 212.187 181.89 212.455 184.192C212.723 186.495 213.667 188.666 215.167 190.432C216.667 192.197 218.656 193.477 220.881 194.11C223.107 194.743 225.471 194.701 227.672 193.989C229.874 193.276 231.816 191.926 233.252 190.108C234.688 188.29 235.554 186.086 235.74 183.775C235.863 182.24 235.684 180.695 235.211 179.23C234.739 177.764 233.983 176.406 232.986 175.233C231.99 174.06 230.773 173.095 229.404 172.394C228.035 171.693 226.542 171.269 225.009 171.146ZM233.475 183.588C233.327 185.437 232.638 187.201 231.494 188.66C230.351 190.12 228.803 191.209 227.046 191.791C225.288 192.374 223.397 192.425 221.611 191.937C219.825 191.449 218.221 190.445 217.001 189.049C215.782 187.653 215 185.928 214.753 184.089C214.506 182.251 214.806 180.38 215.615 178.711C216.424 177.042 217.705 175.649 219.3 174.706C220.894 173.763 222.731 173.312 224.58 173.409L224.84 173.427C227.284 173.627 229.554 174.773 231.17 176.621C232.785 178.47 233.618 180.876 233.493 183.33C233.475 183.415 233.472 183.5 233.463 183.588H233.475Z" fill="#FCC659"/>
<path d="M233.481 183.33C233.481 183.415 233.481 183.5 233.463 183.588C233.315 185.437 232.626 187.201 231.482 188.66C230.339 190.12 228.791 191.209 227.034 191.791C225.276 192.374 223.385 192.425 221.599 191.937C219.812 191.449 218.209 190.445 216.989 189.049C215.77 187.653 214.988 185.928 214.741 184.089C214.494 182.251 214.794 180.38 215.603 178.711C216.411 177.042 217.693 175.649 219.288 174.706C220.882 173.763 222.719 173.312 224.568 173.409L224.828 173.427C227.272 173.627 229.542 174.773 231.158 176.621C232.773 178.47 233.606 180.876 233.481 183.33Z" fill="#F49B51"/>
<path d="M223.098 190.007L223.192 188.235C222.245 188.183 221.331 187.868 220.553 187.326L221.036 186.172C221.762 186.7 222.623 187.008 223.519 187.059C224.764 187.126 225.635 186.453 225.696 185.451C225.756 184.448 225.091 183.851 223.824 183.257C222.077 182.461 221.015 181.594 221.103 180.067C221.182 178.61 222.273 177.559 223.9 177.38L223.993 175.608L225.079 175.666L224.988 177.368C225.788 177.416 226.561 177.67 227.235 178.104L226.727 179.231C226.08 178.798 225.327 178.552 224.55 178.519C223.201 178.447 222.651 179.228 222.612 179.931C222.563 180.84 223.189 181.334 224.68 182.052C226.445 182.885 227.307 183.845 227.226 185.408C227.153 186.796 226.119 188.044 224.299 188.247L224.205 190.064L223.098 190.007Z" fill="#FCC659"/>
<path d="M216.238 176.084C216.729 176.572 217.041 177.213 217.124 177.901C217.589 177.385 218.214 177.042 218.899 176.929C218.407 176.441 218.095 175.8 218.013 175.111C217.548 175.627 216.923 175.97 216.238 176.084Z" fill="#FFE6A6"/>
<path d="M169.039 215.075C172.846 214.493 186.681 209.192 186.681 209.192C186.681 209.192 185.662 207.213 182.001 207.738C178.339 208.262 168.979 210.649 168.979 210.649L169.039 215.075Z" fill="#FCB47E"/>
<path d="M170.886 182.779C168.012 182.682 165.174 183.442 162.731 184.961C160.287 186.481 158.349 188.692 157.16 191.316C155.971 193.939 155.585 196.857 156.051 199.701C156.518 202.544 157.815 205.185 159.779 207.289C161.743 209.394 164.286 210.868 167.087 211.524C169.887 212.18 172.818 211.99 175.51 210.977C178.203 209.964 180.535 208.174 182.211 205.833C183.888 203.492 184.834 200.705 184.93 197.826C184.995 195.914 184.682 194.008 184.011 192.217C183.34 190.426 182.323 188.785 181.019 187.387C179.715 185.99 178.149 184.864 176.41 184.073C174.672 183.282 172.795 182.842 170.886 182.779ZM182.097 197.729C182.02 200.032 181.267 202.262 179.932 204.139C178.597 206.015 176.739 207.456 174.592 208.281C172.444 209.106 170.101 209.279 167.856 208.777C165.611 208.275 163.563 207.122 161.969 205.46C160.374 203.799 159.304 201.704 158.892 199.436C158.48 197.169 158.744 194.83 159.651 192.712C160.558 190.594 162.068 188.791 163.992 187.528C165.916 186.265 168.169 185.598 170.469 185.611C170.578 185.611 170.684 185.611 170.793 185.611C173.839 185.716 176.725 187.007 178.837 189.21C180.949 191.412 182.121 194.353 182.104 197.408C182.104 197.517 182.1 197.623 182.097 197.729Z" fill="#FCC659"/>
<path d="M182.103 197.407C182.103 197.514 182.103 197.62 182.103 197.726C182.026 200.029 181.273 202.259 179.938 204.135C178.603 206.012 176.745 207.453 174.598 208.278C172.45 209.103 170.107 209.276 167.862 208.774C165.617 208.272 163.569 207.119 161.975 205.457C160.38 203.796 159.31 201.7 158.898 199.433C158.486 197.166 158.749 194.827 159.656 192.709C160.564 190.591 162.074 188.788 163.998 187.525C165.922 186.262 168.175 185.595 170.475 185.608H170.799C173.845 185.715 176.729 187.007 178.84 189.21C180.95 191.413 182.121 194.354 182.103 197.407Z" fill="#F49B51"/>
<path d="M174.227 207.504C174.227 207.504 173.877 203.466 168.065 203.193C163.56 202.99 162.079 200.515 158.36 200.164C154.771 199.828 151.104 201.621 151.104 201.621C149.936 202.072 148.718 202.377 147.476 202.53C145.329 202.723 143.173 202.285 141.271 201.27L141.332 213.736C141.332 213.736 150.804 212.921 152.782 213.384C154.759 213.848 164.002 217.871 167.808 217.289C171.615 216.707 185.45 211.406 185.45 211.406C185.45 211.406 184.607 209.076 180.945 209.588C177.284 210.1 174.028 211.276 172.924 211.336C172.21 211.359 171.499 211.239 170.832 210.985L162.064 207.316C166.378 207.777 170.478 207.895 174.227 207.504Z" fill="#FFC49C"/>
<path d="M125.096 207.295C125.096 210.504 125.226 213.587 125.468 216.459C125.468 216.48 125.468 216.502 125.468 216.523C126.396 227.544 128.936 235.453 131.929 235.453C135.025 235.453 137.637 226.998 138.484 215.393V215.281L138.635 201.785V201.676C138 188.819 135.237 179.146 131.929 179.146C128.709 179.146 126.012 188.301 125.277 200.637V200.694C125.165 202.809 125.096 205.02 125.096 207.295Z" fill="#034694"/>
<path d="M139.687 218.483C138.372 230.34 135.064 238.201 131.327 238.201C128.135 238.201 125.262 232.624 123.645 223.284L124.059 223.227C125.619 232.233 128.404 237.831 131.315 237.831C134.765 237.831 137.967 229.97 139.252 218.531L139.687 218.483Z" fill="#034694"/>
<path d="M122.541 213.387C122.426 211.406 122.369 209.355 122.369 207.295C122.369 204.896 122.451 202.467 122.614 200.073C122.613 200.062 122.613 200.051 122.614 200.04V200.01C122.82 196.887 123.2 193.778 123.751 190.698L124.162 190.755C123.616 193.825 123.238 196.923 123.031 200.034C123.031 200.034 123.031 200.052 123.031 200.067V200.095C122.871 202.482 122.786 204.902 122.786 207.295C122.786 209.349 122.844 211.394 122.958 213.354L122.541 213.387Z" fill="#034694"/>
<path d="M139.745 196.659H139.331C138.091 184.954 134.856 176.747 131.327 176.747C129.123 176.747 126.94 179.98 125.338 185.62L124.936 185.532C126.611 179.628 128.881 176.378 131.327 176.378C133.411 176.378 135.352 178.698 136.939 183.085C138.2 186.623 139.185 191.349 139.745 196.659Z" fill="#034694"/>
<path d="M180.268 154.966C181.321 155.507 182.161 156.388 182.651 157.468C183.14 156.387 183.979 155.503 185.033 154.96C183.979 154.421 183.138 153.538 182.651 152.458C182.162 153.539 181.322 154.424 180.268 154.966Z" fill="#FFE6A6"/>
<path d="M184.057 161.525C184.669 161.838 185.156 162.351 185.438 162.979C185.724 162.351 186.213 161.838 186.826 161.525C186.213 161.21 185.724 160.698 185.438 160.071C185.156 160.699 184.669 161.211 184.057 161.525Z" fill="#FFE6A6"/>
<path d="M141.284 203.854L141.329 213.736C141.329 213.736 142.889 213.602 144.872 213.475C144.77 211.194 144.38 205.453 142.977 202.76C142.626 202.088 142.024 202.6 141.284 203.854Z" fill="#FFA87D"/>
<path d="M172.7 211.503C172.041 211.499 171.387 211.375 170.771 211.136L167.195 209.643L167.313 209.364L170.886 210.858C171.534 211.099 172.221 211.214 172.912 211.197C173.719 211.079 174.516 210.902 175.298 210.667C177.148 210.158 179.026 209.753 180.921 209.455C184.661 208.919 185.58 211.342 185.589 211.342L185.305 211.445C185.272 211.355 184.45 209.237 180.964 209.737C179.079 210.035 177.212 210.439 175.373 210.949C174.573 211.19 173.755 211.369 172.927 211.485C172.852 211.503 172.776 211.503 172.7 211.503Z" fill="white"/>
<path d="M148.461 203.224L148.295 202.969C150.478 201.53 153.768 200.594 153.801 200.585L153.882 200.888C153.849 200.885 150.596 201.809 148.461 203.224Z" fill="white"/>
<path d="M143.24 212.881C143.133 213.821 142.995 214.766 142.826 215.717L139.854 216.02L138.925 216.114L138.405 216.168L125.731 217.477C125.731 217.453 125.731 217.432 125.731 217.407C125.471 213.899 125.335 210.137 125.335 206.22C125.335 203.596 125.398 201.043 125.516 198.586C125.516 198.443 125.531 198.301 125.537 198.162C125.537 198.141 125.537 198.119 125.537 198.098L138.538 199.31L138.995 199.352L139.993 199.443L142.801 199.701C143.612 204.047 143.76 208.491 143.24 212.881Z" fill="#488FE0"/>
<path d="M143.24 212.882C143.127 213.821 142.983 214.766 142.807 215.717L139.717 216.02L138.925 216.099L138.215 216.168L125.725 217.401H125.661L125.571 216.393C125.571 216.371 125.571 216.35 125.571 216.326C125.32 213.442 125.187 210.34 125.187 207.117C125.187 204.829 125.259 202.603 125.386 200.47C125.386 200.452 125.386 200.434 125.386 200.413C125.422 199.792 125.468 199.18 125.513 198.574C125.513 198.431 125.528 198.289 125.534 198.15L126.895 198.271C127.152 201.155 128.056 208.722 130.59 210.797C132.349 212.236 136.065 212.682 139.01 212.797C141.341 212.888 143.188 212.769 143.188 212.769L143.24 212.882Z" fill="#488FE0"/>
<path d="M209.037 235.388L205.354 250.053C205.346 250.093 205.352 250.134 205.372 250.168C205.382 250.185 205.395 250.199 205.411 250.211C205.426 250.222 205.444 250.231 205.463 250.235L209.856 251.341C209.876 251.345 209.898 251.346 209.918 251.342C209.939 251.339 209.959 251.331 209.977 251.32C209.994 251.307 210.009 251.292 210.02 251.273C210.031 251.255 210.038 251.235 210.04 251.214L212.247 236.176C212.252 236.139 212.244 236.101 212.223 236.07C212.203 236.039 212.172 236.016 212.136 236.006L209.221 235.285C209.183 235.276 209.143 235.281 209.108 235.3C209.074 235.319 209.048 235.351 209.037 235.388Z" fill="#5A77D1"/>
<path d="M208.607 235.222L208.166 235.112L208.804 232.571C209.176 231.08 208.154 229.541 206.527 229.126L205.856 228.957C205.083 228.757 204.264 228.855 203.561 229.232C203.232 229.403 202.943 229.64 202.713 229.93C202.482 230.22 202.314 230.555 202.222 230.914L201.587 233.455L201.145 233.346L201.783 230.805C201.89 230.385 202.085 229.992 202.354 229.652C202.622 229.312 202.96 229.033 203.343 228.833C204.148 228.406 205.084 228.297 205.965 228.53L206.636 228.699C208.507 229.169 209.677 230.962 209.242 232.692L208.607 235.222Z" fill="white"/>
<path d="M190.748 246.364C190.732 246.404 190.732 246.448 190.748 246.488C190.769 246.525 190.803 246.552 190.844 246.564L205.457 250.238C205.493 250.247 205.532 250.242 205.565 250.224C205.598 250.206 205.623 250.177 205.635 250.141L210.775 235.846C210.784 235.826 210.789 235.805 210.789 235.784C210.789 235.762 210.784 235.741 210.775 235.721C210.753 235.685 210.719 235.658 210.678 235.646L196.069 231.971C196.032 231.961 195.993 231.966 195.959 231.984C195.926 232.002 195.9 232.032 195.887 232.068L190.748 246.364Z" fill="#6D92F0"/>
<path d="M206.672 236.003L206.228 235.891L207.165 232.159C207.537 230.668 206.515 229.13 204.885 228.715L204.214 228.545C203.442 228.346 202.623 228.443 201.919 228.818C201.591 228.989 201.303 229.227 201.073 229.518C200.842 229.808 200.676 230.143 200.583 230.502L199.646 234.237L199.207 234.125L200.141 230.393C200.249 229.973 200.444 229.58 200.714 229.24C200.983 228.9 201.321 228.621 201.705 228.421C202.509 227.994 203.445 227.886 204.326 228.118L204.994 228.284C206.869 228.757 208.039 230.55 207.603 232.28L206.672 236.003Z" fill="white"/>
<path d="M226.213 216.312L218.503 240.868C218.492 240.906 218.497 240.947 218.515 240.982C218.534 241.017 218.565 241.044 218.603 241.056L224.508 242.919C224.549 242.931 224.594 242.925 224.631 242.904C224.649 242.893 224.664 242.879 224.676 242.863C224.688 242.846 224.696 242.827 224.701 242.807L230.446 217.639C230.455 217.602 230.449 217.563 230.43 217.53C230.411 217.497 230.38 217.473 230.343 217.463L226.412 216.215C226.375 216.202 226.335 216.202 226.297 216.215C226.259 216.236 226.228 216.271 226.213 216.312Z" fill="#7C94D1"/>
<path d="M225.049 215.955L224.671 215.837L225.72 212.504C226.021 211.537 225.927 210.49 225.46 209.591C224.992 208.693 224.189 208.016 223.226 207.709L222.415 207.454C221.449 207.151 220.403 207.244 219.505 207.712C218.608 208.181 217.932 208.987 217.626 209.953L216.577 213.286L216.205 213.171L217.254 209.838C217.595 208.774 218.34 207.888 219.329 207.372C220.319 206.856 221.471 206.751 222.536 207.082L223.347 207.336C224.408 207.677 225.293 208.424 225.808 209.415C226.323 210.406 226.428 211.561 226.098 212.628L225.049 215.955Z" fill="white"/>
<path d="M198.85 234.655C198.842 234.675 198.838 234.696 198.838 234.717C198.838 234.739 198.842 234.76 198.85 234.779C198.859 234.798 198.872 234.814 198.888 234.828C198.903 234.842 198.921 234.852 198.941 234.858L218.594 241.056C218.63 241.068 218.67 241.065 218.704 241.049C218.739 241.032 218.766 241.004 218.781 240.968L228.456 217.036C228.464 217.017 228.469 216.996 228.469 216.974C228.469 216.953 228.464 216.932 228.456 216.912C228.435 216.877 228.403 216.849 228.365 216.833L208.713 210.635C208.677 210.623 208.637 210.625 208.603 210.641C208.568 210.658 208.541 210.687 208.528 210.723L198.85 234.655Z" fill="#488FE0"/>
<path d="M222.585 216.897L222.21 216.779L223.764 211.874C224.066 210.906 223.974 209.858 223.506 208.959C223.039 208.059 222.234 207.382 221.269 207.076L220.438 206.809C219.472 206.505 218.425 206.598 217.527 207.067C216.629 207.536 215.953 208.344 215.649 209.311L214.11 214.216L213.735 214.098L215.274 209.19C215.614 208.126 216.36 207.24 217.349 206.724C218.338 206.207 219.491 206.103 220.556 206.433L221.366 206.688C222.428 207.029 223.313 207.776 223.828 208.767C224.343 209.758 224.447 210.913 224.118 211.98L222.585 216.897Z" fill="white"/>
<path d="M202.016 218.848L205.239 233.622C205.248 233.661 205.272 233.695 205.306 233.716C205.339 233.737 205.379 233.744 205.417 233.737L209.856 232.768C209.877 232.763 209.897 232.754 209.914 232.741C209.931 232.728 209.945 232.711 209.956 232.692C209.964 232.673 209.968 232.652 209.968 232.632C209.968 232.611 209.964 232.59 209.956 232.571L205.248 218.124C205.236 218.088 205.211 218.058 205.178 218.039C205.145 218.02 205.107 218.014 205.07 218.021L202.134 218.666C202.094 218.675 202.06 218.699 202.038 218.733C202.016 218.767 202.008 218.808 202.016 218.848Z" fill="#F49B51"/>
<path d="M194.073 220.532L193.529 217.972C193.439 217.552 193.439 217.118 193.528 216.698C193.617 216.278 193.794 215.881 194.046 215.534C194.568 214.796 195.349 214.282 196.232 214.095L196.909 213.946C197.79 213.747 198.714 213.886 199.497 214.337C199.87 214.548 200.195 214.835 200.451 215.179C200.707 215.524 200.888 215.918 200.982 216.336L201.544 218.896L201.16 218.981L200.598 216.421C200.512 216.055 200.35 215.71 200.122 215.411C199.893 215.112 199.604 214.865 199.274 214.685C198.577 214.283 197.754 214.159 196.97 214.337L196.292 214.486C195.505 214.653 194.81 215.11 194.342 215.767C194.123 216.069 193.969 216.414 193.891 216.779C193.813 217.144 193.812 217.522 193.889 217.888L194.448 220.447L194.073 220.532Z" fill="white"/>
<path d="M190.521 236.836C190.528 236.878 190.551 236.916 190.584 236.942C190.601 236.954 190.62 236.962 190.641 236.967C190.661 236.971 190.682 236.971 190.702 236.966L205.42 233.734C205.457 233.727 205.49 233.707 205.511 233.676C205.533 233.645 205.541 233.607 205.535 233.571L203.785 218.475C203.783 218.454 203.776 218.433 203.765 218.415C203.754 218.396 203.739 218.381 203.721 218.369C203.704 218.358 203.685 218.349 203.665 218.345C203.644 218.341 203.624 218.341 203.603 218.345L188.888 221.571C188.851 221.58 188.819 221.603 188.797 221.634C188.776 221.665 188.766 221.703 188.77 221.741L190.521 236.836Z" fill="#FCC659"/>
<path d="M192.686 222.095L191.863 218.336C191.774 217.916 191.774 217.482 191.863 217.062C191.952 216.641 192.128 216.245 192.38 215.897C192.903 215.159 193.685 214.645 194.569 214.458L195.243 214.31C196.125 214.109 197.051 214.248 197.835 214.701C198.208 214.911 198.533 215.197 198.789 215.541C199.044 215.885 199.225 216.279 199.319 216.697L200.141 220.46L199.758 220.541L198.935 216.782C198.853 216.416 198.694 216.072 198.47 215.772C198.246 215.472 197.962 215.223 197.635 215.04C196.942 214.639 196.125 214.513 195.343 214.686L194.669 214.834C193.882 214.999 193.185 215.456 192.719 216.112C192.5 216.415 192.346 216.759 192.267 217.124C192.189 217.49 192.187 217.867 192.262 218.233L193.085 221.992L192.686 222.095Z" fill="white"/>
<path d="M222.186 263.701H185.75V263.246H222.186C222.539 263.247 222.884 263.141 223.177 262.943C223.469 262.745 223.696 262.463 223.827 262.134C223.978 261.79 224.023 261.409 223.956 261.04C223.889 260.67 223.714 260.329 223.452 260.059L217.212 251.698L217.575 251.429L223.797 259.766C224.116 260.097 224.329 260.516 224.408 260.969C224.488 261.423 224.431 261.89 224.245 262.31C224.079 262.722 223.795 263.074 223.428 263.322C223.061 263.57 222.628 263.702 222.186 263.701Z" fill="white"/>
<path d="M193.054 272.362C194.853 272.362 196.311 270.901 196.311 269.099C196.311 267.297 194.853 265.836 193.054 265.836C191.256 265.836 189.798 267.297 189.798 269.099C189.798 270.901 191.256 272.362 193.054 272.362Z" fill="white"/>
<path d="M190.037 263.792L191.999 269.547C192.076 269.774 192.222 269.972 192.417 270.111C192.612 270.251 192.845 270.326 193.085 270.326C193.21 270.326 193.335 270.306 193.453 270.265C193.742 270.167 193.979 269.958 194.113 269.684C194.248 269.41 194.268 269.094 194.17 268.805L192.465 263.804L190.037 263.792Z" fill="white"/>
<path d="M192.277 269.166C192.278 269.319 192.324 269.47 192.41 269.597C192.496 269.725 192.617 269.824 192.759 269.883C192.901 269.941 193.057 269.956 193.208 269.926C193.358 269.895 193.496 269.821 193.605 269.712C193.713 269.603 193.787 269.464 193.817 269.313C193.846 269.162 193.831 269.006 193.772 268.864C193.713 268.722 193.613 268.6 193.486 268.515C193.358 268.43 193.208 268.384 193.054 268.384C192.952 268.384 192.851 268.404 192.756 268.444C192.662 268.483 192.576 268.541 192.504 268.613C192.432 268.686 192.375 268.772 192.336 268.867C192.297 268.962 192.277 269.063 192.277 269.166Z" fill="#488FE0"/>
<path d="M216.943 272.362C218.741 272.362 220.199 270.901 220.199 269.099C220.199 267.297 218.741 265.836 216.943 265.836C215.144 265.836 213.687 267.297 213.687 269.099C213.687 270.901 215.144 272.362 216.943 272.362Z" fill="white"/>
<path d="M213.928 263.792L215.891 269.547C215.967 269.775 216.113 269.972 216.308 270.112C216.503 270.252 216.736 270.326 216.976 270.326C217.101 270.326 217.226 270.306 217.345 270.265C217.633 270.166 217.869 269.957 218.004 269.683C218.138 269.41 218.159 269.094 218.061 268.805L216.353 263.804L213.928 263.792Z" fill="white"/>
<path d="M216.166 269.166C216.166 269.319 216.213 269.47 216.298 269.597C216.384 269.725 216.506 269.824 216.648 269.883C216.79 269.941 216.946 269.956 217.096 269.926C217.247 269.895 217.385 269.821 217.493 269.712C217.602 269.603 217.675 269.464 217.705 269.313C217.735 269.162 217.719 269.006 217.66 268.864C217.602 268.722 217.502 268.6 217.374 268.515C217.247 268.43 217.096 268.384 216.943 268.384C216.841 268.384 216.739 268.404 216.645 268.444C216.55 268.483 216.465 268.541 216.392 268.613C216.32 268.686 216.263 268.772 216.224 268.867C216.185 268.962 216.166 269.063 216.166 269.166Z" fill="#488FE0"/>
<path d="M230.881 227.282L230.458 227.118L236.42 211.886L242.488 211.332L242.53 211.783L236.741 212.314L230.881 227.282Z" fill="white"/>
<path d="M218.651 251.768H218.509L186.741 250.623C184.507 250.541 182.675 248.63 182.475 246.173L180.945 227.221L181.169 227.203L232.568 222.783L222.748 248.766C222.052 250.577 220.438 251.768 218.651 251.768ZM181.435 227.633L182.932 246.133C183.11 248.36 184.746 250.093 186.76 250.165L218.527 251.311C220.166 251.377 221.684 250.281 222.319 248.602L231.885 223.295L181.435 227.633Z" fill="white"/>
<path d="M220.251 242.045L182.701 243.266L182.715 243.721L220.265 242.499L220.251 242.045Z" fill="white"/>
<path d="M225.651 232.519L182.275 235.124L182.302 235.577L225.678 232.973L225.651 232.519Z" fill="white"/>
<path d="M222.027 223.895L213.013 250.965L213.444 251.109L222.457 224.039L222.027 223.895Z" fill="white"/>
<path d="M190.071 226.701L189.619 226.733L191.284 250.418L191.737 250.386L190.071 226.701Z" fill="white"/>
<path d="M211.031 224.831L205.758 250.821L206.202 250.912L211.475 224.921L211.031 224.831Z" fill="white"/>
<path d="M200.188 225.645L198.675 250.862L199.128 250.889L200.641 225.672L200.188 225.645Z" fill="white"/>
<path d="M121.933 269.81C121.933 270.649 128.077 271.324 135.651 271.324C143.225 271.324 149.368 270.643 149.368 269.81C149.37 269.794 149.37 269.779 149.368 269.764V265.662H121.942V269.761C121.937 269.777 121.934 269.793 121.933 269.81Z" fill="#F49B51"/>
<path d="M121.933 265.699C121.933 266.538 128.077 267.213 135.651 267.213C143.225 267.213 149.368 266.532 149.368 265.699C149.368 264.865 143.228 264.184 135.651 264.184C128.074 264.184 121.933 264.859 121.933 265.699Z" fill="#FCC659"/>
<path d="M118.692 264.859C118.692 265.695 124.836 266.374 132.41 266.374C139.984 266.374 146.127 265.689 146.127 264.859C146.129 264.844 146.129 264.829 146.127 264.814V260.721H118.701V264.82C118.697 264.833 118.694 264.846 118.692 264.859Z" fill="#F49B51"/>
<path d="M132.41 262.263C139.986 262.263 146.127 261.582 146.127 260.742C146.127 259.903 139.986 259.222 132.41 259.222C124.834 259.222 118.692 259.903 118.692 260.742C118.692 261.582 124.834 262.263 132.41 262.263Z" fill="#FCC659"/>
<path d="M121.933 259.903C121.933 260.739 128.077 261.418 135.651 261.418C143.225 261.418 149.368 260.736 149.368 259.903C149.37 259.888 149.37 259.873 149.368 259.858V255.747H121.942V259.846C121.936 259.864 121.933 259.884 121.933 259.903Z" fill="#F49B51"/>
<path d="M135.651 257.307C143.227 257.307 149.368 256.626 149.368 255.786C149.368 254.946 143.227 254.266 135.651 254.266C128.075 254.266 121.933 254.946 121.933 255.786C121.933 256.626 128.075 257.307 135.651 257.307Z" fill="#FCC659"/>
<path d="M117.072 254.944C117.072 255.783 123.215 256.459 130.789 256.459C138.363 256.459 144.507 255.777 144.507 254.944C144.508 254.929 144.508 254.914 144.507 254.899V250.791H117.081V254.89C117.075 254.907 117.072 254.926 117.072 254.944Z" fill="#F49B51"/>
<path d="M130.789 252.351C138.365 252.351 144.507 251.67 144.507 250.83C144.507 249.99 138.365 249.31 130.789 249.31C123.213 249.31 117.072 249.99 117.072 250.83C117.072 251.67 123.213 252.351 130.789 252.351Z" fill="#FCC659"/>
<path d="M119.617 250.83C119.617 251.394 124.618 251.851 130.804 251.851C136.99 251.851 141.991 251.394 141.991 250.83C141.991 250.267 136.987 249.806 130.804 249.806C124.621 249.806 119.617 250.264 119.617 250.83Z" fill="#F49B51"/>
<path d="M99.2725 245.447C96.533 245.373 93.833 246.114 91.5139 247.577C89.1947 249.04 87.3607 251.159 86.2436 253.667C85.1265 256.174 84.7766 258.957 85.238 261.664C85.6995 264.37 86.9516 266.879 88.8361 268.873C90.7206 270.866 93.1528 272.255 95.8251 272.864C98.4974 273.473 101.29 273.274 103.849 272.292C106.409 271.311 108.62 269.591 110.204 267.35C111.788 265.109 112.674 262.448 112.748 259.703C112.847 256.023 111.483 252.453 108.956 249.78C106.429 247.106 102.946 245.548 99.2725 245.447ZM110.045 259.631C109.985 261.826 109.28 263.956 108.019 265.752C106.758 267.549 104.996 268.933 102.954 269.732C100.912 270.531 98.6806 270.709 96.5381 270.244C94.3956 269.779 92.4374 268.691 90.9084 267.117C89.3794 265.543 88.3473 263.553 87.9412 261.394C87.5351 259.236 87.7731 257.005 88.6253 254.982C89.4775 252.958 90.9061 251.231 92.7326 250.016C94.5591 248.802 96.7024 248.153 98.8946 248.152H99.1969C102.1 248.234 104.857 249.445 106.882 251.53C108.908 253.615 110.042 256.409 110.045 259.319C110.048 259.428 110.048 259.528 110.045 259.631Z" fill="#FCC659"/>
<path d="M110.051 259.325C110.051 259.428 110.051 259.528 110.051 259.628C109.992 261.824 109.289 263.954 108.028 265.752C106.767 267.55 105.006 268.936 102.963 269.736C100.921 270.536 98.6885 270.715 96.5451 270.251C94.4016 269.787 92.4424 268.699 90.9122 267.126C89.382 265.552 88.3488 263.561 87.9418 261.402C87.5348 259.243 87.7721 257.011 88.6239 254.987C89.4757 252.962 90.9043 251.234 92.731 250.018C94.5578 248.803 96.7017 248.154 98.8946 248.152H99.1969C102.102 248.233 104.86 249.445 106.887 251.531C108.914 253.617 110.049 256.413 110.051 259.325Z" fill="#F49B51"/>
<path d="M140.422 156.632H125.305C125.238 156.625 125.176 156.593 125.131 156.543C125.086 156.493 125.061 156.428 125.061 156.361C125.061 156.294 125.086 156.229 125.131 156.179C125.176 156.129 125.238 156.097 125.305 156.09H140.422C140.489 156.097 140.551 156.129 140.596 156.179C140.641 156.229 140.665 156.294 140.665 156.361C140.665 156.428 140.641 156.493 140.596 156.543C140.551 156.593 140.489 156.625 140.422 156.632Z" fill="white"/>
<path d="M90.6104 251.467C91.6642 252.007 92.5041 252.889 92.9928 253.969C93.4822 252.888 94.3218 252.004 95.3753 251.461C94.3228 250.919 93.4834 250.037 92.9928 248.958C92.5026 250.039 91.6633 250.923 90.6104 251.467Z" fill="#FFE6A6"/>
<path d="M104.279 266.329C104.892 266.643 105.38 267.155 105.664 267.783C105.949 267.152 106.441 266.637 107.058 266.326C106.446 266.012 105.957 265.499 105.673 264.872C105.386 265.501 104.895 266.015 104.279 266.329Z" fill="#FFE6A6"/>
<path d="M89.6641 263.751C90.2765 264.065 90.7646 264.577 91.0488 265.205C91.3312 264.575 91.8198 264.061 92.4336 263.748C91.8211 263.434 91.333 262.921 91.0488 262.294C90.764 262.922 90.2761 263.435 89.6641 263.751Z" fill="#FFE6A6"/>
<defs>
<linearGradient id="paint0_linear_689_1163" x1="156" y1="-147" x2="156" y2="586.114" gradientUnits="userSpaceOnUse">
<stop stop-color="#003D86"/>
<stop offset="0.54085" stop-color="#1D4BC1" stop-opacity="0"/>
</linearGradient>
<linearGradient id="paint1_linear_689_1163" x1="156" y1="-134" x2="157.605" y2="518.83" gradientUnits="userSpaceOnUse">
<stop offset="0.0836398" stop-color="#1D68C1"/>
<stop offset="0.572985" stop-color="#003D86" stop-opacity="0"/>
</linearGradient>
</defs>
</svg>
