<svg width="14" height="16" viewBox="0 0 14 16" fill="none" xmlns="http://www.w3.org/2000/svg">
<path d="M8.3005 15.362C10.2614 13.6362 13.75 10.1105 13.75 6.875C13.75 5.08479 13.0388 3.3679 11.773 2.10203C10.5071 0.836158 8.79021 0.125 7 0.125C5.20979 0.125 3.4929 0.836158 2.22703 2.10203C0.961159 3.3679 0.25 5.08479 0.25 6.875C0.25 10.1105 3.7375 13.6362 5.6995 15.362C6.05738 15.6814 6.5203 15.858 7 15.858C7.4797 15.858 7.94262 15.6814 8.3005 15.362ZM4.75 6.875C4.75 6.27826 4.98705 5.70597 5.40901 5.28401C5.83097 4.86205 6.40326 4.625 7 4.625C7.59674 4.625 8.16903 4.86205 8.59099 5.28401C9.01295 5.70597 9.25 6.27826 9.25 6.875C9.25 7.47174 9.01295 8.04403 8.59099 8.46599C8.16903 8.88795 7.59674 9.125 7 9.125C6.40326 9.125 5.83097 8.88795 5.40901 8.46599C4.98705 8.04403 4.75 7.47174 4.75 6.875Z" fill="#BDBDBD"/>
</svg>
